<?xml version="1.0" encoding="iso-8859-1"?>
<!-- Generator: Adobe Illustrator 19.0.0, SVG Export Plug-In . SVG Version: 6.00 Build 0)  -->
<svg version="1.1" id="Capa_1" xmlns="http://www.w3.org/2000/svg" xmlns:xlink="http://www.w3.org/1999/xlink" x="0px" y="0px"
	 viewBox="0 0 512 512" style="enable-background:new 0 0 512 512;" xml:space="preserve">
<path style="fill:#E95454;" d="M256.08,0C150.64,0,65.2,85.44,65.2,190.72C65.2,296.16,256.08,512,256.08,512
	S446.8,296.16,446.8,190.72C446.8,85.44,361.52,0,256.08,0z M256.08,299.68c-60.16,0-108.96-48.8-108.96-108.96
	s48.8-108.96,108.96-108.96s108.96,48.8,108.96,108.96C365.04,250.88,316.24,299.68,256.08,299.68z"/>
<path style="fill:#CD494C;" d="M147.12,190.72c0-60.128,48.752-108.912,108.88-108.96V0C150.592,0.048,65.2,85.472,65.2,190.72
	c0,104.96,189.088,319.264,190.8,321.184V299.68C195.872,299.632,147.12,250.848,147.12,190.72z"/>
<path style="fill:#CACACA;" d="M256.08,60c-72.16,0-130.72,58.56-130.72,130.72s58.56,130.72,130.72,130.72
	S386.8,262.88,386.8,190.72S328.24,60,256.08,60z M256.08,299.68c-60.16,0-108.96-48.8-108.96-108.96s48.8-108.96,108.96-108.96
	s108.96,48.8,108.96,108.96C365.04,250.88,316.24,299.68,256.08,299.68z"/>
<circle style="fill:#FFFFFF;" cx="256" cy="190.72" r="108.96"/>
<circle style="fill:#4B9FD8;" cx="256" cy="190.72" r="76.32"/>
<circle style="fill:#464646;" cx="256" cy="190.72" r="45.472"/>
<circle style="fill:#FFFFFF;" cx="230.352" cy="164.992" r="19.76"/>
<g>
	<path style="fill:#ED6362;" d="M372.768,299.616c-7.04-5.36-8.384-15.392-3.04-22.416c19.072-25.04,29.152-54.96,29.152-86.48
		c0-8.848,7.168-16,16-16c8.832,0,16,7.152,16,16c0,38.592-12.336,75.2-35.696,105.856
		C389.84,303.616,379.792,304.96,372.768,299.616z"/>
	<path style="fill:#ED6362;" d="M383.648,126.464C359.168,77.968,310.256,47.84,256,47.84c-36.56,0-71.344,13.808-97.936,38.88
		c-6.448,6.08-16.56,5.76-22.624-0.672c-6.064-6.416-5.76-16.544,0.672-22.608c32.56-30.688,75.136-47.6,119.888-47.6
		c66.4,0,126.272,36.864,156.224,96.224c3.984,7.872,0.816,17.504-7.072,21.488C397.344,137.504,387.664,134.416,383.648,126.464z"
		/>
</g>
<g>
</g>
<g>
</g>
<g>
</g>
<g>
</g>
<g>
</g>
<g>
</g>
<g>
</g>
<g>
</g>
<g>
</g>
<g>
</g>
<g>
</g>
<g>
</g>
<g>
</g>
<g>
</g>
<g>
</g>
</svg>
