<?xml version="1.0" encoding="iso-8859-1"?>
<!-- Generator: Adobe Illustrator 19.0.0, SVG Export Plug-In . SVG Version: 6.00 Build 0)  -->
<svg version="1.1" id="Capa_1" xmlns="http://www.w3.org/2000/svg" xmlns:xlink="http://www.w3.org/1999/xlink" x="0px" y="0px"
	 viewBox="0 0 512 512" style="enable-background:new 0 0 512 512;" xml:space="preserve">
<path style="fill:#FED9A8;" d="M125.569,385.417c-3.383-3.383-4.01-8.793-1.236-12.907l131.929-195.596
	c3.149-4.668,9.488-5.901,14.157-2.751c4.67,3.153,5.899,9.49,2.751,14.157L141.243,383.915c-3.149,4.668-9.488,5.901-14.157,2.751
	C126.532,386.293,126.025,385.872,125.569,385.417z"/>
<path style="fill:#F4C892;" d="M125.585,385.433c-0.45-0.45-0.863-0.946-1.233-1.492c-3.164-4.659-1.953-11.001,2.708-14.165
	l194.104-131.818c4.66-3.165,11.005-1.967,14.165,2.708c3.164,4.659,1.953,11.001-2.708,14.165L138.517,386.648
	C134.403,389.443,128.977,388.824,125.585,385.433z"/>
<path style="fill:#FED9A8;" d="M125.57,385.417c-1.375-1.375-2.372-3.157-2.781-5.205c-1.104-5.523,2.477-10.895,8-12l209.647-41.92
	c5.524-1.105,10.896,2.478,12,8c1.104,5.523-2.477,10.895-8,12l-209.647,41.92C131.315,388.907,127.901,387.748,125.57,385.417z"/>
<g>
	<path style="fill:#F4C892;" d="M125.583,385.431c-2.283-2.283-3.446-5.607-2.832-9.025c0.998-5.543,6.3-9.228,11.844-8.231
		l188.356,33.899c5.544,1,9.226,6.3,8.231,11.844c-0.998,5.543-6.3,9.228-11.844,8.231L130.982,388.25
		C128.857,387.866,127.003,386.85,125.583,385.431z"/>
	<path style="fill:#F4C892;" d="M125.568,385.416c-2.33-2.33-3.489-5.744-2.794-9.219l41.92-209.647c1.104-5.523,6.477-9.104,12-8
		c5.522,1.105,9.105,6.478,8,12l-41.92,209.647c-1.104,5.523-6.477,9.104-12,8C128.725,387.787,126.943,386.79,125.568,385.416z"/>
</g>
<path style="fill:#FED9A8;" d="M125.555,385.402c-1.42-1.42-2.436-3.273-2.819-5.399L88.838,191.647
	c-0.997-5.544,2.688-10.846,8.231-11.844c5.542-0.999,10.845,2.685,11.844,8.231l33.899,188.356
	c0.997,5.544-2.688,10.846-8.231,11.844C131.164,388.849,127.838,387.685,125.555,385.402z"/>
<path style="fill:#A7AEEE;" d="M287.401,314.65l162.25-67.206c19.968-8.271,28.336-32.036,17.985-51.009
	c-5.087-9.323-10.552-18.411-16.375-27.241c-6.797-10.307-14.083-20.264-21.824-29.837c-13.569-16.78-38.696-18.098-53.955-2.839
	L251.294,260.706c-3.241,3.241-3.427,8.47-0.357,11.872c4.702,5.21,9.062,10.735,13.046,16.538
	c4.637,6.755,8.763,13.888,12.322,21.34C278.277,314.585,283.175,316.4,287.401,314.65z"/>
<path style="fill:#8C99E5;" d="M287.401,314.65l162.25-67.206c19.968-8.271,28.336-32.036,17.985-51.009
	c-5.087-9.323-10.552-18.411-16.375-27.241L263.983,289.117c4.637,6.755,8.763,13.888,12.322,21.34
	C278.277,314.585,283.175,316.4,287.401,314.65z"/>
<path style="fill:#A7AEEE;" d="M511.795,338.078c-2.44-23.153-6.96-45.686-13.367-67.41c-6.1-20.685-28.827-31.487-48.751-23.234
	l-162.259,67.21c-4.239,1.756-6.407,6.522-4.867,10.844c5.02,14.097,8.094,29.108,8.89,44.712c0.233,4.571,4.072,8.127,8.649,8.127
	h175.57C497.275,378.325,514.06,359.573,511.795,338.078z"/>
<path style="fill:#8C99E5;" d="M511.795,338.078c-1.309-12.421-3.217-24.663-5.693-36.697L288.538,347.07
	c1.519,7.531,2.501,15.255,2.903,23.129c0.233,4.571,4.072,8.127,8.649,8.127h175.57
	C497.275,378.325,514.06,359.573,511.795,338.078z"/>
<path style="fill:#A7AEEE;" d="M251.294,260.706l124.187-124.187c15.259-15.259,13.941-40.386-2.839-53.955
	c-9.341-7.554-19.047-14.673-29.087-21.329c-9.065-6.009-18.402-11.64-27.99-16.87c-18.973-10.351-42.738-1.983-51.009,17.985
	L197.35,224.6c-1.75,4.226,0.065,9.125,4.193,11.096c6.805,3.25,13.343,6.972,19.57,11.125c6.452,4.302,12.57,9.065,18.308,14.243
	C242.824,264.134,248.053,263.947,251.294,260.706z"/>
<path style="fill:#8C99E5;" d="M251.294,260.706l124.187-124.187c15.259-15.259,13.941-40.386-2.839-53.955
	c-9.341-7.554-19.047-14.673-29.087-21.329L221.113,246.82c6.452,4.302,12.57,9.065,18.308,14.243
	C242.824,264.134,248.053,263.947,251.294,260.706z"/>
<path style="fill:#A7AEEE;" d="M511.795,418.574c2.265-21.495-14.52-40.248-36.134-40.248h-175.57c-4.577,0-8.416,3.556-8.649,8.127
	c-0.796,15.603-3.87,30.614-8.89,44.711c-1.539,4.323,0.628,9.088,4.867,10.844l162.259,67.21
	c19.924,8.253,42.651-2.55,48.751-23.234C504.835,464.259,509.355,441.727,511.795,418.574z"/>
<path style="fill:#8C99E5;" d="M289.155,406.353c-1.535,8.525-3.756,16.815-6.603,24.811c-1.539,4.323,0.628,9.088,4.867,10.844
	l162.259,67.21c19.924,8.253,42.651-2.55,48.751-23.234c3.471-11.769,6.388-23.775,8.72-35.989L289.155,406.353z"/>
<path style="fill:#A7AEEE;" d="M93.431,0.205c-23.155,2.44-45.689,6.96-67.415,13.367C5.332,19.672-5.471,42.399,2.782,62.323
	l67.209,162.258c1.756,4.239,6.522,6.407,10.844,4.867c14.097-5.02,29.108-8.094,44.711-8.89c4.571-0.233,8.127-4.072,8.127-8.649
	V36.335C133.674,14.723,114.924-2.06,93.431,0.205z"/>
<path style="fill:#8C99E5;" d="M93.431,0.205c-10.7,1.128-21.268,2.699-31.685,4.696l41.844,218.328
	c7.16-1.388,14.491-2.29,21.957-2.671c4.571-0.233,8.127-4.072,8.127-8.649V36.335C133.674,14.723,114.924-2.06,93.431,0.205z"/>
<path style="fill:#A7AEEE;" d="M241.333,13.572c-10.857-3.202-21.917-5.933-33.155-8.168c-11.248-2.237-22.674-3.978-34.255-5.199
	c-21.495-2.265-40.248,14.52-40.248,36.134v175.569c0,4.577,3.556,8.416,8.127,8.649c7.467,0.381,14.798,1.284,21.959,2.672
	c7.803,1.512,15.402,3.601,22.753,6.219c4.323,1.539,9.088-0.628,10.844-4.867l67.21-162.258
	C272.82,42.399,262.018,19.672,241.333,13.572z"/>
<path style="fill:#8C99E5;" d="M241.333,13.572c-10.857-3.202-21.917-5.933-33.155-8.168L163.76,223.23
	c7.803,1.512,15.402,3.601,22.753,6.219c4.323,1.539,9.088-0.628,10.844-4.867l67.21-162.258
	C272.82,42.399,262.018,19.672,241.333,13.572z"/>
<circle style="fill:#F4B882;" cx="133" cy="379.39" r="37.969"/>
<path style="fill:#DDA064;" d="M133.004,417.357c20.969,0,37.969-16.999,37.969-37.969H95.036
	C95.036,400.358,112.035,417.357,133.004,417.357z"/>
<g>
</g>
<g>
</g>
<g>
</g>
<g>
</g>
<g>
</g>
<g>
</g>
<g>
</g>
<g>
</g>
<g>
</g>
<g>
</g>
<g>
</g>
<g>
</g>
<g>
</g>
<g>
</g>
<g>
</g>
</svg>
