<?xml version="1.0" encoding="iso-8859-1"?>
<!-- Generator: Adobe Illustrator 19.0.0, SVG Export Plug-In . SVG Version: 6.00 Build 0)  -->
<svg version="1.1" id="Capa_1" xmlns="http://www.w3.org/2000/svg" xmlns:xlink="http://www.w3.org/1999/xlink" x="0px" y="0px"
	 viewBox="0 0 512 512" style="enable-background:new 0 0 512 512;" xml:space="preserve">
<path style="fill:#F7ADB3;" d="M58.099,384.091c0,70.642,17.643,127.908,57.34,127.908c41.698,0,57.34-57.267,57.34-127.908
	c0-144.289-25.672-151.164-57.34-151.164S58.099,239.803,58.099,384.091z"/>
<path style="fill:#ED999B;" d="M172.78,384.091c0-144.289-25.672-151.165-57.34-151.165V512
	C157.138,512,172.78,454.733,172.78,384.091z"/>
<path style="fill:#FED9A8;" d="M305.668,143.177c-9.874,0.126-31.228-5.064-45.285-41.612C253.745,84.308,231.114,40.957,209.073,0
	H69.13c41.648,55.15,166.054,219.925,179.974,238.801c16.751,22.715,99.652,69.671,99.652,69.671S315.542,143.051,305.668,143.177z"
	/>
<path style="fill:#F4C892;" d="M256.113,144.893c9.933,11.372,33.493,17.18,59.257,20.022c-3.999-13.219-7.455-21.767-9.702-21.738
	c-9.874,0.126-31.228-5.064-45.285-41.612C253.745,84.308,231.114,40.957,209.073,0h-60.929
	C202.12,101.834,210.048,92.159,256.113,144.893z"/>
<path style="fill:#FED9A8;" d="M150.321,181.202C150.963,177.405,172.306,62.225,181.926,0H66.658
	c3.967,50.413,20.572,119.11-0.806,237.204c-2.996,16.552-2.516,54.841-2.516,82.501c0,57.798,0,104.653,46.915,104.653
	s46.915-46.855,46.915-104.653C157.166,275.434,145.109,212.077,150.321,181.202z"/>
<path style="fill:#F4C892;" d="M150.321,181.202C150.963,177.405,172.306,62.225,181.926,0h-53.401
	c-9.621,62.225-3.2,177.405-3.841,181.202c-5.213,30.874,14.879,113.338,14.879,157.609c0,43.959-20.719,70.517-51.275,80.724
	c5.845,3.131,13.057,4.823,21.962,4.823c46.915,0,46.915-46.855,46.915-104.653C157.166,275.434,145.109,212.077,150.321,181.202z"
	/>
<g>
	<path style="fill:#E2818D;" d="M63.446,342c15.338-5.275,30.613-14.072,45.308-26.055c13.586,10.293,29.679,18.881,48.34,23.266
		c0.06-5.315,0.071-10.771,0.072-16.337c-13.691-3.776-25.79-10.238-36.195-17.755c4.874-4.674,9.665-9.701,14.35-15.074
		c7.567-8.677,13.762-16.961,18.467-23.766c-1.342-14.086-2.783-28.185-3.728-41.254c-32.481,8.448-68.778,2.669-82.111-0.009
		c-0.656,4.005-1.352,8.063-2.099,12.188c-1.204,6.653-1.846,16.822-2.184,28.397c7.336,11.645,18.213,26.459,32.753,39.964
		c-9.929,7.843-21.018,14.776-33.083,19.597C63.342,330.91,63.363,336.533,63.446,342z M91.628,277.206
		c-12.637-15.359-20.525-29.964-23.542-35.996c9.542,1.792,25.462,4.128,43.655,4.128c12.453,0,25.969-1.104,39.216-4.221
		c-0.149,0.219-0.289,0.447-0.418,0.684c-0.244,0.447-15.756,28.511-41.968,53.242C101.969,289.06,96.308,282.894,91.628,277.206z"
		/>
	<path style="fill:#E2818D;" d="M220.752,200.994c3.477,4.62,6.72,8.932,9.697,12.892c19.831-21.089,37.952-66.002,45.305-85.749
		c-3.73-4.197-7.4-9.522-10.808-16.256c-0.303,0.494-0.561,1.024-0.756,1.596c-0.06,0.175-6.056,17.735-15.034,37.965
		C239.104,174.097,229.377,191.034,220.752,200.994z"/>
	<path style="fill:#E2818D;" d="M318.406,193.662c1.741-4.006-0.094-8.659-4.097-10.408c-4.003-1.752-8.67,0.08-10.426,4.079
		c-0.176,0.398-17.705,39.309-56.352,49.345c0.621,0.836,1.15,1.549,1.573,2.122c2.338,3.17,5.966,6.813,10.476,10.734
		C300.073,234.863,317.622,195.464,318.406,193.662z"/>
</g>
<path style="fill:#F7ADB3;" d="M306.716,139.064l43.158-0.491c7.285-0.083,12.959,6.236,12.157,13.477
	c-2.356,21.269,0.116,59.99,20.511,91.089c21.996,33.541,49.885,62.665,65.881,82.611c9.272,11.561,6.445,28.621-6,36.668l0,0
	c-8.769,5.671-20.135,5.312-28.529-0.901l-88.702-64.438c-2.417-1.756-4.192-4.249-5.049-7.111
	c-4.938-16.488-21.27-76.711-19.055-145.415C301.187,141.508,303.669,139.079,306.716,139.064z"/>
<path style="fill:#ED999B;" d="M382.542,243.139c-20.395-31.099-22.866-69.82-20.51-91.089c0.802-7.241-4.872-13.56-12.157-13.477
	l-43.158,0.491c-3.047,0.015-5.53,2.444-5.628,5.49c-0.2,6.208-0.247,12.345-0.166,18.388c0.019-0.005,36.403-10.005,40.626,19.647
	c4.156,29.176,15.979,104.426,110.36,168.532c3.438-8.145,2.504-17.904-3.485-25.372
	C432.427,305.804,404.538,276.68,382.542,243.139z"/>
<g>
</g>
<g>
</g>
<g>
</g>
<g>
</g>
<g>
</g>
<g>
</g>
<g>
</g>
<g>
</g>
<g>
</g>
<g>
</g>
<g>
</g>
<g>
</g>
<g>
</g>
<g>
</g>
<g>
</g>
</svg>
