<?xml version="1.0" encoding="iso-8859-1"?>
<!-- Generator: Adobe Illustrator 19.0.0, SVG Export Plug-In . SVG Version: 6.00 Build 0)  -->
<svg version="1.1" id="Capa_1" xmlns="http://www.w3.org/2000/svg" xmlns:xlink="http://www.w3.org/1999/xlink" x="0px" y="0px"
	 viewBox="0 0 512.012 512.012" style="enable-background:new 0 0 512.012 512.012;" xml:space="preserve">
<path style="fill:#8BD5EC;" d="M480.006,512.012h-448c-17.68,0-32-14.32-32-32V197.516c0-17.68,14.32-32,32-32h448
	c17.664,0,32,14.32,32,32v282.496C512.006,497.692,497.67,512.012,480.006,512.012z"/>
<path style="fill:#50A9DF;" d="M480.006,165.516h-127.44c-12.912,0-24.928,8.816-26.96,21.584
	c-2.576,16.144,9.824,30.08,25.488,30.08h34.272c12.592,0,22.784,10.304,22.656,22.896v0.544c0,0.496,0.016,0.992,0.048,1.472
	c0.672,12.08-8.88,21.968-20.976,21.968h-18.448c-12.912,0-24.928,8.816-26.96,21.584c-2.576,16.144,9.824,30.08,25.488,30.08
	h35.312c12.08,0,21.552,10.144,20.96,22.224c-0.016,0.4-0.032,0.816-0.032,1.216c0,0.336,0,0.672,0.016,1.008
	c0.496,12.16-8.784,22.432-20.944,22.432H319.91c-12.912,0-24.928,8.816-26.96,21.584c-2.576,16.144,9.824,30.08,25.488,30.08
	h30.576c12.304,0,22.32,10.064,22.256,22.352v0.288c0,0.496,0.016,0.992,0.048,1.472c0.672,12.08-8.88,21.968-20.976,21.968h-11.616
	c-12.912,0-24.928,8.816-26.96,21.584c-2.592,16.144,9.808,30.08,25.472,30.08h142.768c17.664,0,32-14.32,32-32V197.516
	C512.006,179.836,497.67,165.516,480.006,165.516z"/>
<path style="fill:#FEE218;" d="M130.758,213.516H64.006c-8.832,0-16,7.168-16,16v66.752c0,8.832,7.168,16,16,16h66.752
	c8.832,0,16-7.168,16-16v-66.752C146.758,220.684,139.606,213.516,130.758,213.516z"/>
<path style="fill:#FFFFFF;" d="M225.398,386.012H62.79c-8.832,0-16-7.152-16-16s7.168-16,16-16h162.624c8.832,0,16,7.152,16,16
	C241.398,378.844,234.246,386.012,225.398,386.012z"/>
<path style="fill:#DAEFF6;" d="M112.502,469.404H62.79c-8.832,0-16-7.152-16-16s7.168-16,16-16h49.712c8.832,0,16,7.152,16,16
	C128.502,462.236,121.334,469.404,112.502,469.404z"/>
<path style="fill:#8BD5EC;" d="M226.63,469.404h-49.712c-8.832,0-16-7.152-16-16s7.168-16,16-16h49.712c8.832,0,16,7.152,16,16
	C242.63,462.236,235.462,469.404,226.63,469.404z"/>
<path style="fill:#DAEFF6;" d="M340.742,469.404h-49.696c-8.832,0-16-7.152-16-16s7.168-16,16-16h49.712c8.832,0,16,7.152,16,16
	C356.742,462.236,349.59,469.404,340.742,469.404z"/>
<path style="fill:#8BD5EC;" d="M454.886,469.404h-49.712c-8.832,0-16-7.152-16-16s7.168-16,16-16h49.712c8.832,0,16,7.152,16,16
	C470.886,462.236,463.718,469.404,454.886,469.404z"/>
<circle style="fill:#EFCE26;" cx="97.382" cy="262.908" r="31.12"/>
<path style="fill:#9EDBEE;" d="M480.006,165.516h-127.44c-12.912,0-24.928,8.816-26.96,21.584
	c-2.576,16.144,9.824,30.08,25.488,30.08h34.272c12.592,0,22.784,10.304,22.656,22.896v0.544c0,0.496,0.016,0.992,0.048,1.472
	c0.672,12.08-8.88,21.968-20.976,21.968h-18.448c-12.912,0-24.928,8.816-26.96,21.584c-2.576,16.144,9.824,30.08,25.488,30.08
	h35.312c12.08,0,21.552,10.144,20.96,22.224c-0.016,0.4-0.032,0.816-0.032,1.216c0,0.336,0,0.672,0.016,1.008
	c0.496,12.16-8.784,22.432-20.944,22.432H319.91c-12.912,0-24.928,8.816-26.96,21.584c-2.576,16.144,9.824,30.08,25.488,30.08
	h30.576c12.304,0,22.32,10.064,22.256,22.352v0.288c0,0.496,0.016,0.992,0.048,1.472c0.672,12.08-8.88,21.968-20.976,21.968h-11.616
	c-12.912,0-24.928,8.816-26.96,21.584c-2.592,16.144,9.808,30.08,25.472,30.08h142.768c17.664,0,32-14.32,32-32V197.516
	C512.006,179.836,497.67,165.516,480.006,165.516z"/>
<path style="fill:#EC9922;" d="M130.758,213.516H64.006c-8.832,0-16,7.168-16,16v66.752c0,8.832,7.168,16,16,16h66.752
	c8.832,0,16-7.168,16-16v-66.752C146.758,220.684,139.606,213.516,130.758,213.516z"/>
<path style="fill:#4B9FD8;" d="M225.398,386.012H62.79c-8.832,0-16-7.152-16-16s7.168-16,16-16h162.624c8.832,0,16,7.152,16,16
	C241.398,378.844,234.246,386.012,225.398,386.012z"/>
<path style="fill:#ED6362;" d="M112.502,469.404H62.79c-8.832,0-16-7.152-16-16s7.168-16,16-16h49.712c8.832,0,16,7.152,16,16
	C128.502,462.236,121.334,469.404,112.502,469.404z"/>
<path style="fill:#3789C9;" d="M226.63,469.404h-49.712c-8.832,0-16-7.152-16-16s7.168-16,16-16h49.712c8.832,0,16,7.152,16,16
	C242.63,462.236,235.462,469.404,226.63,469.404z"/>
<path style="fill:#ED6362;" d="M340.742,469.404h-49.696c-8.832,0-16-7.152-16-16s7.168-16,16-16h49.712c8.832,0,16,7.152,16,16
	C356.742,462.236,349.59,469.404,340.742,469.404z"/>
<path style="fill:#3789C9;" d="M454.886,469.404h-49.712c-8.832,0-16-7.152-16-16s7.168-16,16-16h49.712c8.832,0,16,7.152,16,16
	C470.886,462.236,463.718,469.404,454.886,469.404z"/>
<circle style="fill:#FDBC4B;" cx="97.382" cy="262.908" r="31.12"/>
<g style="opacity:0.1;">
	<path style="fill:#010101;" d="M510.63,488.828c0.8-2.832,1.376-5.744,1.376-8.816V197.516c0-17.68-14.32-32-32-32h-9.36
		L356.742,334.94L510.63,488.828z"/>
</g>
<path style="fill:#E5E5E5;" d="M213.43,19.884v123.984c0,88.464,58.384,166.32,143.312,191.088l0,0l0,0
	c84.928-24.768,143.312-102.624,143.312-191.088V19.884c0-8.928-10.144-13.84-17.312-8.496
	c-37.104,27.648-83.584,24.8-118.752-8.544c-4-3.792-10.384-3.792-14.368,0c-35.184,33.344-81.76,36.192-118.88,8.544
	C223.59,6.044,213.43,10.956,213.43,19.884z"/>
<path style="fill:#ED6362;" d="M285.126,62.556c-13.44,0-26.672-2.304-39.312-6.752v88.048c0,70.416,45.168,133.696,110.944,157.088
	V38.86C335.206,54.3,310.566,62.556,285.126,62.556z"/>
<path style="fill:#E95454;" d="M428.438,62.556c-25.44,0-50.08-8.272-71.632-23.744c-0.016,0.016-0.048,0.016-0.064,0.032v262.08
	c65.776-23.392,110.944-86.672,110.944-157.088V55.804C455.062,60.268,441.862,62.556,428.438,62.556z"/>
<path style="fill:#FFFFFF;" d="M340.678,214.604c-4.368,0-8.56-1.744-11.632-4.816l-24.336-24.352
	c-6.432-6.432-6.432-16.848,0-23.28c6.432-6.432,16.848-6.432,23.28,0l12.704,12.704l44.848-44.864
	c6.432-6.432,16.848-6.432,23.28,0c6.432,6.432,6.432,16.848,0,23.28l-56.48,56.496
	C349.222,212.876,345.046,214.604,340.678,214.604z"/>
<g>
	<path style="fill:#F3F3F3;" d="M484.278,117.324c-5.952,0-10.784,4.832-10.784,10.784v8.352c0,5.968,4.832,10.784,10.784,10.784
		s10.784-4.832,10.784-10.784v-8.352C495.062,122.14,490.23,117.324,484.278,117.324z"/>
	<path style="fill:#F3F3F3;" d="M484.278,38.252c-5.952,0-10.784,4.832-10.784,10.784v51.488c0,5.968,4.832,10.784,10.784,10.784
		s10.784-4.832,10.784-10.784V49.036C495.062,43.084,490.23,38.252,484.278,38.252z"/>
</g>
<path style="fill:#EF7071;" d="M271.318,72.396c-8.976,0-16.256,7.264-16.256,16.256v-1.008c0,8.992,7.28,16.256,16.256,16.256
	c8.976,0,16.256-7.264,16.256-16.256v0.992C287.574,79.66,280.294,72.396,271.318,72.396z"/>
<g>
</g>
<g>
</g>
<g>
</g>
<g>
</g>
<g>
</g>
<g>
</g>
<g>
</g>
<g>
</g>
<g>
</g>
<g>
</g>
<g>
</g>
<g>
</g>
<g>
</g>
<g>
</g>
<g>
</g>
</svg>
