<?xml version="1.0" encoding="iso-8859-1"?>
<!-- Generator: Adobe Illustrator 19.0.0, SVG Export Plug-In . SVG Version: 6.00 Build 0)  -->
<svg version="1.1" id="Capa_1" xmlns="http://www.w3.org/2000/svg" xmlns:xlink="http://www.w3.org/1999/xlink" x="0px" y="0px"
	 viewBox="0 0 512.001 512.001" style="enable-background:new 0 0 512.001 512.001;" xml:space="preserve">
<g>
	<path style="fill:#F4CFA6;" d="M396.864,234.86h-22.325v-64.745h22.325c11.505,0,20.831,9.326,20.831,20.831v23.084
		C417.694,225.534,408.368,234.86,396.864,234.86z"/>
	<path style="fill:#F4CFA6;" d="M115.138,234.86h22.325v-64.745h-22.325c-11.505,0-20.831,9.326-20.831,20.831v23.084
		C94.308,225.534,103.634,234.86,115.138,234.86z"/>
	<path style="fill:#F4CFA6;" d="M318.436,357.046l-11.562-2.324c-8.204-1.649-14.106-8.856-14.106-17.224V320.84h-75.627v17.079
		c0,8.368-5.902,15.575-14.106,17.224l-9.469,1.903v63.593h124.87V357.046z"/>
</g>
<path style="fill:#FFDFB8;" d="M256.001,337.691L256.001,337.691c-72.656,0-131.556-58.899-131.556-131.555v-36.971
	C124.445,96.509,183.344,37.61,256,37.61l0,0c72.656,0,131.555,58.899,131.555,131.555v36.971
	C387.556,278.791,328.657,337.691,256.001,337.691z"/>
<path style="fill:#F4CFA6;" d="M256.001,37.609L256.001,37.609c-9.19,0-18.158,0.946-26.816,2.739
	c59.796,12.384,104.74,65.35,104.74,128.817v36.971c0,53.923-32.448,107.497-78.879,131.543c0.319,0.002,0.635,0.012,0.954,0.012
	l0,0c72.656,0,131.555-58.899,131.555-131.555v-36.971C387.557,96.508,328.657,37.609,256.001,37.609z"/>
<path style="fill:#FFB125;" d="M124.446,206.135c0,0.406,0.012,0.809,0.015,1.214c18.318-0.008,33.164-14.86,33.164-33.179v-46.418
	l-26.281-0.741c-4.473,13.233-6.899,27.41-6.899,42.153v36.971H124.446z"/>
<path style="fill:#F4A21E;" d="M354.377,137.889v36.281c0,18.32,14.847,33.171,33.164,33.179c0.004-0.405,0.015-0.808,0.015-1.214
	v-36.971c0-11.074-1.375-21.825-3.952-32.099L354.377,137.889z"/>
<path style="fill:#333333;" d="M412.431,118.028c-3.485-16.386-37.654-16.81-49.508-17.732
	c-35.516-2.762-71.326-1.997-106.896-1.997l0,0c-0.009,0-0.017,0-0.026,0c-0.009,0-0.017,0-0.026,0l0,0
	c-35.57,0-71.38-0.764-106.896,1.997c-11.854,0.922-46.024,1.346-49.508,17.732c-3.75,17.633,49.461,69.622,156.404,69.622
	c0.009,0,0.017,0,0.026,0s0.017,0,0.026,0C362.97,187.65,416.181,135.662,412.431,118.028z"/>
<path style="fill:#E5E1DD;" d="M318.425,357.046l-62.424,40.456l-62.424-40.456l-73.774,21.722
	c-35.147,10.349-59.279,42.61-59.279,79.249v42.078c0,6.575,5.33,11.906,11.906,11.906h367.142c6.575,0,11.906-5.33,11.906-11.906
	v-42.078c0-36.638-24.132-68.9-59.279-79.249L318.425,357.046z"/>
<path style="fill:#FFFFFF;" d="M256.001,397.502l-62.424-40.456l-73.774,21.722c-35.147,10.349-59.279,42.61-59.279,79.249v42.078
	c0,6.575,5.33,11.906,11.906,11.906h183.571V397.502z"/>
<path style="fill:#4D4D4D;" d="M451.478,458.016v42.078c0,6.575-5.33,11.906-11.906,11.906H281.667l36.759-154.954l73.774,21.722
	C427.346,389.116,451.478,421.378,451.478,458.016z"/>
<path style="fill:#EA2829;" d="M280.015,368.387l-19.963,8.308c-2.593,1.079-5.509,1.079-8.102,0l-19.963-8.308
	c-10.906-4.539-22.92,3.474-22.92,15.287v20.39c0,11.813,12.015,19.826,22.92,15.287l19.963-8.308c2.593-1.079,5.509-1.079,8.102,0
	l19.963,8.308c10.906,4.539,22.92-3.474,22.92-15.287v-20.39C302.935,371.862,290.921,363.848,280.015,368.387z"/>
<g>
	<path style="fill:#A0663A;" d="M207.369,192.494c-4.269,0-7.73,3.46-7.73,7.73v14.588c0,4.269,3.461,7.73,7.73,7.73
		s7.73-3.46,7.73-7.73v-14.588C215.098,195.955,211.638,192.494,207.369,192.494z"/>
	<path style="fill:#A0663A;" d="M305.852,192.494c-4.269,0-7.73,3.46-7.73,7.73v14.588c0,4.269,3.46,7.73,7.73,7.73
		s7.73-3.46,7.73-7.73v-14.588C313.582,195.955,310.122,192.494,305.852,192.494z"/>
</g>
<path style="fill:#FF8D9B;" d="M263.721,302.289H249.5c-19.61,0-35.507-15.897-35.507-35.507l0,0h85.234l0,0
	C299.227,286.392,283.33,302.289,263.721,302.289z"/>
<path style="fill:#4D4D4D;" d="M127.532,13.749c13.413,63.776,19.113,107.515,19.113,107.515h0.007
	c0.299,15.051,51.984,27.228,109.349,27.228s109.05-12.177,109.349-27.228h0.007c0,0,5.7-43.739,19.113-107.515
	C384.47,13.749,127.532,13.749,127.532,13.749z"/>
<path style="fill:#3F3F3F;" d="M323.738,13.749c-13.413,63.776-19.113,107.515-19.113,107.515h-0.007
	c-0.248,12.526-32.521,23.059-76.406,26.242c8.848,0.642,18.165,0.986,27.79,0.986c57.365,0,109.05-12.177,109.349-27.228h0.007
	c0,0,5.7-43.739,19.113-107.515C384.471,13.749,323.738,13.749,323.738,13.749z"/>
<path style="fill:#EF4A50;" d="M256.001,114.336c-49.672,0-97.156-8.251-113.379-19.82c2.752,16.998,4.022,26.748,4.022,26.748
	h0.007c0.299,15.051,51.984,27.228,109.349,27.228s109.05-12.177,109.349-27.228h0.007c0,0,1.271-9.75,4.023-26.748
	C353.157,106.085,305.673,114.336,256.001,114.336z"/>
<path style="fill:#DD3753;" d="M365.415,120.831c0.002-0.011,0.003-0.019,0.004-0.03c0.001-0.008,0.003-0.02,0.004-0.028
	c0.015-0.114,0.034-0.251,0.055-0.405c0.002-0.012,0.003-0.019,0.004-0.032c0.006-0.044,0.011-0.081,0.017-0.128
	c0.003-0.02,0.007-0.05,0.01-0.071c0.057-0.417,0.129-0.946,0.219-1.588c0.003-0.023,0.005-0.039,0.009-0.062
	c0-0.001,0-0.003,0-0.004c0.011-0.08,0.025-0.177,0.036-0.26c0.022-0.161,0.046-0.326,0.07-0.499
	c0.019-0.133,0.037-0.262,0.057-0.403c0.039-0.275,0.08-0.567,0.124-0.87c0.018-0.124,0.035-0.247,0.053-0.375
	c0.048-0.337,0.098-0.686,0.151-1.053c0.017-0.116,0.034-0.236,0.051-0.355c0.053-0.364,0.107-0.739,0.164-1.132
	c0.012-0.086,0.025-0.17,0.038-0.257c0.065-0.446,0.134-0.914,0.205-1.396c0.012-0.078,0.023-0.155,0.035-0.234
	c0.074-0.5,0.151-1.021,0.232-1.558c0.016-0.106,0.032-0.212,0.048-0.319c0.083-0.553,0.168-1.122,0.258-1.712
	c0.012-0.082,0.025-0.166,0.038-0.249c0.091-0.601,0.185-1.217,0.282-1.856c0.004-0.027,0.008-0.051,0.012-0.078
	c0.001-0.006,0.002-0.012,0.003-0.017c0.01-0.068,0.022-0.142,0.032-0.21c0.112-0.732,0.229-1.487,0.35-2.266
	c0.007-0.043,0.013-0.085,0.02-0.128c0.131-0.844,0.267-1.715,0.408-2.613c0.004-0.023,0.007-0.044,0.011-0.067
	c0.001-0.006,0.002-0.012,0.003-0.018c0.15-0.951,0.305-1.931,0.466-2.941c0.003-0.021,0.007-0.043,0.01-0.064
	c0.157-0.985,0.32-1.997,0.488-3.037c-10.544,7.519-34.299,13.634-63.272,16.995c-0.823,5.417-1.483,9.753-1.483,9.753h-0.007
	c-0.248,12.526-32.521,23.059-76.406,26.242c4.378,0.317,8.873,0.561,13.461,0.727c0.087,0.003,0.175,0.006,0.262,0.01
	c2.227,0.079,4.477,0.139,6.747,0.181c0.125,0.002,0.251,0.004,0.376,0.006c2.295,0.04,4.609,0.062,6.943,0.062
	c57.365,0,109.051-12.177,109.349-27.228h0.007c0,0,0.016-0.122,0.046-0.349C365.407,120.886,365.41,120.863,365.415,120.831z"/>
<path style="fill:#333333;" d="M384.47,13.749c0,7.593-60.364,13.749-128.469,13.749s-128.469-6.156-128.469-13.749
	S187.895,0,256.001,0S384.47,6.156,384.47,13.749z"/>
<path style="fill:#3F3F3F;" d="M392.2,378.768l-73.774-21.722l-3.544,14.938l23.042,6.785c35.147,10.349,59.278,42.61,59.278,79.248
	V512h24.799l0,0h29.477v-11.906V474.75v-16.734C451.478,421.378,427.346,389.116,392.2,378.768z"/>
<path style="fill:#353535;" d="M318.425,357.046l28.895,51.022c2.433,4.296,2.145,9.614-0.736,13.622L281.667,512L318.425,357.046z"
	/>
<path style="fill:#4D4D4D;" d="M230.335,512l-36.759-154.954l-73.774,21.722c-35.147,10.348-59.279,42.61-59.279,79.248v42.078V512
	h11.905h0.001H230.335z"/>
<path style="fill:#353535;" d="M193.577,357.046l-28.895,51.022c-2.433,4.296-2.145,9.614,0.736,13.622L230.335,512L193.577,357.046
	z"/>
<g>
</g>
<g>
</g>
<g>
</g>
<g>
</g>
<g>
</g>
<g>
</g>
<g>
</g>
<g>
</g>
<g>
</g>
<g>
</g>
<g>
</g>
<g>
</g>
<g>
</g>
<g>
</g>
<g>
</g>
</svg>
