<?xml version="1.0" encoding="iso-8859-1"?>
<!-- Generator: Adobe Illustrator 19.0.0, SVG Export Plug-In . SVG Version: 6.00 Build 0)  -->
<svg version="1.1" id="Capa_1" xmlns="http://www.w3.org/2000/svg" xmlns:xlink="http://www.w3.org/1999/xlink" x="0px" y="0px"
	 viewBox="0 0 513.363 513.363" style="enable-background:new 0 0 513.363 513.363;" xml:space="preserve">
<path style="fill:#FFE28F;" d="M79.664,352.09c0,0,16.848,1.92,48.608-12.992c31.76-14.928,64.016-4.816,64.016-4.816
	s40.432,19.248,54.384,22.624c13.952,3.376,44.288,3.376,74.608,1.92c0,0,40.432-7.696,49.088,16.848c0,0,11.072-2.4,29.36-12.032
	c0,0,88.08-44.656,109.264-26.656c0,0,14.432,13.184-9.152,29.056c0,0-96.272,62.576-154.496,88.56c0,0-20.208,7.696-61.12,39.952
	c0,0-14.928,6.736-33.696-4.816c0,0-102.528-53.424-152.096-32.256L79.664,352.09z"/>
<g style="opacity:0.25;">
	<path style="fill:#EC9922;" d="M373.632,384.57c0,29.2-66.112,32.784-66.112,32.784c-9.92,5.232-24.24,6.336-24.24,6.336
		c-11.024-3.312-63.904-4.96-63.904-4.96c-30.304,3.312-45.728-7.712-45.728-7.712s11.568,13.216,40.768,12.672
		c0,0,47.936-2.208,59.232,8.816c0,0,19.472,4.96,36.592-8.272c0,0,9.952-6.064,21.536-6.064c0,0,35.264-3.312,41.872-23.136V384.57
		H373.632z"/>
</g>
<g>
	<path style="fill:#F3F3F3;" d="M343.92,365.482l-11.504,1.408c-2.688,0.336-4.592,2.768-4.272,5.456l3.472,28.512
		c0.336,2.688,2.768,4.592,5.456,4.272l11.504-1.408c10.56-1.28,18.064-10.896,16.784-21.44
		C364.08,371.706,354.464,364.202,343.92,365.482z"/>
	<path style="fill:#F3F3F3;" d="M512.544,351.914c-33.904,2.176-31.968,25.28-31.968,25.28l0.48,0.832
		c11.616-7.312,18.8-11.984,18.8-11.984C507.44,360.938,511.072,356.106,512.544,351.914z"/>
</g>
<polygon style="fill:#E5E5E5;" points="105.424,488.474 63.952,496.522 39.744,357.482 79.776,349.642 "/>
<polygon style="fill:#6F7070;" points="0,510.394 64.784,499.69 38.528,349.642 0,356.922 "/>
<g style="opacity:0.25;">
	<path style="fill:#FDBC4B;" d="M393.2,405.066c4.416,7.648,14.192,10.272,21.856,5.856l40.96-23.648
		c7.664-4.416,10.272-14.208,5.856-21.856s-14.192-10.272-21.856-5.856l-40.96,23.648
		C391.408,387.626,388.784,397.418,393.2,405.066z"/>
</g>
<g style="opacity:0.3;">
	<path style="fill:#FFFFFF;" d="M205.024,384.17c-2.08,8.592,3.168,17.232,11.76,19.328l2.72,0.656
		c8.592,2.096,17.232-3.184,19.328-11.76c2.096-8.592-3.168-17.232-11.76-19.328l-2.72-0.656
		C215.76,370.314,207.12,375.578,205.024,384.17z"/>
	<path style="fill:#FFFFFF;" d="M120.752,363.658c-2.08,8.592,3.168,17.232,11.76,19.328l45.952,11.184
		c8.592,2.096,17.248-3.184,19.328-11.76s-3.168-17.232-11.76-19.328l-45.952-11.184
		C131.488,349.818,122.848,355.082,120.752,363.658z"/>
</g>
<path style="fill:#4B9FD8;" d="M393.536,332.554H250.912c-26.512,0-48-21.488-48-48V112.922h238.624v171.632
	C441.536,311.066,420.048,332.554,393.536,332.554z"/>
<path style="fill:#8BD5EC;" d="M202.912,283.882v2.48c0,25.504,20.672,46.176,46.176,46.176h146.256
	c25.504,0,46.176-20.672,46.176-46.176v-2.48H202.912z"/>
<g>
	<circle style="fill:#464646;" cx="247.328" cy="139.562" r="17.936"/>
	<circle style="fill:#464646;" cx="397.072" cy="139.562" r="17.936"/>
</g>
<path style="fill:#F3F3F3;" d="M322.192,2.97c-47.648,0-86.416,38.768-86.416,86.416v49.04c0,6.368,5.168,11.552,11.552,11.552
	V89.386c0-41.36,33.52-74.88,74.88-74.88c41.344,0,74.88,33.52,74.88,74.88v60.576c6.368,0,11.552-5.168,11.552-11.552V89.386
	C408.608,41.738,369.84,2.97,322.192,2.97z"/>
<path style="fill:#E5E5E5;" d="M322.192,14.522c-41.36,0-74.88,33.52-74.88,74.88v60.576c6.368,0,11.552-5.168,11.552-11.552v-49.04
	c0-34.928,28.4-63.328,63.328-63.328s63.328,28.4,63.328,63.328v49.04c0,6.368,5.168,11.552,11.552,11.552l0,0V89.386
	C397.072,48.042,363.552,14.522,322.192,14.522z"/>
<g style="opacity:0.2;">
	<path style="fill:#FFFFFF;" d="M308.496,244.906c0,8.496,6.88,15.392,15.392,15.392h57.792c8.512,0,15.392-6.896,15.392-15.392
		s-6.88-15.392-15.392-15.392h-57.792C315.376,229.514,308.496,236.394,308.496,244.906z"/>
</g>
<g style="opacity:0.2;">
	<path style="fill:#FFFFFF;" d="M340.08,201.93c0,8.496,6.88,15.392,15.392,15.392h57.792c8.512,0,15.392-6.896,15.392-15.392
		s-6.88-15.392-15.392-15.392h-57.792C346.976,186.538,340.08,193.434,340.08,201.93z"/>
</g>
<g>
</g>
<g>
</g>
<g>
</g>
<g>
</g>
<g>
</g>
<g>
</g>
<g>
</g>
<g>
</g>
<g>
</g>
<g>
</g>
<g>
</g>
<g>
</g>
<g>
</g>
<g>
</g>
<g>
</g>
</svg>
