<?xml version="1.0" encoding="iso-8859-1"?>
<!-- Generator: Adobe Illustrator 19.0.0, SVG Export Plug-In . SVG Version: 6.00 Build 0)  -->
<svg version="1.1" id="Capa_1" xmlns="http://www.w3.org/2000/svg" xmlns:xlink="http://www.w3.org/1999/xlink" x="0px" y="0px"
	 viewBox="0 0 510.212 510.212" style="enable-background:new 0 0 510.212 510.212;" xml:space="preserve">
<path style="fill:#E95454;" d="M496.64,496.88L496.64,496.88c-17.776,17.776-46.576,17.776-64.352,0l64.352-64.352
	C514.4,450.304,514.4,479.104,496.64,496.88z"/>
<rect x="310.612" y="310.53" transform="matrix(-0.7071 0.7071 -0.7071 -0.7071 809.321 335.6357)" style="fill:#464646;" width="49.072" height="49.808"/>
<path style="fill:#CD494C;" d="M320.592,385.184L432.288,496.88c17.776,17.776,46.576,17.776,64.352,0s17.776-46.576,0-64.352
	L384.944,320.832L320.592,385.184z"/>
<circle style="fill:#464646;" cx="195.968" cy="195.728" r="195.728"/>
<path style="fill:#D6555B;" d="M444.304,432.56l-56.4-56.416c-5.488-5.488-5.488-14.384,0-19.888c5.488-5.488,14.384-5.488,19.888,0
	l56.4,56.416c5.488,5.488,5.488,14.384,0,19.888S449.792,438.048,444.304,432.56z"/>
<g>
	<path style="fill:#555555;" d="M361.136,208.048c-8.032,0-14.592-6.464-14.72-14.512c-0.576-39.344-16.224-76.352-44.048-104.192
		c-39.344-39.36-96.928-53.776-150.24-37.568c-7.776,2.32-16-2.048-18.368-9.824c-2.352-7.776,2.032-16,9.808-18.368
		c63.744-19.36,132.544-2.128,179.616,44.928c33.28,33.296,51.984,77.536,52.672,124.592c0.112,8.144-6.384,14.832-14.512,14.944
		C361.28,208.048,361.2,208.048,361.136,208.048z"/>
	<path style="fill:#555555;" d="M32.8,166.112c-7.84-2.16-12.464-10.256-10.304-18.112c8.192-29.904,24.192-57.408,46.272-79.488
		c5.744-5.744,15.072-5.744,20.832,0c5.744,5.744,5.744,15.072,0,20.816c-18.48,18.48-31.856,41.472-38.72,66.464
		C48.784,163.456,40.896,168.256,32.8,166.112z"/>
</g>
<circle style="fill:#FDBC4B;" cx="196" cy="195.712" r="134.656"/>
<circle style="fill:#EC9922;" cx="196" cy="195.712" r="96.64"/>
<path style="fill:#FFFFFF;" d="M189.888,239.264v-36.592c-11.408-3.264-19.776-8.192-25.104-14.8s-7.984-14.624-7.984-24.048
	c0-9.552,3.008-17.568,9.04-24.048c6.032-6.496,14.048-10.224,24.048-11.216v-8.656h12.656v8.64
	c9.264,1.104,16.624,4.272,22.096,9.472c5.472,5.216,8.96,12.176,10.48,20.912l-22.096,2.88c-1.344-6.864-4.832-11.52-10.48-13.968
	v34.144c13.968,3.776,23.488,8.688,28.56,14.72c5.072,6.016,7.6,13.744,7.6,23.184c0,10.544-3.184,19.408-9.568,26.64
	c-6.384,7.232-15.232,11.648-26.592,13.264v11.728h-12.656v-11.296c-10.064-1.216-18.256-4.976-24.528-11.264
	s-10.304-15.168-12.048-26.624l22.784-2.448c0.928,4.656,2.672,8.672,5.248,12.048C183.888,235.312,186.736,237.744,189.888,239.264
	z M189.888,147.584c-3.44,1.168-6.176,3.136-8.208,5.936s-3.056,5.888-3.056,9.264c0,3.088,0.928,5.952,2.8,8.608
	c1.856,2.64,4.688,4.784,8.464,6.416V147.584z M202.544,240.48c4.368-0.816,7.92-2.832,10.656-6.064
	c2.736-3.232,4.112-7.024,4.112-11.392c0-3.904-1.152-7.264-3.456-10.08c-2.304-2.832-6.064-4.992-11.312-6.512V240.48
	L202.544,240.48z"/>
<g>
</g>
<g>
</g>
<g>
</g>
<g>
</g>
<g>
</g>
<g>
</g>
<g>
</g>
<g>
</g>
<g>
</g>
<g>
</g>
<g>
</g>
<g>
</g>
<g>
</g>
<g>
</g>
<g>
</g>
</svg>
