<?xml version="1.0" encoding="iso-8859-1"?>
<!-- Generator: Adobe Illustrator 19.0.0, SVG Export Plug-In . SVG Version: 6.00 Build 0)  -->
<svg version="1.1" id="Capa_1" xmlns="http://www.w3.org/2000/svg" xmlns:xlink="http://www.w3.org/1999/xlink" x="0px" y="0px"
	 viewBox="0 0 512 512" style="enable-background:new 0 0 512 512;" xml:space="preserve">
<path style="fill:#E0A632;" d="M350.706,35.646c-0.965-0.792-1.942-1.569-2.927-2.336c-0.181-0.141-0.363-0.28-0.544-0.42
	c-0.851-0.657-1.709-1.305-2.574-1.943c-0.169-0.125-0.337-0.25-0.507-0.374c-6.418-4.692-13.224-8.883-20.363-12.515
	c-10.114,3.258-20.396,7.825-30.347,14.122c5.91,4.487,11.475,9.402,16.646,14.706c13.859-6.158,27.822-9.539,40.621-11.237
	C350.709,35.648,350.707,35.647,350.706,35.646z"/>
<g>
	<path style="fill:#FFB125;" d="M433.597,296.69c-15.168,24.651-100.161,118.006-124.812,102.838s20.375-133.116,35.543-157.767
		s47.448-32.338,72.099-17.17S448.765,272.039,433.597,296.69z"/>
	<path style="fill:#FFB125;" d="M487.763,390.751c-23.292,17.183-137.047,71.943-154.23,48.651s68.714-115.816,92.006-132.998
		s56.103-12.23,73.285,11.062C516.006,340.759,511.055,373.568,487.763,390.751z"/>
	<path style="fill:#FFB125;" d="M468.422,508.005c-28.529,4.881-154.76,2.672-159.641-25.857
		c-4.881-28.529,113.436-72.576,141.965-77.456s55.614,14.29,60.494,42.819C516.122,476.04,496.951,503.124,468.422,508.005z"/>
</g>
<g>
	<path style="fill:#FEC93E;" d="M78.403,296.69c15.168,24.651,100.161,118.006,124.812,102.838s-20.375-133.116-35.543-157.767
		s-47.448-32.338-72.099-17.17S63.235,272.039,78.403,296.69z"/>
	<path style="fill:#FEC93E;" d="M24.237,390.751c23.292,17.183,137.047,71.943,154.23,48.651S109.752,323.586,86.46,306.404
		s-56.103-12.23-73.285,11.062S0.945,373.568,24.237,390.751z"/>
	<path style="fill:#FEC93E;" d="M43.578,508.005c28.529,4.881,154.76,2.672,159.641-25.857
		c4.881-28.529-113.436-72.576-141.965-77.456S5.64,418.981,0.759,447.511C-4.122,476.04,15.049,503.124,43.578,508.005z"/>
</g>
<g>
	<path style="fill:#FFB125;" d="M167.673,241.761c-15.168-24.651-47.448-32.338-72.099-17.17l107.642,174.937
		C227.866,384.359,182.841,266.412,167.673,241.761z"/>
	<path style="fill:#FFB125;" d="M86.46,306.404c-23.292-17.183-56.103-12.23-73.285,11.062l165.291,121.937
		C195.649,416.11,109.752,323.586,86.46,306.404z"/>
	<path style="fill:#FFB125;" d="M61.253,404.691c-28.529-4.881-55.614,14.29-60.494,42.82l202.46,34.637
		C208.1,453.618,89.783,409.572,61.253,404.691z"/>
</g>
<g>
	<path style="fill:#FEC93E;" d="M487.763,390.751c23.292-17.183,28.244-49.993,11.062-73.285L333.533,439.402
		C350.716,462.694,464.471,407.933,487.763,390.751z"/>
	<path style="fill:#FEC93E;" d="M468.422,508.005c28.529-4.881,47.7-31.965,42.819-60.494l-202.46,34.637
		C313.662,510.677,439.892,512.886,468.422,508.005z"/>
	<path style="fill:#FEC93E;" d="M433.597,296.69c15.168-24.651,7.481-56.931-17.17-72.099L308.785,399.528
		C333.436,414.696,418.428,321.341,433.597,296.69z"/>
</g>
<path style="fill:#BF834C;" d="M405.194,403.932V150.715c0-82.154-66.599-148.754-148.754-148.754l0,0
	c-82.155,0-148.754,66.599-148.754,148.754v253.218h297.508V403.932z"/>
<g>
	<path style="fill:#B27747;" d="M131.583,69.836v334.097h91.731V5.668C185.009,14.38,152.329,37.875,131.583,69.836z"/>
	<path style="fill:#B27747;" d="M256.44,1.961L256.44,1.961c-9.058,0-17.926,0.812-26.537,2.363
		C299.395,16.838,352.12,77.618,352.12,150.715v253.218h53.074V150.715C405.194,68.56,338.595,1.961,256.44,1.961z"/>
</g>
<path style="fill:#FFDFB8;" d="M391.759,377.665l-73.287-21.578v-0.003l-11.487-2.309c-8.151-1.638-14.015-8.798-14.015-17.113
	v-16.551h-75.14v16.969c0,8.314-5.864,15.474-14.015,17.113l-9.408,1.891v0.003l-73.287,21.578
	C86.2,387.947,62.224,420,62.224,456.402v24.597v13.838v15.2h31.109l0,0h342.122c8.395,0,15.2-6.805,15.2-15.2v-38.435
	C450.655,420,426.679,387.947,391.759,377.665z"/>
<g>
	<path style="fill:#EAB886;" d="M392.081,235.09H370.42v-62.819h21.661c11.162,0,20.211,9.049,20.211,20.211v22.397
		C412.292,226.041,403.244,235.09,392.081,235.09z"/>
	<path style="fill:#EAB886;" d="M120.798,235.09h21.661v-62.819h-21.661c-11.162,0-20.211,9.049-20.211,20.211v22.397
		C100.587,226.041,109.636,235.09,120.798,235.09z"/>
</g>
<path style="fill:#FFDFB8;" d="M256.44,334.356L256.44,334.356c-69.847,0-126.47-56.622-126.47-126.469v-35.542
	c0-69.847,56.622-126.469,126.469-126.469l0,0c69.847,0,126.469,56.622,126.469,126.469v35.542
	C382.909,277.734,326.287,334.356,256.44,334.356z"/>
<path style="fill:#F4CFA6;" d="M256.44,45.876L256.44,45.876c-9.104,0-17.979,0.97-26.537,2.798
	c57.105,12.195,99.932,62.928,99.932,123.671v35.542c0,52.542-32.042,104.076-77.65,126.39c1.413,0.047,2.83,0.079,4.255,0.079l0,0
	c69.847,0,126.469-56.622,126.469-126.469v-35.542C382.909,102.498,326.287,45.876,256.44,45.876z"/>
<g>
	<path style="fill:#B27747;" d="M132.073,172.345c27.336,0,35.108-54.663,35.108-54.663h-55.809
		c-2.409,10.625-3.687,21.679-3.687,33.032v21.63C111.623,172.345,118.841,172.345,132.073,172.345z"/>
	<path style="fill:#B27747;" d="M379.927,172.345c14.283,0,21.563,0,25.267,0v-21.63c0-11.353-1.278-22.408-3.687-33.032h-56.689
		C344.818,117.682,352.591,172.345,379.927,172.345z"/>
</g>
<path style="fill:#FEC93E;" d="M256.44,1.961L256.44,1.961c-74.122,0-135.573,54.215-146.883,125.152
	c12.227-2.319,82.128-12.931,131.512,36.351c8.526,8.508,22.215,8.508,30.741,0c49.385-49.281,119.286-38.67,131.512-36.351
	C392.013,56.176,330.562,1.961,256.44,1.961z"/>
<path style="fill:#FD6E2E;" d="M256.44,1.961L256.44,1.961c-74.122,0-135.573,54.215-146.883,125.152
	c12.227-2.319,82.128-12.931,131.512,36.351c8.526,8.508,22.215,8.508,30.741,0c49.385-49.281,119.286-38.67,131.512-36.351
	C392.013,56.176,330.562,1.961,256.44,1.961z"/>
<g>
	<path style="fill:#F2662F;" d="M275.024,86.654c25.976-25.922,56.643-38.132,84.224-43.43
		c-8.352-7.992-17.632-15.019-27.666-20.905c-19.397,7.096-39.044,18.326-56.559,35.804c-10.309,10.288-26.86,10.288-37.169,0
		c-17.515-17.478-37.162-28.709-56.559-35.804c-10.033,5.885-19.313,12.913-27.666,20.905c27.581,5.298,58.248,17.508,84.224,43.43
		C248.164,96.941,264.715,96.941,275.024,86.654z"/>
	<path style="fill:#F2662F;" d="M256.44,1.961L256.44,1.961c-9.017,0-17.844,0.808-26.419,2.346
		c61.573,11.037,109.993,59.964,120.291,121.792c25.716-3.475,46.802-0.164,53.011,1.014C392.013,56.176,330.562,1.961,256.44,1.961
		z"/>
</g>
<path style="fill:#FEC93E;" d="M271.811,136.834c-8.526,7.445-22.215,7.445-30.741,0c-44.29-38.676-105.072-35.197-125.964-32.604
	c-2.429,7.39-4.297,15.033-5.549,22.883c12.227-2.319,82.128-12.931,131.512,36.351c8.526,8.508,22.215,8.508,30.741,0
	c49.385-49.281,119.286-38.67,131.512-36.351c-1.252-7.85-3.12-15.494-5.549-22.883C376.883,101.636,316.1,98.158,271.811,136.834z"
	/>
<path style="fill:#EFB635;" d="M271.811,136.834c-4.263,3.723-9.817,5.584-15.371,5.584v27.427c5.554,0,11.108-2.127,15.371-6.381
	c49.385-49.281,119.286-38.67,131.512-36.351c-1.252-7.85-3.12-15.494-5.549-22.883C376.883,101.636,316.1,98.158,271.811,136.834z"
	/>
<g>
	<path style="fill:#A0663A;" d="M208.224,228.503c-4.263,0-7.72-3.456-7.72-7.72V206.63c0-4.264,3.456-7.72,7.72-7.72
		c4.263,0,7.72,3.456,7.72,7.72v14.153C215.943,225.047,212.487,228.503,208.224,228.503z"/>
	<path style="fill:#A0663A;" d="M303.776,228.503c-4.263,0-7.72-3.456-7.72-7.72V206.63c0-4.264,3.456-7.72,7.72-7.72
		s7.72,3.456,7.72,7.72v14.153C311.496,225.047,308.04,228.503,303.776,228.503z"/>
</g>
<path style="fill:#FF8D9B;" d="M256,294.391c-13.439,0-25.93-5.757-32.599-15.024c-2.49-3.461-1.703-8.285,1.757-10.775
	c3.462-2.488,8.285-1.702,10.775,1.757c3.761,5.226,11.638,8.603,20.067,8.603c8.429,0,16.306-3.377,20.067-8.603
	c2.49-3.46,7.314-4.248,10.775-1.757c3.46,2.491,4.247,7.315,1.757,10.775C281.93,288.634,269.439,294.391,256,294.391z"/>
<circle style="fill:#F2EBDA;" cx="150.43" cy="113.189" r="22.15"/>
<path style="fill:#E2D9C5;" d="M166.094,128.852c8.65-8.65,8.65-22.675,0-31.325l-31.325,31.325
	C143.419,137.502,157.444,137.502,166.094,128.852z"/>
<circle style="fill:#F2EBDA;" cx="361.57" cy="113.189" r="22.15"/>
<path style="fill:#E2D9C5;" d="M377.231,128.852c8.65-8.65,8.65-22.675,0-31.325l-31.325,31.325
	C354.556,137.502,368.581,137.502,377.231,128.852z"/>
<path style="fill:#FEC93E;" d="M271.811,49.471c-8.526,8.509-22.215,8.509-30.741,0c-16.055-16.021-34.276-25.71-51.98-31.413
	c-9.623,4.896-18.645,10.803-26.919,17.59c25.009,3.318,54.464,13.035,78.899,37.419c8.526,8.508,22.215,8.508,30.741,0
	c24.435-24.384,53.89-34.101,78.899-37.419c-8.274-6.787-17.296-12.694-26.919-17.59C306.087,23.761,287.865,33.45,271.811,49.471z"
	/>
<path style="fill:#EFB635;" d="M271.811,49.471c-4.263,4.254-9.817,6.381-15.371,6.381v23.597c5.554,0,11.108-2.127,15.371-6.381
	c24.435-24.384,53.89-34.101,78.899-37.419c-8.274-6.787-17.296-12.694-26.919-17.59C306.087,23.761,287.865,33.45,271.811,49.471z"
	/>
<path style="fill:#F4CFA6;" d="M450.655,456.402c0-36.402-23.976-68.455-58.896-78.737l-73.287-21.578v-0.003l-11.487-2.309
	c-8.151-1.638-14.015-8.798-14.015-17.113v-16.551H255.4v21.698c0,8.314,5.864,15.474,14.015,17.113l66.247,20.803
	c34.92,10.282,58.896,40.276,58.896,76.678v53.635h40.897h0.001h14.877v-12.086c0.209-1.006,0.322-2.046,0.322-3.114
	L450.655,456.402L450.655,456.402z"/>
<path style="fill:#A7AEEE;" d="M161.169,510.037h-38.79V374.674c0-1.625,1.093-3.046,2.664-3.463l31.625-8.392
	c2.273-0.603,4.501,1.111,4.501,3.463V510.037z"/>
<path style="fill:#8C99E5;" d="M156.667,362.82l-14.894,3.952v143.265h19.395V366.283
	C161.169,363.931,158.941,362.217,156.667,362.82z"/>
<path style="fill:#A7AEEE;" d="M390.501,510.037h-38.79V366.283c0-2.352,2.228-4.066,4.501-3.463l31.625,8.392
	c1.57,0.417,2.664,1.838,2.664,3.463V510.037z"/>
<g>
	<path style="fill:#8C99E5;" d="M387.837,371.212l-17.769-4.715v143.541h20.433V374.674
		C390.501,373.05,389.407,371.628,387.837,371.212z"/>
	<path style="fill:#8C99E5;" d="M390.501,460.507c-12.856-20.636-35.739-34.379-61.842-34.379
		c-37.086,0-67.675,27.729-72.219,63.582c-4.544-35.852-35.133-63.582-72.219-63.582c-26.103,0-48.986,13.743-61.842,34.379v49.53
		h268.122L390.501,460.507L390.501,460.507z"/>
</g>
<path style="fill:#A7AEEE;" d="M328.658,426.128c-37.086,0-67.675,27.729-72.219,63.582c-4.544-35.852-35.133-63.582-72.219-63.582
	c-26.103,0-48.986,13.743-61.842,34.379v22.645c12.856-20.636,35.739-34.379,61.842-34.379c36.281,0,66.328,26.544,71.87,61.264
	h0.697c5.542-34.72,35.589-61.264,71.87-61.264c26.103,0,48.986,13.743,61.842,34.379v-22.645
	C377.645,439.871,354.762,426.128,328.658,426.128z"/>
<g>
</g>
<g>
</g>
<g>
</g>
<g>
</g>
<g>
</g>
<g>
</g>
<g>
</g>
<g>
</g>
<g>
</g>
<g>
</g>
<g>
</g>
<g>
</g>
<g>
</g>
<g>
</g>
<g>
</g>
</svg>
