<?xml version="1.0" encoding="iso-8859-1"?>
<!-- Generator: Adobe Illustrator 19.0.0, SVG Export Plug-In . SVG Version: 6.00 Build 0)  -->
<svg version="1.1" id="Capa_1" xmlns="http://www.w3.org/2000/svg" xmlns:xlink="http://www.w3.org/1999/xlink" x="0px" y="0px"
	 viewBox="0 0 512 512" style="enable-background:new 0 0 512 512;" xml:space="preserve">
<path style="fill:#FFDFB8;" d="M391.424,379.525l-73.344-21.595v-0.003l-11.496-2.311c-8.157-1.64-14.026-8.805-14.026-17.126
	v-16.564h-75.197v16.982c0,8.321-5.869,15.486-14.026,17.126l-9.415,1.892v0.003l-73.344,21.595
	c-34.947,10.29-58.942,42.368-58.942,78.798V512l0,0l0,0l0,0l0,0h378.427c5.691,0,10.305-4.614,10.305-10.305v-43.372
	C450.366,421.893,426.371,389.815,391.424,379.525z"/>
<path style="fill:#F4CFA6;" d="M391.424,379.525l-73.344-21.595v-0.003l-11.496-2.311c-8.157-1.64-14.026-8.805-14.026-17.126
	v-16.564h-24.094v25.835c0,8.32,5.869,15.486,14.026,17.126l54.968,14.638c34.947,10.29,58.942,42.368,58.942,78.798V512h53.967l0,0
	l0,0v-53.677C450.366,421.893,426.371,389.815,391.424,379.525z"/>
<circle style="fill:#FFB125;" cx="256" cy="47.48" r="47.48"/>
<g>
	<path style="fill:#F4CFA6;" d="M374.98,243.172h-19V188.07h19c9.791,0,17.728,7.937,17.728,17.728v19.646
		C392.709,235.235,384.771,243.172,374.98,243.172z"/>
	<path style="fill:#F4CFA6;" d="M137.02,243.172h19V188.07h-19c-9.791,0-17.728,7.937-17.728,17.728v19.646
		C119.291,235.235,127.228,243.172,137.02,243.172z"/>
</g>
<path style="fill:#FFDFB8;" d="M256,330.246L256,330.246c-61.268,0-110.935-49.667-110.935-110.935v-31.176
	C145.065,126.867,194.732,77.2,256,77.2l0,0c61.268,0,110.935,49.667,110.935,110.935v31.176
	C366.935,280.579,317.268,330.246,256,330.246z"/>
<path id="SVGCleanerId_0" style="fill:#F4CFA6;" d="M256,77.2L256,77.2c-9.308,0-18.345,1.153-26.984,3.312
	c48.226,12.053,83.951,55.663,83.951,107.623v31.176c0,42.284-23.659,87.162-58.459,110.916c0.497,0.007,0.993,0.019,1.491,0.019
	l0,0c61.268,0,110.935-49.667,110.935-110.935v-31.176C366.935,126.867,317.268,77.2,256,77.2z"/>
<g>
	<path id="SVGCleanerId_0_1_" style="fill:#F4CFA6;" d="M256,77.2L256,77.2c-9.308,0-18.345,1.153-26.984,3.312
		c48.226,12.053,83.951,55.663,83.951,107.623v31.176c0,42.284-23.659,87.162-58.459,110.916c0.497,0.007,0.993,0.019,1.491,0.019
		l0,0c61.268,0,110.935-49.667,110.935-110.935v-31.176C366.935,126.867,317.268,77.2,256,77.2z"/>
</g>
<path id="SVGCleanerId_1" style="fill:#FF8D9B;" d="M387.499,373.067l-31.649-8.398c-2.275-0.604-4.505,1.112-4.505,3.465v64.125
	c-62.716,14.727-127.981,14.728-190.69,0.004v-64.128c0-2.354-2.23-4.069-4.505-3.465l-31.649,8.398
	c-1.572,0.417-2.666,1.84-2.666,3.466v44.626V512h38.82h190.69h38.82v-90.841v-44.626
	C390.165,374.906,389.071,373.484,387.499,373.067z"/>
<g>
	<path id="SVGCleanerId_1_1_" style="fill:#FF8D9B;" d="M387.499,373.067l-31.649-8.398c-2.275-0.604-4.505,1.112-4.505,3.465
		v64.125c-62.716,14.727-127.981,14.728-190.69,0.004v-64.128c0-2.354-2.23-4.069-4.505-3.465l-31.649,8.398
		c-1.572,0.417-2.666,1.84-2.666,3.466v44.626V512h38.82h190.69h38.82v-90.841v-44.626
		C390.165,374.906,389.071,373.484,387.499,373.067z"/>
</g>
<g>
	<path style="fill:#FD747F;" d="M141.598,427.112c6.328,1.486,12.682,2.814,19.057,4v-62.978c0-2.354-2.23-4.069-4.505-3.466
		l-14.552,3.861L141.598,427.112L141.598,427.112z"/>
	<path style="fill:#FD747F;" d="M387.499,373.067l-18.348-4.869c1.179,0.603,1.957,1.818,1.957,3.184v44.626V512h19.057v-90.841
		v-44.626C390.165,374.906,389.071,373.484,387.499,373.067z"/>
	<path style="fill:#FD747F;" d="M303.478,47.478c0-2.588-0.215-5.126-0.613-7.602c-14.892-4.29-30.611-6.605-46.865-6.605
		s-31.973,2.315-46.865,6.605c-0.399,2.476-0.613,5.013-0.613,7.602c0,26.222,21.257,47.478,47.478,47.478
		S303.478,73.7,303.478,47.478z"/>
</g>
<path style="fill:#FFB125;" d="M386.482,181.683v-1.687c0-72.063-58.419-130.482-130.482-130.482l0,0
	c-72.063,0-130.482,58.419-130.482,130.482v1.687c0,3.528,2.86,6.387,6.387,6.387h16.772c4.463,0,8.505-2.634,10.308-6.717
	l13.966-31.635c3.054-6.917,11.919-8.923,17.653-3.994l0,0c31.781,27.322,72.303,42.345,114.214,42.345h75.276
	C383.622,188.07,386.482,185.21,386.482,181.683z"/>
<path style="fill:#F29F1C;" d="M256,49.514L256,49.514c-9.267,0-18.305,0.973-27.026,2.809
	c59.094,12.447,103.457,64.876,103.457,127.673v1.687c0,3.528-2.86,6.387-6.387,6.387h54.051c3.528,0,6.387-2.86,6.387-6.387v-1.687
	C386.482,107.932,328.063,49.514,256,49.514z"/>
<g>
	<path style="fill:#A0663A;" d="M208.187,200.632c-4.267,0-7.726,3.458-7.726,7.726v14.164c0,4.267,3.459,7.726,7.726,7.726
		s7.726-3.458,7.726-7.726v-14.164C215.912,204.091,212.453,200.632,208.187,200.632z"/>
	<path style="fill:#A0663A;" d="M303.813,200.632c-4.267,0-7.726,3.458-7.726,7.726v14.164c0,4.267,3.459,7.726,7.726,7.726
		s7.726-3.458,7.726-7.726v-14.164C311.539,204.091,308.079,200.632,303.813,200.632z"/>
</g>
<path style="fill:#FF8D9B;" d="M256,296.187c-13.45,0-25.95-5.761-32.625-15.036c-2.492-3.464-1.705-8.291,1.758-10.784
	c3.465-2.49,8.292-1.703,10.783,1.758c3.764,5.23,11.647,8.61,20.083,8.61c8.436,0,16.319-3.38,20.083-8.61
	c2.492-3.462,7.319-4.251,10.783-1.758c3.463,2.493,4.25,7.32,1.758,10.784C281.95,290.426,269.45,296.187,256,296.187z"/>
<g>
</g>
<g>
</g>
<g>
</g>
<g>
</g>
<g>
</g>
<g>
</g>
<g>
</g>
<g>
</g>
<g>
</g>
<g>
</g>
<g>
</g>
<g>
</g>
<g>
</g>
<g>
</g>
<g>
</g>
</svg>
