<?xml version="1.0" encoding="iso-8859-1"?>
<!-- Generator: Adobe Illustrator 19.0.0, SVG Export Plug-In . SVG Version: 6.00 Build 0)  -->
<svg version="1.1" id="Capa_1" xmlns="http://www.w3.org/2000/svg" xmlns:xlink="http://www.w3.org/1999/xlink" x="0px" y="0px"
	 viewBox="0 0 512.064 512.064" style="enable-background:new 0 0 512.064 512.064;" xml:space="preserve">
<path style="fill:#4B9FD8;" d="M480.032,512h-448c-17.68,0-32-14.336-32-32V88.784c0-17.68,14.32-32,32-32h448
	c17.68,0,32,14.32,32,32V480C512.032,497.68,497.696,512,480.032,512z"/>
<g style="opacity:0.4;">
	<rect x="30.752" y="56.864" style="fill:#2B71B8;" width="28.32" height="455.2"/>
	<rect x="101.152" y="56.864" style="fill:#2B71B8;" width="28.32" height="455.2"/>
	<rect x="171.552" y="56.864" style="fill:#2B71B8;" width="28.32" height="455.2"/>
	<rect x="241.792" y="56.864" style="fill:#2B71B8;" width="28.32" height="455.2"/>
	<rect x="312.192" y="56.864" style="fill:#2B71B8;" width="28.32" height="455.2"/>
	<rect x="382.592" y="56.864" style="fill:#2B71B8;" width="28.32" height="455.2"/>
	<rect x="452.992" y="56.864" style="fill:#2B71B8;" width="28.32" height="455.2"/>
</g>
<g style="opacity:0.4;">
	<path style="fill:#2B71B8;" d="M512.032,87.424h-512c0.64-12.96,8.64-23.68,20-28.32h472
		C503.232,63.744,511.392,74.464,512.032,87.424z"/>
	<rect x="0.032" y="129.472" style="fill:#2B71B8;" width="512" height="28.32"/>
	<rect x="0.032" y="199.856" style="fill:#2B71B8;" width="512" height="28.32"/>
	<rect x="0.032" y="270.24" style="fill:#2B71B8;" width="512" height="28.32"/>
	<rect x="0.032" y="340.608" style="fill:#2B71B8;" width="512" height="28.32"/>
	<rect x="0.032" y="410.992" style="fill:#2B71B8;" width="512" height="28.32"/>
	<path style="fill:#2B71B8;" d="M512.032,481.344c-0.48,12.8-8.64,23.84-20,28.32h-472c-11.36-4.48-19.52-15.52-20-28.32H512.032z"
		/>
</g>
<rect x="227.952" y="111.312" style="fill:#8BD5EC;" width="56.16" height="400.64"/>
<polygon style="fill:#143252;" points="256.032,115.536 146.416,0 365.632,0 "/>
<g>
	<path style="fill:#F3F3F3;" d="M365.632,0l-109.6,115.536l77.856,53.952c8.432,5.856,20.128,2.352,23.952-7.168l42.48-105.536
		L365.632,0z"/>
	<path style="fill:#F3F3F3;" d="M146.416,0l109.616,115.536l-77.856,53.952c-8.432,5.856-20.128,2.352-23.952-7.168l-42.48-105.536
		L146.416,0z"/>
</g>
<g style="opacity:0.15;">
	<polygon style="fill:#010101;" points="256.032,115.552 227.952,135.008 227.952,157.936 256.032,138.48 284.112,157.936 
		284.112,135.008 	"/>
</g>
<g>
	<circle style="fill:#FFFFFF;" cx="256.032" cy="214.624" r="13.824"/>
	<circle style="fill:#FFFFFF;" cx="256.032" cy="284.4" r="13.824"/>
	<circle style="fill:#FFFFFF;" cx="256.032" cy="354.112" r="13.824"/>
	<circle style="fill:#FFFFFF;" cx="256.032" cy="423.936" r="13.824"/>
	<circle style="fill:#FFFFFF;" cx="256.032" cy="493.696" r="13.824"/>
	<path style="fill:#FFFFFF;" d="M173.504,76.16c-6.656,5.808-7.36,15.904-1.536,22.576L194,124
		c5.808,6.656,15.92,7.344,22.576,1.536s7.36-15.904,1.536-22.576L196.08,77.696C190.256,71.04,180.16,70.352,173.504,76.16z"/>
	<path style="fill:#FFFFFF;" d="M141.472,39.456c-6.656,5.808-7.344,15.904-1.536,22.576l4.144,4.736
		c5.808,6.672,15.92,7.344,22.576,1.536S174,52.4,168.192,45.728l-4.144-4.736C158.24,34.336,148.128,33.648,141.472,39.456z"/>
</g>
<g>
</g>
<g>
</g>
<g>
</g>
<g>
</g>
<g>
</g>
<g>
</g>
<g>
</g>
<g>
</g>
<g>
</g>
<g>
</g>
<g>
</g>
<g>
</g>
<g>
</g>
<g>
</g>
<g>
</g>
</svg>
