<?xml version="1.0" encoding="iso-8859-1"?>
<!-- Generator: Adobe Illustrator 19.0.0, SVG Export Plug-In . SVG Version: 6.00 Build 0)  -->
<svg version="1.1" id="Capa_1" xmlns="http://www.w3.org/2000/svg" xmlns:xlink="http://www.w3.org/1999/xlink" x="0px" y="0px"
	 viewBox="0 0 512.001 512.001" style="enable-background:new 0 0 512.001 512.001;" xml:space="preserve">
<g>
	<polygon style="fill:#FFE6A1;" points="42.51,129.633 93.263,441.433 418.737,441.433 88.076,99.7 	"/>
	<polygon style="fill:#FFE6A1;" points="469.49,129.633 418.737,441.433 93.263,441.433 423.924,99.7 	"/>
</g>
<polygon style="fill:#FFD550;" points="93.263,441.433 418.737,441.433 256,273.246 "/>
<ellipse style="fill:#F7CB52;" cx="256" cy="441.438" rx="162.74" ry="39.31"/>
<path style="fill:#1E608B;" d="M41.552,126.704L2.858,67.801c-5.275-8.029-3.041-18.814,4.988-24.089l14.615-9.6
	c8.029-5.275,18.814-3.041,24.089,4.988l38.694,58.903L41.552,126.704z"/>
<path style="fill:#135370;" d="M23.123,48.945l41.12,62.854l21.001-13.796L46.55,39.099c-5.275-8.029-16.06-10.263-24.089-4.988
	l-11.027,7.244C16.051,42.124,20.35,44.724,23.123,48.945z"/>
<path style="fill:#FEC93E;" d="M109.658,78.968c-0.64-4.166-4.545-7.031-8.704-6.386l-26.609,4.087
	c-1.082,0.166-2.117,0.564-3.032,1.165l-42.799,28.115c-0.915,0.601-1.691,1.392-2.273,2.32l-14.437,22.988
	c-2.242,3.57-1.166,8.282,2.404,10.524c1.262,0.792,2.666,1.17,4.053,1.17c2.538,0,5.021-1.266,6.471-3.574l3.81-6.067l2.09,8.673
	c0.482,2.001,2.803,2.918,4.523,1.788l68.293-44.862c1.72-1.13,1.799-3.624,0.155-4.861l-7.097-5.338l6.768-1.039
	C107.439,87.031,110.298,83.135,109.658,78.968z"/>
<path style="fill:#EFB73A;" d="M70.093,120.82l33.355-21.911c1.72-1.13,1.799-3.624,0.155-4.861l-7.097-5.338l6.768-1.039
	c4.166-0.64,7.026-4.536,6.386-8.704c-0.64-4.166-4.545-7.031-8.704-6.386l-26.609,4.087c-1.082,0.166-2.117,0.564-3.032,1.165
	l-20.51,13.472L70.093,120.82z"/>
<path style="fill:#135370;" d="M470.448,126.704l38.694-58.903c5.275-8.029,3.041-18.814-4.988-24.089l-14.615-9.6
	c-8.029-5.275-18.814-3.041-24.089,4.988l-38.694,58.903L470.448,126.704z"/>
<path style="fill:#1E608B;" d="M488.877,48.945l-41.12,62.854l-21.001-13.796L465.45,39.1c5.275-8.029,16.06-10.263,24.089-4.988
	l11.027,7.244C495.949,42.124,491.65,44.724,488.877,48.945z"/>
<path style="fill:#EFB73A;" d="M402.342,78.968c0.64-4.166,4.545-7.031,8.703-6.386l26.609,4.087
	c1.082,0.166,2.117,0.564,3.032,1.165l42.799,28.115c0.915,0.601,1.691,1.392,2.273,2.32l14.437,22.988
	c2.242,3.57,1.166,8.282-2.404,10.524c-1.262,0.792-2.666,1.17-4.053,1.17c-2.538,0-5.021-1.266-6.471-3.574l-3.81-6.067
	l-2.09,8.673c-0.482,2.001-2.803,2.918-4.523,1.788l-68.293-44.862c-1.72-1.13-1.799-3.624-0.155-4.861l7.097-5.338l-6.768-1.039
	C404.561,87.031,401.702,83.135,402.342,78.968z"/>
<path style="fill:#FEC93E;" d="M441.907,120.82l-33.355-21.911c-1.72-1.13-1.799-3.624-0.155-4.861l7.097-5.338l-6.768-1.039
	c-4.166-0.64-7.026-4.536-6.386-8.704c0.64-4.166,4.545-7.031,8.703-6.386l26.609,4.087c1.082,0.166,2.117,0.564,3.032,1.165
	l20.508,13.472L441.907,120.82z"/>
<g>
</g>
<g>
</g>
<g>
</g>
<g>
</g>
<g>
</g>
<g>
</g>
<g>
</g>
<g>
</g>
<g>
</g>
<g>
</g>
<g>
</g>
<g>
</g>
<g>
</g>
<g>
</g>
<g>
</g>
</svg>
