<?xml version="1.0" encoding="iso-8859-1"?>
<!-- Generator: Adobe Illustrator 19.0.0, SVG Export Plug-In . SVG Version: 6.00 Build 0)  -->
<svg version="1.1" id="Capa_1" xmlns="http://www.w3.org/2000/svg" xmlns:xlink="http://www.w3.org/1999/xlink" x="0px" y="0px"
	 viewBox="0 0 512 512" style="enable-background:new 0 0 512 512;" xml:space="preserve">
<path style="fill:#FDBC4B;" d="M511.872,258.448h-95.168c-0.672,44.048-18.992,83.776-48.272,112.432l67.296,67.296
	C482.24,392.304,511.216,328.784,511.872,258.448z"/>
<path style="fill:#4B9FD8;" d="M95.168,256c0-88.832,72-160.832,160.832-160.832V0C114.608,0,0,114.608,0,256
	c0,71.312,29.216,135.76,76.272,182.192l67.296-67.296C113.728,341.696,95.168,301.04,95.168,256z"/>
<path style="fill:#787878;" d="M256,416.832c-43.792,0-83.44-17.552-112.432-45.936l-67.296,67.296
	C122.496,483.792,185.936,512,256,512s133.504-28.208,179.728-73.808l-67.296-67.296C339.44,399.28,299.792,416.832,256,416.832z"/>
<path style="fill:#ED6362;" d="M416.832,256c0,0.832-0.112,1.632-0.128,2.448h95.168c0.016-0.816,0.128-1.616,0.128-2.448
	C512,114.608,397.392,0,256,0v95.168C344.832,95.168,416.832,167.184,416.832,256z"/>
<g style="opacity:0.25;">
	<path style="fill:#FFFFFF;" d="M172.064,466.688C85.312,432.096,29.264,349.392,29.264,256
		C29.264,130.976,130.976,29.264,256,29.264c59.04,0,114.96,22.576,157.44,63.584c6.368,6.144,6.544,16.272,0.4,22.624
		c-6.128,6.368-16.272,6.56-22.624,0.4C354.736,80.656,306.704,61.264,256,61.264c-107.376,0-194.736,87.36-194.736,194.736
		c0,80.24,48.144,151.264,122.64,180.976c8.208,3.264,12.208,12.576,8.944,20.784C189.552,466,180.176,469.952,172.064,466.688z"/>
</g>
<rect x="151.792" y="242.976" style="fill:#EBCEB8;" width="57.456" height="97.52"/>
<rect x="227.28" y="207.232" style="fill:#84CA9B;" width="57.456" height="133.264"/>
<rect x="302.768" y="171.504" style="fill:#50BE96;" width="57.456" height="168.992"/>
<g>
</g>
<g>
</g>
<g>
</g>
<g>
</g>
<g>
</g>
<g>
</g>
<g>
</g>
<g>
</g>
<g>
</g>
<g>
</g>
<g>
</g>
<g>
</g>
<g>
</g>
<g>
</g>
<g>
</g>
</svg>
