<?xml version="1.0" encoding="iso-8859-1"?>
<!-- Generator: Adobe Illustrator 19.0.0, SVG Export Plug-In . SVG Version: 6.00 Build 0)  -->
<svg version="1.1" id="Capa_1" xmlns="http://www.w3.org/2000/svg" xmlns:xlink="http://www.w3.org/1999/xlink" x="0px" y="0px"
	 viewBox="0 0 512.001 512.001" style="enable-background:new 0 0 512.001 512.001;" xml:space="preserve">
<path style="fill:#FFE0A1;" d="M256,62.2c-116.202,0-213.133-14.678-235.399-18.321c-2.522-0.413-4.81,1.532-4.81,4.088v224.707
	c0,2.555,2.288,4.5,4.81,4.088C42.867,273.119,139.798,258.44,256,258.44s213.133,14.678,235.399,18.321
	c2.522,0.413,4.81-1.532,4.81-4.088V47.966c0-2.555-2.288-4.5-4.81-4.088C469.133,47.521,372.202,62.2,256,62.2z"/>
<path style="fill:#F9F5ED;" d="M465.256,233.476c0,4.301-3.771,7.626-8.037,7.076c-44.814-5.776-117.897-13.065-201.219-13.065
	c-83.329,0-156.409,7.29-201.219,13.066c-4.266,0.55-8.037-2.775-8.037-7.076V87.164c0-4.301,3.771-7.626,8.037-7.076
	C99.595,85.864,172.678,93.153,256,93.153c83.329,0,156.409-7.29,201.219-13.066c4.266-0.55,8.037,2.775,8.037,7.076
	L465.256,233.476L465.256,233.476z"/>
<g>
	<path style="fill:#EF4A50;" d="M230.328,312.845h-42.433c-14.239,0-25.782,11.543-25.782,25.782v53.268h93.996v-53.268
		C256.11,324.388,244.567,312.845,230.328,312.845z"/>
	<path style="fill:#EF4A50;" d="M136.332,312.845H93.899c-14.239,0-25.782,11.543-25.782,25.782v53.268h93.996v-53.268
		C162.114,324.388,150.571,312.845,136.332,312.845z"/>
	<path style="fill:#EF4A50;" d="M324.325,312.845h-42.433c-14.239,0-25.782,11.543-25.782,25.782v53.268h93.996v-53.268
		C350.106,324.388,338.564,312.845,324.325,312.845z"/>
	<path style="fill:#EF4A50;" d="M418.321,312.845h-42.433c-14.239,0-25.782,11.543-25.782,25.782v53.268h93.996v-53.268
		C444.103,324.388,432.56,312.845,418.321,312.845z"/>
</g>
<g>
	<path style="fill:#D12439;" d="M418.321,312.845h-42.433c-0.807,0-1.604,0.042-2.393,0.115
		c13.116,1.208,23.389,12.236,23.389,25.667v53.268h47.218v-53.268C444.103,324.388,432.56,312.845,418.321,312.845z"/>
	<path style="fill:#D12439;" d="M324.325,312.845h-42.433c-0.807,0-1.604,0.042-2.393,0.115
		c13.116,1.208,23.389,12.236,23.389,25.667v53.268h47.219v-53.268C350.107,324.388,338.564,312.845,324.325,312.845z"/>
	<path style="fill:#D12439;" d="M230.108,312.845h-42.433c-0.807,0-1.604,0.042-2.393,0.115
		c13.116,1.208,23.389,12.236,23.389,25.667v53.268h47.219v-53.268C255.89,324.388,244.347,312.845,230.108,312.845z"/>
	<path style="fill:#D12439;" d="M136.666,312.845H94.233c-0.807,0-1.604,0.042-2.393,0.115
		c13.116,1.208,23.389,12.236,23.389,25.667v53.268h47.218v-53.268C162.448,324.388,150.905,312.845,136.666,312.845z"/>
	<path style="fill:#D12439;" d="M89.334,367.893H46.901c-14.239,0-25.782,11.543-25.782,25.782v53.268h93.996v-53.268
		C115.116,379.436,103.573,367.893,89.334,367.893z"/>
	<path style="fill:#D12439;" d="M183.33,367.893h-42.433c-14.239,0-25.782,11.543-25.782,25.782v53.268h93.996v-53.268
		C209.112,379.436,197.569,367.893,183.33,367.893z"/>
	<path style="fill:#D12439;" d="M277.327,367.893h-42.433c-14.239,0-25.782,11.543-25.782,25.782v53.268h93.996v-53.268
		C303.108,379.436,291.565,367.893,277.327,367.893z"/>
	<path style="fill:#D12439;" d="M371.323,367.893H328.89c-14.239,0-25.782,11.543-25.782,25.782v53.268h93.996v-53.268
		C397.105,379.436,385.562,367.893,371.323,367.893z"/>
	<path style="fill:#D12439;" d="M465.319,367.893h-42.433c-14.239,0-25.782,11.543-25.782,25.782v53.268H491.1v-53.268
		C491.101,379.436,479.558,367.893,465.319,367.893z"/>
</g>
<g>
	<path style="fill:#BF1F3A;" d="M465.319,367.893h-42.433c-0.807,0-1.604,0.042-2.393,0.115
		c13.116,1.208,23.389,12.236,23.389,25.667v53.268H491.1v-53.268C491.101,379.436,479.558,367.893,465.319,367.893z"/>
	<path style="fill:#BF1F3A;" d="M371.323,367.893H328.89c-0.807,0-1.604,0.042-2.393,0.115
		c13.116,1.208,23.389,12.236,23.389,25.667v53.268h47.218v-53.268C397.105,379.436,385.562,367.893,371.323,367.893z"/>
	<path style="fill:#BF1F3A;" d="M277.106,367.893h-42.433c-0.807,0-1.604,0.042-2.393,0.115
		c13.116,1.208,23.389,12.236,23.389,25.667v53.268h47.218v-53.268C302.888,379.436,291.345,367.893,277.106,367.893z"/>
	<path style="fill:#BF1F3A;" d="M183.11,367.893h-42.433c-0.807,0-1.604,0.042-2.393,0.115
		c13.116,1.208,23.389,12.236,23.389,25.667v53.268h47.218v-53.268C208.892,379.436,197.349,367.893,183.11,367.893z"/>
	<path style="fill:#BF1F3A;" d="M89.114,367.893H46.681c-0.807,0-1.604,0.042-2.393,0.115c13.116,1.208,23.389,12.236,23.389,25.667
		v53.268h47.218v-53.268C114.895,379.436,103.352,367.893,89.114,367.893z"/>
</g>
<path style="fill:#DDA064;" d="M510.072,441.273H1.928C0.863,441.273,0,442.136,0,443.2v23.049c0,1.065,0.863,1.928,1.928,1.928
	h508.145c1.065,0,1.928-0.863,1.928-1.928V443.2C512,442.136,511.137,441.273,510.072,441.273z"/>
<path style="fill:#B57947;" d="M510.072,441.273h-51.729v16.378c0,1.065-0.863,1.928-1.928,1.928H0v6.671
	c0,1.065,0.863,1.928,1.928,1.928h508.145c1.065,0,1.928-0.863,1.928-1.928V443.2C512,442.136,511.137,441.273,510.072,441.273z"/>
<g>
</g>
<g>
</g>
<g>
</g>
<g>
</g>
<g>
</g>
<g>
</g>
<g>
</g>
<g>
</g>
<g>
</g>
<g>
</g>
<g>
</g>
<g>
</g>
<g>
</g>
<g>
</g>
<g>
</g>
</svg>
