<?xml version="1.0" encoding="iso-8859-1"?>
<!-- Generator: Adobe Illustrator 19.0.0, SVG Export Plug-In . SVG Version: 6.00 Build 0)  -->
<svg version="1.1" id="Capa_1" xmlns="http://www.w3.org/2000/svg" xmlns:xlink="http://www.w3.org/1999/xlink" x="0px" y="0px"
	 viewBox="0 0 485.872 485.872" style="enable-background:new 0 0 485.872 485.872;" xml:space="preserve">
<path style="fill:#E5E5E5;" d="M405.584,168.656c3.312-11.568,5.184-23.744,5.184-36.384c0-73.04-59.216-132.256-132.256-132.256
	c-53.152,0-98.864,31.424-119.888,76.656c-2.368-0.176-4.736-0.368-7.152-0.368c-50.512,0-91.456,40.944-91.456,91.456
	c0,1.888,0.176,3.744,0.288,5.616c-29.312,11.536-50.144,39.936-50.144,73.36c0,43.616,35.36,78.976,78.976,78.976h307.6
	c43.616,0,78.976-35.36,78.976-78.976C475.696,206.144,444.976,173.104,405.584,168.656z"/>
<path style="fill:#D8D9D8;" d="M297.76,19.248c31.616,0,60.624,11.136,83.376,29.632C356.88,19.072,319.936,0,278.512,0
	c-53.152,0-98.864,31.424-119.888,76.656c0.272,0.016,0.512,0.096,0.784,0.128c-2.624-0.224-5.248-0.48-7.936-0.48
	c-50.512,0-91.456,40.944-91.456,91.456c0,30.16,14.672,56.832,37.2,73.504c-11.232-15.184-17.952-33.92-17.952-54.256
	c0-50.512,40.944-91.456,91.456-91.456c20.336,0,39.072,6.72,54.256,17.952c-10.16-13.744-24.064-24.496-40.192-30.832
	c0.064,0.016,0.128,0.032,0.176,0.048C208.192,44.704,249.952,19.248,297.76,19.248z"/>
<path style="fill:#4B9FD8;" d="M401.344,286.512l-24.768-24.768L342.56,295.76c-12.096-43.264-51.92-75.264-99.088-75.264
	c-37.808,0-70.88,20.624-88.896,51.088c-4.272,7.472-7.712,15.296-10.08,23.712h22.288l-56.192,56.288l-0.24,0.24L59.728,295.28
	h24.064c1.424-8.064,3.44-16,6.048-23.712c21.696-64,82.256-110.352,153.616-110.352C320.144,161.216,384.512,214.8,401.344,286.512
	z"/>
<g style="opacity:0.5;">
	<path style="fill:#8BD5EC;" d="M172.72,220.976c-23.552,16.192-40.88,40.272-48.784,67.792c-1.808,6.288-8.368,9.92-14.672,8.112
		s-9.92-8.384-8.112-14.672c9.424-32.784,30.064-61.456,58.128-80.768c5.392-3.712,12.784-2.336,16.48,3.056
		C179.488,209.888,178.112,217.28,172.72,220.976z"/>
</g>
<path style="fill:#ED6362;" d="M84.512,360.592l24.768,24.768l34.016-34.016c12.096,43.264,51.92,75.264,99.088,75.264
	c37.808,0,70.88-20.624,88.896-51.088c4.272-7.472,7.712-15.296,10.08-23.712h-22.272l56.192-56.304l0.24-0.24l50.608,56.544
	h-24.064c-1.424,8.064-3.44,16-6.048,23.712c-21.696,64-82.256,110.352-153.616,110.352
	C165.712,485.872,101.344,432.304,84.512,360.592z"/>
<path style="fill:#E95454;" d="M313.136,426.112c23.552-16.192,40.88-40.272,48.784-67.792c1.808-6.288,8.368-9.92,14.672-8.112
	s9.92,8.384,8.112,14.672c-9.424,32.784-30.064,61.456-58.144,80.768c-5.392,3.712-12.784,2.336-16.48-3.056
	C306.368,437.216,307.744,429.824,313.136,426.112z"/>
<g>
</g>
<g>
</g>
<g>
</g>
<g>
</g>
<g>
</g>
<g>
</g>
<g>
</g>
<g>
</g>
<g>
</g>
<g>
</g>
<g>
</g>
<g>
</g>
<g>
</g>
<g>
</g>
<g>
</g>
</svg>
