<?xml version="1.0" encoding="iso-8859-1"?>
<!-- Generator: Adobe Illustrator 19.0.0, SVG Export Plug-In . SVG Version: 6.00 Build 0)  -->
<svg version="1.1" id="Capa_1" xmlns="http://www.w3.org/2000/svg" xmlns:xlink="http://www.w3.org/1999/xlink" x="0px" y="0px"
	 viewBox="0 0 512 512" style="enable-background:new 0 0 512 512;" xml:space="preserve">
<rect x="460.98" y="98.196" style="fill:#F2EBDA;" width="31.17" height="282.59"/>
<rect x="476.56" y="98.196" style="fill:#E2D9C5;" width="15.584" height="282.59"/>
<path style="fill:#DDA064;" d="M487.565,509.342h-21.922c-7.698,0-13.818-6.462-13.4-14.148l8.794-161.8h31.134l8.794,161.8
	C501.383,502.882,495.262,509.342,487.565,509.342z"/>
<path style="fill:#C6C5CA;" d="M487.736,129.783h-42.841V78.524h42.841c13.401,0,24.264,10.863,24.264,24.264v2.732
	C512,118.92,501.137,129.783,487.736,129.783z"/>
<circle style="fill:#E2D9C5;" cx="238.3" cy="41.565" r="34.32"/>
<g>
	<circle style="fill:#C6C5CA;" cx="238.3" cy="41.565" r="19.19"/>
	<path style="fill:#C6C5CA;" d="M301.192,129.965l-41.82-19.485c-13.358-6.224-28.783-6.224-42.141,0l-41.82,19.485
		c-7.907,3.684-17.304,0.261-20.988-7.647l-10.63-22.815c-3.684-7.907-0.26-17.304,7.647-20.988l65.792-30.652
		c13.357-6.223,28.782-6.223,42.139,0l65.792,30.652c7.907,3.684,11.331,13.081,7.647,20.988l-10.63,22.815
		C318.496,130.226,309.099,133.649,301.192,129.965z"/>
</g>
<path style="fill:#D3D3D3;" d="M307.854,116.058c-0.037,0-0.082-0.005-0.161-0.041l-41.821-19.486
	c-8.576-3.995-18.109-6.107-27.569-6.107s-18.994,2.112-27.569,6.107l-41.82,19.485c-0.08,0.037-0.128,0.042-0.164,0.042
	c-0.063,0-0.274-0.017-0.377-0.237l-10.63-22.817c-0.029-0.061-0.071-0.152-0.014-0.311c0.058-0.158,0.149-0.2,0.21-0.229
	l65.793-30.653c4.597-2.142,9.499-3.228,14.571-3.228c5.071,0,9.974,1.086,14.571,3.228l65.792,30.653
	c0.061,0.029,0.153,0.071,0.21,0.229c0.058,0.158,0.015,0.25-0.013,0.311l-10.63,22.816
	C308.128,116.041,307.916,116.058,307.854,116.058z"/>
<circle style="fill:#E2D9C5;" cx="101.5" cy="104.156" r="101.5"/>
<path style="fill:#D6CBB4;" d="M173.278,32.379L29.73,175.928c39.64,39.64,103.908,39.64,143.548,0S212.918,72.019,173.278,32.379z"
	/>
<path style="fill:#C6C5CA;" d="M101.504,179.305c-41.439,0-75.152-33.713-75.152-75.151s33.713-75.151,75.152-75.151
	s75.152,33.713,75.152,75.151S142.943,179.305,101.504,179.305z"/>
<path style="fill:#D1EDE9;" d="M56.344,149.314c-24.902-24.902-24.902-65.42,0-90.322s65.42-24.901,90.322,0s24.902,65.419,0,90.321
	S81.245,174.216,56.344,149.314z"/>
<path style="fill:#B0E2DC;" d="M146.665,58.993L146.665,58.993l-90.321,90.321l0,0c24.902,24.902,65.419,24.902,90.321,0
	S171.566,83.895,146.665,58.993z"/>
<circle style="fill:#E2D9C5;" cx="375.1" cy="104.156" r="101.5"/>
<path style="fill:#D6CBB4;" d="M446.874,32.379L303.325,175.928c39.64,39.64,103.908,39.64,143.548,0S486.514,72.019,446.874,32.379
	z"/>
<path style="fill:#C6C5CA;" d="M375.1,179.305c-41.439,0-75.152-33.713-75.152-75.151s33.713-75.151,75.152-75.151
	s75.152,33.713,75.152,75.151S416.538,179.305,375.1,179.305z"/>
<path style="fill:#D1EDE9;" d="M329.939,149.314c-24.902-24.902-24.902-65.419,0-90.321s65.419-24.902,90.321,0
	s24.902,65.419,0,90.321S354.841,174.216,329.939,149.314z"/>
<path style="fill:#B0E2DC;" d="M420.26,58.993L420.26,58.993l-90.321,90.321l0,0c24.902,24.902,65.419,24.902,90.321,0
	S445.162,83.895,420.26,58.993z"/>
<path style="fill:#B57947;" d="M492.17,333.395h-15.567v175.949h10.961c7.698,0,13.818-6.462,13.4-14.148L492.17,333.395z"/>
<g>
</g>
<g>
</g>
<g>
</g>
<g>
</g>
<g>
</g>
<g>
</g>
<g>
</g>
<g>
</g>
<g>
</g>
<g>
</g>
<g>
</g>
<g>
</g>
<g>
</g>
<g>
</g>
<g>
</g>
</svg>
