<?xml version="1.0" encoding="iso-8859-1"?>
<!-- Generator: Adobe Illustrator 19.0.0, SVG Export Plug-In . SVG Version: 6.00 Build 0)  -->
<svg version="1.1" id="Capa_1" xmlns="http://www.w3.org/2000/svg" xmlns:xlink="http://www.w3.org/1999/xlink" x="0px" y="0px"
	 viewBox="0 0 512.064 512.064" style="enable-background:new 0 0 512.064 512.064;" xml:space="preserve">
<path style="fill:#464646;" d="M470.576,460.848H41.488v-273.44c0-17.68,14.32-32,32-32h365.104c17.68,0,32,14.32,32,32v273.44
	H470.576z"/>
<rect x="73.472" y="187.408" style="fill:#3789C9;" width="365.104" height="241.44"/>
<path style="fill:#E5E5E5;" d="M512.032,460.848h-512v19.216c0,17.664,14.32,32,32,32h448c17.664,0,32-14.336,32-32V460.848z"/>
<rect x="210.976" y="456.368" style="fill:#464646;" width="90.112" height="17.424"/>
<path style="fill:#4B9FD8;" d="M73.472,187.408v77.6c0,7.04,5.76,12.8,12.8,12.8c7.2,0,12.8-5.76,12.8-12.8v-17.12
	c0-5.92,4.96-10.72,10.88-10.72h0.8c5.92-0.48,10.88,4.16,10.88,10.08v40.96c0,6.88,5.12,13.12,12,13.44
	c7.52,0.32,13.6-5.44,13.6-12.8v-25.28c0-5.92,4.8-10.72,10.72-10.72h0.96c6.24,0,11.36,5.12,11.36,11.36v2.56
	c0,7.04,5.12,13.28,12.16,13.6c7.36,0.32,13.44-5.44,13.44-12.8v-26.24c0-6.24,5.28-10.88,11.36-10.72c0.16,0,0.16,0,0.16,0h0.16
	c6.24-0.16,11.36,4.48,11.36,10.72v10.56c0,6.88,5.28,13.12,12.16,13.44c7.36,0.48,13.44-5.44,13.44-12.8l0.064-20.384
	c0-6.368,5.152-11.52,11.52-11.52c6.352,0,11.52,5.152,11.52,11.52v33.104c0.144,6.928,5.792,12.544,12.752,12.544
	c7.2,0,12.8-5.76,12.8-12.8v-17.12c0-5.92,4.96-10.72,10.88-10.72h0.8c5.92-0.48,10.88,4.16,10.88,10.08v40.96
	c0,6.88,5.12,13.12,12,13.44c7.52,0.32,13.6-5.44,13.6-12.8v-25.28c0-5.92,4.8-10.72,10.72-10.72h0.96
	c6.24,0,11.36,5.12,11.36,11.36v2.56c0,7.04,5.12,13.28,12.16,13.6c7.36,0.32,13.44-5.44,13.44-12.8v-26.24
	c0-6.24,5.12-10.88,11.36-10.72h0.32c6.24-0.16,11.36,4.48,11.36,10.72v10.56c0,6.88,5.28,13.12,12.16,13.44
	c7.36,0.48,13.44-5.44,13.44-12.8v-65.12H73.472V187.408z"/>
<g>
	<path style="fill:#DCDBDB;" d="M424.704,470.752H344c-8.672,0-15.712,7.024-15.712,15.712c0,8.688,7.04,15.712,15.712,15.712
		h80.704c8.672,0,15.712-7.024,15.712-15.712S433.376,470.752,424.704,470.752z"/>
	<path style="fill:#DCDBDB;" d="M466.144,470.752h-1.968c-8.672,0-15.712,7.024-15.712,15.712c0,8.688,7.04,15.712,15.712,15.712
		h1.968c8.672,0,15.712-7.024,15.712-15.712S474.816,470.752,466.144,470.752z"/>
</g>
<polygon style="fill:#F3F3F3;" points="299.712,371.552 212.352,371.552 234.4,219.472 277.664,219.472 "/>
<path style="fill:#CD494C;" d="M334.784,183.76l-78.752-78.768L177.28,183.76c-23.52,23.52-23.52,61.648,0,85.168l78.752-78.768
	l78.752,78.752C358.304,245.408,358.304,207.28,334.784,183.76z"/>
<path style="fill:#F5E2CD;" d="M296.896,274.048c49.248-84.928,37.76-195.424-34.944-268.128L256.032,0l-5.92,5.92
	c-72.704,72.704-84.192,183.2-34.96,268.128H296.896z"/>
<path style="fill:#FAEBDA;" d="M280.928,274.048c30-84.928,22.992-195.424-21.28-268.128L256.032,0l-3.6,5.92
	c-44.288,72.704-51.28,183.2-21.296,268.128H280.928z"/>
<path style="fill:#F89E62;" d="M206.976,258.48c2.512,5.264,5.232,10.464,8.176,15.568h81.744c2.96-5.088,5.664-10.288,8.176-15.568
	H206.976z"/>
<g>
	<path style="fill:#F3F3F3;" d="M202.544,428.864c0.656-3.28,1.024-6.672,1.024-10.144c0-28.464-23.072-51.52-51.52-51.52
		c-28.464,0-51.52,23.072-51.52,51.52c0,3.472,0.368,6.864,1.024,10.144H202.544z"/>
	<path style="fill:#F3F3F3;" d="M188,428.864h61.904c12.416-9.408,20.576-24.176,20.576-40.96c0-28.448-23.072-51.52-51.52-51.52
		c-28.464,0-51.52,23.072-51.52,51.52C167.424,404.688,175.568,419.44,188,428.864z"/>
	<path style="fill:#F3F3F3;" d="M294.016,428.864c1.456-4.768,2.464-9.712,2.464-14.944c0-28.464-23.072-51.52-51.52-51.52
		s-51.52,23.072-51.52,51.52c0,5.232,1.008,10.192,2.464,14.944H294.016z"/>
	<path style="fill:#F3F3F3;" d="M364.112,428.864c7.12-8.832,11.552-19.92,11.552-32.144c0-28.464-23.072-51.52-51.52-51.52
		s-51.52,23.072-51.52,51.52c0,12.224,4.432,23.312,11.552,32.144H364.112z"/>
	<path style="fill:#F3F3F3;" d="M411.552,428.864c-2.16-26.48-24.08-47.36-51.104-47.36c-27.04,0-48.944,20.896-51.104,47.36
		L411.552,428.864L411.552,428.864z"/>
	<path style="fill:#F3F3F3;" d="M352.304,428.864c-4.88-23.392-25.584-40.96-50.416-40.96c-24.832,0-45.536,17.568-50.416,40.96
		H352.304z"/>
</g>
<path style="fill:#6F7070;" d="M303.632,63.952c-10.4-20.928-24.224-40.592-41.68-58.032L256.032,0l-5.92,5.92
	c-17.44,17.44-31.28,37.104-41.68,58.032C208.432,63.952,303.632,63.952,303.632,63.952z"/>
<circle style="fill:#4B9FD8;" cx="256.032" cy="137.024" r="30.224"/>
<path style="fill:#FFFFFF;" d="M256.032,180.144c-23.776,0-43.12-19.344-43.12-43.104c0-23.776,19.344-43.12,43.12-43.12
	s43.104,19.344,43.104,43.12C299.152,160.8,279.808,180.144,256.032,180.144z M256.032,108.336
	c-15.824,0-28.688,12.864-28.688,28.704c0,15.824,12.88,28.688,28.688,28.688c15.824,0,28.688-12.864,28.688-28.688
	C284.72,121.2,271.856,108.336,256.032,108.336z"/>
<g>
</g>
<g>
</g>
<g>
</g>
<g>
</g>
<g>
</g>
<g>
</g>
<g>
</g>
<g>
</g>
<g>
</g>
<g>
</g>
<g>
</g>
<g>
</g>
<g>
</g>
<g>
</g>
<g>
</g>
</svg>
