<?xml version="1.0" encoding="iso-8859-1"?>
<!-- Generator: Adobe Illustrator 19.0.0, SVG Export Plug-In . SVG Version: 6.00 Build 0)  -->
<svg version="1.1" id="Capa_1" xmlns="http://www.w3.org/2000/svg" xmlns:xlink="http://www.w3.org/1999/xlink" x="0px" y="0px"
	 viewBox="0 0 512 512" style="enable-background:new 0 0 512 512;" xml:space="preserve">
<path style="fill:#BF834C;" d="M269.812,0h-27.624c-2.272,0-4.115,1.842-4.115,4.115v41.229h35.853V4.115
	C273.926,1.842,272.084,0,269.812,0z"/>
<path style="fill:#B27747;" d="M269.812,0H256v45.343h17.926V4.115C273.926,1.842,272.084,0,269.812,0z"/>
<g>
	<rect x="164.26" y="375.31" style="fill:#BF834C;" width="187.37" height="15.817"/>
	<path style="fill:#BF834C;" d="M263.681,465.845h-15.362c-4.479,0-8.11-3.631-8.11-8.11V174.273h31.581v283.462
		C271.791,462.214,268.16,465.845,263.681,465.845z"/>
</g>
<path style="fill:#B27747;" d="M256,174.273v283.462c0,4.406-3.516,7.984-7.895,8.099c0.072,0.002,0.142,0.011,0.214,0.011h15.362
	c4.479,0,8.11-3.631,8.11-8.11V174.273H256z"/>
<path style="fill:#FECB7B;" d="M270.519,152.961l103.068,353.201c1.01,3.46,4.181,5.838,7.785,5.838h16.979
	c5.407,0,9.3-5.191,7.785-10.382L304.394,152.961H270.519z"/>
<path style="fill:#F4BD76;" d="M406.137,501.618L304.394,152.961h-16.872l101.742,348.657c1.515,5.19-2.378,10.382-7.785,10.382
	h16.872C403.759,512,407.651,506.809,406.137,501.618z"/>
<path style="fill:#FECB7B;" d="M207.606,152.961L105.863,501.618c-1.515,5.19,2.378,10.382,7.785,10.382h16.98
	c3.604,0,6.775-2.378,7.785-5.838l103.068-353.201H207.606z"/>
<path style="fill:#F4BD76;" d="M223.818,152.961L120.75,506.162c-0.982,3.366-4.015,5.69-7.497,5.814
	c0.132,0.006,0.261,0.024,0.395,0.024h16.98c3.604,0,6.776-2.378,7.785-5.838l103.068-353.201L223.818,152.961L223.818,152.961z"/>
<path style="fill:#7AB243;" d="M256,300.057c2.036,0,2.039-3.164,0-3.164C253.964,296.893,253.961,300.057,256,300.057L256,300.057z
	"/>
<path style="fill:#9AD9D4;" d="M435.196,302.267H76.804c-4.117,0-7.455-3.338-7.455-7.455V53.734c0-4.117,3.338-7.455,7.455-7.455
	h358.391c4.117,0,7.455,3.338,7.455,7.455v241.078C442.651,298.93,439.313,302.267,435.196,302.267z"/>
<path style="fill:#8DC9C3;" d="M435.196,46.279H379.95c4.117,0,7.455,3.338,7.455,7.455v241.078c0,4.117-3.338,7.455-7.455,7.455
	h55.246c4.117,0,7.455-3.338,7.455-7.455V53.734C442.651,49.617,439.313,46.279,435.196,46.279z"/>
<path style="fill:#FECB7B;" d="M213.62,61.867h84.76c1.843,0,3.338-1.494,3.338-3.338v-24.5c0-1.843-1.494-3.338-3.338-3.338h-84.76
	c-1.843,0-3.338,1.494-3.338,3.338V58.53C210.282,60.373,211.776,61.867,213.62,61.867z"/>
<polygon style="fill:#1E608B;" points="301.83,103.005 207.714,224.047 171.401,172.695 105.534,257.406 411.011,257.406 "/>
<g>
	<polygon style="fill:#1B5B7F;" points="231.302,257.406 171.401,172.695 196.948,257.406 	"/>
	<polygon style="fill:#1B5B7F;" points="301.83,103.005 351.627,257.406 411.011,257.406 	"/>
</g>
<path style="fill:#FECB7B;" d="M76.804,302.267h358.391c4.117,0,7.455-3.338,7.455-7.455v-37.406H69.349v37.406
	C69.349,298.93,72.687,302.267,76.804,302.267z"/>
<path style="fill:#F4BD76;" d="M387.405,257.406v12.76c0,4.406-3.572,7.978-7.978,7.978H76.804c-4.117-1.712-7.455-5.05-7.455-9.168
	v25.835c0,4.117,3.338,7.455,7.455,7.455h358.391c4.117,0,7.455-3.338,7.455-7.455v-25.835v-11.571h-55.245V257.406z"/>
<path style="fill:#BF834C;" d="M457.225,322.151H54.775c-3.056,0-5.533-2.477-5.533-5.533v-20.11c0-3.056,2.477-5.533,5.533-5.533
	h402.45c3.056,0,5.533,2.477,5.533,5.533v20.11C462.758,319.674,460.281,322.151,457.225,322.151z"/>
<path style="fill:#B27747;" d="M457.225,290.975h-49.84v8.665c0,5.833-4.728,10.561-10.561,10.561H54.775
	c-3.056,0-5.533-2.477-5.533-5.534v11.951c0,3.056,2.477,5.533,5.533,5.533h402.45c3.056,0,5.533-2.477,5.533-5.533v-11.951v-8.158
	C462.758,293.452,460.281,290.975,457.225,290.975z"/>
<polygon style="fill:#FFFFFF;" points="351.627,173.427 351.627,173.427 301.83,103.005 253.595,165.04 285.877,154.768 
	301.718,176.21 312.943,152.961 "/>
<polygon style="fill:#E2D9C5;" points="351.627,173.427 301.831,103.005 318.971,156.15 "/>
<polygon style="fill:#FFFFFF;" points="171.401,172.695 134.84,219.715 161.622,214.875 171.377,228.847 194.987,206.05 "/>
<polygon style="fill:#E2D9C5;" points="184.511,216.165 194.987,206.05 171.401,172.695 "/>
<path style="fill:#F4BD76;" d="M298.38,30.691H256v31.176h42.38c1.843,0,3.338-1.494,3.338-3.338v-24.5
	C301.718,32.185,300.224,30.691,298.38,30.691z"/>
<g>
</g>
<g>
</g>
<g>
</g>
<g>
</g>
<g>
</g>
<g>
</g>
<g>
</g>
<g>
</g>
<g>
</g>
<g>
</g>
<g>
</g>
<g>
</g>
<g>
</g>
<g>
</g>
<g>
</g>
</svg>
