<?xml version="1.0" encoding="iso-8859-1"?>
<!-- Generator: Adobe Illustrator 19.0.0, SVG Export Plug-In . SVG Version: 6.00 Build 0)  -->
<svg version="1.1" id="Capa_1" xmlns="http://www.w3.org/2000/svg" xmlns:xlink="http://www.w3.org/1999/xlink" x="0px" y="0px"
	 viewBox="0 0 512 512" style="enable-background:new 0 0 512 512;" xml:space="preserve">
<path style="fill:#6F7070;" d="M419.328,226h-11.232v60h11.232c9.424,0,17.072-7.648,17.072-17.072v-25.872
	C436.4,233.632,428.752,226,419.328,226z"/>
<path style="fill:#464646;" d="M341.024,437.328H150.688c-17.68,0-32-14.32-32-32V106.672c0-17.664,14.32-32,32-32h190.336
	c17.68,0,32,14.336,32,32v298.656C373.024,422.992,358.688,437.328,341.024,437.328z"/>
<g>
	<polygon style="fill:#6F7070;" points="307.872,0 183.824,0 152.576,74.672 339.136,74.672 	"/>
	<polygon style="fill:#6F7070;" points="183.824,512 307.872,512 339.12,437.328 152.576,437.328 	"/>
</g>
<circle style="fill:#8BD5EC;" cx="245.856" cy="256" r="170.256"/>
<circle style="fill:#F3F3F3;" cx="245.856" cy="256" r="122.896"/>
<g style="opacity:0.5;">
	<circle style="fill:#FFFFFF;" cx="282.64" cy="289.6" r="52.32"/>
</g>
<path style="fill:#A3DDEF;" d="M245.856,411.344c-85.664,0-155.344-69.68-155.344-155.344s69.696-155.344,155.344-155.344
	c85.664,0,155.344,69.68,155.344,155.344S331.504,411.344,245.856,411.344z M245.856,117.712
	c-76.256,0-138.288,62.032-138.288,138.288S169.6,394.288,245.856,394.288S384.144,332.256,384.144,256
	S322.096,117.712,245.856,117.712z"/>
<g>
	<path style="fill:#ED6362;" d="M245.856,141.584c-3.536,0-6.4,2.864-6.4,6.4v15.664c0,3.536,2.864,6.4,6.4,6.4s6.4-2.864,6.4-6.4
		v-15.664C252.256,144.448,249.392,141.584,245.856,141.584z"/>
	<path style="fill:#ED6362;" d="M245.856,341.968c-3.536,0-6.4,2.864-6.4,6.4v15.664c0,3.536,2.864,6.4,6.4,6.4s6.4-2.864,6.4-6.4
		v-15.664C252.256,344.832,249.392,341.968,245.856,341.968z"/>
	<path style="fill:#ED6362;" d="M317.712,175.104l-11.072,11.088c-2.496,2.496-2.496,6.544,0,9.056
		c2.464,2.464,6.512,2.528,9.056-0.016l11.072-11.088c2.496-2.496,2.496-6.544,0-9.056
		C324.256,172.576,320.208,172.592,317.712,175.104z"/>
	<path style="fill:#ED6362;" d="M176.016,316.784l-11.072,11.072c-2.496,2.496-2.496,6.544,0,9.056
		c2.544,2.544,6.592,2.48,9.056,0.016l11.072-11.072c2.496-2.496,2.496-6.544,0-9.056
		C182.576,314.32,178.528,314.256,176.016,316.784z"/>
	<path style="fill:#ED6362;" d="M353.872,249.6h-15.664c-3.536,0-6.4,2.864-6.4,6.4c0,3.536,2.864,6.4,6.4,6.4h15.664
		c3.536,0,6.4-2.864,6.4-6.4C360.272,252.464,357.408,249.6,353.872,249.6z"/>
	<path style="fill:#ED6362;" d="M153.488,249.6h-15.664c-3.536,0-6.4,2.864-6.4,6.4c0,3.536,2.864,6.4,6.4,6.4h15.664
		c3.536,0,6.4-2.864,6.4-6.4C159.888,252.464,157.024,249.6,153.488,249.6z"/>
	<path style="fill:#ED6362;" d="M315.68,316.784c-2.512-2.512-6.56-2.464-9.056,0.016c-2.496,2.496-2.496,6.544,0,9.056
		l11.072,11.072c2.464,2.464,6.512,2.528,9.056-0.016c2.496-2.496,2.496-6.544,0-9.056L315.68,316.784z"/>
	<path style="fill:#ED6362;" d="M174,175.104c-2.496-2.496-6.544-2.512-9.056-0.016c-2.496,2.496-2.496,6.544,0,9.056l11.072,11.088
		c2.544,2.544,6.592,2.48,9.056,0.016c2.496-2.496,2.496-6.544,0-9.056L174,175.104z"/>
</g>
<g>
	<path style="fill:#CACACA;" d="M245.856,182.864c-3.536,0-6.4,2.864-6.4,6.4v66.864c0,3.536,2.864,6.4,6.4,6.4s6.4-2.864,6.4-6.4
		v-66.864C252.256,185.728,249.392,182.864,245.856,182.864z"/>
	<path style="fill:#CACACA;" d="M245.856,256c0-3.536-2.864-6.4-6.4-6.4H206.72c-3.536,0-6.4,2.864-6.4,6.4
		c0,3.536,2.864,6.4,6.4,6.4h32.736C242.992,262.4,245.856,259.536,245.856,256z"/>
</g>
<circle style="fill:#787878;" cx="245.856" cy="256" r="14.544"/>
<g>
</g>
<g>
</g>
<g>
</g>
<g>
</g>
<g>
</g>
<g>
</g>
<g>
</g>
<g>
</g>
<g>
</g>
<g>
</g>
<g>
</g>
<g>
</g>
<g>
</g>
<g>
</g>
<g>
</g>
</svg>
