<?xml version="1.0" encoding="iso-8859-1"?>
<!-- Generator: Adobe Illustrator 19.0.0, SVG Export Plug-In . SVG Version: 6.00 Build 0)  -->
<svg version="1.1" id="Capa_1" xmlns="http://www.w3.org/2000/svg" xmlns:xlink="http://www.w3.org/1999/xlink" x="0px" y="0px"
	 viewBox="0 0 512 512" style="enable-background:new 0 0 512 512;" xml:space="preserve">
<path style="fill:#F4C892;" d="M299.441,384.751L299.441,384.751c-14.64,0.68-50.594,9.858-62.393,18.551l-25.446,19.368
	L111.174,291.249c14.817-11.322,23.525-21.964,24.633-26.155l47.629-128.521c1.851-13.846,14.575-23.569,28.421-21.718l0,0
	c13.845,1.851,23.569,14.575,21.718,28.421l-7.345,50.617c-0.667,4.596,4.583,7.68,8.273,4.861l158.922-121.41
	c10.97-8.383,26.832-6.882,35.494,3.868c8.959,11.118,6.948,27.363-4.327,35.979l23.446-17.917
	c11.099-8.481,26.972-6.36,35.454,4.739l0,0c8.482,11.099,6.36,26.972-4.74,35.454l-28.714,21.942
	c11.099-8.481,26.972-6.36,35.454,4.74l0,0c8.481,11.099,6.36,26.972-4.74,35.454l-27.784,21.231
	c11.099-8.481,26.972-6.36,35.454,4.74l0,0c8.481,11.099,6.36,26.972-4.739,35.454L340.292,370.151
	C328.434,378.98,314.209,384.064,299.441,384.751z"/>
<g>
	<path style="fill:#E2B583;" d="M488.424,227.574L488.424,227.574c-2.795-3.657-6.391-6.338-10.355-7.986
		c1.108,8.656-2.292,17.651-9.725,23.331L400.456,293.7c-11.155,8.344-13.362,24.184-4.913,35.26l0,0l88.141-65.933
		C494.783,254.546,496.905,238.673,488.424,227.574z"/>
	<path style="fill:#E2B583;" d="M452.97,222.834l27.767-21.218c11.102-8.484,13.231-24.358,4.757-35.467l0,0
		c-2.799-3.663-6.407-6.342-10.38-7.991c1.095,8.646-2.306,17.625-9.729,23.297l-27.784,21.231l-67.332,51.428
		c-11.124,8.496-13.259,24.4-4.769,35.529l0,0L452.97,222.834z"/>
	<path style="fill:#E2B583;" d="M478.755,139.466c11.098-8.482,13.219-24.354,4.738-35.453l0,0
		c-2.801-3.666-6.412-6.346-10.388-7.994c1.091,8.643-2.309,17.616-9.729,23.287l-123.821,94.592
		c-11.13,8.503-13.266,24.416-4.771,35.552l0,0L478.755,139.466z"/>
</g>
<path style="fill:#EFCEBD;" d="M424.593,117.191c11.275-8.616,13.286-24.861,4.327-35.979c-2.728-3.386-6.172-5.853-9.951-7.383
	c1.062,8.62-2.348,17.559-9.747,23.213l-100.383,76.682c-11.125,8.498-13.259,24.404-4.769,35.534l0,0L424.593,117.191z"/>
<path style="fill:#FED9A8;" d="M451.887,316.53L451.887,316.53c-8.33,12.058-22.817,46.22-23.052,60.874l-0.013,31.979l-165.4,0.25
	c-0.028-18.648-3.216-32.024-5.879-35.444L184.169,258.42c-9.892-9.863-9.917-25.877-0.054-35.769l0,0
	c9.862-9.892,25.877-9.916,35.769-0.054l35.814,36.515c3.252,3.315,8.887,1.008,8.88-3.636l-0.276-199.991
	c-0.021-13.806,10.785-25.514,24.586-25.891c14.273-0.389,25.977,11.054,25.998,25.245l-0.045-29.508
	C314.821,11.362,326.128,0.021,340.096,0l0,0c13.969-0.021,25.31,11.286,25.331,25.254l0.055,36.138
	c-0.021-13.969,11.286-25.31,25.254-25.331l0,0c13.969-0.021,25.31,11.286,25.331,25.254l0.053,34.967
	c-0.021-13.969,11.286-25.31,25.254-25.331l0,0c13.969-0.021,25.31,11.286,25.331,25.254l-1.677,178.981
	C464.866,289.97,460.289,304.367,451.887,316.53z"/>
<g>
	<path style="fill:#F4C892;" d="M441.374,70.953L441.374,70.953c-4.567,0.007-8.849,1.225-12.542,3.349
		c7.587,4.356,12.707,12.528,12.721,21.905l-0.743,84.917c-0.121,13.855,11.077,25.151,24.932,25.151l0,0l0.963-110.068
		C466.684,82.238,455.343,70.931,441.374,70.953z"/>
	<path style="fill:#F4C892;" d="M416.12,96.283l-0.053-34.967c-0.021-13.969-11.362-25.275-25.331-25.254l0,0
		c-4.615,0.007-8.935,1.255-12.656,3.42c7.519,4.374,12.583,12.508,12.598,21.834l0.053,34.967l0.109,85.165
		c0.018,13.758,11.175,24.901,24.933,24.901h0.488L416.12,96.283z"/>
	<path style="fill:#F4C892;" d="M365.427,25.252C365.405,11.285,354.065-0.021,340.097,0l0,0c-4.62,0.007-8.945,1.258-12.669,3.428
		c7.511,4.375,12.569,12.505,12.584,21.825l0.214,156.275c0.019,13.757,11.176,24.899,24.933,24.899h0.517L365.427,25.252z"/>
	<path style="fill:#F4C892;" d="M314.887,54.839c-0.021-14.191-11.725-25.634-25.998-25.245c-4.352,0.119-8.405,1.366-11.915,3.449
		c7.478,4.384,12.506,12.5,12.52,21.796l0.17,126.764c0.018,13.757,11.176,24.9,24.933,24.9h0.494L314.887,54.839z"/>
</g>
<path style="fill:#E8E8E8;" d="M82.941,307.062l104.908,137.284c2.292,3,6.582,3.573,9.582,1.281l30.157-23.045
	c3-2.292,3.573-6.582,1.281-9.582L123.961,275.716c-2.292-3-6.582-3.573-9.582-1.281L84.222,297.48
	C81.222,299.772,80.649,304.062,82.941,307.062z"/>
<path style="fill:#DDDDDD;" d="M197.431,445.627l30.157-23.045c3-2.292,3.573-6.582,1.281-9.582l-49.361-64.595l-42.623,29.248
	l50.964,66.693C190.141,447.346,194.431,447.919,197.431,445.627z"/>
<path style="fill:#7AB8DD;" d="M19.891,340.347l119.28,156.092c2.564,3.356,7.422,3.868,10.629,1.12l56.611-48.487
	c2.964-2.539,3.43-6.951,1.06-10.053L93.234,289.528c-2.37-3.101-6.749-3.812-9.978-1.618l-61.655,41.887
	C18.108,332.17,17.326,336.991,19.891,340.347z"/>
<path style="fill:#6FA9D4;" d="M207.471,439.02l-32.678-42.763c1.842,3.072,1.241,7.084-1.54,9.466l-57.243,49.029
	c-2.241,1.92-5.278,2.264-7.797,1.175l30.958,40.512c2.564,3.356,7.422,3.868,10.629,1.12l56.611-48.487
	C209.376,446.534,209.841,442.121,207.471,439.02z"/>
<path style="fill:#E8E8E8;" d="M258.892,441.675l172.779-0.261c3.775-0.006,6.831-3.071,6.826-6.846l-0.057-37.954
	c-0.006-3.775-3.071-6.831-6.846-6.826l-172.779,0.261c-3.775,0.006-6.831,3.071-6.826,6.846l0.057,37.954
	C252.052,438.624,255.117,441.68,258.892,441.675z"/>
<path style="fill:#DDDDDD;" d="M431.593,389.788l-86.216,0.13v51.626l86.294-0.13c3.775-0.006,6.831-3.071,6.825-6.846
	l-0.057-37.954C438.434,392.838,435.368,389.782,431.593,389.788z"/>
<path style="fill:#7AB8DD;" d="M247.163,512l196.45-0.297c4.223-0.006,7.574-3.56,7.332-7.776l-4.266-74.415
	c-0.223-3.897-3.451-6.94-7.355-6.935l-188.143,0.284c-3.903,0.006-7.122,3.059-7.334,6.957l-4.041,74.428
	C239.578,508.463,242.939,512.006,247.163,512z"/>
<path style="fill:#6FA9D4;" d="M450.945,503.927l-4.266-74.415c-0.223-3.897-3.451-6.941-7.354-6.935l-57.076,0.086
	c3.401,0.498,6.07,3.319,6.273,6.848l4.266,74.415c0.242,4.216-3.109,7.77-7.332,7.777l-139.37,0.21
	c0.353,0.051,0.71,0.087,1.078,0.086l196.45-0.297C447.836,511.697,451.187,508.143,450.945,503.927z"/>
<g>
</g>
<g>
</g>
<g>
</g>
<g>
</g>
<g>
</g>
<g>
</g>
<g>
</g>
<g>
</g>
<g>
</g>
<g>
</g>
<g>
</g>
<g>
</g>
<g>
</g>
<g>
</g>
<g>
</g>
</svg>
