<?xml version="1.0" encoding="iso-8859-1"?>
<!-- Generator: Adobe Illustrator 19.0.0, SVG Export Plug-In . SVG Version: 6.00 Build 0)  -->
<svg version="1.1" id="Capa_1" xmlns="http://www.w3.org/2000/svg" xmlns:xlink="http://www.w3.org/1999/xlink" x="0px" y="0px"
	 viewBox="0 0 512 512" style="enable-background:new 0 0 512 512;" xml:space="preserve">
<path style="fill:#CACACA;" d="M402.928,48.095c-13.152-28.656-47.168-41.296-75.824-28.128C308.448,28.543,274.4,69.631,256,93.023
	c-18.4-23.392-52.448-64.464-71.104-73.04c-28.688-13.184-62.672-0.528-75.824,28.112c-13.184,28.72-0.624,62.64,28.112,75.824
	c22.288,10.224,94.32,6.928,118.816,5.408c24.464,1.568,96.608,4.8,118.832-5.408C403.536,110.751,416.128,76.831,402.928,48.095z
	 M148.656,98.895c-14.88-6.816-21.44-24.384-14.576-39.328c6.88-14.992,24.656-21.344,39.328-14.576
	c10.032,4.608,34.624,32.272,55.392,58.064C195.712,104.159,158.704,103.503,148.656,98.895z M363.328,98.895
	c-10.032,4.608-47.04,5.184-80.128,4.16c20.768-25.792,45.36-53.44,55.392-58.048c14.848-6.848,32.496-0.304,39.328,14.576
	C384.768,74.511,378.224,92.095,363.328,98.895z"/>
<path style="fill:#4B9FD8;" d="M437.344,497.231H74.656c-17.68,0-32-14.32-32-32V196.127h426.688v269.104
	C469.344,482.911,455.008,497.231,437.344,497.231z"/>
<path style="fill:#E95454;" d="M480,101.183H32c-17.68,0-32,14.32-32,32v30.944c0,17.664,14.32,32,32,32h448
	c17.664,0,32-14.336,32-32v-30.944C512,115.519,497.664,101.183,480,101.183z"/>
<rect x="211.936" y="101.183" style="fill:#E5E5E5;" width="88.128" height="396.048"/>
<path style="fill:#53ACE0;" d="M338.592,222.335c-3.12,19.6,11.936,36.528,30.96,36.528h33.12c14.672,0,26.176,12.32,25.456,26.992
	c-0.032,0.496-0.032,0.992-0.032,1.488c0,0.08,0,0.16,0,0.224c0.112,15.36-11.328,28.24-26.688,28.24h-46.384
	c-15.696,0-30.272,10.704-32.736,26.208c-3.12,19.6,11.936,36.528,30.944,36.528h15.696c14.928,0,27.088,12.224,27.024,27.152v0.352
	c0,0.608,0.016,1.2,0.048,1.792c0.8,14.528-10.928,26.672-25.472,26.672h-14.096c-15.696,0-30.272,10.704-32.752,26.208
	c-3.136,19.6,11.936,36.528,30.944,36.528h82.688c17.68,0,32-14.32,32-32v-269.12h-98
	C355.648,196.127,341.056,206.847,338.592,222.335z"/>
<g>
	<path style="fill:#ED6362;" d="M112.544,168.207H45.808c-8.832,0-16-7.152-16-16s7.168-16,16-16h66.736c8.832,0,16,7.152,16,16
		S121.376,168.207,112.544,168.207z"/>
	<path style="fill:#ED6362;" d="M169.888,168.207h-12.192c-8.832,0-16-7.152-16-16s7.168-16,16-16h12.176c8.832,0,16,7.152,16,16
		S178.72,168.207,169.888,168.207z"/>
</g>
<g style="opacity:0.07;">
	<rect x="42.656" y="196.127" style="fill:#010101;" width="426.688" height="16.256"/>
</g>
<g>
</g>
<g>
</g>
<g>
</g>
<g>
</g>
<g>
</g>
<g>
</g>
<g>
</g>
<g>
</g>
<g>
</g>
<g>
</g>
<g>
</g>
<g>
</g>
<g>
</g>
<g>
</g>
<g>
</g>
</svg>
