<?xml version="1.0" encoding="iso-8859-1"?>
<!-- Generator: Adobe Illustrator 19.0.0, SVG Export Plug-In . SVG Version: 6.00 Build 0)  -->
<svg version="1.1" id="Capa_1" xmlns="http://www.w3.org/2000/svg" xmlns:xlink="http://www.w3.org/1999/xlink" x="0px" y="0px"
	 viewBox="0 0 512 512" style="enable-background:new 0 0 512 512;" xml:space="preserve">
<path style="fill:#FF855F;" d="M477.164,45.688v445.737c0,7.299,5.917,13.217,13.217,13.217l0,0c7.299,0,13.217-5.917,13.217-13.217
	V45.688c0-7.299-5.917-13.217-13.217-13.217l0,0C483.081,32.471,477.164,38.389,477.164,45.688z"/>
<path style="fill:#FD6E2E;" d="M490.38,32.471c-2.41,0-4.663,0.656-6.608,1.783c3.947,2.286,6.608,6.545,6.608,11.434v445.737
	c0,4.889-2.662,9.148-6.608,11.434c1.946,1.127,4.198,1.783,6.608,1.783c7.299,0,13.217-5.917,13.217-13.217V45.688
	C503.597,38.389,497.68,32.471,490.38,32.471z"/>
<path style="fill:#FF855F;" d="M345.611,303.203v183.464c0,7.299,5.918,13.217,13.217,13.217s13.217-5.917,13.217-13.217V303.203
	H345.611z"/>
<path style="fill:#FD6E2E;" d="M358.828,303.203v183.464c0,4.889-2.662,9.148-6.608,11.434c1.946,1.127,4.198,1.783,6.608,1.783
	c7.299,0,13.217-5.917,13.217-13.217V303.203H358.828z"/>
<path style="fill:#FF8D9B;" d="M364.856,181.002c-2.796,0-5.641-0.098-8.457-0.292c-42.911-2.946-78.484-27.288-95.869-41.536
	c-1.274-1.044-2.883-1.62-4.53-1.62s-3.256,0.575-4.53,1.62c-17.385,14.247-52.958,38.589-95.867,41.536
	c-2.819,0.194-5.665,0.292-8.459,0.292c-20.93,0-41.16-5.418-60.129-16.104C22.173,128.368,4.627,49.855,0.094,17.794
	c-0.36-2.55,0.322-5.04,1.92-7.011c1.61-1.988,3.995-3.229,6.543-3.403C8.765,7.365,8.972,7.358,9.18,7.358
	c2.283,0,4.475,0.875,6.175,2.463c11.843,11.057,40.864,30.081,102.157,33.256c48.706,2.522,86.259,23.457,109.185,40.577
	c1.524,1.138,3.061,2.316,4.567,3.501c7.003,5.51,15.788,8.545,24.735,8.545c8.947,0,17.732-3.035,24.736-8.545
	c1.494-1.177,3.032-2.355,4.567-3.501c22.925-17.119,60.478-38.055,109.184-40.576C455.778,39.904,484.8,20.88,496.644,9.822
	c1.7-1.588,3.893-2.463,6.176-2.463c0.207,0,0.415,0.007,0.623,0.022c2.547,0.175,4.932,1.415,6.543,3.404
	c1.597,1.972,2.279,4.461,1.92,7.01c-4.535,32.062-22.082,110.576-86.922,147.104c-18.968,10.686-39.197,16.104-60.125,16.104
	C364.859,181.002,364.857,181.002,364.856,181.002z"/>
<g>
	<path style="fill:#FD747F;" d="M509.987,10.784c-1.612-1.989-3.996-3.229-6.543-3.404c-0.207-0.014-0.416-0.022-0.623-0.022
		c-2.283,0-4.476,0.875-6.176,2.463c-7.243,6.762-20.928,16.498-44.469,23.772c-7.585,37.249-28.347,99.846-84.189,131.305
		c-10.356,5.834-21.089,10.085-32.105,12.755c6.61,1.501,13.462,2.573,20.517,3.058c2.816,0.194,5.66,0.292,8.457,0.292
		c0.001,0,0.003,0,0.004,0c20.927,0,41.156-5.418,60.125-16.104c64.84-36.528,82.387-115.042,86.922-147.104
		C512.266,15.245,511.584,12.755,509.987,10.784z"/>
	<path style="fill:#FD747F;" d="M145.828,163.077c-18.166,0-35.088-4.559-51.736-13.937c-24.675-13.901-44.409-36.357-58.653-66.743
		L23.082,56.036c-1.305-2.781-1.101-5.988,0.544-8.576c1.652-2.6,4.465-4.152,7.526-4.152c0.766,0,1.533,0.099,2.28,0.294
		l28.164,7.381c16.101,4.219,34.215,6.872,53.836,7.885c48.236,2.498,85.064,24.892,107.467,43.238l14.548,11.915
		c2.208,1.809,3.425,4.589,3.257,7.437c-0.168,2.847-1.703,5.464-4.106,7l-15.845,10.127c-15.67,10.017-40.103,22.353-67.51,24.235
		C150.766,162.991,148.272,163.077,145.828,163.077z"/>
</g>
<path style="fill:#D1EDE9;" d="M145.828,150.022c-15.86,0-30.687-4.009-45.327-12.257C78.24,125.223,60.327,104.73,47.26,76.855
	l-8.622-18.393l19.651,5.149c16.961,4.444,35.96,7.235,56.471,8.295c44.698,2.315,78.98,23.193,99.868,40.3l10.151,8.314
	l-11.056,7.066c-14.388,9.197-36.716,20.516-61.374,22.21C150.163,149.946,147.97,150.022,145.828,150.022z"/>
<path style="fill:#FD747F;" d="M366.172,163.077c-2.444,0-4.938-0.086-7.414-0.255c-27.409-1.883-51.842-14.219-67.512-24.235
	l-15.845-10.127c-2.403-1.536-3.938-4.153-4.106-7c-0.168-2.848,1.05-5.628,3.256-7.436l14.549-11.916
	c22.403-18.346,59.231-40.74,107.465-43.238c19.623-1.014,37.737-3.666,53.838-7.885l28.163-7.38
	c0.748-0.197,1.515-0.295,2.281-0.295c3.061,0,5.874,1.552,7.526,4.152c1.646,2.588,1.849,5.795,0.544,8.576L476.56,82.399
	c-14.244,30.386-33.978,52.842-58.653,66.743C401.26,158.518,384.338,163.077,366.172,163.077z"/>
<path style="fill:#D1EDE9;" d="M366.172,150.022c15.86,0,30.687-4.009,45.327-12.257c22.261-12.542,40.174-33.035,53.241-60.91
	l8.622-18.393l-19.651,5.149c-16.961,4.444-35.96,7.235-56.471,8.295c-44.698,2.315-78.98,23.193-99.868,40.3l-10.151,8.314
	l11.056,7.066c14.388,9.197,36.716,20.516,61.374,22.21C361.837,149.946,364.03,150.022,366.172,150.022z"/>
<g>
	<path style="fill:#B0E2DC;" d="M453.712,63.611c-11.829,3.099-24.669,5.375-38.303,6.84c-2.395,18.524-10.806,54.527-40.306,79.133
		c12.554-1.24,24.536-5.138,36.396-11.819c22.261-12.542,40.174-33.035,53.241-60.91l8.623-18.393L453.712,63.611z"/>
	<path style="fill:#B0E2DC;" d="M145.828,150.022c2.142,0,4.335-0.076,6.521-0.226c24.658-1.694,46.986-13.013,61.374-22.21
		l11.056-7.066l-10.151-8.314c-6.946-5.689-15.382-11.792-25.181-17.493c-13.975,15.5-42.622,43.597-75.077,49.573
		C124.551,148.134,134.946,150.022,145.828,150.022z"/>
</g>
<path style="fill:#EF4A50;" d="M326.359,270.544c-24.036-24.036-57.669-16.737-70.359-5.471
	c-12.69-11.266-46.323-18.564-70.359,5.471c-27.796,27.796-53.933,31.595-53.933,31.595s32.412,15.752,56.422,39.763
	c16.96,16.96,67.87,15.765,67.87,15.765s50.91,1.195,67.87-15.765c24.011-24.011,56.422-39.763,56.422-39.763
	S354.155,298.34,326.359,270.544z"/>
<path style="fill:#DD2A37;" d="M260.109,302.139L256,300.433l-4.109,1.706c-42.642,16.144-120.183,0-120.183,0
	s32.412,15.752,56.422,39.763c16.96,16.96,67.87,15.765,67.87,15.765s50.91,1.195,67.87-15.765
	c24.011-24.011,56.422-39.763,56.422-39.763S302.751,318.283,260.109,302.139z"/>
<path style="fill:#EF4A50;" d="M258.167,341.366c-1.073,0-1.708-0.012-1.798-0.014l-0.37-0.009l-0.384,0.009
	c-0.076,0.002-0.71,0.014-1.784,0.014c-25.008,0-47.787-4.628-54.163-11.004c-1.644-1.645-3.319-3.249-5.019-4.816
	c2.364,0.056,4.743,0.086,7.131,0.086c21.793,0,40.021-2.563,54.219-7.619c14.198,5.056,32.427,7.619,54.22,7.619
	c2.387,0,4.766-0.03,7.13-0.086c-1.7,1.567-3.375,3.171-5.019,4.816C305.954,336.738,283.175,341.366,258.167,341.366z"/>
<g>
	<path style="fill:#EF5B66;" d="M315.659,297.074c-18.702,0-33.674-2.055-44.505-6.107l-8.564-3.557l8.961-7.956
		c3.619-3.213,11.99-6.67,21.816-6.67c7.363,0,18.139,1.998,27.662,11.521c4.592,4.593,9.166,8.607,13.632,12.116
		C328.494,296.825,322.084,297.074,315.659,297.074z"/>
	<path style="fill:#EF5B66;" d="M196.342,297.074c-6.425,0-12.835-0.25-19.002-0.652c4.467-3.51,9.039-7.523,13.631-12.116
		c9.523-9.523,20.299-11.521,27.662-11.521c9.827,0,18.198,3.457,21.816,6.67l8.961,7.956l-8.564,3.557
		c-10.831,4.052-25.799,6.107-44.497,6.107C196.346,297.074,196.344,297.074,196.342,297.074z"/>
</g>
<g>
</g>
<g>
</g>
<g>
</g>
<g>
</g>
<g>
</g>
<g>
</g>
<g>
</g>
<g>
</g>
<g>
</g>
<g>
</g>
<g>
</g>
<g>
</g>
<g>
</g>
<g>
</g>
<g>
</g>
</svg>
