<?xml version="1.0" encoding="iso-8859-1"?>
<!-- Generator: Adobe Illustrator 19.0.0, SVG Export Plug-In . SVG Version: 6.00 Build 0)  -->
<svg version="1.1" id="Capa_1" xmlns="http://www.w3.org/2000/svg" xmlns:xlink="http://www.w3.org/1999/xlink" x="0px" y="0px"
	 viewBox="0 0 511.712 511.712" style="enable-background:new 0 0 511.712 511.712;" xml:space="preserve">
<path style="fill:#F3F3F3;" d="M0.496,395.728c0,17.664,14.32,32,32,32H412c17.664,0,32-14.336,32-32V107.264H0.496V395.728z"/>
<path style="fill:#E8E8E8;" d="M223.904,197.216h-82.608c-11.808,0-21.168-9.264-20.448-20.272c0.032-0.496,0.048-0.976,0.048-1.472
	v-0.256c-0.064-11.168,9.664-20.288,21.632-20.288h11.568c14.272,0,25.856-10.8,25.856-24.128s-11.584-24.144-25.856-24.144H0.496
	V397.04c0,17.68,14.32,32,32,32h119.616c14.736,0,26.608-11.52,25.824-25.44c-0.736-13.056-13.28-22.832-27.28-22.832H129.28
	c-12.496,0-21.808-9.792-21.664-21.456c0-0.096,0-0.192,0-0.288s0-0.192,0-0.288c-0.144-11.664,9.168-21.456,21.664-21.456h53.056
	c14.736,0,26.608-11.52,25.824-25.44c-0.736-13.056-13.28-22.832-27.28-22.832h-28.288c-12.64,0-22.928-9.664-22.864-21.456v-0.288
	l-0.016-1.392c-0.08-11.216,9.648-20.352,21.68-20.352h73.968c14.736,0,26.608-11.52,25.824-25.44
	C250.464,206.992,237.904,197.216,223.904,197.216z"/>
<path style="fill:#C0BFBF;" d="M476.272,253.216c0-49.584-40.32-89.904-89.904-89.904s-89.92,40.336-89.92,89.904v104.928h20
	V253.232c0-38.608,31.296-69.92,69.904-69.92s69.904,31.296,69.904,69.92v104.912h20V253.216H476.272z"/>
<path style="fill:#CACACA;" d="M386.368,183.312c-38.608,0-69.904,31.296-69.904,69.92v104.912h139.824V253.232
	C456.272,214.608,424.976,183.312,386.368,183.312z M336.448,318.128V253.2c0-27.52,22.384-49.904,49.92-49.904
	c27.52,0,49.904,22.384,49.904,49.904v64.928H336.448z"/>
<path style="fill:#FDBC4B;" d="M479.216,308.912H293.52c-17.68,0-32,14.32-32,32V479.68c0,17.68,14.32,32,32,32h185.696
	c17.68,0,32-14.32,32-32V340.912C511.216,323.248,496.896,308.912,479.216,308.912z"/>
<path style="fill:#FFCC5B;" d="M511.12,479.68V340.912c0-17.68-14.336-32-32-32h-41.168c-8.976,0-16.272,6.8-16.272,15.184
	s7.28,15.184,16.272,15.184h7.28c7.52,0,13.648,5.744,13.6,12.768v0.16c0,0.304,0.016,0.624,0.032,0.928
	c0.448,6.928-5.44,12.752-12.864,12.752h-51.952c-8.8,0-16.704,6.16-17.168,14.368c-0.496,8.752,6.96,16,16.24,16h46.528
	c7.568,0,13.68,5.744,13.632,12.8v0.88v0.176c0.048,7.424-6.416,13.504-14.384,13.504H421.12c-8.8,0-16.704,6.16-17.168,14.368
	c-0.496,8.752,6.96,16,16.24,16h33.36c7.856,0,13.712,6.16,13.632,13.504c0,0.064,0,0.128,0,0.176c0,0.064,0,0.112,0,0.176
	c0.096,7.328-5.76,13.504-13.632,13.504h-13.44c-8.8,0-16.704,6.16-17.168,14.368c-0.496,8.752,6.96,16,16.24,16h39.92
	C496.8,511.68,511.12,497.36,511.12,479.68z"/>
<path style="fill:#464646;" d="M417.408,393.824c0-17.152-13.904-31.056-31.056-31.056s-31.056,13.904-31.056,31.056
	c0,12.032,6.928,22.352,16.928,27.504l-6.704,36.496h41.648l-6.704-36.496C410.496,416.176,417.408,405.856,417.408,393.824z"/>
<path style="fill:#6F7070;" d="M444,107.264V32c0-17.68-14.336-32-32-32H32.496c-17.68,0-32,14.32-32,32v75.264
	C0.496,107.264,444,107.264,444,107.264z"/>
<circle style="fill:#FFFFFF;" cx="58.736" cy="53.632" r="20.656"/>
<circle style="fill:#FFE28F;" cx="117.056" cy="53.632" r="20.656"/>
<circle style="fill:#FDBC4B;" cx="175.376" cy="53.632" r="20.656"/>
<g>
	<path style="fill:#787878;" d="M315.056,53.632c0,8.832,7.152,16,16,16h44.064c8.848,0,16-7.168,16-16s-7.152-16-16-16h-44.064
		C322.208,37.632,315.056,44.8,315.056,53.632z"/>
	<path style="fill:#787878;" d="M248.688,53.632c0,8.832,7.152,16,16,16h18.736c8.848,0,16-7.168,16-16s-7.152-16-16-16h-18.736
		C255.84,37.632,248.688,44.8,248.688,53.632z"/>
</g>
<g>
</g>
<g>
</g>
<g>
</g>
<g>
</g>
<g>
</g>
<g>
</g>
<g>
</g>
<g>
</g>
<g>
</g>
<g>
</g>
<g>
</g>
<g>
</g>
<g>
</g>
<g>
</g>
<g>
</g>
</svg>
