<?xml version="1.0" encoding="iso-8859-1"?>
<!-- Generator: Adobe Illustrator 19.0.0, SVG Export Plug-In . SVG Version: 6.00 Build 0)  -->
<svg version="1.1" id="Capa_1" xmlns="http://www.w3.org/2000/svg" xmlns:xlink="http://www.w3.org/1999/xlink" x="0px" y="0px"
	 viewBox="0 0 512 512" style="enable-background:new 0 0 512 512;" xml:space="preserve">
<rect x="244.193" y="118.761" transform="matrix(-0.7071 -0.7071 0.7071 -0.7071 323.8486 458.1441)" style="fill:#6F7070;" width="25.232" height="86.479"/>
<circle style="fill:#464646;" cx="287.376" cy="131.44" r="19.888"/>
<rect x="242.601" y="118.8" transform="matrix(0.7071 -0.7071 0.7071 0.7071 -39.8276 227.926)" style="fill:#787878;" width="25.232" height="86.479"/>
<circle style="fill:#464646;" cx="224.64" cy="131.44" r="19.888"/>
<path style="fill:#ED6362;" d="M155.36,512h201.28c42.592,0,84.768-14.416,115.632-43.776c24.112-22.944,38.064-50.016,38.064-79.04
	c0-25.984-11.28-50.368-30.96-71.664c-21.584-23.344-36.448-51.952-40.304-83.504c-2.768-22.672-21.856-39.04-43.936-39.04H116.352
	c-19.968,0-36.736,13.744-42.272,32.928c-10.8,37.44-29.936,71.52-52.576,103.232C8.752,348.992,1.664,368.592,1.664,389.2
	c0,29.024,13.936,56.08,38.064,79.04C70.576,497.584,112.768,512,155.36,512z"/>
<path style="fill:#E95454;" d="M3.904,408.784c4.768,21.584,17.232,41.744,35.824,59.424C70.576,497.584,112.768,512,155.36,512
	h201.28c42.592,0,84.768-14.416,115.632-43.776c18.592-17.696,31.056-37.84,35.824-59.424H3.904V408.784z"/>
<g>
	<path style="fill:#ED6362;" d="M201.296,435.552h-126c-8.832,0-16,7.152-16,16s7.168,16,16,16h126c8.832,0,16-7.152,16-16
		C217.296,442.704,210.128,435.552,201.296,435.552z"/>
	<path style="fill:#ED6362;" d="M280.304,435.552h-27.552c-8.832,0-16,7.152-16,16s7.168,16,16,16h27.552c8.832,0,16-7.152,16-16
		S289.136,435.552,280.304,435.552z"/>
</g>
<circle style="fill:#FDBC4B;" cx="166.512" cy="61.264" r="61.264"/>
<circle style="fill:#EC9922;" cx="166.512" cy="61.264" r="43.888"/>
<path style="fill:#FFFFFF;" d="M163.808,80.624V64.352c-5.088-1.44-8.8-3.632-11.168-6.576s-3.552-6.496-3.552-10.688
	c0-4.24,1.344-7.808,4.016-10.688c2.672-2.88,6.24-4.544,10.688-4.992v-3.84h5.632v3.84c4.112,0.496,7.392,1.888,9.824,4.208
	s3.984,5.424,4.656,9.296l-9.824,1.28c-0.592-3.056-2.144-5.12-4.656-6.208v15.184c6.208,1.68,10.448,3.856,12.688,6.544
	c2.256,2.672,3.376,6.112,3.376,10.304c0,4.688-1.424,8.624-4.256,11.84s-6.768,5.184-11.824,5.904v5.216h-5.632v-5.04
	c-4.448-0.544-8.096-2.208-10.88-5.008c-2.8-2.8-4.576-6.736-5.36-11.84L157.664,72c0.416,2.08,1.2,3.856,2.336,5.36
	S162.4,79.952,163.808,80.624z M163.808,39.856c-1.52,0.512-2.752,1.392-3.648,2.64c-0.912,1.248-1.36,2.624-1.36,4.112
	c0,1.376,0.416,2.64,1.248,3.824s2.08,2.128,3.76,2.848V39.856z M169.424,81.168c1.936-0.368,3.52-1.264,4.736-2.704
	s1.84-3.12,1.84-5.056c0-1.728-0.512-3.232-1.536-4.48s-2.704-2.224-5.024-2.896v15.136H169.424z"/>
<circle style="fill:#FDBC4B;" cx="363.776" cy="111.536" r="49.152"/>
<circle style="fill:#EC9922;" cx="363.776" cy="111.536" r="35.216"/>
<path style="fill:#FFFFFF;" d="M361.6,127.088v-13.056c-4.064-1.168-7.056-2.928-8.96-5.28s-2.848-5.216-2.848-8.576
	c0-3.408,1.072-6.272,3.216-8.576c2.144-2.32,5.008-3.648,8.576-4v-3.104h4.512v3.088c3.296,0.4,5.936,1.52,7.888,3.376
	c1.952,1.856,3.2,4.352,3.744,7.456l-7.888,1.024c-0.48-2.448-1.728-4.112-3.744-4.992v12.176c4.992,1.344,8.384,3.104,10.192,5.248
	c1.808,2.144,2.704,4.912,2.704,8.272c0,3.76-1.136,6.928-3.408,9.504c-2.272,2.576-5.44,4.16-9.488,4.736v4.192H361.6v-4.016
	c-3.584-0.432-6.512-1.776-8.752-4.016c-2.24-2.24-3.68-5.408-4.304-9.504l8.128-0.88c0.336,1.664,0.96,3.088,1.872,4.304
	C359.456,125.68,360.48,126.544,361.6,127.088z M361.6,94.368c-1.216,0.416-2.192,1.12-2.928,2.112
	c-0.72,0.992-1.088,2.096-1.088,3.296c0,1.104,0.336,2.128,0.992,3.072c0.672,0.944,1.664,1.712,3.024,2.288V94.368L361.6,94.368z
	 M366.112,127.52c1.552-0.288,2.832-1.008,3.808-2.16s1.456-2.512,1.456-4.064c0-1.392-0.416-2.592-1.232-3.6
	c-0.816-1.008-2.16-1.776-4.032-2.32V127.52z"/>
<path style="fill:#E15B5A;" d="M365.6,257.008V277.6c0,13.488,9.424,25.584,22,26.288c13.408,0.752,24.496-10.672,24.496-24.88
	v-80.96c-5.04-1.984-10.496-3.088-16.16-3.088H117.152c-5.536,0-10.784,1.152-15.648,3.088v82.864
	c0,13.76,10.416,24.912,23.248,24.912S148,294.672,148,280.912V269.76c0-11.52,8.8-20.896,19.552-20.832h0.256
	c0.48,0,0.944-0.016,1.424-0.048c10.608-0.688,19.536,8.32,19.536,19.696v13.088c0,13.488,9.424,25.584,22,26.288
	c13.408,0.752,24.496-10.672,24.496-24.88v-4.768c0-11.584,8.8-20.944,19.6-20.88h1.344h0.272
	c11.376-0.064,20.672,9.84,20.672,22.016v5.072c0,13.488,9.424,25.584,22,26.288c13.408,0.752,24.496-10.672,24.496-24.88v-28.944
	c0-12.032,9.44-21.024,20.672-20.88c0.096,0,0.192,0,0.272,0c0.096,0,0.192,0,0.272,0C356.16,236,365.6,244.976,365.6,257.008z"/>
<path style="fill:#E5E5E5;" d="M476.672,312.688c-23.744-21.808-39.552-45.984-46.208-80.208
	c-3.968-13.728-17.344-23.936-30.288-24.032c-2.352-0.08-6.384,0.192-10.656,0.416c-100.144,6.432-275.344-0.368-275.344-0.368
	c-10.784-0.224-24.752,8.72-30.224,25.216c-11.792,30.912-32.272,61.408-48.624,78.96c12.384-26.448,23.68-56.08,29.984-84.576
	c3.168-21.472,20.96-42.624,46.784-46.112c43.104-5.44,237.344-3.504,277.392-0.928c3.936,0.256,8.048,0.272,13.68,1.072
	c23.616,3.328,43.6,22.72,46.352,47.12C451.264,256.48,457.84,285.2,476.672,312.688z"/>
<g>
</g>
<g>
</g>
<g>
</g>
<g>
</g>
<g>
</g>
<g>
</g>
<g>
</g>
<g>
</g>
<g>
</g>
<g>
</g>
<g>
</g>
<g>
</g>
<g>
</g>
<g>
</g>
<g>
</g>
</svg>
