<?xml version="1.0" encoding="iso-8859-1"?>
<!-- Generator: Adobe Illustrator 19.0.0, SVG Export Plug-In . SVG Version: 6.00 Build 0)  -->
<svg version="1.1" id="Capa_1" xmlns="http://www.w3.org/2000/svg" xmlns:xlink="http://www.w3.org/1999/xlink" x="0px" y="0px"
	 viewBox="0 0 512.001 512.001" style="enable-background:new 0 0 512.001 512.001;" xml:space="preserve">
<path style="fill:#FF855F;" d="M388.595,271.466v207.461c0,6.912,5.603,12.515,12.515,12.515l0,0
	c6.912,0,12.515-5.603,12.515-12.515V271.466H388.595z"/>
<path style="fill:#FD6E2E;" d="M401.11,271.466v207.461c0,4.63-2.52,8.662-6.258,10.827c1.842,1.067,3.975,1.688,6.258,1.688l0,0
	c6.912,0,12.515-5.603,12.515-12.515V271.466H401.11z"/>
<path style="fill:#424242;" d="M412.737,244.421c-0.495-0.615-1.468-0.06-1.203,0.683c2.753,7.712,6.186,24.786-17.393,24.786
	c-30.459,0-53.226-50.829-93.838-50.829c-32.524,0-41.369,19.192-43.602,26.836c-0.206,0.705-1.197,0.705-1.403,0
	c-2.233-7.644-11.078-26.836-43.602-26.836c-40.612,0-63.379,50.829-93.838,50.829c-23.58,0-20.147-17.074-17.393-24.786
	c0.265-0.743-0.707-1.298-1.202-0.683c-3.988,4.952-10.383,15.481-5.402,27.724c8.922,21.93,49.226,43.656,95.991,19.881
	c37.412-19.02,57.299-19.581,63.758-19.045c1.591,0.132,3.189,0.132,4.78,0c6.458-0.536,26.346,0.025,63.758,19.045
	c46.765,23.775,87.069,2.05,95.991-19.881C423.12,259.902,416.726,249.373,412.737,244.421z"/>
<path style="fill:#FF855F;" d="M481.665,56.855v422.072c0,6.912,5.603,12.515,12.515,12.515l0,0c6.912,0,12.515-5.603,12.515-12.515
	V56.855c0-6.912-5.603-12.515-12.515-12.515l0,0C487.268,44.339,481.665,49.943,481.665,56.855z"/>
<path style="fill:#FD6E2E;" d="M494.18,44.339c-2.304,0-4.456,0.633-6.31,1.72c3.708,2.172,6.205,6.188,6.205,10.796v422.072
	c0,4.608-2.497,8.623-6.205,10.796c1.854,1.086,4.006,1.72,6.31,1.72c6.912,0,12.515-5.603,12.515-12.515V56.855
	C506.695,49.943,501.092,44.339,494.18,44.339z"/>
<path style="fill:#424242;" d="M506.911,27.04c-14.796-1.737-60.341-6.481-116.519-6.481c-47.27,0-80.271,13.337-96.287,21.678
	c-6.502,3.386-13.413,5.907-20.575,7.469l0,0c-11.551,2.519-23.509,2.519-35.06,0l0,0c-7.162-1.562-14.073-4.083-20.575-7.469
	c-16.016-8.341-49.017-21.678-96.287-21.678c-56.178,0-101.723,4.744-116.519,6.481C2.185,27.381,0,29.839,0,32.762v17.71
	c0,1.157,0.345,2.28,0.996,3.236c1.961,2.882,6.133,10.974,6.133,27.656c0,26.872,3.307,60.866,21.725,81.936
	c10.067,11.516,24.475,18.575,39.334,22.2c14.86,3.626,30.292,4.077,45.587,4.207c18.866,0.16,38.453-0.302,55.416-8.563
	c20.659-10.06,34.111-29.967,44.51-49.733c5.457-10.373,9.871-21.26,13.098-32.528c0.013-0.046,0.027-0.093,0.04-0.141
	c3.332-11.802,14.062-19.985,26.325-19.985h5.672c12.264,0,22.995,8.184,26.326,19.987c0.014,0.048,0.027,0.095,0.04,0.141
	c3.226,11.267,7.641,22.154,13.098,32.526c10.399,19.766,23.851,39.673,44.51,49.733c16.963,8.261,36.549,8.723,55.416,8.563
	c15.295-0.13,30.727-0.581,45.587-4.207c14.86-3.626,29.268-10.684,39.334-22.2c18.418-21.07,21.725-55.064,21.725-81.936
	c0-16.682,4.172-24.774,6.133-27.656c0.651-0.956,0.996-2.079,0.996-3.236v-17.71C512,29.839,509.815,27.381,506.911,27.04z"/>
<g>
	<path style="fill:#333333;" d="M512,32.762c0-2.923-2.185-5.381-5.089-5.722c-8.126-0.954-25.54-2.814-48.883-4.298v29.686
		c0,0,0,0,0,0.001c-0.008,0.009-7.129,7.142-7.129,28.935c0,26.872-3.307,60.866-21.725,81.936
		c-10.067,11.516-24.475,18.575-39.334,22.2c-6.401,1.562-12.909,2.533-19.466,3.144c9.195,1.064,18.608,1.141,27.851,1.063
		c15.295-0.13,30.727-0.581,45.587-4.207c14.86-3.626,29.268-10.684,39.335-22.2c18.418-21.07,21.725-55.064,21.725-81.936
		c0-16.682,4.172-24.774,6.133-27.656c0.65-0.956,0.996-2.079,0.996-3.236v-17.71H512z"/>
	<path style="fill:#333333;" d="M393.341,170.182c-17.043,0-30.704-1.125-41.974-6.613c-13.074-6.367-24.106-19.092-35.767-41.258
		c-4.879-9.276-8.779-18.95-11.59-28.754c-1.373-4.864-3.482-9.416-6.273-13.554c-2.295-3.401-3.005-7.441-1.999-11.374
		c0.992-3.886,3.513-7.047,7.099-8.899l0.292-0.152c13.969-7.272,43.877-19.469,87.264-19.469c34.549,0,65.137,1.89,84.711,3.477
		c4.019,0.325,7.689,2.376,10.069,5.628c2.376,3.247,3.221,7.36,2.318,11.284c-1.44,6.244-2.17,13.264-2.17,20.867
		c0,33.007-5.684,56.244-16.894,69.069c-8.205,9.388-20.435,13.924-29.249,16.075c-12.943,3.157-26.836,3.528-41.12,3.65
		C396.49,170.173,394.917,170.182,393.341,170.182z"/>
</g>
<path style="fill:#D1EDE9;" d="M393.341,164.001c-16.187,0-29.06-1.018-39.268-5.989c-11.814-5.754-21.993-17.651-33.003-38.578
	c-4.682-8.901-8.423-18.18-11.118-27.579c-1.55-5.491-3.93-10.622-7.09-15.307c-1.295-1.919-1.698-4.187-1.136-6.386
	c0.55-2.154,1.952-3.907,3.948-4.939l0.311-0.162c13.466-7.01,42.334-18.77,84.407-18.77c34.33,0,64.744,1.879,84.212,3.457
	c2.228,0.18,4.263,1.317,5.581,3.118c1.316,1.798,1.783,4.074,1.283,6.246c-1.545,6.698-2.328,14.185-2.328,22.254
	c0,31.467-5.17,53.336-15.367,65.001c-7.142,8.172-18.115,12.199-26.061,14.139c-12.299,3-25.8,3.355-39.706,3.474
	C396.455,163.991,394.899,164.001,393.341,164.001z"/>
<path style="fill:#333333;" d="M118.659,170.182c-1.575,0-3.151-0.009-4.718-0.022c-14.284-0.122-28.177-0.493-41.117-3.65
	c-8.815-2.152-21.046-6.687-29.251-16.076c-11.211-12.822-16.895-36.06-16.895-69.068c0-7.6-0.73-14.62-2.169-20.867
	c-0.905-3.921-0.061-8.034,2.316-11.283c2.381-3.253,6.052-5.304,10.07-5.629C56.459,42,87.037,40.11,121.606,40.11
	c43.388,0,73.294,12.197,87.259,19.467l0.313,0.164c3.562,1.841,6.083,5.001,7.076,8.886c1.006,3.935,0.295,7.977-2.002,11.379
	c-2.782,4.125-4.878,8.643-6.229,13.428c-2.832,9.885-6.741,19.594-11.626,28.878c-11.663,22.168-22.694,34.892-35.768,41.258
	C149.363,169.057,135.703,170.182,118.659,170.182z"/>
<path style="fill:#D1EDE9;" d="M118.659,164.001c-1.557,0-3.116-0.009-4.665-0.022c-13.906-0.119-27.407-0.474-39.705-3.474
	c-7.947-1.94-18.919-5.966-26.062-14.139c-10.198-11.664-15.368-33.534-15.368-65.001c0-8.066-0.783-15.554-2.327-22.255
	c-0.501-2.171-0.034-4.448,1.282-6.245c1.318-1.801,3.352-2.938,5.58-3.118c19.458-1.577,49.863-3.457,84.213-3.457
	c42.074,0,70.942,11.76,84.404,18.769l0.306,0.16c1.997,1.032,3.399,2.785,3.949,4.938c0.562,2.201,0.159,4.472-1.137,6.392
	c-3.151,4.671-5.524,9.787-7.054,15.204c-2.714,9.474-6.46,18.77-11.147,27.681c-11.01,20.927-21.189,32.825-33.003,38.577
	C147.719,162.982,134.847,164.001,118.659,164.001z"/>
<g>
	<path style="fill:#B0E2DC;" d="M210.267,70.156c-0.55-2.153-1.952-3.905-3.949-4.938l-0.306-0.16
		c-8.339-4.342-22.596-10.504-42.235-14.567c-2.278,8.204-6.063,21.054-11.961,41.261c-2.761,9.46-6.46,18.77-11.147,27.681
		c-11.01,20.927-21.189,32.825-33.003,38.577c-5.319,2.59-11.369,4.101-18.227,4.96c7.922,0.773,16.164,0.935,24.556,1.007
		c1.549,0.013,3.108,0.022,4.665,0.022c16.187,0,29.059-1.018,39.267-5.989c11.814-5.753,21.993-17.651,33.003-38.577
		c4.688-8.911,8.433-18.207,11.147-27.681c1.53-5.418,3.903-10.533,7.054-15.204C210.426,74.628,210.829,72.358,210.267,70.156z"/>
	<path style="fill:#B0E2DC;" d="M480.186,52.865c-1.318-1.801-3.352-2.938-5.581-3.118c-11.937-0.967-27.993-2.047-46.54-2.739
		c-0.6,10.938-0.45,28.241-0.45,34.356c0,31.467-5.17,53.336-15.367,65.001c-7.142,8.172-18.115,12.199-26.061,14.139
		c-4.656,1.136-9.485,1.891-14.442,2.4c6.446,0.846,13.617,1.096,21.596,1.096c1.558,0,3.114-0.009,4.665-0.022
		c13.906-0.119,27.407-0.474,39.706-3.474c7.947-1.94,18.92-5.967,26.061-14.139c10.197-11.665,15.367-33.534,15.367-65.001
		c0-8.068,0.783-15.555,2.328-22.254C481.969,56.939,481.502,54.662,480.186,52.865z"/>
</g>
<path style="fill:#4C4B4B;" d="M362.877,286.914c-11.071,0-22.419-2.915-33.726-8.664c-29.291-14.891-49.448-19.61-62.259-20.615
	c2.151-1.956,3.79-4.492,4.641-7.4c1.716-5.874,7.733-15.721,28.771-15.721c15.946,0,29.405,11.809,43.656,24.31
	c11.737,10.297,23.791,20.871,38.169,24.861c-5.551,1.981-12.013,3.229-19.247,3.229
	C362.878,286.914,362.88,286.914,362.877,286.914z M149.124,286.914c-7.237,0-13.7-1.25-19.252-3.229
	c14.378-3.99,26.431-14.564,38.168-24.861c14.251-12.501,27.71-24.31,43.656-24.31c21.037,0,27.055,9.847,28.769,15.716
	c0.852,2.91,2.491,5.449,4.643,7.405c-12.81,1.005-32.968,5.723-62.259,20.615C171.54,284,160.193,286.914,149.124,286.914z"/>
<g>
</g>
<g>
</g>
<g>
</g>
<g>
</g>
<g>
</g>
<g>
</g>
<g>
</g>
<g>
</g>
<g>
</g>
<g>
</g>
<g>
</g>
<g>
</g>
<g>
</g>
<g>
</g>
<g>
</g>
</svg>
