<?xml version="1.0" encoding="iso-8859-1"?>
<!-- Generator: Adobe Illustrator 19.0.0, SVG Export Plug-In . SVG Version: 6.00 Build 0)  -->
<svg version="1.1" id="Capa_1" xmlns="http://www.w3.org/2000/svg" xmlns:xlink="http://www.w3.org/1999/xlink" x="0px" y="0px"
	 viewBox="0 0 510.784 510.784" style="enable-background:new 0 0 510.784 510.784;" xml:space="preserve">
<path style="fill:#464646;" d="M510.784,353.168V33.008c0-17.552-14.24-31.792-31.792-31.792h-447.2C14.24,1.216,0,15.456,0,33.008
	v320.176h510.784V353.168z"/>
<rect x="31.792" y="33.008" style="fill:#4B9FD8;" width="447.184" height="310.544"/>
<path style="fill:#E5E5E5;" d="M0,343.6v43.728c0,17.552,14.24,31.792,31.792,31.792h447.2c17.552,0,31.792-14.24,31.792-31.792
	V343.6H0z"/>
<rect x="169.424" y="419.072" style="fill:#CACACA;" width="171.936" height="61.728"/>
<path style="fill:#E5E5E5;" d="M382.976,480.848H127.808c-6.384,0-11.552,5.168-11.552,11.552v5.616
	c0,6.384,5.168,11.552,11.552,11.552H382.96c6.384,0,11.552-5.168,11.552-11.552V492.4
	C394.528,486.032,389.344,480.848,382.976,480.848z"/>
<g>
	<polygon style="fill:#CACACA;" points="255.408,397.248 255.392,397.248 255.376,397.248 	"/>
	<polygon style="fill:#CACACA;" points="255.376,365.456 255.392,365.472 255.408,365.456 	"/>
	<circle style="fill:#CACACA;" cx="255.392" cy="381.36" r="15.872"/>
</g>
<g style="opacity:0.07;">
	<polygon style="fill:#010101;" points="169.424,419.12 341.36,458.736 341.36,419.12 	"/>
</g>
<path style="fill:#3789C9;" d="M360.08,33.008c-13.76,0-24.912,10.416-24.912,23.248c0,12.848,11.152,23.248,24.912,23.248h11.152
	c11.52,0,20.896,8.8,20.832,19.552v0.256c0,0.48,0.016,0.944,0.048,1.424c0.688,10.608-8.32,19.536-19.696,19.536h-13.072
	c-13.488,0-25.584,9.424-26.288,22c-0.752,13.408,10.672,24.496,24.88,24.496h4.752c11.584,0,20.944,8.8,20.88,19.6l-0.016,1.344
	v0.272c0.064,11.376-9.84,20.672-22.016,20.672h-5.072c-13.488,0-25.584,9.424-26.288,22c-0.752,13.408,10.672,24.496,24.88,24.496
	H384c12.048,0,21.024,9.44,20.88,20.672c0,0.096,0,0.192,0,0.272s0,0.192,0,0.272c0.144,11.232-8.832,20.672-20.88,20.672h-20.608
	c-13.488,0-25.584,9.424-26.288,22c-0.752,13.408,10.672,24.496,24.88,24.496h117.008V33.008H360.08z"/>
<g>
	<path style="fill:#F4F4F4;" d="M59.84,381.36c0,8.832,7.152,16,16,16h92.064c8.848,0,16-7.168,16-16s-7.152-16-16-16H75.84
		C66.992,365.36,59.84,372.528,59.84,381.36z"/>
	<path style="fill:#F4F4F4;" d="M11.136,381.36c0,8.832,7.152,16,16,16h6.288c8.848,0,16-7.168,16-16s-7.152-16-16-16h-6.288
		C18.288,365.36,11.136,372.528,11.136,381.36z"/>
</g>
<path style="fill:#E86F3E;" d="M388.176,268.576H122.608c-17.68,0-32-14.32-32-32V140c0-17.68,14.32-32,32-32h265.568
	c17.664,0,32,14.32,32,32v96.592C420.176,254.256,405.856,268.576,388.176,268.576z"/>
<path style="fill:#F3F3F3;" d="M404.176,284.576H106.608c-17.68,0-32-14.32-32-32V124c0-17.68,14.32-32,32-32h297.568
	c17.664,0,32,14.32,32,32v128.576C436.176,270.24,421.856,284.576,404.176,284.576z M122.608,124c-8.816,0-16,7.168-16,16v96.576
	c0,8.832,7.184,16,16,16h265.568c8.816,0,16-7.168,16-16V140c0-8.832-7.184-16-16-16H122.608z"/>
<g>
	<path style="fill:#FEE218;" d="M149.424,150.448h29.744c5.888,0,10.272,0.24,13.168,0.736c2.896,0.496,5.472,1.52,7.76,3.072
		s4.192,3.632,5.712,6.224s2.288,5.488,2.288,8.704c0,3.488-0.944,6.688-2.816,9.6s-4.416,5.088-7.632,6.544
		c4.528,1.312,8.016,3.568,10.464,6.752c2.432,3.184,3.648,6.912,3.648,11.216c0,3.392-0.784,6.672-2.368,9.872
		c-1.568,3.2-3.728,5.744-6.448,7.664c-2.72,1.904-6.08,3.088-10.08,3.52c-2.496,0.272-8.544,0.432-18.112,0.512h-25.328V150.448z
		 M164.448,162.832v17.2h9.84c5.856,0,9.488-0.08,10.912-0.256c2.576-0.304,4.592-1.2,6.064-2.656
		c1.472-1.472,2.208-3.408,2.208-5.808c0-2.304-0.64-4.176-1.904-5.616s-3.152-2.304-5.664-2.608
		c-1.488-0.176-5.776-0.256-12.848-0.256H164.448z M164.448,192.416v19.888h13.904c5.408,0,8.848-0.144,10.304-0.448
		c2.24-0.4,4.048-1.392,5.456-2.976c1.408-1.568,2.112-3.68,2.112-6.32c0-2.224-0.544-4.128-1.632-5.68
		c-1.088-1.552-2.64-2.688-4.688-3.408c-2.048-0.704-6.496-1.072-13.328-1.072h-12.128V192.416z"/>
	<path style="fill:#FEE218;" d="M224.336,150.448h15.024v40.304c0,6.4,0.192,10.544,0.56,12.432c0.64,3.04,2.176,5.488,4.592,7.328
		s5.728,2.768,9.92,2.768c4.256,0,7.472-0.864,9.648-2.608s3.472-3.888,3.904-6.416s0.656-6.752,0.656-12.64v-41.168h15.024v39.072
		c0,8.928-0.4,15.248-1.216,18.928c-0.816,3.696-2.304,6.8-4.496,9.344s-5.104,4.56-8.752,6.064s-8.432,2.256-14.32,2.256
		c-7.104,0-12.496-0.816-16.16-2.464c-3.664-1.648-6.576-3.776-8.704-6.4c-2.128-2.624-3.536-5.376-4.208-8.24
		c-0.976-4.272-1.472-10.56-1.472-18.88L224.336,150.448L224.336,150.448z"/>
	<path style="fill:#FEE218;" d="M319.04,224.848v-31.312l-27.248-43.088h17.616l17.504,29.44l17.152-29.44h17.312l-27.36,43.184
		v31.216H319.04z"/>
</g>
<polygon style="fill:#464646;" points="380.992,196.432 348.448,196.432 348.448,228.96 357.552,219.856 374.688,236.992 
	389.008,222.656 371.888,205.536 "/>
<g>
</g>
<g>
</g>
<g>
</g>
<g>
</g>
<g>
</g>
<g>
</g>
<g>
</g>
<g>
</g>
<g>
</g>
<g>
</g>
<g>
</g>
<g>
</g>
<g>
</g>
<g>
</g>
<g>
</g>
</svg>
