<?xml version="1.0" encoding="iso-8859-1"?>
<!-- Generator: Adobe Illustrator 19.0.0, SVG Export Plug-In . SVG Version: 6.00 Build 0)  -->
<svg version="1.1" id="Capa_1" xmlns="http://www.w3.org/2000/svg" xmlns:xlink="http://www.w3.org/1999/xlink" x="0px" y="0px"
	 viewBox="0 0 512 512" style="enable-background:new 0 0 512 512;" xml:space="preserve">
<path style="fill:#FC8354;" d="M315.194,100.198L315.194,100.198V15.092L73.144,68.774v85.106l0,0v182.229
	c-8.446-3.48-17.628-5.56-25.789-5.56c-22.914,0-41.489,14.583-41.489,32.572c0,17.989,18.575,32.572,41.489,32.572
	c41.984,0,53.906-31.71,53.906-44.201V147.644l185.816-41.21v173.903c-8.445-3.48-17.627-5.56-25.788-5.56
	c-22.914,0-41.489,14.583-41.489,32.572s18.575,32.572,41.489,32.572c36.869,0,53.906-27.457,53.906-45.446
	C315.195,283.521,315.194,100.198,315.194,100.198z"/>
<path style="fill:#7AB8DD;" d="M469.343,199.071c-24.168-9.984-48.17-38.559-65.641-63.678c-0.605-1.227-1.381-2.35-2.302-3.343
	c-9.033-13.258-16.112-25.243-20.258-32.572c-1.109-1.961-4.101-1.169-4.101,1.084v41.034v80.303v208.48
	c-10.755-5.082-23.003-8.194-33.713-8.194c-26.282,0-47.588,16.727-47.588,37.361s21.306,37.361,47.588,37.361
	c39.431,0,61.831-37.686,61.831-58.32c0-8.21,0-124.003,0-208.534c62.07,23.08,95.303,70.978,104.256,85.539
	c0.737,1.198,2.58,0.68,2.584-0.727C512.056,294.16,509.576,215.691,469.343,199.071z"/>
<path style="fill:#6FA9D4;" d="M511.998,314.859c0.009-3.62-0.059-9.004-0.392-15.512c-10.722-33.552-35.601-78.063-121.356-108.738
	c0,84.531,0,221.809,0,230.018c0,20.634-22.4,58.32-61.831,58.32c-11.723,0-22.449-3.334-30.742-8.852
	c0.173,0.462,0.359,0.92,0.553,1.374c0.019,0.043,0.037,0.086,0.056,0.129c0.197,0.454,0.403,0.904,0.621,1.349
	c0.001,0.002,0.002,0.004,0.003,0.006c0.901,1.838,1.983,3.606,3.226,5.291c0.03,0.041,0.059,0.082,0.089,0.122
	c0.288,0.386,0.584,0.768,0.889,1.145c0.049,0.06,0.098,0.12,0.147,0.18c0.31,0.38,0.627,0.756,0.954,1.126
	c0.005,0.006,0.01,0.011,0.015,0.017c1.029,1.163,2.142,2.276,3.328,3.337c0.062,0.056,0.123,0.113,0.185,0.168
	c0.334,0.295,0.676,0.584,1.021,0.87c0.126,0.104,0.251,0.209,0.379,0.312c0.332,0.269,0.668,0.535,1.01,0.796
	c0.142,0.109,0.287,0.215,0.431,0.323c0.346,0.258,0.693,0.515,1.049,0.765c0.107,0.075,0.217,0.147,0.325,0.221
	c0.73,0.503,1.48,0.989,2.248,1.456c0.135,0.082,0.267,0.168,0.403,0.249c0.327,0.195,0.662,0.382,0.996,0.57
	c0.235,0.133,0.469,0.266,0.708,0.395c0.318,0.172,0.64,0.34,0.963,0.507c0.268,0.138,0.537,0.273,0.809,0.407
	c0.312,0.154,0.625,0.307,0.943,0.455c0.305,0.142,0.614,0.279,0.923,0.417c0.296,0.131,0.589,0.265,0.889,0.391
	c0.541,0.228,1.089,0.448,1.643,0.661c0.275,0.105,0.554,0.204,0.832,0.305c0.407,0.148,0.815,0.296,1.228,0.436
	c0.278,0.094,0.56,0.182,0.841,0.272c0.386,0.123,0.773,0.244,1.163,0.36c0.284,0.084,0.57,0.166,0.857,0.246
	c0.409,0.114,0.821,0.223,1.235,0.328c0.269,0.069,0.537,0.138,0.808,0.203c0.503,0.12,1.011,0.232,1.521,0.339
	c0.185,0.039,0.368,0.083,0.554,0.12c0.691,0.138,1.388,0.265,2.091,0.379c0.208,0.034,0.42,0.062,0.629,0.093
	c0.511,0.078,1.024,0.151,1.542,0.216c0.263,0.033,0.527,0.062,0.791,0.091c0.477,0.053,0.957,0.101,1.439,0.143
	c0.27,0.024,0.541,0.047,0.812,0.067c0.509,0.038,1.02,0.067,1.533,0.091c0.238,0.012,0.474,0.026,0.713,0.035
	c0.749,0.028,1.501,0.045,2.259,0.045c39.431,0,61.831-37.686,61.831-58.32c0-8.209,0-124.003,0-208.534
	c62.068,23.08,95.301,70.975,104.256,85.538C510.152,316.789,511.995,316.267,511.998,314.859z"/>
<g>
	<polygon style="fill:#FD6E2E;" points="315.195,100.198 315.195,15.092 73.144,68.774 73.144,153.88 	"/>
	<path style="fill:#FD6E2E;" d="M315.195,100.198V15.092l0,0L73.144,68.774v85.106l12.87-2.854v200.467
		c0,11.62-10.333,39.86-45.576,43.742c2.25,0.297,4.559,0.459,6.917,0.459c41.984,0,53.906-31.71,53.906-44.201V147.644
		l170.568-37.829l0,0l28.117-6.236c0,25.011,0,180.823,0,190.896c0,16.607-14.535,41.266-45.775,44.959
		c2.313,0.314,4.688,0.487,7.116,0.487c36.869,0,53.906-27.457,53.906-45.446C315.195,283.521,315.194,100.198,315.195,100.198
		L315.195,100.198L315.195,100.198z"/>
</g>
<g>
	<path style="fill:#FEC93E;" d="M434.824,468.876c-4.174,0-7.628-3.385-7.618-7.653c0.01-4.118,3.473-7.408,7.586-7.601
		c29.607-1.388,45.318-5.903,52.368-8.668c3.002-1.177,6.411-0.341,8.543,2.078l0,0c3.544,4.021,1.998,10.374-3.022,12.254
		c-9.583,3.588-27.005,8.18-57.5,9.582C435.061,468.873,434.942,468.876,434.824,468.876z"/>
	<path style="fill:#FEC93E;" d="M265.821,453.7c-0.439,0-0.884-0.038-1.331-0.116c-10.321-1.818-21.031-3.817-31.831-5.943
		c-60.576-11.921-169.95-28.373-221.859-4.597c-3.827,1.75-8.353,0.07-10.106-3.757c-1.753-3.828-0.071-8.352,3.757-10.106
		c29.257-13.398,93.109-23.668,231.152,3.501c10.7,2.105,21.309,4.086,31.531,5.885c4.146,0.731,6.916,4.684,6.186,8.831
		C272.669,451.097,269.451,453.7,265.821,453.7z"/>
</g>
<g>
	<path style="fill:#7AB243;" d="M440.974,397.817c-3.988,0-7.343-3.101-7.601-7.137c-0.269-4.202,2.92-7.826,7.122-8.094
		c25.323-1.618,39.395-5.571,46.176-8.162c3.215-1.228,6.853-0.174,8.866,2.617l0.096,0.133c2.89,4.008,1.227,9.676-3.384,11.451
		c-8.506,3.275-24.156,7.476-50.782,9.176C441.302,397.812,441.137,397.817,440.974,397.817z"/>
	<path style="fill:#7AB243;" d="M327.354,392.336c-0.316,0-0.635-0.02-0.956-0.06c-28.65-3.586-60.188-8.753-93.739-15.356
		c-33.611-6.614-64.68-11.33-92.346-14.015c-4.191-0.407-7.258-4.133-6.851-8.324c0.406-4.19,4.121-7.271,8.324-6.851
		c28.157,2.733,59.721,7.521,93.817,14.232c33.204,6.535,64.389,11.644,92.689,15.186c4.178,0.523,7.141,4.334,6.618,8.512
		C334.427,389.515,331.143,392.336,327.354,392.336z"/>
</g>
<g>
</g>
<g>
</g>
<g>
</g>
<g>
</g>
<g>
</g>
<g>
</g>
<g>
</g>
<g>
</g>
<g>
</g>
<g>
</g>
<g>
</g>
<g>
</g>
<g>
</g>
<g>
</g>
<g>
</g>
</svg>
