<?xml version="1.0" encoding="iso-8859-1"?>
<!-- Generator: Adobe Illustrator 19.0.0, SVG Export Plug-In . SVG Version: 6.00 Build 0)  -->
<svg version="1.1" id="Capa_1" xmlns="http://www.w3.org/2000/svg" xmlns:xlink="http://www.w3.org/1999/xlink" x="0px" y="0px"
	 viewBox="0 0 512 512" style="enable-background:new 0 0 512 512;" xml:space="preserve">
<rect x="142.089" y="65.23" style="fill:#F2EBDA;" width="227.82" height="375"/>
<rect x="315.799" y="65.23" style="fill:#E2D9C5;" width="54.12" height="375"/>
<path style="fill:#D8CFBC;" d="M367.864,134.684h-221.64c-17.391,0-32.91-10.917-38.788-27.284L84.259,42.857h345.569L406.652,107.4
	C400.774,123.767,385.255,134.684,367.864,134.684z"/>
<path style="fill:#CCC2B2;" d="M107.436,107.4c4.499,12.529,14.65,21.856,26.962,25.546c13.851-11.486,24.144-27.121,28.927-44.99
	h185.347c4.844,18.097,15.342,33.898,29.461,45.423c13.01-3.347,23.831-12.926,28.519-25.979l23.177-64.542H84.259L107.436,107.4z"
	/>
<path style="fill:#F2EBDA;" d="M434.697,0.026V0h-1.045H279.037H78.346C42.32,0,13.114,29.205,13.114,65.232
	s29.205,65.232,65.232,65.232s65.232-29.205,65.232-65.232h135.459h89.384c0,36.026,29.205,65.232,65.232,65.232
	s65.232-29.205,65.232-65.232C498.884,29.556,470.239,0.587,434.697,0.026z"/>
<g>
	<path style="fill:#E2D9C5;" d="M434.697,0.026V0h-1.045h-53.07v0.026c35.542,0.561,64.187,29.529,64.187,65.205
		c0,26.371-15.657,49.07-38.174,59.352c8.245,3.765,17.402,5.88,27.057,5.88c36.026,0,65.232-29.205,65.232-65.232
		C498.884,29.556,470.239,0.587,434.697,0.026z"/>
	<path style="fill:#E2D9C5;" d="M51.289,124.584c8.245,3.765,17.402,5.88,27.057,5.88c36.026,0,65.232-29.205,65.232-65.232H89.463
		C89.463,91.602,73.806,114.301,51.289,124.584z"/>
	<path style="fill:#E2D9C5;" d="M416.793,474.688H95.205v-38.721c0-10.3,8.35-18.65,18.65-18.65h284.287
		c10.3,0,18.65,8.35,18.65,18.65v38.721H416.793z"/>
</g>
<path style="fill:#D8CFBC;" d="M398.142,417.317h-35.464v18.071c0,8.905-7.219,16.124-16.124,16.124H95.205v23.177h321.587v-38.721
	C416.793,425.667,408.443,417.317,398.142,417.317z"/>
<path style="fill:#F2EBDA;" d="M465.401,512H46.597v-18.5c0-15.983,12.957-28.94,28.94-28.94h360.925
	c15.983,0,28.94,12.957,28.94,28.94L465.401,512L465.401,512z"/>
<path style="fill:#E2D9C5;" d="M436.462,464.56h-31.108c3.72,4.869,5.933,10.949,5.933,17.549v6.766
	c0,5.908-4.789,10.697-10.697,10.697H46.597V512h418.805v-18.5C465.401,477.517,452.445,464.56,436.462,464.56z"/>
<g>
	<circle style="fill:#D8CFBC;" cx="77.299" cy="65.23" r="30.425"/>
	<circle style="fill:#D8CFBC;" cx="434.699" cy="65.23" r="30.425"/>
	<path style="fill:#D8CFBC;" d="M193.238,382.703L193.238,382.703c-8.156,0-14.768-6.612-14.768-14.767V179.872
		c0-8.156,6.612-14.767,14.767-14.767l0,0c8.156,0,14.767,6.612,14.767,14.767v188.064
		C208.005,376.092,201.393,382.703,193.238,382.703z"/>
	<path style="fill:#D8CFBC;" d="M255.999,382.703L255.999,382.703c-8.156,0-14.768-6.612-14.768-14.767V179.872
		c0-8.156,6.612-14.767,14.767-14.767l0,0c8.156,0,14.767,6.612,14.767,14.767v188.064
		C270.766,376.092,264.155,382.703,255.999,382.703z"/>
	<path style="fill:#D8CFBC;" d="M318.76,382.703L318.76,382.703c-8.156,0-14.768-6.612-14.768-14.767V179.872
		c0-8.156,6.612-14.767,14.767-14.767l0,0c8.156,0,14.767,6.612,14.767,14.767v188.064
		C333.528,376.092,326.916,382.703,318.76,382.703z"/>
</g>
<g>
</g>
<g>
</g>
<g>
</g>
<g>
</g>
<g>
</g>
<g>
</g>
<g>
</g>
<g>
</g>
<g>
</g>
<g>
</g>
<g>
</g>
<g>
</g>
<g>
</g>
<g>
</g>
<g>
</g>
</svg>
