<?xml version="1.0" encoding="iso-8859-1"?>
<!-- Generator: Adobe Illustrator 19.0.0, SVG Export Plug-In . SVG Version: 6.00 Build 0)  -->
<svg version="1.1" id="Capa_1" xmlns="http://www.w3.org/2000/svg" xmlns:xlink="http://www.w3.org/1999/xlink" x="0px" y="0px"
	 viewBox="0 0 512 512" style="enable-background:new 0 0 512 512;" xml:space="preserve">
<path style="fill:#E5E5E5;" d="M367.936,0h-248.72L3.008,116.208v361.984c0,17.664,14.336,32,32,32h332.928c17.68,0,32-14.336,32-32
	V32C399.936,14.32,385.616,0,367.936,0z M61.12,472.576c-10.624,0-19.232-8.608-19.232-19.232s8.608-19.232,19.232-19.232
	s19.232,8.608,19.232,19.232C80.352,463.968,71.728,472.576,61.12,472.576z M61.12,379.136c-10.624,0-19.232-8.608-19.232-19.232
	s8.608-19.232,19.232-19.232s19.232,8.608,19.232,19.232C80.352,370.528,71.728,379.136,61.12,379.136z M61.12,285.712
	c-10.624,0-19.232-8.608-19.232-19.232s8.608-19.232,19.232-19.232s19.232,8.608,19.232,19.232
	C80.352,277.104,71.728,285.712,61.12,285.712z M61.12,192.272c-10.624,0-19.232-8.608-19.232-19.232s8.608-19.232,19.232-19.232
	s19.232,8.608,19.232,19.232C80.352,183.664,71.728,192.272,61.12,192.272z"/>
<path style="fill:#CACACA;" d="M87.216,116.208c17.664,0,32-14.32,32-32V0L3.008,116.208H87.216z"/>
<path style="fill:#ED6362;" d="M449.552,512h-192c-17.68,0-32-14.336-32-32V316.592h256V480C481.552,497.68,467.232,512,449.552,512
	z"/>
<path style="fill:#FDBC4B;" d="M353.552,313.552c-4.096,0-8.192-1.568-11.312-4.688l-56.72-56.72
	c-6.256-6.256-6.256-16.368,0-22.624s16.368-6.256,22.624,0l45.408,45.408l45.408-45.408c6.256-6.256,16.368-6.256,22.624,0
	c6.256,6.256,6.256,16.384,0,22.624l-56.72,56.72C361.744,311.984,357.648,313.552,353.552,313.552z"/>
<path style="fill:#6F7070;" d="M483.936,266.48H223.184c-13.84,0-25.056,11.216-25.056,25.056l0,0
	c0,13.84,11.216,25.056,25.056,25.056h260.752c13.84,0,25.056-11.216,25.056-25.056l0,0
	C508.992,277.696,497.776,266.48,483.936,266.48z"/>
<rect x="326.384" y="266.48" style="fill:#FFCC5B;" width="54.32" height="245.52"/>
<path style="fill:#E05B5A;" d="M428.912,316.592c-8.336,0-15.056,6.976-14.608,15.408c0.416,7.904,7.52,13.84,15.44,13.84h12.096
	c7.072,0,12.336,5.936,12.256,13.008c0,0.064,0,0.112,0,0.176s0,0.112,0,0.176c0.08,7.072-5.184,13.008-12.256,13.008h-37.392
	c-8.336,0-15.056,6.976-14.608,15.408c0.416,7.92,7.52,13.84,15.44,13.84h10.352c7.152,0,12.976,5.856,12.928,13.008v0.176v0.848
	c0.048,6.8-5.456,12.336-12.256,12.336h-8.016c-8.336,0-15.056,6.976-14.608,15.408c0.416,7.92,7.52,13.84,15.44,13.84h25.92
	c6.688,0,11.968,5.616,11.568,12.288c-0.016,0.304-0.032,0.592-0.032,0.896v0.16c0.032,6.768-5.472,12.304-12.24,12.304h-19.568
	c-8.08,0-14.624,6.544-14.624,14.624s6.544,14.624,14.624,14.624h34.784c17.68,0,32-14.32,32-32V316.592H428.912z"/>
<g>
	<path style="fill:#CACACA;" d="M340.224,95.792H182.56c-8.832,0-16-7.152-16-16s7.168-16,16-16h157.664c8.832,0,16,7.152,16,16
		S349.056,95.792,340.224,95.792z"/>
	<path style="fill:#CACACA;" d="M276.224,169.808H182.56c-8.832,0-16-7.152-16-16s7.168-16,16-16h93.664c8.832,0,16,7.152,16,16
		S285.056,169.808,276.224,169.808z"/>
</g>
<g>
</g>
<g>
</g>
<g>
</g>
<g>
</g>
<g>
</g>
<g>
</g>
<g>
</g>
<g>
</g>
<g>
</g>
<g>
</g>
<g>
</g>
<g>
</g>
<g>
</g>
<g>
</g>
<g>
</g>
</svg>
