<?xml version="1.0" encoding="iso-8859-1"?>
<!-- Generator: Adobe Illustrator 19.0.0, SVG Export Plug-In . SVG Version: 6.00 Build 0)  -->
<svg version="1.1" id="Capa_1" xmlns="http://www.w3.org/2000/svg" xmlns:xlink="http://www.w3.org/1999/xlink" x="0px" y="0px"
	 viewBox="0 0 512 512" style="enable-background:new 0 0 512 512;" xml:space="preserve">
<path style="fill:#CACACA;" d="M231,408.4l-55.776-31.6L400.52,0l0,0c22.784,39.12,22.448,87.056-0.88,125.872L231,408.4z"/>
<path style="fill:#ED6362;" d="M94.584,434.736c0-42.608,34.656-77.264,77.264-77.264s77.248,34.656,77.248,77.264
	S214.456,512,171.848,512S94.584,477.344,94.584,434.736z M127.496,434.736c0,24.464,19.888,44.352,44.352,44.352
	c24.448,0,44.336-19.888,44.336-44.352s-19.888-44.352-44.336-44.352S127.496,410.288,127.496,434.736z"/>
<path style="fill:#464646;" d="M418.328,35.088H93.656c-14.736,0-26.672,11.936-26.672,26.672v182.8
	c0,14.736,11.936,26.672,26.672,26.672h324.688c14.736,0,26.672-11.936,26.672-26.672V61.76
	C445,47.04,433.064,35.088,418.328,35.088z"/>
<rect x="66.984" y="93.168" style="fill:#6F7070;" width="378.032" height="26.656"/>
<path style="fill:#787878;" d="M444.984,93.12v26.672H295.352c-7.328,0-13.344-6-13.344-13.344s6-13.328,13.344-13.328H444.984z"/>
<g>
	<path style="fill:#3E3E3E;" d="M444.984,66.448V93.12H337.752c-7.328,0-13.344-6-13.344-13.344c0-7.328,6-13.328,13.344-13.328
		H444.984z"/>
	<path style="fill:#3E3E3E;" d="M444.984,119.808v26.672h-75.216c-7.328,0-13.344-6-13.344-13.328s6-13.344,13.344-13.344
		C369.768,119.808,444.984,119.808,444.984,119.808z"/>
</g>
<path style="fill:#DAEFF6;" d="M343.096,221.248h-21.872c-7.328,0-13.344,6-13.344,13.328s6,13.344,13.344,13.344h21.872
	c7.36,0,13.344-5.968,13.344-13.344S350.456,221.248,343.096,221.248z"/>
<path style="fill:#4B9FD8;" d="M405.288,221.248h-21.872c-7.328,0-13.328,6-13.328,13.328s6,13.344,13.328,13.344h21.872
	c7.36,0,13.328-5.968,13.328-13.344S412.664,221.248,405.288,221.248z"/>
<path style="fill:#4D4D4D;" d="M302.472,259.888c0-6.256-5.072-11.344-11.344-11.344H275.96c-5.248,0-9.504-4.288-9.488-9.536
	v-0.128c0-0.224,0-0.464-0.016-0.688c-0.32-5.168,3.792-9.52,8.96-9.52h20.096c6.144,0,11.648-4.592,11.968-10.72
	c0.336-6.544-4.864-11.952-11.328-11.952h-6.208c-5.264,0-9.536-4.288-9.504-9.552v-0.656v-0.128
	c-0.032-5.552,4.48-10.08,10.016-10.08h8.032c6.144,0,11.648-4.592,11.968-10.72c0.336-6.544-4.864-11.952-11.328-11.952h-28.976
	c-5.472,0-9.568-4.608-9.504-10.08c0-0.048,0-0.096,0-0.128c0-0.048,0-0.096,0-0.144c-0.064-5.488,4.016-10.08,9.504-10.08h9.376
	c6.144,0,11.648-4.592,11.968-10.72c0.336-6.544-4.864-11.952-11.328-11.952H66.984V244.56c0,14.736,11.936,26.672,26.672,26.672
	h197.472C297.384,271.232,302.472,266.16,302.472,259.888z"/>
<rect x="97.928" y="133.136" style="fill:#FEE218;" width="58.8" height="58.8"/>
<path style="fill:#E5E5E5;" d="M303.24,408.4l55.776-31.6L133.72,0l0,0c-22.784,39.12-22.448,87.056,0.88,125.872L303.24,408.4z"/>
<path style="fill:#ED6362;" d="M362.392,512c-42.592,0-77.248-34.656-77.248-77.264s34.656-77.264,77.248-77.264
	s77.264,34.656,77.264,77.264S405,512,362.392,512z M362.392,390.384c-24.448,0-44.336,19.888-44.336,44.352
	s19.888,44.352,44.336,44.352c24.464,0,44.352-19.888,44.352-44.352C406.744,410.288,386.856,390.384,362.392,390.384z"/>
<circle style="fill:#BBBBBB;" cx="269" cy="292.784" r="14.928"/>
<g>
</g>
<g>
</g>
<g>
</g>
<g>
</g>
<g>
</g>
<g>
</g>
<g>
</g>
<g>
</g>
<g>
</g>
<g>
</g>
<g>
</g>
<g>
</g>
<g>
</g>
<g>
</g>
<g>
</g>
</svg>
