<?xml version="1.0" encoding="iso-8859-1"?>
<!-- Generator: Adobe Illustrator 19.0.0, SVG Export Plug-In . SVG Version: 6.00 Build 0)  -->
<svg version="1.1" id="Capa_1" xmlns="http://www.w3.org/2000/svg" xmlns:xlink="http://www.w3.org/1999/xlink" x="0px" y="0px"
	 viewBox="0 0 512 512" style="enable-background:new 0 0 512 512;" xml:space="preserve">
<path style="fill:#FF8D9B;" d="M411.53,310.99c-51.651-4.857-103.59-7.285-155.529-7.285s-103.878,2.428-155.529,7.285
	l-94.269,8.864c-0.006,5.484,1.791,10.968,5.394,15.892c6.676,9.123,12.369,25.053,12.369,35.522v2.06
	c0,15.546,10.065,29.856,26.32,39.096c10.008,5.688,16.35,14.579,17.013,24.351c1.068,15.762,17.438,28.315,37.96,28.315h0.219
	c14.342,0.96,27.052,7.491,33.693,17.315c9.429,13.948,30.525,20.668,50.016,15.934l0,0c13.728-3.335,28.72-1.041,39.744,6.08l0,0
	c7.827,5.055,17.449,7.581,27.07,7.581s19.243-2.526,27.069-7.581l0,0c11.024-7.121,26.016-9.415,39.744-6.08l0,0
	c19.491,4.734,40.587-1.986,50.016-15.934c6.641-9.824,19.351-16.355,33.693-17.315h0.219c20.523,0,36.892-12.553,37.96-28.315
	c0.662-9.772,7.005-18.662,17.013-24.351c16.255-9.24,26.32-23.55,26.32-39.096v-2.06c0-10.469,5.693-26.399,12.369-35.522
	c3.603-4.924,5.401-10.408,5.394-15.892L411.53,310.99z"/>
<path style="fill:#FD747F;" d="M256.001,469.647c110.649,0,201.11-67.974,207.672-153.754l-52.143-4.903
	c-51.651-4.857-103.59-7.285-155.529-7.285s-103.878,2.428-155.529,7.285l-52.143,4.903
	C54.891,401.673,145.352,469.647,256.001,469.647z"/>
<path style="fill:#ED6E7D;" d="M463.673,315.893l-52.143-4.903c-51.651-4.857-103.59-7.285-155.529-7.285v165.942
	C366.65,469.647,457.111,401.673,463.673,315.893z"/>
<path style="fill:#FF8D9B;" d="M393.661,107.05l-30.835-45.096c-1.894-2.77-5.98-2.827-7.917-0.087
	c-9.222,13.045-36.988,42.7-98.908,42.845c-61.92-0.146-89.686-29.8-98.908-42.845c-1.937-2.74-6.023-2.683-7.917,0.087
	l-30.835,45.096c38.902,164.294,28.116,222.333,24.636,239.869c-0.58,1.284-0.882,2.592-0.882,3.919
	c0,17.341,50.997,31.398,113.906,31.398s113.906-14.057,113.906-31.398c0-1.327-0.302-2.635-0.882-3.919
	C365.545,329.384,354.758,271.345,393.661,107.05z"/>
<path style="fill:#F48799;" d="M368.834,345.953c-0.006-0.032-0.013-0.067-0.019-0.099c-0.059-0.301-0.119-0.612-0.181-0.934
	c-0.011-0.056-0.022-0.115-0.033-0.172c-0.062-0.324-0.125-0.657-0.189-1.002c-0.007-0.037-0.014-0.074-0.02-0.111
	c-0.071-0.381-0.142-0.775-0.215-1.183c-0.001-0.008-0.003-0.016-0.004-0.024c-0.307-1.722-0.631-3.682-0.949-5.902l0,0
	c-3.762-26.219-6.824-89.008,26.437-229.476l-30.835-45.096c-1.894-2.77-5.98-2.827-7.917-0.087
	c-4.332,6.129-12.76,15.922-26.897,24.601l14.073,20.582c-38.902,164.294-28.116,222.333-24.636,239.869
	c0.58,1.284,0.882,2.592,0.882,3.919c0,0.019,0,0.037,0,0.056c-0.019,3.044-2.396,5.557-5.402,6.037
	c-16.748,2.67-36.188,4.2-56.928,4.2c-54.444,0-99.958-10.53-111.223-24.603c-0.638,4.447-1.296,7.849-1.801,10.392
	c-0.58,1.284-0.882,2.592-0.882,3.919c0,15.492,40.704,28.362,94.238,30.93c0.138,0.007,0.277,0.012,0.415,0.019
	c1.932,0.091,3.881,0.168,5.845,0.231c0.199,0.006,0.398,0.013,0.598,0.019c1.952,0.06,3.919,0.107,5.9,0.14
	c0.167,0.003,0.333,0.006,0.5,0.009c2.122,0.032,4.258,0.05,6.41,0.05c62.908,0,113.906-14.057,113.906-31.398
	c0-1.327-0.302-2.635-0.882-3.919C368.964,346.61,368.9,346.287,368.834,345.953z"/>
<path style="fill:#FD747F;" d="M366.351,67.11V7.722c0-4.264-3.457-7.722-7.721-7.722c-4.265,0-7.722,3.457-7.722,7.722V67.02
	c-12.145,14.39-40.18,37.564-94.907,37.692c-54.739-0.129-82.774-23.312-94.915-37.701V7.722c0-4.264-3.457-7.722-7.722-7.722
	c-4.264,0-7.722,3.457-7.722,7.722v59.399l-27.301,39.929c3.359,14.184,6.339,27.558,8.993,40.201l0.006,0.006l29.354-43.402
	c18.04,13.962,49.883,30.598,99.237,30.714h0.07h0.07c49.354-0.117,81.197-16.752,99.237-30.714l29.354,43.402l0.006-0.006
	c2.655-12.643,5.635-26.017,8.993-40.201L366.351,67.11z"/>
<path style="fill:#ED6E7D;" d="M383.382,92.018l-20.556-30.064c-0.947-1.385-2.442-2.092-3.942-2.11s-3.006,0.653-3.975,2.023
	c-0.28,0.396-0.579,0.809-0.894,1.234c-0.095,0.128-0.201,0.265-0.299,0.396c-0.225,0.3-0.451,0.601-0.693,0.914
	c-0.139,0.18-0.291,0.368-0.436,0.552c-0.218,0.277-0.435,0.552-0.666,0.837c-0.169,0.208-0.349,0.423-0.525,0.635
	c-0.224,0.27-0.446,0.539-0.682,0.816c-0.198,0.233-0.407,0.471-0.614,0.709c-0.232,0.267-0.464,0.533-0.707,0.806
	c-0.223,0.25-0.456,0.504-0.688,0.758c-0.246,0.269-0.492,0.537-0.748,0.81c-0.248,0.265-0.505,0.532-0.763,0.8
	c-0.258,0.269-0.519,0.538-0.787,0.81c-0.274,0.278-0.555,0.557-0.84,0.839c-0.272,0.269-0.548,0.538-0.83,0.809
	c-0.3,0.289-0.605,0.578-0.917,0.87c-0.287,0.268-0.579,0.537-0.875,0.807c-0.327,0.298-0.657,0.596-0.995,0.896
	c-0.301,0.267-0.61,0.534-0.92,0.802c-0.354,0.305-0.709,0.61-1.074,0.917c-0.317,0.266-0.644,0.531-0.97,0.798
	c-0.379,0.31-0.758,0.619-1.15,0.929c-0.335,0.265-0.681,0.529-1.026,0.794c-0.406,0.312-0.808,0.624-1.227,0.936
	c-0.353,0.263-0.72,0.525-1.082,0.787c-0.431,0.312-0.858,0.625-1.303,0.936c-0.37,0.259-0.757,0.516-1.136,0.775
	c-0.46,0.313-0.913,0.627-1.388,0.938c-0.382,0.251-0.783,0.498-1.174,0.748c-0.494,0.315-0.979,0.631-1.487,0.943l-0.001,0.001
	l14.073,20.582c-0.533,2.25-1.053,4.473-1.567,6.683c5.695-3.278,10.616-6.649,14.789-9.878l29.354,43.402l0.004-0.004
	c1.315-6.264,2.711-12.709,4.195-19.346c0.017-0.075,0.033-0.15,0.05-0.226c0.284-1.268,0.572-2.546,0.862-3.827
	c0.162-0.714,0.323-1.43,0.487-2.148c0.236-1.035,0.473-2.073,0.712-3.117c0.248-1.081,0.5-2.169,0.752-3.26
	c0.184-0.794,0.366-1.584,0.553-2.383c0.441-1.893,0.888-3.797,1.343-5.72c0.014-0.059,0.027-0.117,0.041-0.176L383.382,92.018z"/>
<g>
</g>
<g>
</g>
<g>
</g>
<g>
</g>
<g>
</g>
<g>
</g>
<g>
</g>
<g>
</g>
<g>
</g>
<g>
</g>
<g>
</g>
<g>
</g>
<g>
</g>
<g>
</g>
<g>
</g>
</svg>
