<?xml version="1.0" encoding="iso-8859-1"?>
<!-- Generator: Adobe Illustrator 19.0.0, SVG Export Plug-In . SVG Version: 6.00 Build 0)  -->
<svg version="1.1" id="Capa_1" xmlns="http://www.w3.org/2000/svg" xmlns:xlink="http://www.w3.org/1999/xlink" x="0px" y="0px"
	 viewBox="0 0 506.744 506.744" style="enable-background:new 0 0 506.744 506.744;" xml:space="preserve">
<path style="fill:#FDBC4B;" d="M360.807,285.78H145.943c-8.64,0-14.704-8.528-11.856-16.688l39.664-114
	c1.76-5.056,6.512-8.432,11.856-8.432h135.536c5.344,0,10.112,3.376,11.856,8.432l39.664,114
	C375.495,277.252,369.447,285.78,360.807,285.78z"/>
<path style="fill:#FFCC5B;" d="M254.327,275.364c0-5.76-4.656-10.416-10.416-10.416h-13.936c-4.816,0-8.736-3.936-8.704-8.752
	v-0.112c0-0.208,0-0.432-0.016-0.64c-0.288-4.752,3.472-8.752,8.24-8.752h34.448c5.632,0,10.688-4.224,10.992-9.856
	c0.32-6-4.464-10.976-10.4-10.976h-21.712c-4.848,0-8.752-3.936-8.736-8.784v-0.608v-0.128c-0.032-5.088,4.112-9.264,9.2-9.264
	h39.376c5.648,0,10.688-4.224,10.992-9.856c0.32-6-4.464-10.976-10.4-10.976h-58.624c-5.04,0-8.784-4.224-8.72-9.264
	c0-0.048,0-0.08,0-0.128s0-0.08,0-0.128c-0.064-5.04,3.696-9.264,8.72-9.264h8.608c5.632,0,10.688-4.224,10.992-9.856
	c0.32-6-4.464-10.976-10.4-10.976h-48.24c-5.344,0-10.112,3.376-11.856,8.432l-39.664,114c-2.832,8.16,3.216,16.688,11.856,16.688
	h97.968C249.655,285.78,254.327,281.124,254.327,275.364z"/>
<g style="opacity:0.25;">
	<path style="fill:#FFFFFF;" d="M286.439,146.66l-88.48,139.2h-21.92c-0.32,0-0.64,0-0.96-0.16l88.48-139.04L286.439,146.66
		L286.439,146.66z"/>
	<polygon style="fill:#FFFFFF;" points="306.599,146.66 217.959,285.86 206.439,285.86 295.079,146.66 	"/>
</g>
<path style="fill:#FDBC4B;" d="M227.431,447.652H12.567c-8.64,0-14.704-8.528-11.856-16.688l39.664-114
	c1.76-5.056,6.512-8.432,11.856-8.432h135.536c5.344,0,10.112,3.376,11.856,8.432l39.664,114
	C242.119,439.14,236.071,447.652,227.431,447.652z"/>
<path style="fill:#FFCC5B;" d="M120.951,437.236c0-5.76-4.672-10.416-10.416-10.416h-13.92c-4.816,0-8.736-3.936-8.704-8.752v-0.112
	c0-0.208,0-0.432-0.016-0.64c-0.32-4.736,3.456-8.736,8.208-8.736h34.448c5.632,0,10.688-4.224,10.992-9.856
	c0.32-6-4.464-10.976-10.4-10.976h-21.696c-4.848,0-8.752-3.936-8.736-8.784v-0.608v-0.128c-0.032-5.088,4.112-9.264,9.2-9.264
	h39.376c5.632,0,10.688-4.224,10.992-9.856c0.32-6-4.464-10.976-10.4-10.976H91.271c-5.04,0-8.784-4.224-8.736-9.264
	c0-0.048,0-0.08,0-0.128s0-0.08,0-0.128c-0.048-5.008,3.696-9.232,8.736-9.232h8.608c5.632,0,10.688-4.224,10.992-9.856
	c0.32-6-4.464-10.976-10.4-10.976h-48.24c-5.344,0-10.112,3.392-11.856,8.432l-39.664,114c-2.848,8.16,3.216,16.688,11.856,16.688
	h97.968C116.279,447.652,120.951,442.996,120.951,437.236z"/>
<g style="opacity:0.25;">
	<path style="fill:#FFFFFF;" d="M153.063,308.532l-88.48,139.2h-21.92c-0.32,0-0.64,0-0.96-0.16l88.48-139.04L153.063,308.532
		L153.063,308.532z"/>
	<polygon style="fill:#FFFFFF;" points="173.223,308.532 84.583,447.732 73.063,447.732 161.703,308.532 	"/>
</g>
<path style="fill:#FDBC4B;" d="M494.183,447.652H279.319c-8.64,0-14.704-8.528-11.856-16.688l39.664-114
	c1.76-5.056,6.512-8.432,11.856-8.432h135.536c5.344,0,10.112,3.376,11.856,8.432l39.664,114
	C508.871,439.14,502.823,447.652,494.183,447.652z"/>
<path style="fill:#FFCC5B;" d="M387.703,437.236c0-5.76-4.672-10.416-10.416-10.416h-13.936c-4.816,0-8.736-3.936-8.704-8.752
	v-0.112c0-0.208,0-0.432-0.016-0.64c-0.304-4.736,3.472-8.736,8.224-8.736h34.448c5.632,0,10.688-4.224,10.992-9.856
	c0.32-6-4.464-10.976-10.4-10.976h-21.712c-4.848,0-8.752-3.936-8.736-8.784v-0.608v-0.128c-0.032-5.088,4.112-9.264,9.2-9.264
	h39.376c5.632,0,10.688-4.224,10.992-9.856c0.32-6-4.464-10.976-10.4-10.976h-58.624c-5.04,0-8.784-4.224-8.72-9.264
	c0-0.048,0-0.08,0-0.128s0-0.08,0-0.128c-0.064-5.04,3.696-9.264,8.72-9.264h8.608c5.648,0,10.688-4.224,10.992-9.856
	c0.32-6-4.464-10.976-10.4-10.976h-48.24c-5.344,0-10.112,3.392-11.856,8.432l-39.664,114c-2.832,8.16,3.216,16.688,11.856,16.688
	h97.968C383.031,447.652,387.703,442.996,387.703,437.236z"/>
<g style="opacity:0.25;">
	<path style="fill:#FFFFFF;" d="M419.815,308.532l-88.48,139.2h-21.92c-0.32,0-0.64,0-0.96-0.16l88.48-139.04L419.815,308.532
		L419.815,308.532z"/>
	<polygon style="fill:#FFFFFF;" points="439.975,308.532 351.335,447.732 339.815,447.732 428.455,308.532 	"/>
</g>
<g>
	<path style="fill:#FFE28F;" d="M153.063,171.908c0-30.416-18.592-49.024-49.024-49.024c30.432,0,49.024-18.592,49.024-49.024
		c0,30.432,18.592,49.024,49.024,49.024C171.655,122.884,153.063,141.476,153.063,171.908z"/>
	<path style="fill:#FFE28F;" d="M99.303,118.82c0-18.56-11.344-29.904-29.904-29.904c18.56,0,29.904-11.344,29.904-29.904
		c0,18.56,11.344,29.904,29.904,29.904C110.631,88.932,99.303,100.276,99.303,118.82z"/>
</g>
<g>
</g>
<g>
</g>
<g>
</g>
<g>
</g>
<g>
</g>
<g>
</g>
<g>
</g>
<g>
</g>
<g>
</g>
<g>
</g>
<g>
</g>
<g>
</g>
<g>
</g>
<g>
</g>
<g>
</g>
</svg>
