<?xml version="1.0" encoding="iso-8859-1"?>
<!-- Generator: Adobe Illustrator 19.0.0, SVG Export Plug-In . SVG Version: 6.00 Build 0)  -->
<svg version="1.1" id="Capa_1" xmlns="http://www.w3.org/2000/svg" xmlns:xlink="http://www.w3.org/1999/xlink" x="0px" y="0px"
	 viewBox="0 0 512 512" style="enable-background:new 0 0 512 512;" xml:space="preserve">
<path style="fill:#333333;" d="M472.893,255.384c-4.832-19.787-52.208-20.299-68.644-21.412
	c-49.243-3.335-98.894-2.412-148.213-2.412l0,0c-0.012,0-0.024,0-0.036,0c-0.012,0-0.024,0-0.036,0l0,0
	c-49.319,0-98.969-0.923-148.213,2.412c-16.436,1.113-63.812,1.625-68.644,21.412c-5.2,21.293,68.578,84.072,216.857,84.072
	c0.012,0,0.024,0,0.036,0c0.012,0,0.024,0,0.036,0C404.315,339.455,478.093,276.677,472.893,255.384z"/>
<path style="fill:#4D4D4D;" d="M414.737,30.285H256.001H97.265c0,0,45.096,75.718,41.387,232.094
	c-0.056,0.264-0.094,0.529-0.094,0.796c0,11.467,52.564,20.762,117.405,20.762s117.405-9.296,117.405-20.762
	C369.487,106.524,414.737,30.285,414.737,30.285z"/>
<path style="fill:#3F3F3F;" d="M414.737,30.285h-50.001c0,0-45.25,76.24-41.369,232.89c0,9.949-39.576,18.263-92.404,20.289
	c8.057,0.309,16.42,0.473,25.001,0.473c64.841,0,117.405-9.296,117.405-20.762C369.487,106.524,414.737,30.285,414.737,30.285z"/>
<path style="fill:#EF4A50;" d="M255.955,236.429c-47.868,0-90.378-4.038-117.312-10.289c0.286,11.56,0.308,23.633,0.009,36.238
	c-0.056,0.264-0.094,0.529-0.094,0.796c0,11.467,52.564,20.762,117.405,20.762s117.405-9.296,117.405-20.762
	c-0.32-12.9-0.3-25.244-0.006-37.056C346.433,232.381,303.88,236.429,255.955,236.429z"/>
<path style="fill:#DD3753;" d="M138.861,226.19c-0.072-0.017-0.147-0.033-0.218-0.049c0.071,2.879,0.126,5.79,0.164,8.733
	C138.842,231.948,138.859,229.056,138.861,226.19z"/>
<path style="fill:#EF4A50;" d="M255.955,236.429c-47.868,0-90.378-4.038-117.312-10.289c0.286,11.56,0.308,23.633,0.009,36.238
	c-0.056,0.264-0.094,0.529-0.094,0.796c0,11.467,52.564,20.762,117.405,20.762s117.405-9.296,117.405-20.762
	c-0.32-12.9-0.3-25.244-0.006-37.056C346.433,232.381,303.88,236.429,255.955,236.429z"/>
<path style="fill:#DD3753;" d="M138.616,263.802c0.024,0.145,0.052,0.29,0.093,0.435c0.002,0.006,0.004,0.013,0.006,0.019
	c3.181,10.964,54.458,19.681,117.248,19.681c64.841,0,117.405-9.296,117.405-20.762c-0.32-12.9-0.3-25.244-0.006-37.056
	c-0.073,0.017-0.15,0.033-0.223,0.05l0,0c-0.01,0.002-0.02,0.004-0.03,0.007c-13.275,3.07-30.312,5.603-49.896,7.384l0,0
	c-0.02,1.365-0.036,2.738-0.048,4.117c-0.122,13.81-10.905,25.154-24.683,26.101c-13.183,0.907-27.522,1.404-42.519,1.404
	c-62.039,0-112.833-8.51-117.107-19.289l0,0c-0.005,2.672-0.021,5.361-0.056,8.085c-0.033,2.773-0.081,5.571-0.148,8.401
	c-0.056,0.264-0.094,0.529-0.094,0.796c0,0.173,0.013,0.345,0.037,0.517C138.6,263.728,138.61,263.765,138.616,263.802z"/>
<ellipse style="fill:#333333;" cx="256.001" cy="30.766" rx="158.74" ry="30.766"/>
<g>
	<path style="fill:#EF4A50;" d="M132.258,370.521c-37.966,15.801-19.101,62.549-15.884,69.363
		c-3.217,6.815-22.082,53.562,15.884,69.363c42.167,17.551,123.743-54.58,123.743-54.58v-14.782v-14.782
		C256.001,425.102,174.425,352.971,132.258,370.521z"/>
	<path style="fill:#EF4A50;" d="M379.744,509.248c37.966-15.801,19.101-62.549,15.884-69.363
		c3.217-6.815,22.082-53.562-15.884-69.363c-42.167-17.551-123.743,54.58-123.743,54.58v14.782v14.782
		C256.001,454.667,337.577,526.798,379.744,509.248z"/>
</g>
<g>
	<path style="fill:#DD3753;" d="M278.555,436.331c0.677,0,1.366-0.089,2.05-0.275l43.662-11.844c4.165-1.13,6.626-5.422,5.496-9.587
		c-1.129-4.165-5.42-6.625-9.587-5.496l-43.662,11.844c-4.165,1.13-6.626,5.422-5.496,9.587
		C271.961,434.041,275.114,436.331,278.555,436.331z"/>
	<path style="fill:#DD3753;" d="M324.268,455.557l-43.662-11.844c-4.163-1.129-8.458,1.331-9.587,5.496
		c-1.13,4.165,1.331,8.458,5.496,9.587l43.662,11.844c0.685,0.186,1.373,0.275,2.05,0.275c3.441,0,6.593-2.29,7.537-5.771
		C330.894,460.979,328.433,456.687,324.268,455.557z"/>
	<path style="fill:#DD3753;" d="M235.488,420.973l-43.662-11.844c-4.164-1.131-8.458,1.331-9.587,5.496s1.33,8.458,5.496,9.587
		l43.662,11.844c0.685,0.186,1.373,0.275,2.05,0.275c3.441,0,6.593-2.29,7.537-5.771
		C242.114,426.395,239.653,422.103,235.488,420.973z"/>
	<path style="fill:#DD3753;" d="M231.397,443.713l-43.662,11.844c-4.166,1.13-6.626,5.422-5.496,9.588
		c0.944,3.48,4.096,5.771,7.537,5.771c0.677,0,1.365-0.089,2.05-0.275l43.662-11.844c4.165-1.13,6.626-5.422,5.496-9.587
		C239.855,445.045,235.562,442.584,231.397,443.713z"/>
</g>
<path style="fill:#EF4A50;" d="M265.893,483.592H246.11c-8.147,0-14.751-6.604-14.751-14.751v-57.913
	c0-8.147,6.604-14.751,14.751-14.751h19.783c8.147,0,14.751,6.604,14.751,14.751v57.913
	C280.643,476.988,274.039,483.592,265.893,483.592z"/>
<path style="fill:#DD3753;" d="M265.893,396.177H246.11c-0.829,0-1.637,0.085-2.43,0.217c6.988,1.161,12.321,7.217,12.321,14.534
	v57.913c0,7.317-5.333,13.373-12.321,14.534c0.792,0.132,1.6,0.217,2.43,0.217h19.783c8.147,0,14.751-6.604,14.751-14.751v-57.913
	C280.643,402.781,274.039,396.177,265.893,396.177z"/>
<g>
</g>
<g>
</g>
<g>
</g>
<g>
</g>
<g>
</g>
<g>
</g>
<g>
</g>
<g>
</g>
<g>
</g>
<g>
</g>
<g>
</g>
<g>
</g>
<g>
</g>
<g>
</g>
<g>
</g>
</svg>
