<?xml version="1.0" encoding="iso-8859-1"?>
<!-- Generator: Adobe Illustrator 19.0.0, SVG Export Plug-In . SVG Version: 6.00 Build 0)  -->
<svg version="1.1" id="Capa_1" xmlns="http://www.w3.org/2000/svg" xmlns:xlink="http://www.w3.org/1999/xlink" x="0px" y="0px"
	 viewBox="0 0 512 512" style="enable-background:new 0 0 512 512;" xml:space="preserve">
<rect x="96.75" y="217.1" style="fill:#E0E0E2;" width="312.89" height="15.313"/>
<rect x="96.75" y="224.76" style="fill:#B5B5B5;" width="312.89" height="7.656"/>
<rect x="235.82" y="394.79" style="fill:#1E608B;" width="40.36" height="100.16"/>
<rect x="256" y="394.79" style="fill:#135370;" width="20.18" height="100.16"/>
<path style="fill:#E0E0E2;" d="M302.673,354.429h-93.347c-39.481,0-71.487-32.006-71.487-71.487V71.487
	C137.839,32.006,169.845,0,209.327,0h93.347c39.481,0,71.487,32.006,71.487,71.487v211.454
	C374.161,322.423,342.155,354.429,302.673,354.429z"/>
<g>
	<path style="fill:#CFCFCF;" d="M302.673,0H249.19c39.481,0,71.487,32.006,71.487,71.487v211.454
		c0,39.481-32.006,71.487-71.487,71.487h53.483c39.481,0,71.487-32.006,71.487-71.487V71.487C374.161,32.006,342.155,0,302.673,0z"
		/>
	<circle style="fill:#CFCFCF;" cx="256" cy="177.21" r="21.4"/>
</g>
<path style="fill:#CE915B;" d="M406.576,512H105.424l0,0c0-19.546,15.845-35.392,35.392-35.392h230.368
	C390.73,476.608,406.576,492.454,406.576,512L406.576,512z"/>
<path style="fill:#D8CFBC;" d="M400.791,207.865v79.813c0,53.234-43.154,96.388-96.388,96.388h-96.807
	c-53.234,0-96.388-43.154-96.388-96.388v-79.813c0-8.175-6.627-14.802-14.802-14.802l0,0c-8.175,0-14.802,6.627-14.802,14.802
	v79.813c0,69.584,56.409,125.993,125.993,125.993h96.807c69.584,0,125.993-56.409,125.993-125.993v-79.813
	c0-8.175-6.627-14.802-14.802-14.802l0,0C407.418,193.063,400.791,199.69,400.791,207.865z"/>
<g>
	<path style="fill:#CFCFCF;" d="M208.585,153.709H137.84v15.313h70.745c4.228,0,7.656-3.428,7.656-7.656
		C216.241,157.137,212.813,153.709,208.585,153.709z"/>
	<path style="fill:#CFCFCF;" d="M216.241,193.063c0-4.228-3.428-7.656-7.656-7.656H137.84v15.313h70.745
		C212.813,200.719,216.241,197.291,216.241,193.063z"/>
	<path style="fill:#CFCFCF;" d="M239.156,224.761c0-4.228-3.428-7.656-7.656-7.656h-93.66v15.313h93.66
		C235.728,232.417,239.156,228.989,239.156,224.761z"/>
	<path style="fill:#CFCFCF;" d="M231.5,90.314h-93.66v15.313h93.66c4.228,0,7.656-3.428,7.656-7.656S235.728,90.314,231.5,90.314z"
		/>
	<path style="fill:#CFCFCF;" d="M231.5,122.012h-93.66v15.313h93.66c4.228,0,7.656-3.428,7.656-7.656
		C239.156,125.439,235.728,122.012,231.5,122.012z"/>
	<path style="fill:#CFCFCF;" d="M239.156,256.458c0-4.228-3.428-7.656-7.656-7.656h-93.66v15.313h93.66
		C235.728,264.115,239.156,260.687,239.156,256.458z"/>
	<path style="fill:#CFCFCF;" d="M272.844,224.761c0,4.228,3.428,7.656,7.656,7.656h93.66v-15.313H280.5
		C276.272,217.104,272.844,220.532,272.844,224.761z"/>
	<path style="fill:#CFCFCF;" d="M295.759,193.063c0,4.228,3.428,7.656,7.656,7.656h70.745v-15.313h-70.745
		C299.187,185.407,295.759,188.835,295.759,193.063z"/>
	<path style="fill:#CFCFCF;" d="M374.161,248.802H280.5c-4.228,0-7.656,3.428-7.656,7.656c0,4.228,3.428,7.656,7.656,7.656h93.66
		L374.161,248.802L374.161,248.802z"/>
	<path style="fill:#CFCFCF;" d="M272.844,129.668c0,4.228,3.428,7.656,7.656,7.656h93.66v-15.313H280.5
		C276.272,122.012,272.844,125.439,272.844,129.668z"/>
	<path style="fill:#CFCFCF;" d="M272.844,97.971c0,4.228,3.428,7.656,7.656,7.656h93.66V90.314H280.5
		C276.272,90.314,272.844,93.742,272.844,97.971z"/>
	<path style="fill:#CFCFCF;" d="M295.759,161.366c0,4.228,3.428,7.656,7.656,7.656h70.745v-15.313h-70.745
		C299.187,153.709,295.759,157.137,295.759,161.366z"/>
	<path style="fill:#CFCFCF;" d="M302.673,0h-7.003v49.608c0,4.228,3.428,7.656,7.656,7.656c4.228,0,7.656-3.428,7.656-7.656V0.496
		C308.255,0.18,305.486,0,302.673,0z"/>
	<path style="fill:#CFCFCF;" d="M216.33,49.608V0h-7.003c-2.813,0-5.582,0.18-8.31,0.496v49.112c0,4.228,3.428,7.656,7.656,7.656
		C212.902,57.264,216.33,53.836,216.33,49.608z"/>
	<path style="fill:#CFCFCF;" d="M271.775,57.264c4.228,0,7.656-3.428,7.656-7.656V0h-15.313v49.608
		C264.119,53.836,267.547,57.264,271.775,57.264z"/>
</g>
<g>
	<path style="fill:#B5B5B5;" d="M310.983,35.557V0.496c-0.637-0.074-1.277-0.139-1.918-0.197c-0.755-0.067-1.512-0.13-2.273-0.173
		c-0.353-0.021-0.708-0.033-1.062-0.049C304.715,0.035,303.698,0,302.673,0h-7.003v17.197
		C301.744,22.402,306.932,28.605,310.983,35.557z"/>
	<path style="fill:#B5B5B5;" d="M279.432,6.71V0h-15.313v1.573C269.47,2.71,274.596,4.449,279.432,6.71z"/>
</g>
<g>
	<path style="fill:#CFCFCF;" d="M240.225,57.264c4.228,0,7.656-3.428,7.656-7.656V0h-15.313v49.608
		C232.568,53.836,235.996,57.264,240.225,57.264z"/>
	<path style="fill:#CFCFCF;" d="M303.327,297.165c-4.228,0-7.656,3.428-7.656,7.656v49.608l0,0h7.003c2.813,0,5.582-0.18,8.31-0.496
		v-49.111C310.983,300.593,307.555,297.165,303.327,297.165z"/>
	<path style="fill:#CFCFCF;" d="M302.673,0H249.19c39.481,0,71.487,32.006,71.487,71.487v211.454
		c0,39.481-32.006,71.487-71.487,71.487h53.483c39.481,0,71.487-32.006,71.487-71.487V71.487C374.161,32.006,342.155,0,302.673,0z"
		/>
</g>
<path style="fill:#B5B5B5;" d="M306.791,354.302c0.762-0.043,1.518-0.106,2.273-0.173c0.642-0.058,1.281-0.123,1.918-0.197v-35.061
	c-4.051,6.952-9.239,13.155-15.313,18.361v17.197l0,0h7.003c1.025,0,2.042-0.035,3.056-0.077
	C306.084,354.336,306.439,354.323,306.791,354.302z"/>
<g>
	<path style="fill:#CFCFCF;" d="M209.327,354.429h7.003l0,0v-49.608c0-4.228-3.428-7.656-7.656-7.656
		c-4.228,0-7.656,3.428-7.656,7.656v49.111C203.745,354.248,206.514,354.429,209.327,354.429z"/>
	<path style="fill:#CFCFCF;" d="M247.881,354.429v-49.608c0-4.228-3.428-7.656-7.656-7.656c-4.228,0-7.656,3.428-7.656,7.656v49.608
		l0,0H247.881L247.881,354.429z"/>
	<path style="fill:#CFCFCF;" d="M271.775,297.165c-4.228,0-7.656,3.428-7.656,7.656v49.608l0,0h15.313l0,0v-49.608
		C279.432,300.593,276.004,297.165,271.775,297.165z"/>
</g>
<g>
	<path style="fill:#B5B5B5;" d="M279.432,347.719c-4.835,2.261-9.962,4-15.313,5.137v1.573l0,0h15.313l0,0V347.719z"/>
	<rect x="320.68" y="153.71" style="fill:#B5B5B5;" width="53.48" height="15.313"/>
	<rect x="320.68" y="217.1" style="fill:#B5B5B5;" width="53.48" height="15.313"/>
	<rect x="320.68" y="185.41" style="fill:#B5B5B5;" width="53.48" height="15.313"/>
	<rect x="320.68" y="248.8" style="fill:#B5B5B5;" width="53.48" height="15.313"/>
	<rect x="320.68" y="90.31" style="fill:#B5B5B5;" width="53.48" height="15.313"/>
	<rect x="320.68" y="122.01" style="fill:#B5B5B5;" width="53.48" height="15.313"/>
</g>
<path style="fill:#CCC2B2;" d="M415.594,193.063c-8.175,0-14.802,6.627-14.802,14.802v79.813c0,53.234-43.154,96.388-96.388,96.388
	H256v29.605h48.403c69.584,0,125.993-56.409,125.993-125.993v-79.813C430.396,199.69,423.769,193.063,415.594,193.063z"/>
<path style="fill:#B57947;" d="M371.184,476.608H256V512h150.576l0,0C406.576,492.454,390.73,476.608,371.184,476.608z"/>
<g>
</g>
<g>
</g>
<g>
</g>
<g>
</g>
<g>
</g>
<g>
</g>
<g>
</g>
<g>
</g>
<g>
</g>
<g>
</g>
<g>
</g>
<g>
</g>
<g>
</g>
<g>
</g>
<g>
</g>
</svg>
