<?xml version="1.0" encoding="iso-8859-1"?>
<!-- Generator: Adobe Illustrator 19.0.0, SVG Export Plug-In . SVG Version: 6.00 Build 0)  -->
<svg version="1.1" id="Capa_1" xmlns="http://www.w3.org/2000/svg" xmlns:xlink="http://www.w3.org/1999/xlink" x="0px" y="0px"
	 viewBox="0 0 512 512" style="enable-background:new 0 0 512 512;" xml:space="preserve">
<path style="fill:#CACACA;" d="M192.704,324.56V34.336H77.6c-17.68,0-32,14.32-32,32V480c0,17.68,14.32,32,32,32h322.48
	c17.68,0,32-14.32,32-32V324.56H192.704z"/>
<path style="fill:#F3F3F3;" d="M353.52,0H111.936c-17.664,0-32,14.32-32,32v413.664c0,17.68,14.336,32,32,32H434.4
	c17.68,0,32-14.32,32-32V112.88L353.52,0z"/>
<path style="fill:#CACACA;" d="M353.52,80.88c0,17.68,14.336,32,32,32h80.88L353.52,0V80.88z"/>
<path style="fill:#ED6362;" d="M183.344,162.576V124.88c-11.76-3.36-20.384-8.448-25.872-15.248s-8.24-15.088-8.24-24.8
	c0-9.84,3.104-18.096,9.312-24.784s14.48-10.544,24.784-11.568v-8.912h13.056v8.912c9.536,1.136,17.136,4.4,22.768,9.76
	s9.232,12.56,10.8,21.552l-22.768,2.976c-1.376-7.072-4.976-11.872-10.8-14.4v35.184c14.4,3.904,24.208,8.96,29.424,15.168
	s7.824,14.176,7.824,23.888c0,10.864-3.28,20-9.856,27.44s-15.696,12-27.408,13.68v13.696h-13.056v-13.248
	c-10.384-1.264-18.8-5.136-25.28-11.616c-6.464-6.464-10.592-15.616-12.4-27.44l23.488-2.512c0.96,4.8,2.752,8.944,5.392,12.416
	C177.152,158.496,180.096,161.024,183.344,162.576z M183.344,68.096c-3.536,1.2-6.368,3.232-8.464,6.112
	c-2.096,2.88-3.152,6.064-3.152,9.536c0,3.184,0.96,6.128,2.88,8.864s4.832,4.928,8.736,6.608V68.096z M196.384,163.84
	c4.496-0.848,8.16-2.928,10.976-6.256s4.224-7.248,4.224-11.744c0-4.016-1.184-7.488-3.552-10.4
	c-2.368-2.912-6.256-5.136-11.648-6.704V163.84z"/>
<g>
	<path style="fill:#CACACA;" d="M409.952,179.84H279.888c-8.832,0-16-7.152-16-16c0-8.848,7.168-16,16-16h130.064
		c8.832,0,16,7.152,16,16S418.8,179.84,409.952,179.84z"/>
	<path style="fill:#CACACA;" d="M410.848,263.472H145.632c-8.832,0-16-7.152-16-16s7.168-16,16-16h265.216c8.832,0,16,7.152,16,16
		C426.848,256.304,419.68,263.472,410.848,263.472z"/>
	<path style="fill:#CACACA;" d="M410.848,347.072H145.632c-8.832,0-16-7.152-16-16s7.168-16,16-16h265.216c8.832,0,16,7.152,16,16
		C426.848,339.92,419.68,347.072,410.848,347.072z"/>
	<path style="fill:#CACACA;" d="M410.848,430.704H145.632c-8.832,0-16-7.152-16-16s7.168-16,16-16h265.216c8.832,0,16,7.152,16,16
		C426.848,423.552,419.68,430.704,410.848,430.704z"/>
</g>
<g style="opacity:0.15;">
	<path style="fill:#FFFFFF;" d="M368.4,53.584c-6.656,5.808-7.344,15.904-1.536,22.576l22.048,25.264
		c5.808,6.672,15.92,7.344,22.576,1.536c6.656-5.808,7.344-15.904,1.536-22.576L390.976,55.12
		C385.168,48.448,375.072,47.776,368.4,53.584z"/>
</g>
<g>
	<path style="fill:#FFFFFF;" d="M113.632,72.816c-8.832,0-16,7.152-16,16V196.88c0,8.848,7.168,16,16,16s16-7.152,16-16V88.816
		C129.632,79.968,122.464,72.816,113.632,72.816z"/>
	<path style="fill:#FFFFFF;" d="M113.632,24.112c-8.832,0-16,7.152-16,16V46.4c0,8.848,7.168,16,16,16s16-7.152,16-16v-6.288
		C129.632,31.264,122.464,24.112,113.632,24.112z"/>
</g>
<g>
</g>
<g>
</g>
<g>
</g>
<g>
</g>
<g>
</g>
<g>
</g>
<g>
</g>
<g>
</g>
<g>
</g>
<g>
</g>
<g>
</g>
<g>
</g>
<g>
</g>
<g>
</g>
<g>
</g>
</svg>
