<?xml version="1.0" encoding="iso-8859-1"?>
<!-- Generator: Adobe Illustrator 19.0.0, SVG Export Plug-In . SVG Version: 6.00 Build 0)  -->
<svg version="1.1" id="Capa_1" xmlns="http://www.w3.org/2000/svg" xmlns:xlink="http://www.w3.org/1999/xlink" x="0px" y="0px"
	 viewBox="0 0 512 512" style="enable-background:new 0 0 512 512;" xml:space="preserve">
<path style="fill:#464646;" d="M459.784,387.2V157.232c0-14.016-11.36-25.376-25.376-25.376H77.56
	c-14.016,0-25.376,11.36-25.376,25.376V387.2H459.784z"/>
<rect x="77.56" y="157.248" style="fill:#4B9FD8;" width="356.848" height="222.288"/>
<path style="fill:#E5E5E5;" d="M52.2,379.552v34.896c0,14.016,11.36,25.376,25.376,25.376H434.44
	c14.016,0,25.376-11.36,25.376-25.376v-34.896H52.2z"/>
<rect x="187.4" y="439.824" style="fill:#CACACA;" width="137.2" height="49.264"/>
<path style="fill:#E5E5E5;" d="M355.56,489.088H156.424c-6.336,0-11.456,5.136-11.456,11.456l0,0c0,6.32,5.12,11.456,11.456,11.456
	H355.56c6.336,0,11.456-5.136,11.456-11.456l0,0C367.016,494.208,361.896,489.088,355.56,489.088z"/>
<g>
	<polygon style="fill:#CACACA;" points="256.008,422.368 255.992,422.368 255.976,422.368 	"/>
	<polygon style="fill:#CACACA;" points="255.976,397.008 255.992,397.008 256.008,397.008 	"/>
	<circle style="fill:#CACACA;" cx="255.992" cy="409.68" r="12.672"/>
</g>
<g style="opacity:0.07;">
	<polygon style="fill:#010101;" points="187.4,439.824 324.584,471.44 324.584,439.824 	"/>
</g>
<path style="fill:#3789C9;" d="M383.656,157.248c-9.856,0-17.84,7.456-17.84,16.64s7.984,16.64,17.84,16.64h7.984
	c8.24,0,14.96,6.304,14.912,14v0.176c0,0.336,0.016,0.688,0.032,1.024c0.496,7.584-5.952,13.984-14.096,13.984h-9.36
	c-9.648,0-18.304,6.752-18.816,15.744c-0.544,9.6,7.648,17.536,17.808,17.536h3.408c8.288,0,14.992,6.304,14.944,14.032v0.96v0.192
	c0.048,8.144-7.04,14.8-15.76,14.8h-3.632c-9.648,0-18.304,6.752-18.816,15.744c-0.544,9.6,7.648,17.536,17.808,17.536h20.72
	c8.624,0,15.04,6.752,14.944,14.8c0,0.064,0,0.128,0,0.192s0,0.128,0,0.192c0.096,8.048-6.32,14.8-14.944,14.8h-14.736
	c-9.648,0-18.304,6.752-18.816,15.744c-0.544,9.6,7.648,17.536,17.808,17.536h49.392V157.248H383.656z"/>
<g>
	<path style="fill:#F4F4F4;" d="M115.528,409.68c0,8.768,7.104,15.872,15.872,15.872h59.568c8.768,0,15.872-7.104,15.872-15.872
		s-7.104-15.872-15.872-15.872H131.4C122.632,393.824,115.528,400.928,115.528,409.68z"/>
	<path style="fill:#F4F4F4;" d="M67.224,409.68c0,8.768,7.104,15.872,15.872,15.872h6.24c8.768,0,15.872-7.104,15.872-15.872
		s-7.104-15.872-15.872-15.872h-6.24C74.328,393.824,67.224,400.928,67.224,409.68z"/>
</g>
<path style="fill:#FEE218;" d="M330.984,339.712H181.032c-26.512,0-48-21.488-48-48V113.328h245.952v178.384
	C378.984,318.224,357.496,339.712,330.984,339.712z"/>
<path style="fill:#F2CD1B;" d="M133.032,289.552v2.56c0,26.288,21.312,47.6,47.6,47.6h150.752c26.288,0,47.6-21.312,47.6-47.6v-2.56
	H133.032z"/>
<g>
	<circle style="fill:#464646;" cx="178.808" cy="140.784" r="18.496"/>
	<circle style="fill:#464646;" cx="333.144" cy="140.784" r="18.496"/>
</g>
<path style="fill:#F3F3F3;" d="M255.976,0c-49.12,0-89.072,39.968-89.072,89.072v50.544c0,6.576,5.328,11.904,11.904,11.904V89.072
	c0-42.624,34.56-77.168,77.168-77.168c42.624,0,77.168,34.56,77.168,77.168v62.448c6.576,0,11.904-5.328,11.904-11.904V89.072
	C345.048,39.968,305.08,0,255.976,0z"/>
<path style="fill:#E5E5E5;" d="M255.976,11.904c-42.624,0-77.168,34.56-77.168,77.168v62.448c6.576,0,11.904-5.328,11.904-11.904
	V89.072c0-36,29.28-65.264,65.264-65.264c36,0,65.28,29.264,65.28,65.264v50.544c0,6.576,5.328,11.904,11.904,11.904l0,0V89.072
	C333.144,46.448,298.6,11.904,255.976,11.904z"/>
<g style="opacity:0.4;">
	<path style="fill:#FFFFFF;" d="M241.848,249.36c0,8.768,7.104,15.872,15.872,15.872h59.568c8.768,0,15.872-7.104,15.872-15.872
		c0-8.768-7.104-15.872-15.872-15.872H257.72C248.952,233.504,241.848,240.608,241.848,249.36z"/>
</g>
<g style="opacity:0.4;">
	<path style="fill:#FFFFFF;" d="M274.408,205.072c0,8.768,7.104,15.872,15.872,15.872h59.568c8.768,0,15.872-7.104,15.872-15.872
		s-7.104-15.872-15.872-15.872H290.28C281.512,189.216,274.408,196.32,274.408,205.072z"/>
</g>
<g>
</g>
<g>
</g>
<g>
</g>
<g>
</g>
<g>
</g>
<g>
</g>
<g>
</g>
<g>
</g>
<g>
</g>
<g>
</g>
<g>
</g>
<g>
</g>
<g>
</g>
<g>
</g>
<g>
</g>
</svg>
