<?xml version="1.0" encoding="iso-8859-1"?>
<!-- Generator: Adobe Illustrator 19.0.0, SVG Export Plug-In . SVG Version: 6.00 Build 0)  -->
<svg version="1.1" id="Capa_1" xmlns="http://www.w3.org/2000/svg" xmlns:xlink="http://www.w3.org/1999/xlink" x="0px" y="0px"
	 viewBox="0 0 512 512" style="enable-background:new 0 0 512 512;" xml:space="preserve">
<path style="fill:#FED9A8;" d="M496.875,220.28l9.065-19.289c13.011-27.685,4.525-60.709-20.221-78.692l0,0
	c-44.576-32.394-97.876-50.61-152.954-52.273l0,0c-30.576-0.923-57.499,20-64.153,49.858l-4.636,20.802
	c-2.717,12.189-7.8,23.726-14.961,33.956l0,0c-15.161,21.659-20.655,48.639-15.171,74.502l16.08,89.821
	c4.267,23.837,21.13,43.482,44.044,51.313l13.216,4.517l13.216,4.517c22.914,7.831,48.274,2.615,66.237-13.625l67.689-61.193
	c20.166-17.097,32.333-41.796,33.599-68.203l0,0C488.523,243.817,491.564,231.582,496.875,220.28z"/>
<path style="fill:#F4C892;" d="M485.719,122.298L485.719,122.298c-7.333-5.329-14.907-10.267-22.681-14.818
	c7.27,16.442,7.495,35.715-0.594,52.927l-9.065,19.289c-5.311,11.302-8.352,23.537-8.95,36.01l0,0
	c-1.266,26.408-13.433,51.106-33.599,68.203l-67.689,61.193c-17.963,16.239-43.322,21.456-66.237,13.625l-13.216-4.517l-10.563-3.61
	c6.921,18.473,21.785,33.164,40.844,39.677l13.216,4.517l13.216,4.517c22.915,7.831,48.274,2.615,66.237-13.625l67.689-61.193
	c20.166-17.097,32.334-41.796,33.599-68.203l0,0c0.598-12.473,3.639-24.708,8.95-36.01l9.065-19.289
	C518.951,173.306,510.465,140.282,485.719,122.298z"/>
<path style="fill:#ED999B;" d="M343.92,287.301c27.387,9.36,42.002,39.149,32.642,66.536l-3.146-3.557
	c-23.949-27.075-60.875-38.741-96.032-30.338l0,0C286.743,292.555,316.532,277.941,343.92,287.301z"/>
<path style="fill:#F4C892;" d="M367.637,273.102c-0.83,0-1.675-0.135-2.504-0.418l-20.043-6.85
	c-5.364-1.833-9.485-6.186-11.02-11.644c-1.537-5.457-0.291-11.32,3.329-15.683l30.291-36.496c2.731-3.289,7.609-3.741,10.897-1.012
	c3.289,2.729,3.742,7.608,1.013,10.897l-30.291,36.496c-0.49,0.589-0.456,1.199-0.342,1.606s0.403,0.944,1.128,1.191l20.044,6.85
	c4.044,1.382,6.202,5.781,4.819,9.826C373.859,271.079,370.854,273.102,367.637,273.102z"/>
<g>
	<path style="fill:#E5B580;" d="M314.835,150.059c-14.039,0.66-26.429,4.282-26.95,4.436c-4.098,1.211-6.439,5.516-5.227,9.615
		c1.212,4.097,5.515,6.438,9.615,5.227c0.11-0.032,11.099-3.245,23.291-3.818c8.906-0.42,20.069,0.503,25.012,6.801
		c-0.241,1.562-0.006,3.212,0.775,4.724c1.374,2.662,4.079,4.189,6.881,4.188c1.196,0,2.41-0.278,3.546-0.865
		c4.592-2.372,6.335-8.009,3.968-12.835C351.502,158.883,340.983,148.835,314.835,150.059z"/>
	<path style="fill:#E5B580;" d="M469.514,216.568c-0.317-0.44-7.9-10.889-18.598-20.003c-19.907-16.96-34.397-15.462-43.045-11.219
		c-4.823,2.366-6.897,7.89-4.72,12.576c1.801,3.876,6.403,5.558,10.279,3.757c1.545-0.718,2.741-1.88,3.507-3.265
		c13.943-3.538,33.838,18.659,40.028,27.21c1.512,2.094,3.878,3.207,6.278,3.207c1.569,0,3.152-0.475,4.52-1.463
		C471.23,224.871,472.014,220.034,469.514,216.568z"/>
</g>
<path style="fill:#FED9A8;" d="M249.147,182.878l-3.848-20.963c-5.523-30.087-31.637-52.012-62.226-52.243l0,0
	c-55.102-0.417-109.052,15.774-154.818,46.463l0,0C2.848,173.171-6.878,205.851,5.079,234.008l8.33,19.617
	c4.881,11.494,7.458,23.835,7.585,36.323l0,0c0.268,26.437,11.495,51.577,31.001,69.423l65.331,63.704
	c17.338,16.906,42.482,23.075,65.676,16.115l13.377-4.015l13.377-4.015c23.194-6.961,40.786-25.956,45.95-49.615l19.458-89.151
	c6.457-25.638,1.985-52.805-12.348-75.021l0,0C256.046,206.881,251.402,195.16,249.147,182.878z"/>
<path style="fill:#F4C892;" d="M262.816,217.375L262.816,217.375c-6.77-10.494-11.414-22.214-13.669-34.497l-3.848-20.963
	c-5.523-30.087-31.637-52.012-62.226-52.243l0,0c-12.394-0.094-24.728,0.66-36.925,2.223c23.227,6.297,41.5,25.428,46.014,50.02
	l3.848,20.963c2.255,12.283,6.899,24.003,13.669,34.496l0,0c14.333,22.216,18.804,49.383,12.348,75.021l-19.458,89.151
	c-5.164,23.659-22.756,42.654-45.95,49.615l-13.377,4.015l-5.286,1.586c14.051,5.923,29.96,6.956,45.046,2.428l13.377-4.015
	l13.377-4.015c23.194-6.961,40.786-25.956,45.95-49.615l19.458-89.151C281.621,266.758,277.149,239.591,262.816,217.375z"/>
<path style="fill:#ED999B;" d="M180.211,381.3c27.721-8.319,43.449-37.536,35.13-65.257l-3.278,3.436
	c-24.954,26.152-62.294,36.416-97.109,26.692l0,0C123.273,373.892,152.49,389.62,180.211,381.3z"/>
<path style="fill:#F4C892;" d="M147.235,308.958c-3.873,0.001-7.685-1.305-10.783-3.788c-4.424-3.545-6.822-9.038-6.415-14.692
	l3.407-47.308c0.307-4.263,3.995-7.469,8.274-7.163c4.262,0.307,7.469,4.011,7.162,8.274l-3.407,47.307
	c-0.054,0.764,0.327,1.24,0.657,1.504s0.875,0.533,1.612,0.313l20.286-6.088c4.095-1.224,8.409,1.094,9.637,5.188
	c1.228,4.093-1.094,8.407-5.187,9.636l-20.287,6.088C150.562,308.718,148.893,308.958,147.235,308.958z"/>
<g>
	<path style="fill:#E5B580;" d="M95.18,262.501c-1.187,0-2.391-0.274-3.52-0.851c-3.805-1.947-5.31-6.61-3.363-10.414l3.582-6.999
		c-8.874-0.444-18.051,2.591-24.789,5.608c-9.976,4.467-17.185,9.978-17.256,10.033c-3.384,2.604-8.242,1.979-10.85-1.401
		c-2.609-3.38-1.992-8.231,1.384-10.844c1.377-1.066,34.072-26.009,63.386-16.928c2.671,0.827,4.825,2.78,5.912,5.358
		c1.085,2.575,0.978,5.479-0.293,7.966l-7.298,14.259C100.705,260.962,97.992,262.501,95.18,262.501z"/>
	<path style="fill:#E5B580;" d="M181.502,236.595c-1.291,0-2.599-0.323-3.803-1.004l-13.941-7.884
		c-2.429-1.372-4.119-3.737-4.632-6.484c-0.514-2.75,0.209-5.568,1.984-7.731c19.467-23.722,60.494-20.904,62.233-20.772
		c4.262,0.323,7.454,4.039,7.132,8.301c-0.322,4.259-4.03,7.445-8.294,7.132c-0.448-0.032-27.658-1.812-43.726,10.085l6.864,3.882
		c3.72,2.104,5.03,6.825,2.926,10.545C186.822,235.18,184.2,236.594,181.502,236.595z"/>
</g>
<g>
</g>
<g>
</g>
<g>
</g>
<g>
</g>
<g>
</g>
<g>
</g>
<g>
</g>
<g>
</g>
<g>
</g>
<g>
</g>
<g>
</g>
<g>
</g>
<g>
</g>
<g>
</g>
<g>
</g>
</svg>
