<?xml version="1.0" encoding="iso-8859-1"?>
<!-- Generator: Adobe Illustrator 19.0.0, SVG Export Plug-In . SVG Version: 6.00 Build 0)  -->
<svg version="1.1" id="Capa_1" xmlns="http://www.w3.org/2000/svg" xmlns:xlink="http://www.w3.org/1999/xlink" x="0px" y="0px"
	 viewBox="0 0 510.272 510.272" style="enable-background:new 0 0 510.272 510.272;" xml:space="preserve">
<circle style="fill:#E95454;" cx="255.136" cy="255.136" r="178.88"/>
<circle style="fill:#CD494C;" cx="255.136" cy="255.136" r="118.448"/>
<circle style="fill:#C2434A;" cx="198.368" cy="198.368" r="27.968"/>
<path style="fill:#ED6362;" d="M255.136,420.88c-91.392,0-165.744-74.352-165.744-165.744S163.744,89.392,255.136,89.392
	S420.88,163.744,420.88,255.136S346.528,420.88,255.136,420.88z M255.136,121.392c-73.744,0-133.744,60-133.744,133.744
	s60,133.744,133.744,133.744s133.744-60,133.744-133.744C388.88,181.392,328.88,121.392,255.136,121.392z"/>
<g>
	<path style="fill:#E5E5E5;" d="M255.136,49.36c-4.416,0-8-3.584-8-8V8c0-4.416,3.584-8,8-8c4.416,0,8,3.584,8,8v33.36
		C263.136,45.776,259.552,49.36,255.136,49.36z"/>
	<path style="fill:#E5E5E5;" d="M255.136,510.272c-4.416,0-8-3.584-8-8v-33.36c0-4.416,3.584-8,8-8c4.416,0,8,3.584,8,8v33.36
		C263.136,506.704,259.552,510.272,255.136,510.272z"/>
	<path style="fill:#E5E5E5;" d="M174.496,56.976l-11.408-31.344c-1.52-4.16,0.624-8.736,4.784-10.256
		c4.16-1.504,8.736,0.624,10.256,4.784l11.408,31.344c1.52,4.16-0.624,8.736-4.784,10.256
		C180.624,63.264,176.016,61.152,174.496,56.976z"/>
	<path style="fill:#E5E5E5;" d="M332.144,490.128l-11.408-31.36c-1.52-4.16,0.624-8.752,4.784-10.256
		c4.128-1.52,8.736,0.624,10.256,4.784l11.408,31.36c1.52,4.16-0.624,8.736-4.784,10.256
		C338.272,496.4,333.664,494.304,332.144,490.128z"/>
	<path style="fill:#E5E5E5;" d="M111.6,96.512L90.144,70.944c-2.848-3.376-2.4-8.416,0.992-11.264
		c3.408-2.864,8.448-2.384,11.264,0.992l21.456,25.568c2.848,3.376,2.4,8.416-0.992,11.264
		C119.488,100.352,114.416,99.888,111.6,96.512z"/>
	<path style="fill:#E5E5E5;" d="M407.872,449.6l-21.44-25.568c-2.848-3.392-2.4-8.432,0.992-11.264
		c3.392-2.864,8.448-2.384,11.264,0.992l21.44,25.568c2.848,3.392,2.4,8.432-0.976,11.264
		C415.76,453.44,410.688,452.992,407.872,449.6z"/>
	<path style="fill:#E5E5E5;" d="M66,155.168l-28.896-16.672c-3.84-2.208-5.152-7.088-2.944-10.928
		c2.208-3.824,7.072-5.168,10.928-2.928l28.896,16.672c3.84,2.208,5.152,7.104,2.944,10.928
		C74.72,156.064,69.824,157.392,66,155.168z"/>
	<path style="fill:#E5E5E5;" d="M465.168,385.632l-28.896-16.688c-3.824-2.208-5.136-7.088-2.928-10.928
		c2.208-3.824,7.104-5.168,10.928-2.928l28.896,16.688c3.824,2.208,5.136,7.088,2.928,10.928
		C473.856,386.576,468.928,387.84,465.168,385.632z"/>
	<path style="fill:#E5E5E5;" d="M44.608,226.016c-0.464,0-0.928-0.032-1.392-0.128l-32.864-5.776
		C6,219.344,3.088,215.2,3.856,210.848c0.768-4.336,4.912-7.344,9.264-6.48l32.864,5.776c4.352,0.768,7.264,4.912,6.496,9.264
		C51.808,223.28,48.432,226.016,44.608,226.016z"/>
	<path style="fill:#E5E5E5;" d="M497.136,305.936l-32.864-5.792c-4.352-0.768-7.264-4.912-6.48-9.264
		c0.768-4.336,4.912-7.344,9.264-6.48l32.864,5.792c4.352,0.768,7.264,4.912,6.48,9.264
		C505.6,303.984,501.2,306.752,497.136,305.936z"/>
	<path style="fill:#E5E5E5;" d="M3.872,299.456c-0.768-4.368,2.128-8.496,6.48-9.264l32.864-5.792
		c4.304-0.864,8.512,2.144,9.264,6.48c0.768,4.352-2.128,8.496-6.48,9.264l-32.864,5.792C9.088,306.752,4.672,303.984,3.872,299.456
		z"/>
	<path style="fill:#E5E5E5;" d="M457.792,219.408c-0.768-4.368,2.144-8.496,6.496-9.264l32.864-5.776
		c4.288-0.88,8.496,2.144,9.264,6.48c0.768,4.368-2.144,8.496-6.496,9.264l-32.864,5.776
		C462.976,226.704,458.592,223.904,457.792,219.408z"/>
	<path style="fill:#E5E5E5;" d="M34.16,382.72c-2.208-3.824-0.896-8.72,2.928-10.928l28.896-16.688
		c3.824-2.256,8.704-0.912,10.928,2.928c2.224,3.824,0.912,8.72-2.912,10.912l-28.896,16.688
		C41.328,387.84,36.4,386.576,34.16,382.72z"/>
	<path style="fill:#E5E5E5;" d="M433.344,152.24c-2.208-3.824-0.896-8.72,2.928-10.912l28.896-16.672
		c3.792-2.256,8.72-0.912,10.928,2.928c2.208,3.824,0.896,8.72-2.928,10.928l-28.896,16.672
		C440.496,157.36,435.568,156.096,433.344,152.24z"/>
	<path style="fill:#E5E5E5;" d="M91.136,450.592c-3.376-2.848-3.824-7.888-0.992-11.264L111.6,413.76
		c2.832-3.376,7.888-3.84,11.264-0.992s3.824,7.888,0.992,11.264L102.4,449.6C99.568,452.992,94.512,453.44,91.136,450.592z"/>
	<path style="fill:#E5E5E5;" d="M387.408,97.488c-3.392-2.832-3.824-7.872-0.992-11.264l21.44-25.568
		c2.832-3.376,7.872-3.84,11.264-0.992c3.376,2.832,3.824,7.872,0.976,11.264l-21.44,25.568
		C395.856,99.888,390.784,100.352,387.408,97.488z"/>
	<path style="fill:#E5E5E5;" d="M167.872,494.896c-4.16-1.52-6.304-6.096-4.784-10.256l11.408-31.36
		c1.504-4.16,6.128-6.288,10.256-4.784c4.16,1.52,6.288,6.096,4.784,10.256l-11.408,31.36
		C176.608,494.304,172,496.4,167.872,494.896z"/>
	<path style="fill:#E5E5E5;" d="M325.52,61.76c-4.16-1.52-6.288-6.096-4.784-10.256l11.408-31.344
		c1.504-4.16,6.112-6.288,10.256-4.784c4.16,1.52,6.288,6.096,4.784,10.256l-11.408,31.344
		C334.256,61.152,329.648,63.264,325.52,61.76z"/>
</g>
<g>
	<path style="fill:#FFFFFF;" d="M190.848,329.056L160,278.512l9.936-6.064l41.28,21.12l-20.592-33.76l9.472-5.792l30.848,50.544
		l-10.24,6.256l-40.496-20.528l20.112,32.96L190.848,329.056z"/>
	<path style="fill:#FFFFFF;" d="M241.744,298l-30.848-50.544l37.472-22.88l5.216,8.544l-27.264,16.64l6.832,11.2l25.376-15.488
		l5.2,8.512l-25.376,15.488l8.4,13.76L274.992,266l5.2,8.512L241.744,298z"/>
	<path style="fill:#FFFFFF;" d="M296,264.88l-42.912-43.184l10.448-6.384l28.8,30.064l-11.952-40.352l12.128-7.408l30.4,29.888
		l-13.792-40.032l10.272-6.272l18.576,58.032l-10.832,6.608l-33.12-31.632l13.024,43.904L296,264.88z"/>
</g>
<g>
</g>
<g>
</g>
<g>
</g>
<g>
</g>
<g>
</g>
<g>
</g>
<g>
</g>
<g>
</g>
<g>
</g>
<g>
</g>
<g>
</g>
<g>
</g>
<g>
</g>
<g>
</g>
<g>
</g>
</svg>
