<?xml version="1.0" encoding="iso-8859-1"?>
<!-- Generator: Adobe Illustrator 19.0.0, SVG Export Plug-In . SVG Version: 6.00 Build 0)  -->
<svg version="1.1" id="Capa_1" xmlns="http://www.w3.org/2000/svg" xmlns:xlink="http://www.w3.org/1999/xlink" x="0px" y="0px"
	 viewBox="0 0 512 512" style="enable-background:new 0 0 512 512;" xml:space="preserve">
<path style="fill:#4D4D4D;" d="M363.589,480.368c0,0-47.432-137.853-47.432-290.706H95.425c0,152.853-47.432,290.706-47.432,290.706
	h0.217c-0.143,0.524-0.217,1.051-0.217,1.582c0,16.596,70.648,30.05,157.798,30.05s157.798-13.454,157.798-30.049
	c0-0.531-0.074-1.058-0.217-1.582L363.589,480.368L363.589,480.368z"/>
<path style="fill:#3F3F3F;" d="M363.589,480.368c0,0-0.013-0.037-0.024-0.069c-0.008-0.022-0.021-0.063-0.033-0.096
	c-0.011-0.032-0.026-0.076-0.04-0.118c-0.025-0.075-0.055-0.161-0.09-0.267c-0.002-0.006-0.004-0.013-0.006-0.019
	c-0.542-1.608-2.196-6.597-4.576-14.451c-12.027-39.685-42.664-152.831-42.664-275.687h-54.668
	c0,87.572,15.569,170.22,28.867,224.843c8.91,36.599-18.132,72.107-55.787,73.119c-8.658,0.233-18.226,0.367-28.778,0.367
	c-73.806,0-135.77-9.65-153.017-22.685c-2.944,9.717-4.781,15.062-4.781,15.062h0.217c-0.143,0.524-0.217,1.051-0.217,1.582
	c0,14.821,56.344,27.134,130.464,29.599l0,0c0.002,0,0.003,0,0.005,0c2.208,0.073,4.432,0.138,6.671,0.194
	c0.014,0,0.028,0.001,0.042,0.001c2.097,0.052,4.209,0.095,6.331,0.131c0.281,0.005,0.561,0.01,0.842,0.014
	c2.033,0.033,4.077,0.058,6.131,0.076c0.318,0.003,0.638,0.005,0.956,0.007c2.109,0.016,4.226,0.026,6.356,0.026
	c87.15,0,157.798-13.454,157.798-30.049c0-0.531-0.075-1.058-0.217-1.582h0.218V480.368z"/>
<path style="fill:#EF4A50;" d="M205.791,294.067c42.692,0,82.494-2.965,116.122-8.076c-3.511-30.559-5.756-63.088-5.756-96.329
	H95.425c0,33.241-2.245,65.77-5.755,96.329C123.297,291.103,163.099,294.067,205.791,294.067z"/>
<path style="fill:#DD3753;" d="M321.913,285.991c-0.005-0.042-0.009-0.085-0.014-0.126c-1.305-11.376-2.435-23.024-3.339-34.882
	c-0.01-0.127-0.019-0.254-0.028-0.381c-0.286-3.774-0.548-7.569-0.787-11.384c-0.019-0.299-0.036-0.598-0.055-0.897
	c-0.225-3.667-0.428-7.35-0.606-11.05c-0.018-0.381-0.036-0.762-0.054-1.143c-0.172-3.665-0.319-7.345-0.441-11.038
	c-0.012-0.371-0.025-0.742-0.037-1.113c-0.12-3.777-0.213-7.568-0.278-11.37c-0.005-0.26-0.011-0.52-0.015-0.781
	c-0.065-4.043-0.101-8.098-0.101-12.165H261.49c0,35.39,2.544,69.974,6.452,102.232
	C287.174,290.515,305.299,288.517,321.913,285.991z"/>
<ellipse style="fill:#424242;" cx="205.791" cy="197.44" rx="193.13" ry="46.555"/>
<path style="fill:#353535;" d="M205.791,214.437c-41.671,0-82.345-3.397-114.529-9.565c-7.134-1.367-13.415-2.788-18.919-4.205
	c-3.341-0.86-3.341-5.586,0-6.447c5.504-1.417,11.786-2.838,18.919-4.205c32.184-6.168,72.857-9.565,114.529-9.565
	c41.671,0,82.345,3.397,114.529,9.565c7.134,1.367,13.415,2.787,18.919,4.205c3.341,0.86,3.341,5.586,0,6.447
	c-5.504,1.417-11.785,2.838-18.919,4.205C288.136,211.041,247.462,214.437,205.791,214.437z"/>
<path style="fill:#1E608B;" d="M492.671,40.39l-328.398,88.386c-5.047,1.358-10.526-2.418-12.332-8.499l-0.235-0.79
	c-1.806-6.081,0.723-12.236,5.692-13.853L480.789,0.394c5.122-1.667,10.863,2.115,12.725,8.382l5.241,17.644
	C500.617,32.687,497.872,38.99,492.671,40.39z"/>
<path style="fill:#135370;" d="M498.755,26.42l-2.991-10.068l-343.578,104.64c2.011,5.654,7.244,9.087,12.087,7.783L492.671,40.39
	C497.872,38.99,500.617,32.687,498.755,26.42z"/>
<path style="fill:#FEC93E;" d="M215.936,86.583l-58.538,19.05c-4.97,1.617-7.499,7.772-5.692,13.853l0.235,0.79
	c1.806,6.081,7.286,9.857,12.332,8.499l59.444-15.999L215.936,86.583z"/>
<path style="fill:#EFB533;" d="M223.717,112.777l-3.697-12.444l-67.835,20.66c0.125,0.352,0.263,0.696,0.412,1.03
	c0.001,0.002,0.002,0.004,0.003,0.006c0.148,0.33,0.307,0.652,0.477,0.963c0.004,0.007,0.008,0.014,0.011,0.021
	c0.167,0.305,0.344,0.6,0.53,0.886c0.009,0.014,0.019,0.029,0.028,0.043c0.182,0.277,0.373,0.544,0.571,0.802
	c0.017,0.022,0.034,0.044,0.051,0.066c0.193,0.247,0.394,0.485,0.601,0.714c0.027,0.03,0.055,0.06,0.083,0.09
	c0.2,0.216,0.406,0.424,0.617,0.622c0.041,0.038,0.083,0.075,0.124,0.113c0.202,0.184,0.409,0.361,0.621,0.529
	c0.057,0.045,0.114,0.087,0.171,0.13c0.202,0.153,0.406,0.301,0.615,0.438c0.073,0.048,0.148,0.092,0.222,0.138
	c0.198,0.123,0.397,0.242,0.599,0.351c0.092,0.049,0.186,0.093,0.279,0.139c0.19,0.094,0.381,0.187,0.574,0.268
	c0.111,0.046,0.224,0.085,0.336,0.127c0.181,0.068,0.361,0.136,0.545,0.192c0.13,0.04,0.262,0.07,0.394,0.104
	c0.169,0.044,0.338,0.09,0.509,0.124c0.149,0.029,0.299,0.046,0.448,0.067c0.157,0.022,0.314,0.05,0.472,0.063
	c0.168,0.014,0.336,0.014,0.505,0.018c0.141,0.003,0.283,0.014,0.425,0.01c0.197-0.006,0.393-0.029,0.59-0.049
	c0.114-0.012,0.229-0.014,0.343-0.031c0.303-0.044,0.605-0.106,0.905-0.186c0.008-0.002,0.017-0.003,0.026-0.005L223.717,112.777z"
	/>
<g>
	<path style="fill:#9AD9D4;" d="M61.734,100.796h8.979v8.979c0,4.132,3.35,7.482,7.482,7.482c4.132,0,7.482-3.35,7.482-7.482v-8.979
		h8.979c4.132,0,7.482-3.35,7.482-7.482s-3.35-7.482-7.482-7.482h-8.979v-8.979c0-4.132-3.35-7.482-7.482-7.482
		c-4.132,0-7.482,3.35-7.482,7.482v8.979h-8.979c-4.132,0-7.482,3.35-7.482,7.482S57.602,100.796,61.734,100.796z"/>
	<path style="fill:#9AD9D4;" d="M360.246,99.162c-4.133,0-7.482,3.35-7.482,7.482v8.979h-8.979c-4.133,0-7.482,3.35-7.482,7.482
		c0,4.132,3.35,7.482,7.482,7.482h8.979v8.979c0,4.132,3.35,7.482,7.482,7.482c4.133,0,7.482-3.35,7.482-7.482v-8.979h8.979
		c4.133,0,7.482-3.35,7.482-7.482c0-4.132-3.35-7.482-7.482-7.482h-8.979v-8.979C367.728,102.512,364.379,99.162,360.246,99.162z"/>
	<path style="fill:#9AD9D4;" d="M234.641,32.7h8.979v8.979c0,4.132,3.35,7.482,7.482,7.482c4.133,0,7.482-3.35,7.482-7.482V32.7
		h8.979c4.133,0,7.482-3.35,7.482-7.482s-3.35-7.482-7.482-7.482h-8.979v-8.98c0-4.132-3.35-7.482-7.482-7.482
		c-4.133,0-7.482,3.35-7.482,7.482v8.979h-8.979c-4.132,0-7.482,3.35-7.482,7.482S230.509,32.7,234.641,32.7z"/>
</g>
<g>
	<path style="fill:#6FCEC3;" d="M85.678,109.775v-8.979h8.979c4.132,0,7.482-3.35,7.482-7.482s-3.35-7.482-7.482-7.482h-8.979
		v-8.979c0-4.132-3.35-7.482-7.482-7.482v47.887C82.328,117.257,85.678,113.907,85.678,109.775z"/>
	<path style="fill:#6FCEC3;" d="M258.585,41.678V32.7h8.979c4.133,0,7.482-3.35,7.482-7.482s-3.35-7.482-7.482-7.482h-8.979v-8.98
		c0-4.132-3.35-7.482-7.482-7.482v47.887C255.235,49.161,258.585,45.811,258.585,41.678z"/>
	<path style="fill:#6FCEC3;" d="M367.729,139.567v-8.979h8.979c4.133,0,7.482-3.35,7.482-7.482c0-4.132-3.349-7.482-7.482-7.482
		h-8.979v-8.979c0-4.132-3.35-7.482-7.482-7.482v47.887C364.379,147.049,367.729,143.699,367.729,139.567z"/>
</g>
<g>
</g>
<g>
</g>
<g>
</g>
<g>
</g>
<g>
</g>
<g>
</g>
<g>
</g>
<g>
</g>
<g>
</g>
<g>
</g>
<g>
</g>
<g>
</g>
<g>
</g>
<g>
</g>
<g>
</g>
</svg>
