<?xml version="1.0" encoding="iso-8859-1"?>
<!-- Generator: Adobe Illustrator 19.0.0, SVG Export Plug-In . SVG Version: 6.00 Build 0)  -->
<svg version="1.1" id="Capa_1" xmlns="http://www.w3.org/2000/svg" xmlns:xlink="http://www.w3.org/1999/xlink" x="0px" y="0px"
	 viewBox="0 0 513.61 513.61" style="enable-background:new 0 0 513.61 513.61;" xml:space="preserve">
<polygon style="fill:#E95454;" points="5.557,176.225 160.165,176.241 5.557,21.633 "/>
<path style="fill:#ED6362;" d="M82.405,99.713l30.864,30.88c41.088-45.808,87.808-70.864,121.472-78.08
	c62.24-19.488,145.472-9.264,223.168,47.504C353.333-1.503,187.093-1.599,82.405,99.713z"/>
<path style="fill:#E95454;" d="M270.293,1.201c-14.304-0.656-28.88-1.92-43.184-0.672c-62.096,0.624-124.24,30.24-175.936,67.952
	l31.232,31.232C187.109-1.599,353.349-1.503,457.909,100.017c2.064,1.504,3.296,2.416,3.296,2.416
	C403.397,38.065,354.421,13.601,270.293,1.201z"/>
<polygon style="fill:#3789C9;" points="508.053,336.737 353.445,336.737 508.053,491.345 "/>
<path style="fill:#4B9FD8;" d="M431.205,413.249l-30.88-30.864c-40.816,45.488-55.584,49.616-88.8,67.12
	c-40.816,14.144-62,24.432-141.056,15.6c-67.936-17.568-76.784-24.368-114.784-52.128
	C160.277,514.481,326.517,514.561,431.205,413.249z"/>
<path style="fill:#3789C9;" d="M201.333,504.273c74.528,21.408,168.448,7.824,261.12-59.776l-31.248-31.248
	c-104.704,101.312-270.944,101.216-375.52-0.304c-2.064-1.504-3.296-2.416-3.296-2.416
	C102.325,466.129,155.813,495.009,201.333,504.273z"/>
<circle style="fill:#FDBC4B;" cx="249.493" cy="263.633" r="116.192"/>
<path style="fill:#FFFFFF;" d="M242.453,314.177v-42.144c-13.136-3.76-22.784-9.44-28.928-17.056s-9.2-16.848-9.2-27.712
	c0-10.992,3.472-20.24,10.416-27.712s16.176-11.792,27.712-12.928v-9.952h14.592v9.952c10.672,1.28,19.152,4.912,25.456,10.912
	s10.336,14.032,12.064,24.096l-25.456,3.312c-1.536-7.92-5.568-13.28-12.064-16.096v39.328c16.096,4.368,27.056,10.016,32.896,16.96
	s8.752,15.84,8.752,26.704c0,12.144-3.664,22.368-11.024,30.688c-7.344,8.32-17.552,13.408-30.624,15.296v12.8h-14.592v-12.288
	c-11.6-1.408-21.024-5.728-28.272-12.976c-7.248-7.248-11.872-17.472-13.888-30.688l26.256-2.816c1.072,5.36,3.088,10,6.032,13.888
	C235.557,309.617,238.837,312.433,242.453,314.177z M242.453,208.545c-3.952,1.344-7.104,3.616-9.456,6.832
	c-2.352,3.216-3.52,6.768-3.52,10.672c0,3.552,1.072,6.864,3.216,9.904c2.144,3.056,5.392,5.52,9.76,7.392V208.545z
	 M257.045,315.585c5.024-0.944,9.12-3.264,12.272-6.992s4.736-8.096,4.736-13.12c0-4.496-1.328-8.368-3.968-11.616
	s-6.992-5.744-13.024-7.488v39.216H257.045z"/>
<g>
</g>
<g>
</g>
<g>
</g>
<g>
</g>
<g>
</g>
<g>
</g>
<g>
</g>
<g>
</g>
<g>
</g>
<g>
</g>
<g>
</g>
<g>
</g>
<g>
</g>
<g>
</g>
<g>
</g>
</svg>
