<?xml version="1.0" encoding="iso-8859-1"?>
<!-- Generator: Adobe Illustrator 19.0.0, SVG Export Plug-In . SVG Version: 6.00 Build 0)  -->
<svg version="1.1" id="Capa_1" xmlns="http://www.w3.org/2000/svg" xmlns:xlink="http://www.w3.org/1999/xlink" x="0px" y="0px"
	 viewBox="0 0 509.408 509.408" style="enable-background:new 0 0 509.408 509.408;" xml:space="preserve">
<circle style="fill:#FDBC4B;" cx="324.347" cy="94.832" r="94.832"/>
<circle style="fill:#FFDB70;" cx="324.411" cy="94.832" r="69.632"/>
<path style="fill:#FDBC4B;" d="M319.579,128.944v-28.576c-8.912-2.544-15.44-6.4-19.616-11.552c-4.16-5.152-6.24-11.424-6.24-18.784
	c0-7.456,2.352-13.712,7.056-18.784s10.976-8,18.784-8.768v-6.768h9.888v6.752c7.232,0.864,12.976,3.328,17.248,7.408
	c4.272,4.064,7.008,9.52,8.176,16.336l-17.248,2.256c-1.04-5.36-3.776-9.008-8.192-10.912v26.672
	c10.912,2.96,18.352,6.784,22.304,11.488c3.952,4.704,5.936,10.736,5.936,18.112c0,8.224-2.496,15.168-7.472,20.8
	c-4.976,5.632-11.904,9.088-20.768,10.368v8.976h-9.888v-8.656c-7.872-0.96-14.256-3.888-19.168-8.8s-8.048-11.84-9.408-20.8
	l17.792-1.904c0.72,3.632,2.096,6.784,4.096,9.408C314.891,125.84,317.131,127.76,319.579,128.944z M319.579,57.328
	c-2.688,0.912-4.816,2.448-6.416,4.64c-1.584,2.176-2.384,4.592-2.384,7.232c0,2.416,0.72,4.656,2.176,6.72s3.664,3.744,6.608,5.008
	v-23.6H319.579z M329.467,129.888c3.408-0.64,6.192-2.224,8.32-4.736c2.144-2.528,3.2-5.488,3.2-8.896
	c0-3.04-0.896-5.68-2.688-7.872c-1.792-2.208-4.736-3.904-8.832-5.088L329.467,129.888L329.467,129.888z"/>
<path style="fill:#3789C9;" d="M458.539,148.816H132.955l38.128,230.16h258.896c15.584,0,28.896-11.216,31.536-26.576l28.544-166.16
	C493.435,166.688,478.379,148.816,458.539,148.816z M260.491,340.272c-8.672,0.816-16.592-5.552-17.408-14.448l-13.072-108.912
	c-0.816-8.816,5.648-16.592,14.448-17.424c8.784-0.816,16.592,5.648,17.408,14.448l13.072,108.912
	C275.755,331.664,269.275,339.44,260.491,340.272z M340.347,324.336c0,8.848-7.168,16-16,16s-16-7.152-16-16V215.424
	c0-8.848,7.168-16,16-16s16,7.152,16,16V324.336z M405.611,325.824c-0.816,8.896-8.736,15.264-17.408,14.448
	c-8.8-0.832-15.28-8.608-14.448-17.424l13.072-108.912c0.8-8.8,8.592-15.296,17.408-14.448c8.8,0.832,15.28,8.608,14.448,17.424
	L405.611,325.824z"/>
<path style="fill:#E5E5E5;" d="M457.003,433.488H174.507c-7.824,0-14.496-5.648-15.776-13.36L101.995,81.024H34.891
	c-8.832,0-16-7.152-16-16s7.168-16,16-16h80.672c7.824,0,14.496,5.648,15.776,13.36l56.72,339.104h268.944c8.832,0,16,7.152,16,16
	S465.835,433.488,457.003,433.488z"/>
<path style="fill:#DBDCD9;" d="M119.675,65.088c0,8.8-7.2,16-16,16h-68.8c-8.8,0-16-7.2-16-16c0-8.96,7.2-16,16-16h68.8
	C112.475,49.088,119.675,56.128,119.675,65.088z"/>
<circle style="fill:#464646;" cx="241.691" cy="463.472" r="45.936"/>
<circle style="fill:#FFFFFF;" cx="241.691" cy="463.472" r="24.464"/>
<circle style="fill:#464646;" cx="399.675" cy="463.472" r="45.936"/>
<circle style="fill:#FFFFFF;" cx="399.675" cy="463.472" r="24.464"/>
<g>
	<path style="fill:#4B9FD8;" d="M197.595,278.08c-8.976,1.488-15.04,9.952-13.552,18.928l2.08,12.576
		c1.488,8.976,9.952,15.04,18.928,13.552s15.04-9.952,13.552-18.928l-2.08-12.576C215.035,282.656,206.571,276.608,197.595,278.08z"
		/>
	<path style="fill:#4B9FD8;" d="M177.915,159.072c-8.976,1.488-15.04,9.952-13.552,18.928l12.816,77.504
		c1.488,8.976,9.952,15.04,18.928,13.552s15.04-9.952,13.552-18.928l-12.816-77.504
		C195.355,163.648,186.875,157.584,177.915,159.072z"/>
</g>
<g>
</g>
<g>
</g>
<g>
</g>
<g>
</g>
<g>
</g>
<g>
</g>
<g>
</g>
<g>
</g>
<g>
</g>
<g>
</g>
<g>
</g>
<g>
</g>
<g>
</g>
<g>
</g>
<g>
</g>
</svg>
