<?xml version="1.0" encoding="iso-8859-1"?>
<!-- Generator: Adobe Illustrator 19.0.0, SVG Export Plug-In . SVG Version: 6.00 Build 0)  -->
<svg version="1.1" id="Capa_1" xmlns="http://www.w3.org/2000/svg" xmlns:xlink="http://www.w3.org/1999/xlink" x="0px" y="0px"
	 viewBox="0 0 512.001 512.001" style="enable-background:new 0 0 512.001 512.001;" xml:space="preserve">
<path style="fill:#353535;" d="M511.53,389.823c6.127,25.72-49.226,47.825-67.734,55.123c-59.56,23.487-124.905,32.17-187.796,32.17
	s-128.235-8.683-187.795-32.17c-18.508-7.298-73.86-29.404-67.734-55.123c5.73-24.056,61.39-24.51,80.886-25.864
	c58.027-4.028,116.53-2.913,174.643-2.913c58.114,0,116.619-1.115,174.644,2.913C450.012,365.304,505.837,365.922,511.53,389.823z"
	/>
<path style="fill:#4D4D4D;" d="M444.417,71.731H256.001H67.585c0,0,53.528,136.544,49.125,326.816
	c-0.067,0.321-0.112,0.644-0.112,0.968c0,13.952,62.392,25.263,139.357,25.263s139.357-11.311,139.357-25.263
	C390.706,208.91,444.417,71.731,444.417,71.731z"/>
<path style="fill:#3F3F3F;" d="M444.417,71.731h-53.604c0,0-53.711,137.179-49.104,327.784c0,12.29-48.415,22.529-112.555,24.794
	c8.674,0.306,17.633,0.469,26.802,0.469c76.965,0,139.357-11.311,139.357-25.263C390.706,208.91,444.417,71.731,444.417,71.731z"/>
<ellipse style="fill:#353535;" cx="256.001" cy="72.319" rx="188.42" ry="37.435"/>
<path style="fill:#EF4A50;" d="M255.99,352.165c-53.829,0-102.837-4.408-139.685-11.628c0.685,18.685,0.867,38.047,0.406,58.011
	c-0.067,0.321-0.112,0.644-0.112,0.968c0,13.952,62.392,25.263,139.357,25.263s139.357-11.311,139.357-25.263
	c-0.491-20.303-0.315-39.993,0.383-58.982C358.845,347.755,309.829,352.165,255.99,352.165z"/>
<g>
	<path style="fill:#DD3753;" d="M116.806,340.632c-0.166-0.032-0.336-0.064-0.502-0.096c0.319,8.712,0.524,17.578,0.611,26.577
		C117.001,358.156,116.96,349.327,116.806,340.632z"/>
	<path style="fill:#DD3753;" d="M395.144,390.616c-0.039-2.726-0.068-5.441-0.085-8.145c-0.006-1.004-0.01-2.007-0.013-3.009
		c-0.005-1.453-0.007-2.903-0.005-4.348c0.002-1.363,0.006-2.723,0.013-4.08c0.007-1.227,0.017-2.45,0.029-3.672
		c0.001-0.056,0.001-0.111,0.002-0.167c0,0.001,0,0.001,0,0.002c0.036-3.769,0.105-7.499,0.182-11.22
		c0.025-1.221,0.049-2.444,0.079-3.66c0.097-3.954,0.208-7.891,0.351-11.785c-15.886,3.114-34.037,5.703-53.857,7.643
		c-0.175,6.06-0.25,14.651-0.281,23.144c-0.063,17.185-13.264,31.501-30.397,32.842c-16.927,1.326-35.592,2.061-55.205,2.061
		c-73.695,0-134.021-10.37-139.014-23.5c-0.034,5.232-0.108,10.505-0.231,15.824c-0.067,0.321-0.112,0.644-0.112,0.968
		c0,12.705,51.739,23.218,119.103,24.996c0.001,0,0.002,0,0.003,0c0.006,0,0.012,0,0.018,0c0.001,0,0.001,0,0.002,0
		c4.381,0.116,8.827,0.195,13.33,0.235c0.001,0,0.001,0,0.002,0c0.031,0,0.062,0,0.094,0.001c2.255,0.02,4.523,0.03,6.805,0.03
		c76.965,0,139.357-11.311,139.357-25.263c-0.069-2.837-0.122-5.661-0.164-8.472C395.147,390.9,395.146,390.758,395.144,390.616z"/>
</g>
<g>
</g>
<g>
</g>
<g>
</g>
<g>
</g>
<g>
</g>
<g>
</g>
<g>
</g>
<g>
</g>
<g>
</g>
<g>
</g>
<g>
</g>
<g>
</g>
<g>
</g>
<g>
</g>
<g>
</g>
</svg>
