<?xml version="1.0" encoding="iso-8859-1"?>
<!-- Generator: Adobe Illustrator 19.0.0, SVG Export Plug-In . SVG Version: 6.00 Build 0)  -->
<svg version="1.1" id="Capa_1" xmlns="http://www.w3.org/2000/svg" xmlns:xlink="http://www.w3.org/1999/xlink" x="0px" y="0px"
	 viewBox="0 0 511.488 511.488" style="enable-background:new 0 0 511.488 511.488;" xml:space="preserve">
<path style="fill:#FDBC4B;" d="M123.232,505.176c-11.184-7.104-14.496-21.936-7.376-33.12l119.632-188.208
	c8.816-13.84,31.696-13.84,40.512,0l119.632,188.208c7.104,11.184,3.808,26.016-7.392,33.12c-11.2,7.136-26.016,3.808-33.136-7.376
	l-99.36-156.336L156.368,497.8C149.232,509.016,134.352,512.28,123.232,505.176z"/>
<g style="opacity:0.07;">
	<path style="fill:#010101;" d="M230.864,380.616l24.88-39.152l24.88,39.152h56.88L276,283.848c-8.816-13.84-31.696-13.84-40.512,0
		l-61.504,96.768H230.864z"/>
</g>
<rect x="49.28" y="28.696" style="fill:#F3F3F3;" width="412.928" height="321.92"/>
<path style="fill:#CACACA;" d="M462.208,366.664H49.28c-8.832,0-16-7.152-16-16V28.696c0-8.848,7.168-16,16-16h412.928
	c8.832,0,16,7.152,16,16v321.968C478.208,359.512,471.04,366.664,462.208,366.664z M65.28,334.664h380.928V44.696H65.28V334.664z"/>
<g style="opacity:0.07;">
	<rect x="32.864" y="28.696" style="fill:#010101;" width="445.776" height="58.368"/>
</g>
<path style="fill:#787878;" d="M479.488,66.552H32c-17.68,0-32-14.336-32-32c0-17.68,14.336-32,32-32h447.488
	c17.664,0,32,14.32,32,32C511.488,52.232,497.168,66.552,479.488,66.552z"/>
<g>
	<path style="fill:#807F7F;" d="M81.984,34.552c0,8.832,7.152,16,16,16h108.064c8.848,0,16-7.168,16-16s-7.152-16-16-16H97.984
		C89.152,18.552,81.984,25.72,81.984,34.552z"/>
	<path style="fill:#807F7F;" d="M33.28,34.552c0,8.832,7.152,16,16,16h6.304c8.848,0,16-7.168,16-16s-7.152-16-16-16H49.28
		C40.432,18.552,33.28,25.72,33.28,34.552z"/>
</g>
<g>
	<path style="fill:#FFCC5B;" d="M173.232,415l-41.568,63.088c-2.432,3.696-1.408,8.656,2.272,11.088
		c3.696,2.432,8.656,1.408,11.088-2.272l41.568-63.088c2.432-3.696,1.408-8.64-2.288-11.088
		C180.624,410.28,175.664,411.304,173.232,415z"/>
	<path style="fill:#FFCC5B;" d="M191.328,387.544l-5.792,8.784c-2.432,3.696-1.408,8.656,2.272,11.088
		c3.696,2.432,8.64,1.408,11.088-2.272l5.792-8.784c2.432-3.696,1.408-8.64-2.272-11.088
		C198.72,382.824,193.76,383.848,191.328,387.544z"/>
</g>
<rect x="107.648" y="221.496" style="fill:#ED6362;" width="53.072" height="87.728"/>
<rect x="107.648" y="221.496" style="fill:#E95454;" width="26.528" height="87.728"/>
<rect x="188.688" y="187.288" style="fill:#3789C9;" width="53.072" height="121.936"/>
<rect x="269.728" y="153.096" style="fill:#FDBC4B;" width="53.072" height="156.144"/>
<rect x="350.768" y="118.888" style="fill:#E86F3E;" width="53.072" height="190.336"/>
<rect x="188.688" y="187.288" style="fill:#4B9FD8;" width="26.528" height="121.936"/>
<rect x="269.728" y="153.096" style="fill:#FFCC5B;" width="26.528" height="156.144"/>
<rect x="377.312" y="118.888" style="fill:#ED7A51;" width="26.528" height="190.336"/>
<g>
</g>
<g>
</g>
<g>
</g>
<g>
</g>
<g>
</g>
<g>
</g>
<g>
</g>
<g>
</g>
<g>
</g>
<g>
</g>
<g>
</g>
<g>
</g>
<g>
</g>
<g>
</g>
<g>
</g>
</svg>
