<?xml version="1.0" encoding="iso-8859-1"?>
<!-- Generator: Adobe Illustrator 19.0.0, SVG Export Plug-In . SVG Version: 6.00 Build 0)  -->
<svg version="1.1" id="Capa_1" xmlns="http://www.w3.org/2000/svg" xmlns:xlink="http://www.w3.org/1999/xlink" x="0px" y="0px"
	 viewBox="0 0 507.264 507.264" style="enable-background:new 0 0 507.264 507.264;" xml:space="preserve">
<path style="fill:#D8D9D8;" d="M475.376,131.024V55.76c0-17.68-14.336-32-32-32H63.888c-17.68,0-32,14.32-32,32v75.264H475.376z"/>
<path style="fill:#464646;" d="M31.888,451.504c0,17.664,14.32,32,32,32h379.504c17.664,0,32-14.336,32-32v-320.48H31.888V451.504z"
	/>
<rect x="79.888" y="179.024" style="fill:#6F7070;" width="347.504" height="256.48"/>
<circle style="fill:#3789C9;" cx="90.128" cy="77.392" r="20.656"/>
<circle style="fill:#6F7070;" cx="148.448" cy="77.392" r="20.656"/>
<circle style="fill:#3789C9;" cx="206.752" cy="77.392" r="20.656"/>
<g>
	<path style="fill:#E5E5E5;" d="M330.432,77.392c0,8.832,7.152,16,16,16h76.064c8.848,0,16-7.168,16-16s-7.152-16-16-16h-76.064
		C337.6,61.392,330.432,68.56,330.432,77.392z"/>
	<path style="fill:#E5E5E5;" d="M264.08,77.392c0,8.832,7.152,16,16,16h18.736c8.848,0,16-7.168,16-16s-7.152-16-16-16H280.08
		C271.232,61.392,264.08,68.56,264.08,77.392z"/>
</g>
<path style="fill:#7B7B7B;" d="M374.528,201.584c-10.256,0-18.56,7.76-18.56,17.328s8.32,17.328,18.56,17.328h8.304
	c8.592,0,15.568,6.56,15.536,14.576v0.192c0,0.352,0.016,0.704,0.032,1.056c0.512,7.904-6.208,14.56-14.688,14.56H324.4
	c-10.048,0-19.072,7.024-19.6,16.4c-0.56,10,7.952,18.256,18.544,18.256h53.12c8.624,0,15.616,6.56,15.568,14.608v1.008v0.208
	c0.048,8.48-7.328,15.408-16.416,15.408h-20.304c-10.048,0-19.072,7.024-19.584,16.4c-0.56,10,7.952,18.256,18.544,18.256h38.096
	c8.976,0,15.664,7.04,15.552,15.408c0,0.064,0,0.144,0,0.208s0,0.144,0,0.208c0.112,8.368-6.592,15.408-15.552,15.408h-15.344
	c-10.048,0-19.072,7.024-19.584,16.4c-0.56,10,7.952,18.256,18.544,18.256h51.424V201.584H374.528z"/>
<g style="opacity:0.1;">
	<path style="fill:#010101;" d="M475.376,143.472h-62.048h-0.096h-63.808h-0.048h-63.808h-0.096h-63.76h-0.08h-63.76h-0.096H94.032
		H93.92H31.888v102.672c1.456,0.176,2.896,0.448,4.4,0.448c19.84,0,35.92-15.952,36.224-35.712
		c0.304,19.776,16.384,35.712,36.224,35.712s35.92-15.952,36.224-35.712c0.304,19.776,16.368,35.712,36.224,35.712
		c19.84,0,35.92-15.952,36.224-35.712c0.304,19.776,16.384,35.712,36.224,35.712s35.92-15.952,36.224-35.712
		c0.304,19.776,16.368,35.712,36.224,35.712l0,0c19.936,0,36.096-16.096,36.24-36c0.16,19.904,16.304,36,36.256,36
		c19.84,0,35.92-15.952,36.224-35.712c0.304,19.776,16.384,35.712,36.224,35.712l0,0c1.504,0,2.944-0.272,4.4-0.448V143.472H475.376
		z"/>
</g>
<polygon style="fill:#E95454;" points="289.888,169.584 217.328,169.584 221.632,130.464 285.584,130.464 "/>
<polygon style="fill:#F3F3F3;" points="72.56,169.584 0,169.584 30.064,130.464 94.032,130.464 "/>
<polygon style="fill:#E95454;" points="144.992,169.584 72.448,169.584 93.92,130.464 157.872,130.464 "/>
<g>
	<polygon style="fill:#F3F3F3;" points="217.44,169.584 144.88,169.584 157.776,130.464 221.728,130.464 	"/>
	<polygon style="fill:#F3F3F3;" points="362.32,169.584 289.76,169.584 285.488,130.464 349.44,130.464 	"/>
</g>
<polygon style="fill:#E95454;" points="434.816,169.584 362.272,169.584 349.392,130.464 413.344,130.464 "/>
<polygon style="fill:#F3F3F3;" points="507.264,169.584 434.704,169.584 413.232,130.464 477.2,130.464 "/>
<path style="fill:#CD494C;" d="M253.6,233.584L253.6,233.584c-20.032,0-36.272-16.24-36.272-36.272v-27.728h72.56v27.728
	C289.888,217.344,273.632,233.584,253.6,233.584z"/>
<path style="fill:#E5E5E5;" d="M36.288,233.584L36.288,233.584c-20.032,0-36.272-16.24-36.272-36.272v-27.728h72.56v27.728
	C72.56,217.344,56.32,233.584,36.288,233.584z"/>
<path style="fill:#CD494C;" d="M108.72,233.584L108.72,233.584c-20.032,0-36.272-16.24-36.272-36.272v-27.728h72.544v27.728
	C144.992,217.344,128.752,233.584,108.72,233.584z"/>
<g>
	<path style="fill:#E5E5E5;" d="M181.168,233.584L181.168,233.584c-20.032,0-36.272-16.24-36.272-36.272v-27.728h72.56v27.728
		C217.44,217.344,201.2,233.584,181.168,233.584z"/>
	<path style="fill:#E5E5E5;" d="M326.048,233.584L326.048,233.584c-20.032,0-36.272-16.24-36.272-36.272v-27.728h72.56v27.728
		C362.32,217.344,346.08,233.584,326.048,233.584z"/>
</g>
<path style="fill:#CD494C;" d="M398.544,233.584L398.544,233.584c-20.032,0-36.272-16.24-36.272-36.272v-27.728h72.56v27.728
	C434.816,217.344,418.576,233.584,398.544,233.584z"/>
<path style="fill:#E5E5E5;" d="M470.976,233.584L470.976,233.584c-20.032,0-36.272-16.24-36.272-36.272v-27.728h72.56v27.728
	C507.264,217.344,491.024,233.584,470.976,233.584z"/>
<path style="fill:#FEE218;" d="M186.16,316.064v82.096c0,14.432,11.696,26.112,26.112,26.112h82.72
	c14.432,0,26.112-11.696,26.112-26.112v-82.096H186.16z"/>
<path style="fill:#F2CD1B;" d="M186.16,396.752v1.408c0,14.432,11.696,26.112,26.112,26.112h82.72
	c14.432,0,26.112-11.696,26.112-26.112v-1.408H186.16z"/>
<g>
	<circle style="fill:#464646;" cx="211.264" cy="331.136" r="10.144"/>
	<circle style="fill:#464646;" cx="295.952" cy="331.136" r="10.144"/>
</g>
<path style="fill:#FFFFFF;" d="M302.464,302.752v27.776c0,3.568-2.88,6.528-6.528,6.528c-3.568,0-6.528-2.96-6.528-6.528v-27.776
	c0-19.76-16.016-35.792-35.776-35.792s-35.872,16.016-35.872,35.792v27.776c0,3.568-2.864,6.528-6.528,6.528
	c-3.568,0-6.528-2.96-6.528-6.528v-27.776c0-26.896,21.936-48.848,48.928-48.848C280.528,253.904,302.464,275.84,302.464,302.752z"
	/>
<g style="opacity:0.3;">
	<path style="fill:#FFFFFF;" d="M92.144,151.136c0,8.832,7.152,16,16,16h140.064c8.848,0,16-7.168,16-16s-7.152-16-16-16H108.144
		C99.296,135.136,92.144,142.304,92.144,151.136z"/>
</g>
<g>
</g>
<g>
</g>
<g>
</g>
<g>
</g>
<g>
</g>
<g>
</g>
<g>
</g>
<g>
</g>
<g>
</g>
<g>
</g>
<g>
</g>
<g>
</g>
<g>
</g>
<g>
</g>
<g>
</g>
</svg>
