<?xml version="1.0" encoding="iso-8859-1"?>
<!-- Generator: Adobe Illustrator 19.0.0, SVG Export Plug-In . SVG Version: 6.00 Build 0)  -->
<svg version="1.1" id="Capa_1" xmlns="http://www.w3.org/2000/svg" xmlns:xlink="http://www.w3.org/1999/xlink" x="0px" y="0px"
	 viewBox="0 0 512.002 512.002" style="enable-background:new 0 0 512.002 512.002;" xml:space="preserve">
<path style="fill:#FD6E2E;" d="M338.641,21.005c1.8-3.31,1.356-7.38-1.307-10.044l-8.528-8.528c-3.243-3.243-8.501-3.243-11.743,0
	l-46.355,46.355l10.749,10.749c3.071,3.071,3.071,8.049,0,11.12s-8.049,3.071-11.12,0l-10.749-10.749L2.432,317.063
	c-3.243,3.243-3.243,8.5,0,11.743l8.565,8.565c2.65,2.65,6.697,3.105,10,1.333c8.236-4.418,18.716-3.155,25.665,3.795
	c6.95,6.95,8.214,17.43,3.795,25.665c-1.772,3.303-1.318,7.35,1.333,10l20.626,20.626c2.65,2.65,6.697,3.105,10,1.333
	c8.236-4.418,18.716-3.155,25.665,3.795c6.95,6.95,8.214,17.43,3.795,25.665c-1.772,3.303-1.318,7.35,1.333,10l20.626,20.626
	c2.65,2.65,6.697,3.105,10,1.333c8.236-4.418,18.716-3.155,25.665,3.795c6.95,6.95,8.214,17.43,3.795,25.665
	c-1.772,3.303-1.318,7.35,1.333,10l8.565,8.565c3.243,3.243,8.5,3.243,11.743,0l257.155-257.155l0,0l-10.749-10.749
	c-3.071-3.071-3.071-8.049,0-11.12s8.049-3.071,11.12,0l10.749,10.749l0,0l46.355-46.355c3.243-3.243,3.243-8.5,0-11.743
	l-8.528-8.528c-2.664-2.664-6.735-3.107-10.044-1.307c-8.253,4.487-18.795,3.241-25.776-3.739s-8.227-17.523-3.739-25.776
	c1.8-3.31,1.356-7.381-1.308-10.044l-20.553-20.553c-2.664-2.664-6.735-3.107-10.044-1.308c-8.253,4.487-18.795,3.241-25.776-3.739
	c-6.98-6.98-8.227-17.523-3.74-25.776c1.8-3.31,1.356-7.38-1.307-10.044L378.2,51.828c-2.664-2.664-6.735-3.107-10.044-1.307
	c-8.253,4.487-18.795,3.241-25.776-3.739C335.4,39.801,334.154,29.258,338.641,21.005z M423.642,201.723
	c3.071,3.071,3.071,8.049,0,11.12s-8.049,3.071-11.12,0l-18.574-18.574c-3.071-3.071-3.071-8.049,0-11.12s8.049-3.071,11.12,0
	L423.642,201.723z M376.246,154.328c3.071,3.071,3.071,8.049,0,11.12s-8.049,3.071-11.12,0l-18.574-18.574
	c-3.071-3.071-3.071-8.049,0-11.12s8.049-3.071,11.12,0L376.246,154.328z M328.851,106.933c3.071,3.071,3.071,8.049,0,11.12
	s-8.049,3.071-11.12,0l-18.574-18.574c-3.071-3.071-3.071-8.049,0-11.12s8.049-3.071,11.12,0L328.851,106.933z"/>
<path style="fill:#F45721;" d="M338.641,21.005c1.799-3.31,1.356-7.38-1.308-10.044l-8.528-8.528c-3.243-3.243-8.5-3.243-11.743,0
	l-46.355,46.355l10.749,10.749c3.071,3.071,3.071,8.049,0,11.12l17.701,17.701c3.071-3.071,8.049-3.07,11.12,0l18.574,18.574
	c3.071,3.071,3.071,8.049,0,11.12l17.701,17.701c3.071-3.071,8.049-3.07,11.12,0l18.574,18.574c3.071,3.071,3.071,8.049,0,11.12
	l17.702,17.702c3.071-3.071,8.049-3.07,11.12,0l18.574,18.574c0.249,0.249,0.47,0.514,0.679,0.786
	c0.885,1.154,1.407,2.495,1.567,3.871c0,0.004,0.001,0.007,0.001,0.011c0.022,0.192,0.033,0.385,0.041,0.578
	c0.002,0.051,0.006,0.101,0.007,0.152c0.004,0.168-0.002,0.336-0.009,0.504c-0.003,0.076-0.005,0.153-0.011,0.229
	c-0.011,0.151-0.028,0.302-0.048,0.453c-0.012,0.093-0.025,0.185-0.04,0.278c-0.023,0.138-0.05,0.275-0.081,0.412
	c-0.023,0.104-0.049,0.208-0.076,0.312c-0.033,0.126-0.069,0.251-0.109,0.375c-0.036,0.113-0.077,0.226-0.118,0.337
	c-0.042,0.114-0.085,0.228-0.132,0.34c-0.051,0.12-0.108,0.238-0.165,0.355c-0.05,0.103-0.098,0.206-0.153,0.307
	c-0.068,0.125-0.143,0.247-0.218,0.369c-0.055,0.09-0.107,0.181-0.166,0.269c-0.092,0.136-0.193,0.268-0.294,0.399
	c-0.053,0.069-0.102,0.141-0.158,0.209c-0.162,0.197-0.333,0.388-0.517,0.572c-0.001,0.001-0.001,0.002-0.002,0.002
	c-2.822,2.822-7.251,3.043-10.334,0.679L164.962,461.868c1.622,0.934,3.154,2.084,4.54,3.471c6.95,6.95,8.214,17.429,3.795,25.665
	c-1.772,3.303-1.318,7.35,1.333,10l8.565,8.565c3.243,3.243,8.5,3.243,11.743,0l257.155-257.155l0,0l-10.749-10.749
	c-3.071-3.071-3.071-8.049,0-11.12c0.039-0.039,0.081-0.071,0.121-0.109c0.245-0.235,0.503-0.449,0.769-0.646
	c0.496-0.368,1.023-0.673,1.575-0.909c0.281-0.12,0.566-0.229,0.857-0.315c0.086-0.025,0.174-0.041,0.261-0.064
	c0.241-0.062,0.484-0.113,0.728-0.153c0.389-0.062,0.781-0.1,1.174-0.104c0.025,0,0.05-0.003,0.076-0.004
	c0.602,0,1.202,0.077,1.791,0.215c0.642,0.15,1.27,0.372,1.866,0.685c0.228,0.12,0.452,0.252,0.67,0.396
	c0.436,0.288,0.85,0.624,1.233,1.008l10.749,10.749l0,0l46.355-46.355c3.243-3.243,3.243-8.5,0-11.743l-8.528-8.528
	c-2.664-2.664-6.735-3.107-10.044-1.308c-8.253,4.487-18.796,3.241-25.776-3.739c-0.39-0.39-0.756-0.795-1.11-1.206
	c-0.152-0.178-0.296-0.36-0.441-0.541c-0.181-0.224-0.358-0.45-0.529-0.68c-0.181-0.244-0.357-0.491-0.527-0.741
	c-0.105-0.155-0.205-0.312-0.306-0.469c-0.191-0.299-0.383-0.597-0.559-0.903l0,0c-3.768-6.543-3.864-14.623-0.268-21.236
	c1.799-3.309,1.356-7.38-1.308-10.044l-20.553-20.553c-2.664-2.664-6.735-3.107-10.044-1.308
	c-8.253,4.487-18.796,3.241-25.776-3.739c-6.98-6.98-8.227-17.523-3.739-25.776c1.799-3.31,1.356-7.38-1.308-10.044L378.2,51.828
	c-2.664-2.664-6.735-3.107-10.044-1.308c-8.253,4.487-18.796,3.241-25.776-3.739S334.154,29.258,338.641,21.005z"/>
<path style="fill:#FEC93E;" d="M204.988,440.749L71.252,307.013c-0.904-0.904-0.904-2.37,0-3.274L257.12,117.87
	c0.904-0.904,2.37-0.904,3.274,0L394.13,251.606c0.904,0.904,0.904,2.37,0,3.274L208.262,440.749
	C207.358,441.654,205.892,441.654,204.988,440.749z"/>
<path style="fill:#EFB533;" d="M257.12,117.87l-32.704,32.704l120.999,120.999c0.904,0.904,0.904,2.37,0,3.274L192.25,428.012
	l12.738,12.738c0.904,0.904,2.37,0.904,3.274,0l185.869-185.869c0.904-0.904,0.904-2.37,0-3.274L260.395,117.87
	C259.491,116.966,258.025,116.966,257.12,117.87z"/>
<g>
	<path style="fill:#FFFFFF;" d="M120.338,318.794c-2.013,0-4.025-0.768-5.56-2.303c-3.07-3.07-3.07-8.049,0-11.12l143.976-143.975
		c3.071-3.07,8.049-3.07,11.121,0c3.07,3.07,3.07,8.049,0,11.12L125.898,316.491C124.363,318.026,122.35,318.794,120.338,318.794z"
		/>
	<path style="fill:#FFFFFF;" d="M161.034,359.491c-2.012,0-4.025-0.768-5.56-2.303c-3.07-3.07-3.07-8.049,0-11.12L299.45,202.092
		c3.071-3.07,8.049-3.07,11.121,0c3.07,3.07,3.07,8.049,0,11.12L166.594,357.188C165.059,358.723,163.046,359.491,161.034,359.491z"
		/>
	<path style="fill:#FFFFFF;" d="M201.731,400.187c-2.012,0-4.025-0.768-5.56-2.303c-3.07-3.07-3.07-8.049,0-11.12l143.975-143.975
		c3.071-3.07,8.049-3.07,11.121,0c3.07,3.07,3.07,8.049,0,11.12L207.291,397.884C205.756,399.419,203.743,400.187,201.731,400.187z"
		/>
</g>
<g>
</g>
<g>
</g>
<g>
</g>
<g>
</g>
<g>
</g>
<g>
</g>
<g>
</g>
<g>
</g>
<g>
</g>
<g>
</g>
<g>
</g>
<g>
</g>
<g>
</g>
<g>
</g>
<g>
</g>
</svg>
