<?xml version="1.0" encoding="iso-8859-1"?>
<!-- Generator: Adobe Illustrator 19.0.0, SVG Export Plug-In . SVG Version: 6.00 Build 0)  -->
<svg version="1.1" id="Capa_1" xmlns="http://www.w3.org/2000/svg" xmlns:xlink="http://www.w3.org/1999/xlink" x="0px" y="0px"
	 viewBox="0 0 512.064 512.064" style="enable-background:new 0 0 512.064 512.064;" xml:space="preserve">
<path style="fill:#E86F3E;" d="M471.328,265.872H40.736c-22.48,0-40.704-18.224-40.704-40.704l0,0
	c0-22.48,18.224-40.704,40.704-40.704h430.592c22.48,0,40.704,18.224,40.704,40.704l0,0
	C512.032,247.648,493.808,265.872,471.328,265.872z"/>
<path style="fill:#FFDB70;" d="M41.328,265.872v182.144c0,35.344,28.656,64,64,64h301.424c35.344,0,64-28.656,64-64V265.872H41.328z
	 M114.288,370.176c-16.688,0-30.208-13.536-30.208-30.208c0-16.688,13.52-30.224,30.208-30.224s30.208,13.536,30.208,30.224
	C144.496,356.64,130.976,370.176,114.288,370.176z M185.168,468.128c-16.688,0-30.208-13.52-30.208-30.224
	c0-16.688,13.52-30.208,30.208-30.208s30.208,13.52,30.208,30.208C215.376,454.608,201.84,468.128,185.168,468.128z
	 M256.032,370.176c-16.688,0-30.208-13.536-30.208-30.208c0-16.688,13.52-30.224,30.208-30.224s30.208,13.536,30.208,30.224
	C286.24,356.64,272.72,370.176,256.032,370.176z M326.912,468.128c-16.688,0-30.224-13.52-30.224-30.224
	c0-16.688,13.536-30.208,30.224-30.208s30.208,13.52,30.208,30.208C357.12,454.608,343.584,468.128,326.912,468.128z
	 M397.776,370.176c-16.688,0-30.224-13.536-30.224-30.208c0-16.688,13.536-30.224,30.224-30.224s30.208,13.536,30.208,30.224
	C427.984,356.64,414.464,370.176,397.776,370.176z"/>
<path style="fill:#EC9922;" d="M256.032,0c-19.568,0-35.44,15.872-35.44,35.44v185.136c0,19.568,15.872,35.44,35.44,35.44
	s35.44-15.856,35.44-35.44V35.44C291.472,15.872,275.6,0,256.032,0z"/>
<g>
	<path style="fill:#E86F3E;" d="M268.88,236.768c1.6-2.432,2.544-5.328,2.544-8.448c0-8.496-6.896-15.392-15.392-15.392
		c-3.392,0-6.512,1.136-9.056,2.992L268.88,236.768z"/>
	<path style="fill:#E86F3E;" d="M243.184,219.872c-1.6,2.432-2.544,5.328-2.544,8.448c0,8.496,6.896,15.392,15.392,15.392
		c3.392,0,6.512-1.136,9.056-2.992L243.184,219.872z"/>
</g>
<g>
	<path style="fill:#F89E62;" d="M256.032,71.2c-8.832,0-16,7.152-16,16v76.064c0,8.848,7.168,16,16,16c8.832,0,16-7.152,16-16V87.2
		C272.032,78.352,264.864,71.2,256.032,71.2z"/>
	<path style="fill:#F89E62;" d="M256.032,22.48c-8.832,0-16,7.152-16,16v6.304c0,8.848,7.168,16,16,16c8.832,0,16-7.152,16-16V38.48
		C272.032,29.648,264.864,22.48,256.032,22.48z"/>
</g>
<g>
	<path style="fill:#DD653C;" d="M77.104,225.168c0,8.832,7.152,16,16,16h76.064c8.848,0,16-7.168,16-16s-7.152-16-16-16H93.104
		C84.256,209.168,77.104,216.336,77.104,225.168z"/>
	<path style="fill:#DD653C;" d="M28.384,225.168c0,8.832,7.152,16,16,16h6.288c8.848,0,16-7.168,16-16s-7.152-16-16-16h-6.288
		C35.552,209.168,28.384,216.336,28.384,225.168z"/>
</g>
<path style="fill:#FCD26C;" d="M237.488,442.784c10.08,0,19.04-7.36,19.52-17.44c0.48-10.56-7.84-19.36-18.4-19.36h-10.08
	c-8.64,0-15.52-7.04-15.52-15.52v-1.28c0-9.12,7.36-16.48,16.32-16.48h13.12c3.68,0,7.36-0.96,10.4-2.88
	c-15.2-1.44-27.04-14.24-27.04-29.92c0-1.44,0.16-2.72,0.48-4h-29.92c-8.96,0-15.52-7.52-15.52-16.32c0-0.16,0-0.16,0-0.32v-0.16
	c0-8.96,6.56-16.48,15.52-16.48h15.2c9.92,0,18.88-7.36,19.36-17.28c0.64-10.72-7.84-19.52-18.4-19.52h-171.2v182.24
	c0,35.2,28.64,64,64,64h125.12c10.08,0,18.4-8.32,18.4-18.56c0-10.08-8.32-18.4-18.4-18.4h-24.64c-5.92,0-10.88-3.2-13.6-8
	c-2.24,0.64-4.64,0.96-7.04,0.96c-16.64,0-30.24-13.44-30.24-30.24c0-16.64,13.6-30.08,30.24-30.08s30.24,13.44,30.24,30.08
	c0,1.76-0.16,3.36-0.48,4.96L237.488,442.784L237.488,442.784z M114.288,370.144c-16.64,0-30.24-13.44-30.24-30.24
	c0-16.64,13.6-30.24,30.24-30.24s30.24,13.6,30.24,30.24C144.528,356.688,130.928,370.144,114.288,370.144z"/>
<g style="opacity:0.07;">
	<rect x="41.328" y="266.352" style="fill:#010101;" width="429.408" height="18.112"/>
</g>
<g>
</g>
<g>
</g>
<g>
</g>
<g>
</g>
<g>
</g>
<g>
</g>
<g>
</g>
<g>
</g>
<g>
</g>
<g>
</g>
<g>
</g>
<g>
</g>
<g>
</g>
<g>
</g>
<g>
</g>
</svg>
