<?xml version="1.0" encoding="iso-8859-1"?>
<!-- Generator: Adobe Illustrator 19.0.0, SVG Export Plug-In . SVG Version: 6.00 Build 0)  -->
<svg version="1.1" id="Capa_1" xmlns="http://www.w3.org/2000/svg" xmlns:xlink="http://www.w3.org/1999/xlink" x="0px" y="0px"
	 viewBox="0 0 512 512" style="enable-background:new 0 0 512 512;" xml:space="preserve">
<path style="fill:#FEC93E;" d="M415.858,148.95c-0.514-0.015-1.03-0.022-1.549-0.019c-1.131,0.006-2.248,0.067-3.355,0.159
	c-0.001,0-0.002-0.001-0.001-0.002c2.124-4.555,3.295-9.58,3.26-14.86c-0.134-20.4-18.085-36.836-40.093-36.711
	c-1.131,0.006-2.248,0.067-3.355,0.159c-0.001,0-0.002-0.001-0.002-0.002c2.124-4.555,3.295-9.58,3.26-14.86
	c-0.134-20.4-18.085-36.836-40.093-36.712c-1.745,0.01-3.46,0.135-5.145,0.346c0-0.106,0.007-0.211,0.007-0.317
	c-0.126-19.084-16.919-34.461-37.508-34.344c-3.571,0.02-7.018,0.515-10.282,1.402c0,0-0.001,0-0.002-0.001
	C275.688,5.946,267.06,0.984,257.156,0.13V0c-0.389,0.008-0.772,0.036-1.157,0.057c-0.385-0.02-0.768-0.049-1.157-0.057v0.13
	c-9.904,0.855-18.532,5.816-23.843,13.058c0,0.001,0,0.002,0,0.002c-3.265-0.888-6.711-1.382-10.282-1.403
	c-20.589-0.116-37.382,15.26-37.508,34.344c-0.001,0.106,0.006,0.211,0.007,0.317c-1.685-0.211-3.4-0.336-5.145-0.346
	c-22.008-0.125-39.959,16.312-40.093,36.712c-0.035,5.281,1.136,10.305,3.26,14.86c0,0.001,0,0.002-0.002,0.002
	c-1.107-0.092-2.224-0.153-3.355-0.159c-22.008-0.125-39.959,16.312-40.093,36.711c-0.035,5.281,1.136,10.305,3.26,14.86
	c0,0.001,0,0.002-0.002,0.002c-1.107-0.092-2.224-0.153-3.355-0.159c-0.518-0.003-1.035,0.003-1.549,0.019
	c-21.232,0.632-22.51,27.594-5.034,32.625c-0.998,2.316-1.553,4.841-1.553,7.487c0,11.158,9.759,20.204,21.797,20.204
	c5.651,0,73.297,0,143.491,0c0.771,0,1.542,0,2.313,0c70.194,0,137.84,0,143.491,0c12.038,0,21.797-9.045,21.797-20.204
	c0-2.646-0.554-5.171-1.553-7.487C438.368,176.545,437.09,149.582,415.858,148.95z"/>
<path style="fill:#EFB533;" d="M415.858,148.95c-0.514-0.015-1.03-0.022-1.549-0.019c-1.131,0.006-2.248,0.067-3.355,0.159
	c-0.001,0-0.002-0.001-0.001-0.002c2.124-4.555,3.295-9.58,3.26-14.86c-0.134-20.4-18.085-36.836-40.093-36.711
	c-1.131,0.006-2.248,0.067-3.355,0.159c-0.001,0-0.002-0.001-0.002-0.002c2.124-4.555,3.295-9.58,3.26-14.86
	c-0.134-20.4-18.085-36.836-40.093-36.712c-1.745,0.01-3.46,0.135-5.145,0.346c0-0.106,0.007-0.211,0.007-0.317
	c-0.126-19.084-16.919-34.461-37.508-34.345c-3.571,0.02-7.018,0.515-10.282,1.402c0,0-0.001,0-0.002-0.001
	c-5.311-7.242-13.939-12.203-23.843-13.058V0c-0.389,0.008-0.772,0.036-1.157,0.057c-0.385-0.021-0.768-0.049-1.157-0.057v0.13
	c-9.224,0.796-17.337,5.156-22.699,11.601c0.056,0.02,0.114,0.034,0.17,0.055c114.051,43.567,125.618,158.642,129.609,169.788
	c0.998,2.316,1.553,4.841,1.553,7.487c0,11.158-9.759,20.204-21.797,20.204c32.435,0,55.751,0,58.968,0
	c12.038,0,21.797-9.046,21.797-20.204c0-2.646-0.554-5.171-1.553-7.487C438.368,176.545,437.09,149.582,415.858,148.95z"/>
<path style="fill:#EF4A50;" d="M388.539,173.231c-16.711,0-30.75,12.564-32.598,29.172l-0.807,7.254
	c2.162-19.431-13.047-36.426-32.597-36.426H322c-17.641,0-32.122,13.954-32.776,31.583l-0.09,2.431
	c0.689-18.578-14.185-34.014-32.776-34.014h-0.717c-18.591,0-33.465,15.436-32.776,34.014l-0.09-2.431
	c-0.654-17.629-15.135-31.583-32.776-31.583h-0.537c-19.55,0-34.759,16.995-32.597,36.426l-0.807-7.254
	c-1.848-16.608-15.887-29.172-32.598-29.172l0,0c-20.51,0-35.988,18.613-32.249,38.779l52.314,282.103
	C145.447,504.48,154.49,512,165.033,512h25.472h43.663h43.663h43.663h25.472c10.543,0,19.586-7.52,21.508-17.887l52.314-282.103
	C424.528,191.844,409.049,173.231,388.539,173.231z"/>
<path style="fill:#DD2A37;" d="M390.108,173.268c-12.204-0.572-23.16,5.574-29.273,15.206c4.256,6.697,6.143,14.974,4.555,23.537
	l-44.345,239.132c-3.76,20.274-21.445,34.981-42.065,34.981l0,0h-45.96h-45.96h-26.812c-8.872,0-16.723-5.067-20.554-12.671
	l3.831,20.661C145.447,504.48,154.49,512,165.033,512h25.472h43.663h43.663h13.736h29.927h25.472
	c10.543,0,19.586-7.52,21.508-17.887l3.831-20.661l0,0l48.366-260.811C424.43,192.371,410.7,174.234,390.108,173.268z"/>
<path id="SVGCleanerId_0" style="fill:#F2EBDA;" d="M321.493,512h-43.663l11.393-307.185c0.654-17.629,15.135-31.583,32.776-31.583
	h0.537c19.55,0,34.759,16.995,32.597,36.426L321.493,512z"/>
<path style="fill:#DD2A37;" d="M390.108,173.268c-12.204-0.572-23.16,5.574-29.273,15.206c4.256,6.697,6.143,14.974,4.555,23.537
	l-44.345,239.132c-3.76,20.274-21.445,34.981-42.065,34.981l0,0h-45.96h-45.96h-26.812c-8.872,0-16.723-5.067-20.554-12.671
	l3.831,20.661C145.447,504.48,154.49,512,165.033,512h25.472h43.663h43.663h13.736h29.927h25.472
	c10.543,0,19.586-7.52,21.508-17.887l3.831-20.661l0,0l48.366-260.811C424.43,192.371,410.7,174.234,390.108,173.268z"/>
<g>
	<path id="SVGCleanerId_0_1_" style="fill:#F2EBDA;" d="M321.493,512h-43.663l11.393-307.185
		c0.654-17.629,15.135-31.583,32.776-31.583h0.537c19.55,0,34.759,16.995,32.597,36.426L321.493,512z"/>
</g>
<path style="fill:#E5DECF;" d="M321.045,451.142c-3.76,20.274-21.445,34.981-42.065,34.981l0,0h-0.189L277.831,512h13.736h29.927
	l17.603-158.205L321.045,451.142z"/>
<g>
	<path style="fill:#FCDC97;" d="M159.038,140.166c-4.27,0-7.731-3.461-7.731-7.731c0-20.949,17.044-37.993,37.993-37.993
		c4.27,0,7.731,3.461,7.731,7.731s-3.461,7.731-7.731,7.731c-12.424,0-22.531,10.108-22.531,22.531
		C166.768,136.705,163.307,140.166,159.038,140.166z"/>
	<path style="fill:#FCDC97;" d="M351.245,170.429c-4.27,0-7.731-3.461-7.731-7.731c0-12.424-10.108-22.531-22.531-22.531
		c-4.27,0-7.731-3.461-7.731-7.731s3.461-7.731,7.731-7.731c20.95,0,37.993,17.044,37.993,37.993
		C358.976,166.967,355.515,170.429,351.245,170.429z"/>
	<path style="fill:#FCDC97;" d="M284.174,74.939c-3.544,0.001-6.739-2.452-7.54-6.056c-2.695-12.128-14.75-19.803-26.881-17.111
		c-4.171,0.925-8.298-1.704-9.223-5.871c-0.926-4.168,1.703-8.298,5.871-9.223c20.449-4.539,40.783,8.401,45.326,28.853
		c0.926,4.168-1.702,8.297-5.871,9.223C285.294,74.879,284.729,74.939,284.174,74.939z"/>
</g>
<path style="fill:#F2EBDA;" d="M234.169,512h-43.663l-33.64-302.343c-2.162-19.43,13.047-36.426,32.597-36.426H190
	c17.641,0,32.122,13.954,32.776,31.583L234.169,512z"/>
<polygon style="fill:#E5DECF;" points="233.02,486.123 187.626,486.123 190.505,512 190.505,512 234.169,512 233.208,486.123 "/>
<ellipse style="fill:#9AD9D4;" cx="255.999" cy="347.92" rx="101.93" ry="70.28"/>
<g>
</g>
<g>
</g>
<g>
</g>
<g>
</g>
<g>
</g>
<g>
</g>
<g>
</g>
<g>
</g>
<g>
</g>
<g>
</g>
<g>
</g>
<g>
</g>
<g>
</g>
<g>
</g>
<g>
</g>
</svg>
