<?xml version="1.0" encoding="iso-8859-1"?>
<!-- Generator: Adobe Illustrator 19.0.0, SVG Export Plug-In . SVG Version: 6.00 Build 0)  -->
<svg version="1.1" id="Capa_1" xmlns="http://www.w3.org/2000/svg" xmlns:xlink="http://www.w3.org/1999/xlink" x="0px" y="0px"
	 viewBox="0 0 511.424 511.424" style="enable-background:new 0 0 511.424 511.424;" xml:space="preserve">
<path style="fill:#E5E5E5;" d="M454.232,42.016v469.28H126.168c-23.2,0-42.016-18.816-42.016-42.016V81.504h-41.84V0h369.92
	C435.432,0,454.232,18.816,454.232,42.016z"/>
<g>
	<path style="fill:#CACACA;" d="M0.28,81.536H84.2V41.968C84.2,18.784,65.416,0,42.232,0l0,0C19.048,0,0.264,18.784,0.264,41.968
		v39.568H0.28z"/>
	<path style="fill:#CACACA;" d="M498.888,439.664c-7.568-7.568-18.144-12.272-29.744-12.272H128.296v0.08
		c23.008,0.192,41.616,18.88,41.616,41.936s-18.608,41.728-41.616,41.92v0.096h340.848c23.2,0,42.016-18.816,42.016-42.016
		C511.16,457.808,506.456,447.216,498.888,439.664z"/>
</g>
<rect x="122.824" y="80.352" style="fill:#E95454;" width="99.632" height="99.648"/>
<rect x="122.824" y="245.392" style="fill:#3789C9;" width="99.632" height="99.632"/>
<g>
	<path style="fill:#CACACA;" d="M399.608,113.536h-124.08c-8.832,0-16-7.168-16-16l0,0c0-8.832,7.168-16,16-16h124.08
		c8.832,0,16,7.168,16,16l0,0C415.608,106.368,408.44,113.536,399.608,113.536z"/>
	<path style="fill:#CACACA;" d="M335.608,180.064h-60.08c-8.832,0-16-7.168-16-16l0,0c0-8.832,7.168-16,16-16h60.08
		c8.832,0,16,7.168,16,16l0,0C351.608,172.912,344.44,180.064,335.608,180.064z"/>
	<path style="fill:#CACACA;" d="M399.608,277.392h-124.08c-8.832,0-16-7.168-16-16l0,0c0-8.832,7.168-16,16-16h124.08
		c8.832,0,16,7.168,16,16l0,0C415.608,270.24,408.44,277.392,399.608,277.392z"/>
	<path style="fill:#CACACA;" d="M335.608,345.04h-60.08c-8.832,0-16-7.168-16-16l0,0c0-8.832,7.168-16,16-16h60.08
		c8.832,0,16,7.168,16,16l0,0C351.608,337.872,344.44,345.04,335.608,345.04z"/>
</g>
<g>
	<path style="fill:#D7D6D6;" d="M385.928,469.408c0,8.832,7.152,16,16,16h76.064c8.848,0,16-7.168,16-16s-7.152-16-16-16h-76.064
		C393.096,453.408,385.928,460.576,385.928,469.408z"/>
	<path style="fill:#D7D6D6;" d="M337.224,469.408c0,8.832,7.152,16,16,16h6.288c8.848,0,16-7.168,16-16s-7.152-16-16-16h-6.288
		C344.376,453.408,337.224,460.576,337.224,469.408z"/>
	<circle style="fill:#D7D6D6;" cx="29.4" cy="34.944" r="19.056"/>
</g>
<g>
</g>
<g>
</g>
<g>
</g>
<g>
</g>
<g>
</g>
<g>
</g>
<g>
</g>
<g>
</g>
<g>
</g>
<g>
</g>
<g>
</g>
<g>
</g>
<g>
</g>
<g>
</g>
<g>
</g>
</svg>
