<?xml version="1.0" encoding="iso-8859-1"?>
<!-- Generator: Adobe Illustrator 19.0.0, SVG Export Plug-In . SVG Version: 6.00 Build 0)  -->
<svg version="1.1" id="Capa_1" xmlns="http://www.w3.org/2000/svg" xmlns:xlink="http://www.w3.org/1999/xlink" x="0px" y="0px"
	 viewBox="0 0 512 512" style="enable-background:new 0 0 512 512;" xml:space="preserve">
<path style="fill:#464646;" d="M385.392,512H126.608c-17.68,0-32-14.336-32-32V32c0-17.68,14.32-32,32-32h258.784
	c17.664,0,32,14.32,32,32v448C417.392,497.664,403.056,512,385.392,512z"/>
<rect x="126.608" y="69.856" style="fill:#3789C9;" width="258.72" height="341.744"/>
<g>
	<circle style="fill:#6F7070;" cx="256" cy="461.792" r="24.352"/>
	<path style="fill:#6F7070;" d="M302.016,30.48h-92.032c-2.448,0-4.448,1.984-4.448,4.448l0,0c0,2.448,1.984,4.448,4.448,4.448
		h92.032c2.448,0,4.448-1.984,4.448-4.448l0,0C306.464,32.48,304.464,30.48,302.016,30.48z"/>
</g>
<path style="fill:#4B9FD8;" d="M213.136,411.6c14.128,0,25.584-11.456,25.584-25.584c0-14.128-11.456-25.584-25.584-25.584h-34.224
	c-11.824,0-21.456-9.68-21.392-21.504v-0.272c0-0.528-0.016-1.04-0.048-1.568c-0.704-11.664,8.544-21.488,20.24-21.488h45.328
	c13.856,0,26.272-10.368,26.992-24.208c0.768-14.752-10.96-26.96-25.552-26.96h-14.016c-11.888,0-21.52-9.68-21.44-21.568v-1.488
	v-0.304c-0.08-12.512,10.096-22.752,22.608-22.752h18.128c13.856,0,26.272-10.368,26.992-24.208
	c0.768-14.752-10.96-26.96-25.552-26.96h-65.392c-12.368,0-21.584-10.384-21.44-22.752c0-0.096,0-0.208,0-0.304s0-0.208,0-0.304
	c-0.144-12.368,9.072-22.752,21.44-22.752h21.136c13.856,0,26.272-10.368,26.992-24.208c0.768-14.752-10.96-26.96-25.552-26.96
	h-61.776v341.744h86.528V411.6z"/>
<rect x="160.64" y="280.8" style="fill:#FFCC5B;" width="32" height="91.44"/>
<rect x="160.64" y="280.8" style="fill:#FDBC4B;" width="11.264" height="91.44"/>
<rect x="213.552" y="248.8" style="fill:#F3F3F3;" width="32" height="123.44"/>
<rect x="266.432" y="216.8" style="fill:#CACACA;" width="32" height="155.44"/>
<rect x="319.328" y="184.8" style="fill:#FEE218;" width="32" height="187.44"/>
<rect x="213.552" y="248.8" style="fill:#E5E5E5;" width="11.264" height="123.44"/>
<rect x="266.432" y="216.8" style="fill:#BCBCBC;" width="11.264" height="155.44"/>
<rect x="319.328" y="184.8" style="fill:#F4D021;" width="11.264" height="187.44"/>
<g>
</g>
<g>
</g>
<g>
</g>
<g>
</g>
<g>
</g>
<g>
</g>
<g>
</g>
<g>
</g>
<g>
</g>
<g>
</g>
<g>
</g>
<g>
</g>
<g>
</g>
<g>
</g>
<g>
</g>
</svg>
