<?xml version="1.0" encoding="iso-8859-1"?>
<!-- Generator: Adobe Illustrator 19.0.0, SVG Export Plug-In . SVG Version: 6.00 Build 0)  -->
<svg version="1.1" id="Capa_1" xmlns="http://www.w3.org/2000/svg" xmlns:xlink="http://www.w3.org/1999/xlink" x="0px" y="0px"
	 viewBox="0 0 512 512" style="enable-background:new 0 0 512 512;" xml:space="preserve">
<path style="fill:#1E608B;" d="M213.412,255.026c-0.632,0-1.273-0.079-1.913-0.244c-4.073-1.053-6.52-5.209-5.467-9.281
	L268.048,5.709C268.917,2.348,271.95,0,275.422,0h87.844c4.206,0,7.617,3.41,7.617,7.617s-3.41,7.617-7.617,7.617H281.32
	l-60.539,234.081C219.892,252.747,216.8,255.026,213.412,255.026z"/>
<path style="fill:#EF4A50;" d="M336.729,160.997H282.91h-53.819h-53.819h-53.819l38.226,327.815
	C161.22,502.031,172.419,512,185.728,512h14.102h37.447h37.447h37.447h14.102c13.309,0,24.508-9.969,26.049-23.188l38.226-327.815
	L336.729,160.997L336.729,160.997z"/>
<path style="fill:#DD2A37;" d="M336.729,160.997l-38.226,327.815c-0.002,0.018-0.004,0.035-0.006,0.053
	c-0.343,2.892-2.881,5.025-5.793,5.025h-17.501h-38.404h-38.404h-14.462c-12.338,0-22.906-8.355-25.99-19.974l1.737,14.896
	C161.22,502.031,172.419,512,185.728,512h14.102h37.447h35.177h2.27h37.447h14.102c13.309,0,24.508-9.969,26.049-23.188
	l38.226-327.815L336.729,160.997L336.729,160.997z"/>
<g>
	<polygon style="fill:#F2EBDA;" points="237.277,512 199.83,512 175.271,160.997 229.09,160.997 	"/>
	<polygon style="fill:#F2EBDA;" points="237.277,512 199.83,512 175.271,160.997 229.09,160.997 	"/>
</g>
<polygon style="fill:#E5DECF;" points="198.562,493.889 199.83,512 237.277,512 236.854,493.889 236.798,493.889 "/>
<polygon style="fill:#F2EBDA;" points="312.17,512 274.723,512 282.91,160.997 336.729,160.997 "/>
<path style="fill:#E5DECF;" d="M336.729,160.997l-38.226,327.815c-0.002,0.018-0.004,0.035-0.006,0.053
	c-0.343,2.892-2.881,5.025-5.793,5.025h-17.501h-0.056L274.723,512h37.447L336.729,160.997z"/>
<path style="fill:#F2EBDA;" d="M374.309,153.17H137.691l10.103-38.231c1.469-5.56,6.499-9.434,12.25-9.434h191.911
	c5.751,0,10.781,3.873,12.25,9.434L374.309,153.17z"/>
<path style="fill:#E5DECF;" d="M364.206,114.939c-1.469-5.56-6.499-9.434-12.25-9.434h-54.791c5.751,0,10.781,3.873,12.25,9.434
	l2.232,8.446c1.943,7.352-3.601,14.552-11.206,14.552H141.716l-4.026,15.233h236.619L364.206,114.939z"/>
<path style="fill:#DDD5C3;" d="M415.389,190.018H96.611c-4.038,0-7.311-3.273-7.311-7.311v-27.095c0-4.038,3.273-7.311,7.311-7.311
	h318.777c4.038,0,7.311,3.273,7.311,7.311v27.095C422.699,186.745,419.426,190.018,415.389,190.018z"/>
<path style="fill:#CEC8BA;" d="M415.389,148.302h-45.601v24.504c0,4.038-3.273,7.311-7.311,7.311H89.301v2.591
	c0,4.038,3.273,7.311,7.311,7.311h318.777c4.038,0,7.311-3.273,7.311-7.311v-27.095
	C422.699,151.575,419.426,148.302,415.389,148.302z"/>
<ellipse style="fill:#9AD9D4;" cx="255.32" cy="350.39" rx="80.73" ry="55.66"/>
<g>
</g>
<g>
</g>
<g>
</g>
<g>
</g>
<g>
</g>
<g>
</g>
<g>
</g>
<g>
</g>
<g>
</g>
<g>
</g>
<g>
</g>
<g>
</g>
<g>
</g>
<g>
</g>
<g>
</g>
</svg>
