<?xml version="1.0" encoding="iso-8859-1"?>
<!-- Generator: Adobe Illustrator 19.0.0, SVG Export Plug-In . SVG Version: 6.00 Build 0)  -->
<svg version="1.1" id="Capa_1" xmlns="http://www.w3.org/2000/svg" xmlns:xlink="http://www.w3.org/1999/xlink" x="0px" y="0px"
	 viewBox="0 0 510.32 510.32" style="enable-background:new 0 0 510.32 510.32;" xml:space="preserve">
<path style="fill:#E86F3E;" d="M508.016,240.8c0,107.28-184.768,242.48-235.024,269.52C222.736,483.28,37.968,348.096,37.968,240.8
	c0-70.016,56.672-126.704,126.528-126.704c46.112,0,86.48,24.608,108.496,61.36c22.016-36.752,62.4-61.36,108.496-61.36
	C451.328,114.096,508.016,170.784,508.016,240.8z"/>
<g>
	<path style="fill:#D86339;" d="M365.776,375.376c-6.736-6.8-6.672-17.776,0.128-24.512c11.488-11.36,21.952-22.592,31.088-33.36
		c6.208-7.264,17.136-8.176,24.432-2c7.296,6.192,8.192,17.152,2,24.448c-9.792,11.52-20.928,23.488-33.12,35.568
		C383.504,382.208,372.528,382.224,365.776,375.376z"/>
	<path style="fill:#D86339;" d="M430.608,303.552c-8.224-4.912-10.912-15.536-6.016-23.76c9.216-15.472,14.096-28.96,14.096-38.976
		c0-31.632-25.664-57.36-57.2-57.36c-9.568,0-17.328-7.744-17.328-17.328c0-9.584,7.76-17.328,17.328-17.328
		c50.656,0,91.872,41.28,91.872,92.032c0,16.496-6.384,35.6-18.976,56.72C449.44,305.792,438.768,308.416,430.608,303.552z"/>
</g>
<circle style="fill:#F47D53;" cx="147.744" cy="210.24" r="50.272"/>
<path style="fill:#FDBC4B;" d="M37.968,149.776c0-22.144-13.536-35.664-35.664-35.664c22.144,0,35.664-13.52,35.664-35.664
	c0,22.144,13.52,35.664,35.664,35.664C51.488,114.096,37.968,127.632,37.968,149.776z"/>
<path style="fill:#FEE218;" d="M93.76,120.8c0-37.488-22.912-60.4-60.4-60.4c37.488,0,60.4-22.912,60.4-60.4
	c0,37.488,22.912,60.4,60.4,60.4C116.672,60.4,93.76,83.312,93.76,120.8z"/>
<g>
</g>
<g>
</g>
<g>
</g>
<g>
</g>
<g>
</g>
<g>
</g>
<g>
</g>
<g>
</g>
<g>
</g>
<g>
</g>
<g>
</g>
<g>
</g>
<g>
</g>
<g>
</g>
<g>
</g>
</svg>
