<?xml version="1.0" encoding="iso-8859-1"?>
<!-- Generator: Adobe Illustrator 19.0.0, SVG Export Plug-In . SVG Version: 6.00 Build 0)  -->
<svg version="1.1" id="Capa_1" xmlns="http://www.w3.org/2000/svg" xmlns:xlink="http://www.w3.org/1999/xlink" x="0px" y="0px"
	 viewBox="0 0 512 512" style="enable-background:new 0 0 512 512;" xml:space="preserve">
<path style="fill:#1E608B;" d="M359.898,94.521l141.3,151.586C508.14,253.555,512,263.358,512,273.54v19.921h-47.49L352.662,141.637
	v21.919c0,9.668-7.837,17.505-17.505,17.505l0,0c-9.668,0-17.505-7.837-17.505-17.505v-52.398c0-13.475,10.924-24.398,24.398-24.398
	l0,0C348.819,86.759,355.283,89.571,359.898,94.521z"/>
<path style="fill:#135370;" d="M335.294,123.983v57.069c0.004,0,0.009,0.001,0.013,0.001c9.598-0.082,17.355-7.88,17.355-17.497
	v-21.919L464.51,293.461h38.703L350.85,118.167C345.47,111.978,335.294,115.783,335.294,123.983z"/>
<path style="fill:#1E608B;" d="M152.102,94.521l-141.3,151.586C3.86,253.555,0,263.358,0,273.54v19.921h47.49l111.848-151.824
	v21.919c0,9.668,7.837,17.505,17.505,17.505l0,0c9.668,0,17.505-7.837,17.505-17.505v-52.398c0-13.475-10.924-24.398-24.398-24.398
	l0,0C163.181,86.759,156.717,89.571,152.102,94.521z"/>
<path style="fill:#135370;" d="M159.338,141.637v21.919c0,9.611,7.748,17.406,17.338,17.497v-57.069
	c0-8.2-10.177-12.005-15.556-5.816L8.757,293.461H47.49L159.338,141.637z"/>
<path style="fill:#F2EBDA;" d="M493.652,257.784H18.348C8.215,257.784,0,265.998,0,276.132v130.76
	c0,10.133,8.215,18.348,18.348,18.348h177.408c7.241,0,14.218-2.719,19.549-7.618l40.689-37.388l0.012-0.059v0.059l40.689,37.388
	c5.332,4.899,12.309,7.618,19.549,7.618h177.408c10.133,0,18.348-8.214,18.348-18.348v-130.76
	C512,265.998,503.785,257.784,493.652,257.784z"/>
<path style="fill:#6FA9D4;" d="M36.734,384.226v-85.43c0-2.363,1.915-4.278,4.278-4.278h173.969c2.363,0,4.278,1.915,4.278,4.278
	v63.425c0,1.197-0.502,2.34-1.383,3.15l-23.948,22.005c-0.789,0.725-1.822,1.128-2.894,1.128H41.012
	C38.65,388.504,36.734,386.589,36.734,384.226z"/>
<path style="fill:#63A1C6;" d="M214.981,294.519h-54.187c2.363,0,4.278,1.915,4.278,4.278v85.43c0,2.363-1.915,4.278-4.278,4.278
	h30.24c1.072,0,2.105-0.403,2.894-1.128l23.948-22.005c0.882-0.81,1.383-1.953,1.383-3.15v-63.425
	C219.259,296.434,217.344,294.519,214.981,294.519z"/>
<path style="fill:#DDD5C3;" d="M493.652,257.784h-35.653c0.006,0.193,0.029,0.381,0.029,0.575v130.76
	c0,10.133-8.214,18.348-18.348,18.348H285.643l11.052,10.155c5.332,4.899,12.309,7.618,19.549,7.618h177.408
	c10.133,0,18.348-8.214,18.348-18.348v-130.76C512,265.998,503.785,257.784,493.652,257.784z"/>
<path style="fill:#EF4A50;" d="M318.072,387.376l-23.948-22.005c-0.882-0.81-1.383-1.953-1.383-3.15v-63.425
	c0-2.363,1.915-4.278,4.278-4.278h173.969c2.363,0,4.278,1.915,4.278,4.278v85.43c0,2.363-1.915,4.278-4.278,4.278H320.967
	C319.894,388.504,318.861,388.102,318.072,387.376z"/>
<path style="fill:#DD2A37;" d="M470.988,294.519h-53.972c2.363,0,4.278,1.915,4.278,4.278v85.43c0,2.363-1.915,4.278-4.278,4.278
	h53.972c2.363,0,4.278-1.915,4.278-4.278v-85.43C475.266,296.434,473.35,294.519,470.988,294.519z"/>
<path style="fill:#DDD5C3;" d="M0.029,407.466c0.306,9.865,8.379,17.773,18.319,17.773h177.408c7.241,0,14.218-2.719,19.549-7.618
	l11.052-10.155H0.029z"/>
<g>
</g>
<g>
</g>
<g>
</g>
<g>
</g>
<g>
</g>
<g>
</g>
<g>
</g>
<g>
</g>
<g>
</g>
<g>
</g>
<g>
</g>
<g>
</g>
<g>
</g>
<g>
</g>
<g>
</g>
</svg>
