<?xml version="1.0" encoding="iso-8859-1"?>
<!-- Generator: Adobe Illustrator 19.0.0, SVG Export Plug-In . SVG Version: 6.00 Build 0)  -->
<svg version="1.1" id="Capa_1" xmlns="http://www.w3.org/2000/svg" xmlns:xlink="http://www.w3.org/1999/xlink" x="0px" y="0px"
	 viewBox="0 0 512 512" style="enable-background:new 0 0 512 512;" xml:space="preserve">
<circle style="fill:#3789C9;" cx="256" cy="256" r="256"/>
<path style="fill:#F3F3F3;" d="M256,448c-105.872,0-192-86.128-192-192S150.128,64,256,64s192,86.128,192,192S361.872,448,256,448z"
	/>
<path style="fill:#F9F9FA;" d="M340.32,232.288c-33.424,0-60.608-27.184-60.608-60.608s27.184-60.608,60.608-60.608
	s60.608,27.184,60.608,60.608S373.744,232.288,340.32,232.288z"/>
<path style="fill:#4B9FD8;" d="M256,495.984C123.664,495.984,16,388.32,16,256S123.664,16.016,256,16.016S496,123.664,496,256
	S388.336,495.984,256,495.984z M256,48.016C141.312,48.016,48,141.312,48,256s93.312,207.984,208,207.984S464,370.688,464,256
	S370.688,48.016,256,48.016z"/>
<g>
	<path style="fill:#CACACA;" d="M256,133.104c-8.832,0-16-7.152-16-16V93.232c0-8.848,7.168-16,16-16s16,7.152,16,16v23.872
		C272,125.952,264.832,133.104,256,133.104z"/>
	<path style="fill:#CACACA;" d="M256,434.752c-8.832,0-16-7.152-16-16v-23.856c0-8.848,7.168-16,16-16s16,7.152,16,16v23.856
		C272,427.6,264.832,434.752,256,434.752z"/>
	<path style="fill:#CACACA;" d="M418.768,272h-23.872c-8.832,0-16-7.152-16-16s7.168-16,16-16h23.872c8.832,0,16,7.152,16,16
		C434.768,264.832,427.6,272,418.768,272z"/>
	<path style="fill:#CACACA;" d="M117.104,272H93.232c-8.832,0-16-7.152-16-16s7.168-16,16-16h23.872c8.832,0,16,7.152,16,16
		C133.104,264.832,125.952,272,117.104,272z"/>
</g>
<path style="fill:#F89E62;" d="M256,272h-52.464c-8.832,0-16-7.152-16-16s7.168-16,16-16H240v-66.768c0-8.848,7.168-16,16-16
	s16,7.152,16,16V256C272,264.832,264.832,272,256,272z"/>
<g style="opacity:0.07;">
	<path style="fill:#010101;" d="M256,93.232c100.928,0,183.744,78.336,191.264,177.376c0.368-4.832,0.736-9.68,0.736-14.608
		c0-105.872-86.128-192-192-192S64,150.128,64,256c0,4.928,0.368,9.776,0.736,14.624C72.256,171.568,155.072,93.232,256,93.232z"/>
</g>
<g>
</g>
<g>
</g>
<g>
</g>
<g>
</g>
<g>
</g>
<g>
</g>
<g>
</g>
<g>
</g>
<g>
</g>
<g>
</g>
<g>
</g>
<g>
</g>
<g>
</g>
<g>
</g>
<g>
</g>
</svg>
