<?xml version="1.0" encoding="iso-8859-1"?>
<!-- Generator: Adobe Illustrator 19.0.0, SVG Export Plug-In . SVG Version: 6.00 Build 0)  -->
<svg version="1.1" id="Capa_1" xmlns="http://www.w3.org/2000/svg" xmlns:xlink="http://www.w3.org/1999/xlink" x="0px" y="0px"
	 viewBox="0 0 512 512" style="enable-background:new 0 0 512 512;" xml:space="preserve">
<g>
	<path style="fill:#B5B1B3;" d="M192.465,503.059c-4.274,0-7.738-3.464-7.738-7.738V74.217c0-4.273,3.464-7.738,7.738-7.738
		s7.738,3.464,7.738,7.738v421.104C200.203,499.594,196.739,503.059,192.465,503.059z"/>
	<path style="fill:#B5B1B3;" d="M233.991,425.702c-4.274,0-7.738-3.464-7.738-7.738V85.488c0-4.273,3.464-7.738,7.738-7.738
		s7.738,3.464,7.738,7.738v332.476C241.729,422.237,238.265,425.702,233.991,425.702z"/>
	<path style="fill:#B5B1B3;" d="M275.517,361.917c-4.274,0-7.738-3.464-7.738-7.738V116.42c0-4.273,3.464-7.738,7.738-7.738
		c4.274,0,7.738,3.464,7.738,7.738v237.759C283.254,358.452,279.79,361.917,275.517,361.917z"/>
	<path style="fill:#B5B1B3;" d="M317.042,309.862c-4.274,0-7.738-3.464-7.738-7.738V164.91c0-4.273,3.464-7.738,7.738-7.738
		s7.738,3.464,7.738,7.738v137.215C324.78,306.398,321.316,309.862,317.042,309.862z"/>
	<path style="fill:#B5B1B3;" d="M358.568,247.061c-4.274,0-7.738-3.464-7.738-7.738v-80.309c0-4.273,3.464-7.738,7.738-7.738
		s7.738,3.464,7.738,7.738v80.309C366.306,243.597,362.842,247.061,358.568,247.061z"/>
</g>
<path style="fill:#FEC93E;" d="M421.191,146.114c-5.716-9.041-14.841-14.72-26.387-16.423c-11.043-1.628-24.041,0.492-38.625,6.304
	c-19.214,7.657-30.97,10.022-35.939,7.228c-5.242-2.946-9.999-14.687-16.022-29.553c-3.205-7.909-6.837-16.874-11.485-27.037
	c-15.474-33.834-37.789-47.323-53.785-52.682c-17.557-5.881-62.856-3.53-100.488-3.242v65.567
	c37.615-0.25,112.168-13.35,137.729,40.13c9.456,19.785,24.812,58.839,89.567,27.797c16.079-7.708,28.088-9.74,33.564-4.264
	c5.771,5.771,5.619,15.874-12.046,36.369C371.943,214.1,197.58,425.92,184.544,497.75h74.501
	c10.822-64.446,27.877-117.063,145.836-282.479C428.548,182.081,433.457,165.516,421.191,146.114z"/>
<path style="fill:#EFB533;" d="M410.668,151.881c-20.118-17.883-53.82,7.133-84.91,7.95c-3.992,0.105-7.287-0.76-10.067-2.323
	c-8.077-4.539-19.838-16.001-27.967-33.483c-10.672-22.953-25.723-41.883-44.191-51.413c-45.902-23.686-104.14-10.444-105.073-9.986
	v33.65c37.615-0.25,112.168-13.35,137.729,40.13c9.456,19.785,24.812,58.839,89.567,27.797c16.079-7.708,28.088-9.74,33.565-4.264
	c5.771,5.771,5.619,15.874-12.046,36.369C371.943,214.1,197.58,425.92,184.544,497.75h33.283c0,0,42.51-141.445,176.505-290.329
	C414.451,185.068,422.221,162.151,410.668,151.881z"/>
<rect x="119.83" y="41.24" style="fill:#F7A738;" width="34.22" height="445.27"/>
<rect x="136.94" y="41.24" style="fill:#EA952F;" width="17.11" height="445.27"/>
<path style="fill:#FD6E2E;" d="M161.459,82.06h-49.043c-1.888,0-3.419-1.531-3.419-3.419V60.739c0-1.888,1.531-3.419,3.419-3.419
	h49.043c1.888,0,3.419,1.531,3.419,3.419v17.903C164.878,80.53,163.347,82.06,161.459,82.06z"/>
<path style="fill:#FEC93E;" d="M155.331,57.32h-36.787l-8.888-55.964C109.545,0.654,109.971,0,110.54,0h52.795
	c0.569,0,0.995,0.654,0.884,1.356L155.331,57.32z"/>
<path style="fill:#FD6E2E;" d="M161.459,396.996h-49.043c-1.888,0-3.419,1.531-3.419,3.419v17.903c0,1.888,1.531,3.419,3.419,3.419
	h49.043c1.888,0,3.419-1.531,3.419-3.419v-17.903C164.878,398.527,163.347,396.996,161.459,396.996z"/>
<path style="fill:#FEC93E;" d="M155.331,421.736h-36.787l-8.888,55.964c-0.111,0.702,0.315,1.356,0.884,1.356h52.795
	c0.569,0,0.995-0.654,0.884-1.356L155.331,421.736z"/>
<g>
	<path style="fill:#EA551B;" d="M161.459,57.32h-24.521v24.74h24.521c1.888,0,3.419-1.531,3.419-3.419V60.739
		C164.878,58.851,163.347,57.32,161.459,57.32z"/>
	<path style="fill:#EA551B;" d="M161.459,396.996h-24.521v24.74h24.521c1.888,0,3.419-1.531,3.419-3.419v-17.903
		C164.878,398.527,163.347,396.996,161.459,396.996z"/>
</g>
<g>
	<path style="fill:#EFB533;" d="M163.335,0h-26.397v57.32h18.393l8.888-55.964C164.33,0.654,163.903,0,163.335,0z"/>
	<path style="fill:#EFB533;" d="M155.331,421.736h-18.393v57.32h26.397c0.569,0,0.995-0.654,0.884-1.356L155.331,421.736z"/>
</g>
<path style="fill:#FD6E2E;" d="M275.629,512H93.58c-5.12,0-9.271-4.151-9.271-9.271v-16.231c0-5.12,4.151-9.271,9.271-9.271h182.049
	c5.12,0,9.271,4.151,9.271,9.271v16.231C284.9,507.849,280.749,512,275.629,512z"/>
<path style="fill:#EA551B;" d="M284.886,486.236c-0.14,4.998-4.226,9.01-9.258,9.01H93.58c-5.032,0-9.118-4.012-9.257-9.01
	c-0.002,0.088-0.013,0.174-0.013,0.262v16.231c0,5.12,4.151,9.271,9.271,9.271H275.63c5.12,0,9.271-4.15,9.271-9.271v-16.231
	C284.9,486.41,284.889,486.324,284.886,486.236z"/>
<g>
</g>
<g>
</g>
<g>
</g>
<g>
</g>
<g>
</g>
<g>
</g>
<g>
</g>
<g>
</g>
<g>
</g>
<g>
</g>
<g>
</g>
<g>
</g>
<g>
</g>
<g>
</g>
<g>
</g>
</svg>
