<?xml version="1.0" encoding="iso-8859-1"?>
<!-- Generator: Adobe Illustrator 19.0.0, SVG Export Plug-In . SVG Version: 6.00 Build 0)  -->
<svg version="1.1" id="Capa_1" xmlns="http://www.w3.org/2000/svg" xmlns:xlink="http://www.w3.org/1999/xlink" x="0px" y="0px"
	 viewBox="0 0 512.004 512.004" style="enable-background:new 0 0 512.004 512.004;" xml:space="preserve">
<path style="fill:#ED6362;" d="M229.642,11.796L0.538,210.18h510.928L282.378,11.796C268.314-3.932,243.706-3.932,229.642,11.796z"
	/>
<path style="fill:#B0B0B0;" d="M444.234,94.724H67.786c-17.68,0-32,14.32-32,32v27.168h27.52h326.352h59.04h27.536v-27.168
	C476.234,109.044,461.914,94.724,444.234,94.724z"/>
<rect x="0.538" y="210.244" style="fill:#ED6362;" width="510.928" height="179.936"/>
<path style="fill:#FFDB70;" d="M256.01,361.092L13.898,504.116c6.048,4.864,13.632,7.888,22,7.888h440.224
	c8.368,0,15.952-3.024,22-7.888L256.01,361.092z"/>
<path style="fill:#CACACA;" d="M444.234,365.14H67.786c-17.68,0-32-14.336-32-32V156.308c0-17.68,14.32-32,32-32h376.448
	c17.664,0,32,14.32,32,32v176.848C476.234,350.82,461.914,365.14,444.234,365.14z"/>
<path style="fill:#F3F3F3;" d="M421.178,151.828H90.842c0,15.2-12.32,27.52-27.52,27.52v130.736c15.2,0,27.52,12.32,27.52,27.52
	h330.336c0-15.2,12.32-27.52,27.52-27.52V179.348C433.498,179.348,421.178,167.028,421.178,151.828z"/>
<path style="fill:#E5E5E5;" d="M421.178,151.828H363.21c-6.928,0-13.36,4.736-14.464,11.568
	c-1.376,8.656,5.264,16.128,13.664,16.128h18.4c6.752,0,12.224,5.52,12.144,12.272v0.288c0,0.272,0,0.528,0.016,0.8
	c0.352,6.48-4.768,11.776-11.248,11.776h-9.888c-6.928,0-13.36,4.736-14.464,11.568c-1.376,8.656,5.28,16.128,13.664,16.128h18.944
	c6.48,0,11.552,5.44,11.232,11.92c-0.016,0.224-0.016,0.432-0.016,0.656c0,0.176,0,0.368,0.016,0.544
	c0.272,6.528-4.704,12.032-11.232,12.032h-44.272c-6.928,0-13.36,4.736-14.464,11.568c-1.376,8.656,5.264,16.128,13.664,16.128
	h16.384c6.592,0,11.968,5.392,11.936,11.984v0.16c0,0.272,0,0.528,0.016,0.8c0.352,6.48-4.768,11.776-11.248,11.776h-6.224
	c-6.928,0-13.36,4.72-14.464,11.568c-1.376,8.656,5.264,16.128,13.664,16.128h66.176c0-15.2,12.32-27.52,27.52-27.52V179.364
	C433.498,179.348,421.178,167.028,421.178,151.828z"/>
<ellipse style="fill:#787878;" cx="256.01" cy="244.724" rx="50.672" ry="68.112"/>
<path style="fill:#FFFFFF;" d="M252.442,270.884v-21.36c-6.656-1.904-11.552-4.784-14.656-8.64s-4.672-8.544-4.672-14.048
	c0-5.568,1.76-10.256,5.28-14.048s8.208-5.968,14.048-6.56v-5.056h7.392v5.056c5.408,0.64,9.712,2.496,12.896,5.536
	c3.2,3.04,5.232,7.12,6.112,12.208l-12.896,1.68c-0.784-4.016-2.816-6.736-6.112-8.16v19.936c8.16,2.208,13.712,5.072,16.672,8.592
	c2.96,3.52,4.432,8.032,4.432,13.536c0,6.16-1.856,11.344-5.584,15.552c-3.728,4.224-8.896,6.8-15.52,7.744v5.392h-7.392v-5.136
	c-5.888-0.72-10.656-2.912-14.336-6.576c-3.664-3.664-6.016-8.864-7.04-15.552l13.312-1.424c0.544,2.72,1.568,5.072,3.056,7.04
	C248.938,268.58,250.602,270.004,252.442,270.884z M252.442,217.348c-2,0.672-3.6,1.84-4.8,3.472
	c-1.184,1.632-1.776,3.424-1.776,5.408c0,1.808,0.544,3.472,1.632,5.024s2.736,2.8,4.944,3.744V217.348z M259.834,271.604
	c2.544-0.48,4.624-1.664,6.224-3.536c1.6-1.888,2.4-4.112,2.4-6.656c0-2.272-0.672-4.24-2.016-5.888
	c-1.344-1.648-3.552-2.912-6.608-3.792V271.604z"/>
<g>
	<circle style="fill:#787878;" cx="159.37" cy="244.724" r="18.832"/>
	<circle style="fill:#787878;" cx="352.65" cy="244.724" r="18.832"/>
</g>
<g>
	<path style="fill:#FFCC5B;" d="M256.026,361.108l-242.192,143.2C5.706,497.94,0.57,487.86,0.57,476.724V210.132L256.026,361.108z"
		/>
	<path style="fill:#FFCC5B;" d="M511.466,210.132v266.592c0,11.136-5.12,21.04-13.264,27.584l-242.192-143.2L511.466,210.132z"/>
</g>
<g>
	<path style="fill:#FFDB70;" d="M46.314,343.012c-9.76,0-17.68,7.904-17.68,17.68v66.368c0,9.776,7.92,17.68,17.68,17.68
		s17.68-7.904,17.68-17.68v-66.368C63.994,350.916,56.074,343.012,46.314,343.012z"/>
	<path style="fill:#FFDB70;" d="M46.314,269.7c-9.76,0-17.68,7.904-17.68,17.68v20.704c0,9.776,7.92,17.68,17.68,17.68
		s17.68-7.904,17.68-17.68V287.38C63.994,277.604,56.074,269.7,46.314,269.7z"/>
</g>
<path style="fill:#F8C053;" d="M498.122,315.396V436.5c0,9.76-7.904,17.68-17.68,17.68s-17.68-7.92-17.68-17.68V333.076h-44.848
	c-9.776,0-17.68-7.92-17.68-17.68c0-9.76,7.904-17.68,17.68-17.68h62.528C490.218,297.732,498.122,305.636,498.122,315.396z"/>
<g>
</g>
<g>
</g>
<g>
</g>
<g>
</g>
<g>
</g>
<g>
</g>
<g>
</g>
<g>
</g>
<g>
</g>
<g>
</g>
<g>
</g>
<g>
</g>
<g>
</g>
<g>
</g>
<g>
</g>
</svg>
