<?xml version="1.0" encoding="iso-8859-1"?>
<!-- Generator: Adobe Illustrator 19.0.0, SVG Export Plug-In . SVG Version: 6.00 Build 0)  -->
<svg version="1.1" id="Capa_1" xmlns="http://www.w3.org/2000/svg" xmlns:xlink="http://www.w3.org/1999/xlink" x="0px" y="0px"
	 viewBox="0 0 504.399 504.399" style="enable-background:new 0 0 504.399 504.399;" xml:space="preserve">
<path style="fill:#FDBC4B;" d="M435.06,151.247c-4.208-17.744-22-28.72-39.744-24.528l-201.072,47.632
	c-17.744,4.208-28.72,22-24.512,39.744l40.064,169.12c4.208,17.744,22,28.72,39.744,24.512l201.072-47.632
	c17.744-4.208,28.72-22,24.528-39.744L435.06,151.247z"/>
<g>
	<path style="fill:#FFCC5B;" d="M221.636,238.111c-9.76,2.32-15.792,12.096-13.488,21.856l12.272,51.824
		c2.304,9.76,12.096,15.792,21.856,13.488c9.76-2.32,15.792-12.096,13.488-21.856l-12.272-51.824
		C241.172,241.839,231.396,235.791,221.636,238.111z"/>
	<path style="fill:#FFCC5B;" d="M210.98,193.183c-9.76,2.32-15.792,12.096-13.488,21.856l0.224,0.96
		c2.304,9.76,12.08,15.792,21.856,13.488c9.76-2.32,15.792-12.096,13.488-21.856l-0.224-0.96
		C230.532,196.911,220.756,190.879,210.98,193.183z"/>
</g>
<polygon style="fill:#EC9922;" points="342.036,203.119 304.628,192.127 276.132,218.735 261.812,158.351 327.732,142.735 "/>
<g>
	<polygon style="fill:#464646;" points="443.188,304.271 418.948,289.311 403.988,313.551 416.98,310.479 423.668,338.703 
		436.884,335.583 430.196,307.343 	"/>
	<polygon style="fill:#464646;" points="396.788,315.263 372.548,300.303 357.604,324.543 370.596,321.471 377.284,349.695 
		390.5,346.559 383.812,318.335 	"/>
</g>
<path style="fill:#E5E5E5;" d="M205.396,450.815c-7.472,0-14.256-5.104-16.048-12.704L99.86,60.223
	c-2.16-9.184-7.792-16.96-15.824-21.92c-8.016-4.944-17.472-6.464-26.672-4.32l-36.096,8.56C12.356,44.671,3.492,39.151,1.38,30.287
	c-2.096-8.88,3.408-17.776,12.272-19.872l36.112-8.544c17.792-4.224,36.096-1.232,51.632,8.336c15.52,9.6,26.4,24.656,30.608,42.416
	l85.68,361.824l265.456-62.864c8.88-2.112,17.776,3.392,19.872,12.256c2.112,8.864-3.392,17.776-12.272,19.872l-281.52,66.656
	C207.94,450.671,206.66,450.815,205.396,450.815z"/>
<circle style="fill:#464646;" cx="205.476" cy="434.303" r="70.096"/>
<circle style="fill:#CACACA;" cx="205.476" cy="434.303" r="39.136"/>
<g style="opacity:0.07;">
	<path style="fill:#010101;" d="M182.9,452.943c-4.992-21.04,8.032-42.128,29.056-47.104c7.28-1.728,14.528-1.168,21.152,1.008
		c-9.28-9.344-22.976-13.872-36.72-10.608c-21.04,4.976-34.048,26.08-29.056,47.104c3.264,13.76,13.44,23.952,25.952,28.064
		C188.372,466.447,184.628,460.223,182.9,452.943z"/>
</g>
<g>
</g>
<g>
</g>
<g>
</g>
<g>
</g>
<g>
</g>
<g>
</g>
<g>
</g>
<g>
</g>
<g>
</g>
<g>
</g>
<g>
</g>
<g>
</g>
<g>
</g>
<g>
</g>
<g>
</g>
</svg>
