<?xml version="1.0" encoding="iso-8859-1"?>
<!-- Generator: Adobe Illustrator 19.0.0, SVG Export Plug-In . SVG Version: 6.00 Build 0)  -->
<svg version="1.1" id="Capa_1" xmlns="http://www.w3.org/2000/svg" xmlns:xlink="http://www.w3.org/1999/xlink" x="0px" y="0px"
	 viewBox="0 0 512 512" style="enable-background:new 0 0 512 512;" xml:space="preserve">
<path style="fill:#F7A738;" d="M204.559,284.677h-44.226v15.451h44.226c4.267,0,7.726-3.459,7.726-7.726
	C212.284,288.136,208.826,284.677,204.559,284.677z"/>
<path style="fill:#FEC93E;" d="M168.059,284.677h-0.001v-10.718c0-4.267-3.459-7.726-7.726-7.726s-7.726,3.459-7.726,7.726v36.888
	c0,4.267,3.459,7.726,7.726,7.726s7.726-3.459,7.726-7.726v-10.718h0.001V284.677z"/>
<path style="fill:#F7A738;" d="M204.559,357.968h-44.226v15.451h44.226c4.267,0,7.726-3.459,7.726-7.726
	S208.826,357.968,204.559,357.968z"/>
<path style="fill:#FEC93E;" d="M168.059,357.968h-0.001V347.25c0-4.267-3.459-7.726-7.726-7.726s-7.726,3.459-7.726,7.726v36.888
	c0,4.267,3.459,7.726,7.726,7.726s7.726-3.459,7.726-7.726V373.42h0.001V357.968z"/>
<path style="fill:#F7A738;" d="M204.559,211.385h-44.226v15.451h44.226c4.267,0,7.726-3.459,7.726-7.726
	C212.284,214.844,208.826,211.385,204.559,211.385z"/>
<path style="fill:#FEC93E;" d="M168.059,211.385h-0.001v-10.718c0-4.267-3.459-7.726-7.726-7.726s-7.726,3.459-7.726,7.726v36.888
	c0,4.267,3.459,7.726,7.726,7.726s7.726-3.459,7.726-7.726v-10.718h0.001V211.385z"/>
<path style="fill:#EFB533;" d="M288.227,454.669c-41.875,0-75.943-34.068-75.943-75.943v-170.84
	c0-41.875,34.068-75.943,75.943-75.943s75.942,34.068,75.942,75.943v170.84C364.169,420.601,330.101,454.669,288.227,454.669z
	 M288.227,170.797c-20.451,0-37.089,16.638-37.089,37.088v170.84c0,20.451,16.638,37.089,37.089,37.089
	c20.45,0,37.088-16.638,37.088-37.089v-170.84C325.314,187.435,308.677,170.797,288.227,170.797z"/>
<g>
	<path style="fill:#FEC93E;" d="M288.227,444.368c-36.195,0-65.642-29.447-65.642-65.642v-170.84
		c0-36.195,29.447-65.641,65.642-65.641s65.641,29.447,65.641,65.641v170.84C353.868,414.921,324.422,444.368,288.227,444.368z
		 M288.227,160.497c-26.131,0-47.389,21.259-47.389,47.389v170.84c0,26.131,21.259,47.39,47.389,47.39s47.388-21.259,47.388-47.39
		v-170.84C335.615,181.755,314.356,160.497,288.227,160.497z"/>
	<path style="fill:#FEC93E;" d="M134.882,20.833c0,0,75.198,70.11,76.735,137.263v334.53h40.123v-334.53h0.064
		c1.537-67.153,76.735-137.263,76.735-137.263S134.882,20.833,134.882,20.833z"/>
</g>
<path style="fill:#EFB533;" d="M266.429,20.833c0,0-33.689,70.11-35.226,137.263h-0.064v334.53h20.602v-334.53h0.064
	c1.537-67.153,76.735-137.263,76.735-137.263S266.429,20.833,266.429,20.833z"/>
<path style="fill:#FF895A;" d="M137.768,0h187.886c9.898,0,17.922,8.024,17.922,17.922l0,0c0,9.898-8.024,17.922-17.922,17.922
	H137.768c-9.898,0-17.922-8.024-17.922-17.922l0,0C119.846,8.024,127.87,0,137.768,0z"/>
<path style="fill:#FD6E2E;" d="M325.654,17.922H137.768c-6.63,0-12.405-3.609-15.505-8.961c-1.528,2.638-2.417,5.693-2.417,8.961
	c0,9.898,8.024,17.922,17.922,17.922h187.886c9.898,0,17.922-8.024,17.922-17.922c0-3.268-0.889-6.323-2.417-8.961
	C338.058,14.313,332.284,17.922,325.654,17.922z"/>
<path style="fill:#FF895A;" d="M189.951,202.204h185.296c9.337,0,16.907,7.569,16.907,16.907l0,0
	c0,9.337-7.569,16.907-16.907,16.907H189.951c-2.389,0-4.325-1.937-4.325-4.325V206.53
	C185.625,204.141,187.561,202.204,189.951,202.204z"/>
<path style="fill:#FD6E2E;" d="M375.246,219.111H189.951c-2.389,0-4.325-1.936-4.325-4.325v16.907c0,2.389,1.937,4.325,4.325,4.325
	h185.296c9.337,0,16.907-7.569,16.907-16.907c0-3.083-0.839-5.965-2.28-8.453C386.948,215.706,381.5,219.111,375.246,219.111z"/>
<path style="fill:#FF895A;" d="M189.951,275.496h185.296c9.337,0,16.907,7.569,16.907,16.907l0,0
	c0,9.337-7.569,16.907-16.907,16.907H189.951c-2.389,0-4.325-1.937-4.325-4.325v-25.162
	C185.625,277.432,187.561,275.496,189.951,275.496z"/>
<path style="fill:#FD6E2E;" d="M375.246,292.868H189.951c-2.389,0-4.325-1.937-4.325-4.325v16.441c0,2.389,1.937,4.325,4.325,4.325
	h185.296c9.337,0,16.907-7.569,16.907-16.907c0-2.986-0.781-5.786-2.139-8.221C387.124,289.361,381.597,292.868,375.246,292.868z"/>
<path style="fill:#FF895A;" d="M189.951,348.787h185.296c9.337,0,16.907,7.569,16.907,16.907l0,0
	c0,9.337-7.569,16.907-16.907,16.907H189.951c-2.389,0-4.325-1.937-4.325-4.325v-25.162
	C185.625,350.724,187.561,348.787,189.951,348.787z"/>
<path style="fill:#FD6E2E;" d="M375.246,365.694H189.951c-2.389,0-4.325-1.936-4.325-4.325v16.907c0,2.389,1.937,4.325,4.325,4.325
	h185.296c9.337,0,16.907-7.569,16.907-16.907c0-3.083-0.839-5.965-2.28-8.454C386.948,362.289,381.5,365.694,375.246,365.694z"/>
<path style="fill:#FF895A;" d="M207.964,476.378h47.493c1.855,0,3.5,1.189,4.083,2.95l8.94,27.021
	c0.921,2.783-1.152,5.651-4.083,5.651h-65.373c-2.931,0-5.004-2.868-4.083-5.651l8.94-27.021
	C204.464,477.567,206.11,476.378,207.964,476.378z"/>
<path style="fill:#FD6E2E;" d="M259.54,479.328c-0.583-1.761-2.228-2.95-4.083-2.95h-23.729V512h32.669
	c2.931,0,5.004-2.868,4.083-5.651L259.54,479.328z"/>
<g>
</g>
<g>
</g>
<g>
</g>
<g>
</g>
<g>
</g>
<g>
</g>
<g>
</g>
<g>
</g>
<g>
</g>
<g>
</g>
<g>
</g>
<g>
</g>
<g>
</g>
<g>
</g>
<g>
</g>
</svg>
