<?xml version="1.0" encoding="iso-8859-1"?>
<!-- Generator: Adobe Illustrator 19.0.0, SVG Export Plug-In . SVG Version: 6.00 Build 0)  -->
<svg version="1.1" id="Capa_1" xmlns="http://www.w3.org/2000/svg" xmlns:xlink="http://www.w3.org/1999/xlink" x="0px" y="0px"
	 viewBox="0 0 512 512" style="enable-background:new 0 0 512 512;" xml:space="preserve">
<path style="fill:#464646;" d="M385.392,512H126.608c-17.664,0-32-14.32-32-32V32c0-17.68,14.336-32,32-32h258.784
	c17.68,0,32,14.336,32,32v448C417.392,497.68,403.056,512,385.392,512z"/>
<rect x="126.608" y="69.872" style="fill:#3789C9;" width="258.72" height="341.744"/>
<g>
	<circle style="fill:#6F7070;" cx="256" cy="461.808" r="24.352"/>
	<path style="fill:#6F7070;" d="M302.016,30.496h-92.032c-2.448,0-4.448,1.984-4.448,4.448l0,0c0,2.448,1.984,4.448,4.448,4.448
		h92.032c2.448,0,4.448-1.984,4.448-4.448l0,0C306.464,32.48,304.464,30.496,302.016,30.496z"/>
</g>
<path style="fill:#4B9FD8;" d="M213.136,411.6c14.128,0,25.584-11.456,25.584-25.584s-11.456-25.584-25.584-25.584h-34.224
	c-11.84,0-21.456-9.68-21.392-21.504v-0.272c0-0.528-0.016-1.04-0.048-1.568c-0.704-11.664,8.544-21.488,20.24-21.488h45.328
	c13.856,0,26.272-10.368,26.992-24.208c0.768-14.752-10.96-26.96-25.552-26.96h-14.016c-11.888,0-21.52-9.68-21.44-21.568
	l0.016-1.488v-0.304c-0.08-12.512,10.112-22.752,22.608-22.752h18.128c13.856,0,26.272-10.368,26.992-24.208
	c0.768-14.752-10.96-26.96-25.552-26.96h-65.392c-12.368,0-21.584-10.384-21.44-22.752c0-0.096,0-0.208,0-0.304
	c0-0.096,0-0.208,0-0.304c-0.144-12.368,9.072-22.752,21.44-22.752h21.152c13.856,0,26.272-10.368,26.992-24.208
	c0.768-14.752-10.96-26.96-25.552-26.96h-61.808v341.744h86.528V411.6z"/>
<path style="fill:#FEE218;" d="M188.528,209.712v98.096c0,14.432,11.696,26.112,26.112,26.112h82.72
	c14.432,0,26.112-11.696,26.112-26.112v-98.096H188.528z"/>
<path style="fill:#F2CD1B;" d="M188.528,306.4v1.408c0,14.432,11.696,26.112,26.112,26.112h82.72
	c14.432,0,26.112-11.696,26.112-26.112V306.4H188.528z"/>
<g>
	<circle style="fill:#464646;" cx="213.632" cy="224.8" r="10.144"/>
	<circle style="fill:#464646;" cx="298.32" cy="224.8" r="10.144"/>
</g>
<path style="fill:#FFFFFF;" d="M304.848,196.384v27.776c0,3.568-2.88,6.528-6.528,6.528c-3.568,0-6.528-2.96-6.528-6.528v-27.776
	c0-19.76-16.016-35.792-35.776-35.792s-35.872,16.016-35.872,35.792v27.776c0,3.568-2.864,6.528-6.528,6.528
	c-3.568,0-6.528-2.96-6.528-6.528v-27.776c0-26.912,21.936-48.848,48.928-48.848C282.896,147.552,304.848,169.488,304.848,196.384z"
	/>
<g>
</g>
<g>
</g>
<g>
</g>
<g>
</g>
<g>
</g>
<g>
</g>
<g>
</g>
<g>
</g>
<g>
</g>
<g>
</g>
<g>
</g>
<g>
</g>
<g>
</g>
<g>
</g>
<g>
</g>
</svg>
