<?xml version="1.0" encoding="iso-8859-1"?>
<!-- Generator: Adobe Illustrator 19.0.0, SVG Export Plug-In . SVG Version: 6.00 Build 0)  -->
<svg version="1.1" id="Capa_1" xmlns="http://www.w3.org/2000/svg" xmlns:xlink="http://www.w3.org/1999/xlink" x="0px" y="0px"
	 viewBox="0 0 512 512" style="enable-background:new 0 0 512 512;" xml:space="preserve">
<path style="fill:#FEC93E;" d="M324.715,350.436v-8.776c0-9.457,6.645-17.612,15.907-19.522l0,0
	c5.271-1.087,9.053-5.728,9.053-11.11v-46.631c0-39.471-31.998-71.469-71.469-71.469h-44.412c-39.471,0-71.469,31.998-71.469,71.469
	v46.631c0,5.382,3.782,10.023,9.053,11.11l0,0c9.262,1.91,15.907,10.065,15.907,19.522v8.776c0,10.215-7.722,18.776-17.882,19.827
	l0,0c-12.457,1.289-21.924,11.785-21.924,24.309v15.12c0,45.74,37.08,82.82,82.82,82.82h51.4c45.74,0,82.82-37.08,82.82-82.82
	v-15.12c0-12.523-9.467-23.02-21.924-24.309l0,0C332.436,369.212,324.715,360.651,324.715,350.436z"/>
<path style="fill:#EFB533;" d="M342.597,370.263c-10.16-1.051-17.882-9.613-17.882-19.827v-8.776
	c0-9.457,6.645-17.612,15.907-19.522c5.271-1.087,9.053-5.728,9.053-11.111v-46.631c0-39.471-31.998-71.469-71.469-71.469h-44.412
	c-1.601,0-3.184,0.072-4.759,0.175c37.25,2.452,66.71,33.424,66.71,71.294v46.631c0,5.382-3.782,10.023-9.053,11.111
	c-9.262,1.91-15.907,10.065-15.907,19.522v8.776c0,10.214,7.722,18.776,17.882,19.827l0,0c12.457,1.289,21.924,11.785,21.924,24.309
	v15.12c0,45.316-36.401,82.109-81.555,82.788c0.423,0.006,0.841,0.032,1.265,0.032h51.4c45.74,0,82.82-37.08,82.82-82.82v-15.12
	C364.521,382.048,355.054,371.552,342.597,370.263z"/>
<g>
	<path style="fill:#DDA064;" d="M239.277,413.147h33.446c2.321,0,4.164,1.954,4.028,4.271l-5.334,90.784
		c-0.125,2.133-1.891,3.798-4.028,3.798h-22.778c-2.136,0-3.902-1.665-4.028-3.798l-5.334-90.784
		C235.113,415.101,236.956,413.147,239.277,413.147z"/>
	<path style="fill:#DDA064;" d="M267.947,19.845h12.615c4.264,0,7.721-3.457,7.721-7.721s-3.457-7.721-7.721-7.721h-12.615
		c-4.264,0-7.72,3.457-7.72,7.721S263.683,19.845,267.947,19.845z"/>
	<path style="fill:#DDA064;" d="M244.053,4.067h-11.586c-4.264,0-7.721,3.457-7.721,7.721s3.457,7.721,7.721,7.721h11.586
		c4.264,0,7.721-3.457,7.721-7.721S248.317,4.067,244.053,4.067z"/>
	<path style="fill:#DDA064;" d="M285.709,39.553h-17.762c-4.264,0-7.72,3.457-7.72,7.721s3.457,7.721,7.72,7.721h17.762
		c4.264,0,7.721-3.457,7.721-7.721S289.973,39.553,285.709,39.553z"/>
	<path style="fill:#DDA064;" d="M244.053,39.216H227.32c-4.264,0-7.721,3.457-7.721,7.721s3.457,7.721,7.721,7.721h16.733
		c4.264,0,7.721-3.457,7.721-7.721S248.317,39.216,244.053,39.216z"/>
	<path style="fill:#DDA064;" d="M274.451,287.634l-8.706-255.73h-19.49l-8.706,255.73c-0.163,4.799,3.683,8.778,8.484,8.778h19.934
		C270.769,296.412,274.615,292.433,274.451,287.634z"/>
</g>
<path style="fill:#CE915B;" d="M256,31.904v264.508h9.967c4.802,0,8.647-3.979,8.484-8.778l-8.706-255.73L256,31.904L256,31.904z"/>
<path style="fill:#FECB7B;" d="M274.157,58.968h-36.314c-1.859,0-3.291-1.638-3.043-3.48l7.108-52.827
	C242.113,1.137,243.414,0,244.951,0h22.097c1.538,0,2.838,1.137,3.043,2.661l7.108,52.827
	C277.448,57.33,276.016,58.968,274.157,58.968z"/>
<g>
	<path style="fill:#F7A738;" d="M218.271,334.999c-4.264,0-7.721,3.457-7.721,7.721v15.961c0,5.262-2.183,10.362-5.989,13.995
		c-10.969,10.47-13.899,26.674-7.292,40.323l1.699,3.511c1.333,2.754,4.087,4.359,6.955,4.359c1.128,0,2.274-0.249,3.358-0.773
		c3.838-1.858,5.443-6.475,3.586-10.313l-1.7-3.511c-3.674-7.591-2.045-16.604,4.056-22.426
		c6.843-6.532,10.768-15.704,10.768-25.165V342.72C225.991,338.456,222.534,334.999,218.271,334.999z"/>
	<path style="fill:#F7A738;" d="M307.439,372.676c-3.806-3.633-5.989-8.734-5.989-13.995V342.72c0-4.264-3.457-7.721-7.72-7.721
		s-7.72,3.457-7.72,7.721v15.961c0,9.461,3.925,18.633,10.768,25.165c6.1,5.823,7.73,14.835,4.055,22.426l-1.699,3.511
		c-1.857,3.838-0.252,8.455,3.586,10.313c1.084,0.524,2.23,0.773,3.358,0.773c2.868,0,5.621-1.605,6.955-4.359l1.699-3.511
		C321.338,399.351,318.407,383.146,307.439,372.676z"/>
</g>
<path style="fill:#CE915B;" d="M272.723,413.147H256V512h11.389c2.136,0,3.902-1.665,4.028-3.798l5.334-90.784
	C276.887,415.101,275.044,413.147,272.723,413.147z"/>
<polygon style="fill:#FECB7B;" points="237.741,459.824 274.259,459.824 275.166,444.383 236.834,444.383 "/>
<g>
	<polygon style="fill:#F4BC71;" points="256,459.824 274.259,459.824 275.166,444.383 256,444.383 	"/>
	<path style="fill:#F4BC71;" d="M270.092,2.661C269.887,1.137,268.586,0,267.049,0H256v58.968h18.157
		c1.858,0,3.291-1.638,3.043-3.48L270.092,2.661z"/>
</g>
<g>
</g>
<g>
</g>
<g>
</g>
<g>
</g>
<g>
</g>
<g>
</g>
<g>
</g>
<g>
</g>
<g>
</g>
<g>
</g>
<g>
</g>
<g>
</g>
<g>
</g>
<g>
</g>
<g>
</g>
</svg>
