<?xml version="1.0" encoding="iso-8859-1"?>
<!-- Generator: Adobe Illustrator 19.0.0, SVG Export Plug-In . SVG Version: 6.00 Build 0)  -->
<svg version="1.1" id="Capa_1" xmlns="http://www.w3.org/2000/svg" xmlns:xlink="http://www.w3.org/1999/xlink" x="0px" y="0px"
	 viewBox="0 0 512 512" style="enable-background:new 0 0 512 512;" xml:space="preserve">
<path style="fill:#DDA064;" d="M337.972,360.495c-11.455-13.378-14.514-31.952-7.689-48.188c3.859-9.178,5.992-19.26,5.992-29.842
	c0-39.449-29.611-59.407-67.816-62.157c-3.066-0.221-9.294-0.344-12.459-0.344c-3.165,0-9.393,0.124-12.459,0.344
	c-38.204,2.75-67.816,22.707-67.816,62.157c0,10.582,2.134,20.664,5.992,29.842c6.825,16.236,3.766,34.81-7.689,48.188
	c-15.532,18.138-24.914,41.697-24.914,67.449c0,54.161,41.495,81.018,94.426,83.808c3.08,0.162,9.309,0.248,12.46,0.248
	c3.151,0,9.38-0.086,12.459-0.248c52.932-2.79,94.426-29.647,94.426-83.808C362.886,402.192,353.503,378.634,337.972,360.495z"/>
<path style="fill:#CE915B;" d="M337.972,360.495c-11.455-13.378-14.514-31.952-7.689-48.188c3.859-9.178,5.992-19.26,5.992-29.842
	c0-39.449-29.611-59.407-67.816-62.157c-3.066-0.221-9.294-0.344-12.46-0.344c-3.166,0-9.394,0.124-12.46,0.344
	c-3.058,0.22-6.053,0.563-8.989,1.005c30.949,1.322,73.375,10.451,73.571,37.462c0.258,35.536-18.283,33.734-31.803,53.532
	c-9.932,14.544-3.766,34.81,7.689,48.188c15.531,18.138,24.914,41.697,24.914,67.449c0,49.097-34.098,75.757-79.904,82.391
	c4.725,0.684,9.573,1.156,14.523,1.417c3.08,0.162,9.309,0.248,12.46,0.248c3.151,0,9.38-0.086,12.46-0.248
	c52.932-2.79,94.426-29.647,94.426-83.808C362.886,402.192,353.503,378.633,337.972,360.495z"/>
<path style="fill:#FECB7B;" d="M273.572,257.39h-35.144c-2.332,0-4.197-1.938-4.108-4.268l9.005-235.426h25.349l9.005,235.426
	C277.769,255.452,275.904,257.39,273.572,257.39z"/>
<circle style="fill:#A0663A;" cx="256" cy="324.86" r="38.514"/>
<path style="fill:#FECB7B;" d="M302.962,467.551h-93.924c-2.156,0-3.904-1.748-3.904-3.904v-22.21c0-2.156,1.748-3.904,3.904-3.904
	h93.924c2.156,0,3.904,1.748,3.904,3.904v22.21C306.865,465.803,305.118,467.551,302.962,467.551z"/>
<g>
	<path style="fill:#E8B470;" d="M302.962,452.542h-93.924c-2.156,0-3.904-1.748-3.904-3.904v15.008c0,2.156,1.748,3.904,3.904,3.904
		h93.924c2.156,0,3.904-1.748,3.904-3.904v-15.008C306.865,450.795,305.118,452.542,302.962,452.542z"/>
	<path style="fill:#E8B470;" d="M256,17.696V257.39h17.572c2.332,0,4.197-1.938,4.108-4.268l-9.005-235.425H256V17.696z"/>
</g>
<path style="fill:#DDA064;" d="M273.494,70.899h-34.989c-3.575,0-6.558-2.729-6.876-6.29l-5.094-57.092
	C226.175,3.478,229.357,0,233.411,0h45.177c4.055,0,7.237,3.478,6.876,7.517l-5.094,57.092
	C280.053,68.17,277.069,70.899,273.494,70.899z"/>
<path style="fill:#CE915B;" d="M278.589,0H256v70.899h17.494c3.575,0,6.558-2.729,6.876-6.29l5.094-57.092
	C285.825,3.478,282.643,0,278.589,0z"/>
<g>
</g>
<g>
</g>
<g>
</g>
<g>
</g>
<g>
</g>
<g>
</g>
<g>
</g>
<g>
</g>
<g>
</g>
<g>
</g>
<g>
</g>
<g>
</g>
<g>
</g>
<g>
</g>
<g>
</g>
</svg>
