<?xml version="1.0" encoding="iso-8859-1"?>
<!-- Generator: Adobe Illustrator 19.0.0, SVG Export Plug-In . SVG Version: 6.00 Build 0)  -->
<svg version="1.1" id="Capa_1" xmlns="http://www.w3.org/2000/svg" xmlns:xlink="http://www.w3.org/1999/xlink" x="0px" y="0px"
	 viewBox="0 0 512 512" style="enable-background:new 0 0 512 512;" xml:space="preserve">
<path style="fill:#CACACA;" d="M418.648,95.088h-48v206.24c0,63.232-51.44,114.672-114.672,114.672s-114.672-51.44-114.672-114.672
	V95.088h-48h-48v206.24C45.304,417.504,139.816,512,255.976,512s210.672-94.496,210.672-210.672V95.088H418.648z"/>
<g>
	<rect x="370.696" y="95.088" style="fill:#6F7070;" width="96" height="83.424"/>
	<rect x="45.304" y="95.088" style="fill:#6F7070;" width="96" height="83.424"/>
</g>
<g>
	<path style="fill:#E5E5E5;" d="M70.136,60.384c-8.832,0-16-7.152-16-16V16c0-8.848,7.168-16,16-16s16,7.152,16,16v28.384
		C86.136,53.232,78.984,60.384,70.136,60.384z"/>
	<path style="fill:#E5E5E5;" d="M116.472,81.344c-8.832,0-16-7.152-16-16v-28.4c0-8.848,7.168-16,16-16s16,7.152,16,16v28.384
		C132.472,74.176,125.304,81.344,116.472,81.344z"/>
	<path style="fill:#E5E5E5;" d="M441.816,60.384c8.832,0,16-7.152,16-16V16c0-8.848-7.168-16-16-16s-16,7.152-16,16v28.384
		C425.816,53.232,432.968,60.384,441.816,60.384z"/>
	<path style="fill:#E5E5E5;" d="M395.48,81.344c8.832,0,16-7.152,16-16v-28.4c0-8.848-7.168-16-16-16s-16,7.152-16,16v28.384
		C379.48,74.176,386.648,81.344,395.48,81.344z"/>
</g>
<polygon style="fill:#FFDB70;" points="195.8,175.424 255.976,284.304 255.976,175.424 "/>
<polygon style="fill:#FDBC4B;" points="255.976,175.424 316.152,175.424 255.976,66.544 "/>
<g style="opacity:0.35;">
	<path style="fill:#FFFFFF;" d="M255.976,480c-54.336,0-105.072-24.304-139.2-66.656c-5.536-6.88-4.464-16.96,2.416-22.496
		c6.88-5.552,16.944-4.48,22.496,2.432c28.016,34.768,69.68,54.72,114.288,54.72c8.832,0,16,7.152,16,16S264.808,480,255.976,480z"
		/>
</g>
<g style="opacity:0.35;">
	<path style="fill:#FFFFFF;" d="M86.44,357.856c-6.064-18.192-9.136-37.2-9.136-56.528c0-8.848,7.168-16,16-16s16,7.152,16,16
		c0,15.872,2.528,31.504,7.488,46.4c2.8,8.384-1.728,17.456-10.112,20.24C98.344,370.752,89.256,366.288,86.44,357.856z"/>
</g>
<g>
</g>
<g>
</g>
<g>
</g>
<g>
</g>
<g>
</g>
<g>
</g>
<g>
</g>
<g>
</g>
<g>
</g>
<g>
</g>
<g>
</g>
<g>
</g>
<g>
</g>
<g>
</g>
<g>
</g>
</svg>
