<?xml version="1.0" encoding="iso-8859-1"?>
<!-- Generator: Adobe Illustrator 19.0.0, SVG Export Plug-In . SVG Version: 6.00 Build 0)  -->
<svg version="1.1" id="Capa_1" xmlns="http://www.w3.org/2000/svg" xmlns:xlink="http://www.w3.org/1999/xlink" x="0px" y="0px"
	 viewBox="0 0 512.001 512.001" style="enable-background:new 0 0 512.001 512.001;" xml:space="preserve">
<g>
	<path style="fill:#BF834C;" d="M273.33,12.882l-24.075-6.956c-4.098-1.187-8.386,1.179-9.571,5.279
		c-1.186,4.101,1.178,8.386,5.279,9.571l24.075,6.956c0.717,0.207,1.439,0.306,2.15,0.306c3.354,0,6.444-2.201,7.421-5.585
		C279.795,18.352,277.431,14.066,273.33,12.882z"/>
	<path style="fill:#BF834C;" d="M265.767,39.059l-24.076-6.956c-4.1-1.185-8.386,1.178-9.571,5.28
		c-1.186,4.1,1.178,8.386,5.279,9.57l24.076,6.956c0.717,0.207,1.439,0.306,2.15,0.306c3.354,0,6.444-2.201,7.421-5.586
		C272.232,44.529,269.868,40.244,265.767,39.059z"/>
	<path style="fill:#BF834C;" d="M258.204,65.237l-24.076-6.956c-4.099-1.187-8.386,1.179-9.571,5.28
		c-1.186,4.1,1.178,8.386,5.279,9.57l24.076,6.956c0.717,0.207,1.439,0.306,2.15,0.306c3.354,0,6.444-2.201,7.421-5.586
		C264.669,70.707,262.305,66.421,258.204,65.237z"/>
</g>
<path style="fill:#A7AEEE;" d="M349.571,385.169c-20.536-23.636-30.881-30.646-31.182-42.494
	c-0.184-7.217,37.946-52.818,23.776-77.808c-11.613-20.481-51.346,69.49-77.289,15.63v-8.173h-25.627
	c-44.119,0-41.002-40.77-61.968-44.555c-15.935-2.877-20.452,35.567,9.331,97.261c12.416,26.555,0.29,24.523-25.005,60.14
	c-25.691,36.176-10.562,121.914,82.465,126.57c2.907,0.145,8.442,0.235,11.51,0.261c3.068-0.026,7.752-0.116,10.659-0.261
	C359.268,507.083,377.532,419.291,349.571,385.169z"/>
<path style="fill:#8C99E5;" d="M349.571,385.168c-20.536-23.636-30.881-30.646-31.182-42.494
	c-0.183-7.217,37.946-52.818,23.776-77.808c-0.211-0.373-0.435-0.698-0.664-0.999c0,38.508-76.255,66.057-76.255,84.447
	c0,11.852,10.646,13.219,31.182,36.855c26.338,32.142,11.651,111.892-67.891,124.935c4.92,0.802,10.089,1.363,15.535,1.636
	c2.907,0.145,8.442,0.235,11.51,0.261c3.068-0.026,7.752-0.116,10.659-0.261C359.268,507.082,377.532,419.291,349.571,385.168z"/>
<path style="fill:#DDA064;" d="M267.516,319.428h-23.03c-3.733,0-6.723-3.092-6.597-6.823l7.469-221.937h21.286l7.469,221.937
	C274.239,316.335,271.249,319.428,267.516,319.428z"/>
<path style="fill:#BF834C;" d="M256.001,90.668v228.76h11.515c3.733,0,6.723-3.092,6.597-6.823l-7.469-221.937L256.001,90.668
	L256.001,90.668z"/>
<path style="fill:#FEC93E;" d="M283.817,70.798l-4.19-25.755c-1.616-9.931-1.207-20.086,1.201-29.855l0.757-3.071
	C283.104,5.954,278.439,0,272.092,0h-1.38c-3.574,0-6.728,2.338-7.766,5.758L238.22,90.905c-1.548,5.331,2.457,10.653,8.008,10.645
	c5.402-0.008,11.731-0.043,16.43-0.075c3.654-0.025,6.786-2.452,7.908-5.929c1.853-5.74,5.846-10.252,9.175-13.208
	C282.993,79.451,284.515,75.09,283.817,70.798z"/>
<g>
	<path style="fill:#F2EBDA;" d="M230.918,363.772h50.166c4.269,0,7.729-3.46,7.729-7.729s-3.46-7.729-7.729-7.729h-50.166
		c-4.269,0-7.729,3.46-7.729,7.729S226.649,363.772,230.918,363.772z"/>
	<path style="fill:#F2EBDA;" d="M281.084,389.216h-50.166c-4.269,0-7.729,3.46-7.729,7.729s3.46,7.729,7.729,7.729h50.166
		c4.269,0,7.729-3.46,7.729-7.729S285.353,389.216,281.084,389.216z"/>
	<path style="fill:#F2EBDA;" d="M281.084,429.063h-50.166c-4.269,0-7.729,3.46-7.729,7.729s3.46,7.729,7.729,7.729h50.166
		c4.269,0,7.729-3.46,7.729-7.729S285.353,429.063,281.084,429.063z"/>
</g>
<g>
	<circle style="fill:#FECB7B;" cx="316.371" cy="396.94" r="7.956"/>
	<circle style="fill:#FECB7B;" cx="316.371" cy="436.79" r="7.956"/>
</g>
<path style="fill:#FCD47C;" d="M270.473,46.532c-1.609-9.889-1.43-19.827,0.492-29.602c0.081-0.412-0.178-0.813-0.588-0.903l0,0
	c-0.399-0.088-0.798,0.149-0.912,0.542l-19.321,66.534c-1.331,4.584,2.127,9.158,6.901,9.132c0.048,0,0.096-0.001,0.145-0.001
	c2.75-0.015,5.192-1.633,6.415-4.096c2.782-5.598,6.792-9.904,9.979-12.734c0.867-0.771,1.271-1.936,1.08-3.116L270.473,46.532z"/>
<g>
</g>
<g>
</g>
<g>
</g>
<g>
</g>
<g>
</g>
<g>
</g>
<g>
</g>
<g>
</g>
<g>
</g>
<g>
</g>
<g>
</g>
<g>
</g>
<g>
</g>
<g>
</g>
<g>
</g>
</svg>
