<?xml version="1.0" encoding="iso-8859-1"?>
<!-- Generator: Adobe Illustrator 19.0.0, SVG Export Plug-In . SVG Version: 6.00 Build 0)  -->
<svg version="1.1" id="Capa_1" xmlns="http://www.w3.org/2000/svg" xmlns:xlink="http://www.w3.org/1999/xlink" x="0px" y="0px"
	 viewBox="0 0 512 512" style="enable-background:new 0 0 512 512;" xml:space="preserve">
<g>
	<path style="fill:#A1D5B3;" d="M457.88,343.456C457.88,454.96,367.496,512,255.992,512S54.088,454.96,54.088,343.456
		s90.4-235.248,201.904-235.248S457.88,231.952,457.88,343.456z"/>
	<path style="fill:#A1D5B3;" d="M332.776,0.016c-13.28-0.448-24.096,10.112-24.096,23.12C308.696,10.384,298.312,0,285.4,0
		c-12.752,0-23.136,10.384-23.136,23.136C262.264,10.384,251.896,0,238.984,0c-12.752,0-23.28,10.384-23.28,23.136
		C215.704,10.384,205.32,0,192.568,0c-12.896,0-23.28,10.384-23.28,23.136v3.6c0,43.36,11.68,69.392,33.808,106.672h118.192l0,0
		c22.128-37.28,33.808-63.312,33.808-106.672v-1.824C355.112,12.144,345.544,0.448,332.776,0.016z"/>
</g>
<path style="fill:#E5E5E5;" d="M181.048,133.424h162.304c9.12,0,16.512-7.392,16.512-16.512H164.536
	C164.536,126.032,171.928,133.424,181.048,133.424z"/>
<path style="fill:#F3F3F3;" d="M343.352,100.384H181.048c-9.12,0-16.512,7.392-16.512,16.512H359.88
	C359.864,107.776,352.472,100.384,343.352,100.384z"/>
<path style="fill:#97D1AA;" d="M267.048,152.528c0,7.2,5.76,12.8,12.8,12.8h81.12c5.92,0,10.72,4.96,10.72,10.88v0.8
	c0.48,5.92-4.16,10.88-10.08,10.88h-104.96c-6.88,0-13.12,5.12-13.44,12c-0.32,7.52,5.44,13.6,12.8,13.6h73.28
	c5.92,0,10.72,4.8,10.72,10.72v0.96c0,6.24-5.12,11.36-11.36,11.36h-50.56c-7.04,0-13.28,5.12-13.6,12.16
	c-0.32,7.36,5.44,13.44,12.8,13.44h122.24c6.24,0,10.88,5.28,10.72,11.36c0,0.16,0,0.16,0,0.16v0.16
	c0.16,6.24-4.48,11.36-10.72,11.36h-106.56c-6.88,0-13.12,5.28-13.44,12.16c-0.48,7.36,5.44,13.44,12.8,13.44l68.384,0.064
	c6.352,0,11.52,5.152,11.52,11.52c0,6.352-5.152,11.52-11.52,11.52h-81.104c-6.928,0.144-12.544,5.808-12.544,12.752
	c0,7.2,5.76,12.8,12.8,12.8h113.12c5.92,0,10.72,4.96,10.72,10.88v0.8c0.48,5.92-4.16,10.88-10.08,10.88h-136.96
	c-6.88,0-13.12,5.12-13.44,12c-0.32,7.52,5.44,13.6,12.8,13.6h73.28c5.92,0,10.72,4.8,10.72,10.72v0.96
	c0,6.24-5.12,11.36-11.36,11.36h-50.56c-7.04,0-13.28,5.12-13.6,12.16c-0.32,7.36,5.44,13.44,12.8,13.44h58.24
	c6.24,0,10.88,5.12,10.72,11.36v0.32c0.16,6.24-4.48,11.36-10.72,11.36h-42.56c-6.88,0-13.12,5.28-13.44,12.16
	c-0.48,7.36,5.44,13.44,12.8,13.44h28.288c79.776-18.368,137.28-72.512,137.28-161.392c0-77.024-43.152-159.84-106.592-203.728
	h-71.456C272.808,139.728,267.048,145.488,267.048,152.528z"/>
<circle style="fill:#FFDB70;" cx="255.992" cy="310.112" r="99.328"/>
<g>
	<path style="fill:#E86F3E;" d="M250.696,348.752v-31.68c-9.888-2.816-17.12-7.088-21.744-12.816
		c-4.608-5.728-6.912-12.672-6.912-20.832c0-8.272,2.608-15.216,7.824-20.832s12.16-8.864,20.832-9.712v-7.488h10.96v7.488
		c8.016,0.96,14.4,3.696,19.136,8.208s7.76,10.544,9.072,18.112l-19.136,2.496c-1.152-5.952-4.176-9.984-9.072-12.096v29.568
		c12.096,3.28,20.336,7.52,24.72,12.736s6.576,11.904,6.576,20.08c0,9.12-2.768,16.816-8.272,23.056
		c-5.52,6.256-13.2,10.08-23.024,11.488v8.304h-10.96v-7.92c-8.72-1.056-15.808-4.304-21.248-9.76
		c-5.44-5.44-8.928-13.136-10.432-23.056l19.728-2.112c0.8,4.032,2.32,7.504,4.544,10.432
		C245.512,345.328,247.976,347.44,250.696,348.752z M250.696,269.36c-2.976,1.008-5.344,2.72-7.104,5.136
		c-1.76,2.416-2.64,5.088-2.64,8.016c0,2.672,0.8,5.152,2.416,7.44s4.064,4.144,7.328,5.552V269.36z M261.656,349.808
		c3.776-0.704,6.864-2.464,9.232-5.248c2.368-2.8,3.552-6.08,3.552-9.872c0-3.376-0.992-6.288-2.992-8.736
		c-1.984-2.448-5.248-4.32-9.792-5.632V349.808z"/>
	<path style="fill:#E86F3E;" d="M255.992,429.072c-65.6,0-118.96-53.376-118.96-118.976c0-65.584,53.36-118.96,118.96-118.96
		s118.96,53.376,118.96,118.96C374.952,375.696,321.592,429.072,255.992,429.072z M255.992,230.4
		c-43.936,0-79.696,35.76-79.696,79.696c0,43.952,35.76,79.712,79.696,79.712s79.696-35.76,79.696-79.712
		C335.688,266.16,299.928,230.4,255.992,230.4z"/>
</g>
<g style="opacity:0.5;">
	<path style="fill:#F89E62;" d="M307.608,404.048c-3.264,0-6.448-1.632-8.32-4.576c-2.88-4.608-1.504-10.656,3.072-13.536
		c26.24-16.528,41.888-44.864,41.888-75.824c0-49.344-40.16-89.504-89.504-89.504c-21.968,0-43.072,8.032-59.472,22.624
		c-4.048,3.568-10.272,3.216-13.856-0.832c-3.6-4.048-3.248-10.256,0.8-13.856c20-17.776,45.744-27.568,72.528-27.568
		c60.176,0,109.136,48.96,109.136,109.136c0,37.744-19.088,72.288-51.056,92.432C311.208,403.568,309.4,404.048,307.608,404.048z"/>
</g>
<g>
</g>
<g>
</g>
<g>
</g>
<g>
</g>
<g>
</g>
<g>
</g>
<g>
</g>
<g>
</g>
<g>
</g>
<g>
</g>
<g>
</g>
<g>
</g>
<g>
</g>
<g>
</g>
<g>
</g>
</svg>
