<?xml version="1.0" encoding="iso-8859-1"?>
<!-- Generator: Adobe Illustrator 19.0.0, SVG Export Plug-In . SVG Version: 6.00 Build 0)  -->
<svg version="1.1" id="Capa_1" xmlns="http://www.w3.org/2000/svg" xmlns:xlink="http://www.w3.org/1999/xlink" x="0px" y="0px"
	 viewBox="0 0 511.999 511.999" style="enable-background:new 0 0 511.999 511.999;" xml:space="preserve">
<path style="fill:#FD6E2E;" d="M262.286,203.02c-13.775,23.104-21.047,49.502-21.047,76.401V422.17
	c0,9.881-8.086,18.268-17.965,18.077c-9.578-0.185-17.282-8.011-17.272-17.633l0.493-386.122c0.001-0.545-0.01-1.088-0.031-1.627
	c-1.041-26.457-29.579-42.713-53.33-31.009l-31.25,15.4l36.675,0.954c10.858,1.491,18.739,11.089,18.088,22.03l-18.158,394.394
	c-1.885,41.052,30.89,75.365,71.986,75.365l0,0c39.799,0,72.062-32.263,72.062-72.062v-55.349c0-48.131,23.22-93.306,62.36-121.32
	l18.765-13.431l-84.117-109.311L262.286,203.02z"/>
<g>
	<path style="fill:#EA551B;" d="M192.073,34.864c0.021,0.54-8.88,387.749-8.88,387.749c-0.01,9.622,7.694,17.449,17.272,17.633
		c4.432,0.085,8.496-1.565,11.638-4.293c-3.738-3.234-6.108-8.008-6.102-13.34l0.493-386.122c0.001-0.545-0.01-1.087-0.031-1.627
		c-0.968-24.606-25.718-40.374-48.282-33.048C172.044,6.28,191.435,18.649,192.073,34.864z"/>
	<path style="fill:#EA551B;" d="M348.718,204.427l-25.423,17.239c-39.139,28.013-50.525,73.188-50.525,121.319v111.297
		c0,0.119,0,0.237,0,0.355c0.026,20.243-15.096,37.572-35.243,39.536c-2.32,0.226-4.673,0.342-7.053,0.342l0,0
		c-37.453,0-67.981-28.503-71.676-64.63l-0.311,6.747c-1.883,41.054,30.892,75.367,71.988,75.367l0,0
		c0.538,0,1.068-0.029,1.603-0.04l0,0c0.001,0,0.003,0,0.004,0c12.204-0.268,23.657-3.562,33.641-9.174
		c0.004-0.002,0.007-0.004,0.011-0.006c0.99-0.556,1.965-1.134,2.925-1.736c0.022-0.014,0.043-0.028,0.065-0.042
		c0.941-0.591,1.868-1.201,2.779-1.833c0.041-0.029,0.082-0.059,0.123-0.087c0.89-0.62,1.766-1.258,2.625-1.916
		c0.061-0.046,0.12-0.095,0.18-0.142c0.837-0.645,1.66-1.305,2.467-1.986c0.081-0.068,0.16-0.14,0.241-0.209
		c0.781-0.665,1.551-1.343,2.303-2.04c0.101-0.094,0.199-0.192,0.3-0.286c0.725-0.68,1.439-1.37,2.135-2.079
		c0.121-0.123,0.237-0.25,0.357-0.374c0.668-0.69,1.327-1.388,1.968-2.105c0.138-0.154,0.269-0.313,0.406-0.468
		c0.612-0.696,1.216-1.398,1.801-2.118c0.154-0.189,0.3-0.385,0.452-0.576c0.556-0.698,1.106-1.4,1.636-2.118
		c0.165-0.223,0.32-0.454,0.483-0.679c0.502-0.698,1.001-1.398,1.479-2.114c0.176-0.264,0.341-0.535,0.514-0.801
		c0.448-0.691,0.893-1.382,1.318-2.089c0.184-0.306,0.355-0.621,0.535-0.93c0.395-0.681,0.791-1.362,1.164-2.056
		c0.186-0.345,0.356-0.699,0.536-1.047c0.347-0.672,0.696-1.343,1.023-2.028c0.185-0.388,0.354-0.786,0.533-1.178
		c0.299-0.658,0.603-1.313,0.882-1.981c0.182-0.433,0.344-0.875,0.518-1.313c0.254-0.641,0.514-1.279,0.75-1.929
		c0.172-0.475,0.324-0.96,0.487-1.439c0.212-0.625,0.432-1.246,0.627-1.878c0.16-0.519,0.297-1.047,0.446-1.571
		c0.172-0.606,0.353-1.208,0.51-1.82c0.144-0.565,0.264-1.139,0.394-1.709c0.134-0.583,0.279-1.161,0.398-1.749
		c0.125-0.616,0.224-1.242,0.333-1.864c0.097-0.553,0.208-1.101,0.292-1.658c0.103-0.68,0.177-1.37,0.261-2.056
		c0.062-0.508,0.139-1.012,0.191-1.523c0.079-0.787,0.127-1.584,0.181-2.378c0.028-0.42,0.073-0.835,0.094-1.256
		c0.061-1.22,0.093-2.448,0.093-3.683v-17.481v-37.868c0-48.132,23.22-93.307,62.36-121.321l18.765-13.431L348.718,204.427z"/>
</g>
<path style="fill:#FEC93E;" d="M280.937,128.604L280.937,128.604c-8.027,6.246-9.501,17.803-3.299,25.864l90.057,117.031
	c6.25,8.122,17.915,9.61,26.003,3.316l0,0c8.027-6.246,9.501-17.803,3.298-25.864L306.94,131.92
	C300.689,123.798,289.025,122.311,280.937,128.604z"/>
<g>
	<path style="fill:#E8B136;" d="M396.997,248.951L306.94,131.92c-6.25-8.122-17.915-9.61-26.003-3.316l0,0
		c-2.148,1.671-3.81,3.729-4.998,5.992c5.378,0.137,10.652,2.604,14.19,7.203l90.057,117.031c4.543,5.904,4.952,13.677,1.7,19.872
		c4.121,0.105,8.304-1.156,11.813-3.886C401.726,268.57,403.2,257.012,396.997,248.951z"/>
	<path style="fill:#E8B136;" d="M229.964,206.642h-23.603c-4.457,0-8.069-3.613-8.069-8.069s3.612-8.069,8.069-8.069h23.603
		c4.457,0,8.069,3.613,8.069,8.069S234.421,206.642,229.964,206.642z"/>
</g>
<path style="fill:#FEC93E;" d="M229.964,218.836c-4.457,0-8.069-3.613-8.069-8.069v-24.388c0-4.456,3.612-8.069,8.069-8.069
	s8.069,3.613,8.069,8.069v24.388C238.034,215.223,234.421,218.836,229.964,218.836z"/>
<path style="fill:#E8B136;" d="M161.201,385.781h-20.518c-4.457,0-8.069-3.613-8.069-8.069s3.612-8.069,8.069-8.069h20.518
	c4.457,0,8.069,3.613,8.069,8.069S165.658,385.781,161.201,385.781z"/>
<path style="fill:#FEC93E;" d="M140.683,397.975c-4.457,0-8.069-3.613-8.069-8.069v-24.388c0-4.457,3.612-8.069,8.069-8.069
	s8.069,3.613,8.069,8.069v24.388C148.752,394.362,145.14,397.975,140.683,397.975z"/>
<path style="fill:#E8B136;" d="M164.049,323.916h-23.366c-4.457,0-8.069-3.613-8.069-8.069c0-4.457,3.612-8.069,8.069-8.069h23.366
	c4.457,0,8.069,3.613,8.069,8.069S168.506,323.916,164.049,323.916z"/>
<path style="fill:#FEC93E;" d="M140.683,336.11c-4.457,0-8.069-3.613-8.069-8.069v-24.388c0-4.457,3.612-8.069,8.069-8.069
	s8.069,3.613,8.069,8.069v24.388C148.752,332.497,145.14,336.11,140.683,336.11z"/>
<g>
	<rect x="241.24" y="394.929" style="fill:#EA551B;" width="61.3" height="16.14"/>
	<polygon style="fill:#EA551B;" points="206.037,394.926 160.408,394.926 159.665,411.065 206.016,411.065 	"/>
</g>
<path style="fill:#E8B136;" d="M229.964,152.13h-23.603c-4.457,0-8.069-3.613-8.069-8.069s3.612-8.069,8.069-8.069h23.603
	c4.457,0,8.069,3.613,8.069,8.069C238.034,148.517,234.421,152.13,229.964,152.13z"/>
<g>
	<path style="fill:#FEC93E;" d="M229.964,164.323c-4.457,0-8.069-3.613-8.069-8.069v-24.387c0-4.457,3.612-8.069,8.069-8.069
		s8.069,3.613,8.069,8.069v24.387C238.034,160.711,234.421,164.323,229.964,164.323z"/>
	<circle style="fill:#FEC93E;" cx="187.1" cy="228.699" r="7.531"/>
	<circle style="fill:#FEC93E;" cx="185.48" cy="296.119" r="7.531"/>
	<circle style="fill:#FEC93E;" cx="183.87" cy="368.039" r="7.531"/>
	<path style="fill:#FEC93E;" d="M155.817,11.602h-36.243c-4.418,0-8.271,3.405-8.404,7.821c-0.137,4.57,3.526,8.318,8.066,8.318
		h52.719l0,0C171.955,18.827,164.73,11.602,155.817,11.602z"/>
</g>
<g>
</g>
<g>
</g>
<g>
</g>
<g>
</g>
<g>
</g>
<g>
</g>
<g>
</g>
<g>
</g>
<g>
</g>
<g>
</g>
<g>
</g>
<g>
</g>
<g>
</g>
<g>
</g>
<g>
</g>
</svg>
