<?xml version="1.0" encoding="iso-8859-1"?>
<!-- Generator: Adobe Illustrator 19.0.0, SVG Export Plug-In . SVG Version: 6.00 Build 0)  -->
<svg version="1.1" id="Capa_1" xmlns="http://www.w3.org/2000/svg" xmlns:xlink="http://www.w3.org/1999/xlink" x="0px" y="0px"
	 viewBox="0 0 512 512" style="enable-background:new 0 0 512 512;" xml:space="preserve">
<path style="fill:#464646;" d="M470.56,460.304H41.456v-273.44c0-17.68,14.32-32,32-32H438.56c17.68,0,32,14.32,32,32V460.304z"/>
<rect x="73.44" y="186.864" style="fill:#4B9FD8;" width="365.104" height="241.44"/>
<path style="fill:#E5E5E5;" d="M512,460.304H0v19.216c0,17.664,14.32,32,32,32h448c17.68,0,32-14.336,32-32V460.304z"/>
<rect x="210.944" y="455.808" style="fill:#464646;" width="90.112" height="17.424"/>
<path style="fill:#3789C9;" d="M73.44,186.864v77.6c0,7.04,5.76,12.8,12.8,12.8c7.2,0,12.8-5.76,12.8-12.8v-17.12
	c0-5.92,4.96-10.72,10.88-10.72h0.8c5.92-0.48,10.88,4.16,10.88,10.08v40.96c0,6.88,5.12,13.12,12,13.44
	c7.52,0.32,13.6-5.44,13.6-12.8v-25.28c0-5.92,4.8-10.72,10.72-10.72h0.96c6.24,0,11.36,5.12,11.36,11.36v2.56
	c0,7.04,5.12,13.28,12.16,13.6c7.36,0.32,13.44-5.44,13.44-12.8v-26.24c0-6.24,5.28-10.88,11.36-10.72c0.16,0,0.16,0,0.16,0h0.16
	c6.24-0.16,11.36,4.48,11.36,10.72v10.56c0,6.88,5.28,13.12,12.16,13.44c7.36,0.48,13.44-5.44,13.44-12.8l0.064-20.384
	c0-6.368,5.152-11.52,11.52-11.52c6.368,0,11.52,5.152,11.52,11.52v33.104c0.144,6.928,5.792,12.544,12.752,12.544
	c7.2,0,12.8-5.76,12.8-12.8v-17.12c0-5.92,4.96-10.72,10.88-10.72h0.8c5.92-0.48,10.88,4.16,10.88,10.08v40.96
	c0,6.88,5.12,13.12,12,13.44c7.52,0.32,13.6-5.44,13.6-12.8v-25.28c0-5.92,4.8-10.72,10.72-10.72h0.96
	c6.24,0,11.36,5.12,11.36,11.36v2.56c0,7.04,5.12,13.28,12.16,13.6c7.36,0.32,13.44-5.44,13.44-12.8v-26.24
	c0-6.24,5.12-10.88,11.36-10.72h0.32c6.24-0.16,11.36,4.48,11.36,10.72v10.56c0,6.88,5.28,13.12,12.16,13.44
	c7.36,0.48,13.44-5.44,13.44-12.8v-65.12H73.44V186.864z"/>
<g>
	<path style="fill:#54ACE0;" d="M188.96,378.912h-80.704c-8.672,0-15.712,7.024-15.712,15.712c0,8.688,7.04,15.712,15.712,15.712
		h80.704c8.672,0,15.712-7.024,15.712-15.712C204.672,385.936,197.632,378.912,188.96,378.912z"/>
	<path style="fill:#54ACE0;" d="M230.384,378.912h-1.968c-8.672,0-15.712,7.024-15.712,15.712c0,8.688,7.04,15.712,15.712,15.712
		h1.968c8.672,0,15.712-7.024,15.712-15.712C246.096,385.936,239.072,378.912,230.384,378.912z"/>
</g>
<g>
	<path style="fill:#DCDBDB;" d="M424.672,470.208h-80.704c-8.672,0-15.712,7.024-15.712,15.712c0,8.688,7.04,15.712,15.712,15.712
		h80.704c8.672,0,15.712-7.024,15.712-15.712S433.344,470.208,424.672,470.208z"/>
	<path style="fill:#DCDBDB;" d="M466.112,470.208h-1.968c-8.672,0-15.712,7.024-15.712,15.712c0,8.688,7.04,15.712,15.712,15.712
		h1.968c8.672,0,15.712-7.024,15.712-15.712S474.784,470.208,466.112,470.208z"/>
</g>
<circle style="fill:#ED6362;" cx="256" cy="200.704" r="80.96"/>
<path style="fill:#FFFFFF;" d="M251.68,232.208v-25.824c-8.048-2.304-13.952-5.776-17.712-10.448
	c-3.76-4.672-5.632-10.32-5.632-16.976c0-6.736,2.128-12.4,6.384-16.976s9.904-7.216,16.976-7.92v-6.096h8.944v6.096
	c6.528,0.784,11.728,3.008,15.584,6.688c3.856,3.68,6.32,8.592,7.392,14.752l-15.584,2.032c-0.944-4.848-3.408-8.144-7.392-9.856
	v24.096c9.856,2.672,16.576,6.128,20.16,10.384c3.568,4.256,5.36,9.712,5.36,16.368c0,7.44-2.256,13.696-6.752,18.8
	c-4.496,5.088-10.752,8.208-18.768,9.36v6.768h-8.96v-6.448c-7.104-0.864-12.88-3.52-17.312-7.952s-7.28-10.704-8.496-18.8
	l16.08-1.728c0.656,3.28,1.888,6.128,3.696,8.496C247.456,229.408,249.472,231.136,251.68,232.208z M251.68,167.504
	c-2.416,0.816-4.352,2.224-5.792,4.192c-1.44,1.968-2.16,4.144-2.16,6.528c0,2.176,0.656,4.208,1.968,6.064
	c1.312,1.872,3.312,3.376,5.984,4.528V167.504z M260.624,233.072c3.088-0.576,5.584-2,7.52-4.288
	c1.936-2.272,2.896-4.96,2.896-8.048c0-2.752-0.816-5.12-2.432-7.12s-4.288-3.52-7.984-4.592L260.624,233.072L260.624,233.072z"/>
<path style="fill:#FEE218;" d="M256,297.664c-53.456,0-96.96-43.504-96.96-96.96s43.488-96.96,96.96-96.96s96.96,43.504,96.96,96.96
	S309.456,297.664,256,297.664z M256,135.744c-35.808,0-64.96,29.136-64.96,64.96s29.136,64.96,64.96,64.96s64.96-29.136,64.96-64.96
	S291.808,135.744,256,135.744z"/>
<g>
	<path style="fill:#E5E5E5;" d="M175.056,111.264c-8.832,0-16-7.152-16-16V42.752c0-8.848,7.168-16,16-16s16,7.152,16,16v52.512
		C191.056,104.112,183.888,111.264,175.056,111.264z"/>
	<path style="fill:#E5E5E5;" d="M256,85.024c-8.832,0-16-7.152-16-16V16.48c0-8.848,7.168-16,16-16s16,7.152,16,16v52.528
		C272,77.856,264.832,85.024,256,85.024z"/>
	<path style="fill:#E5E5E5;" d="M336.96,111.264c-8.832,0-16-7.152-16-16V42.752c0-8.848,7.168-16,16-16s16,7.152,16,16v52.512
		C352.96,104.112,345.792,111.264,336.96,111.264z"/>
</g>
<g style="opacity:0.5;">
	<path style="fill:#FFFFFF;" d="M298.064,277.264c-2.656,0-5.264-1.328-6.784-3.728c-2.352-3.744-1.232-8.688,2.512-11.024
		c21.376-13.472,34.144-36.56,34.144-61.792c0-40.224-32.72-72.96-72.944-72.96c-17.904,0-35.104,6.544-48.464,18.432
		c-3.312,2.912-8.368,2.624-11.296-0.672c-2.944-3.296-2.64-8.368,0.656-11.296c16.304-14.48,37.296-22.464,59.104-22.464
		c49.04,0,88.944,39.904,88.944,88.96c0,30.768-15.552,58.928-41.616,75.328C301.008,276.88,299.52,277.264,298.064,277.264z"/>
</g>
<g>
</g>
<g>
</g>
<g>
</g>
<g>
</g>
<g>
</g>
<g>
</g>
<g>
</g>
<g>
</g>
<g>
</g>
<g>
</g>
<g>
</g>
<g>
</g>
<g>
</g>
<g>
</g>
<g>
</g>
</svg>
