<?xml version="1.0" encoding="iso-8859-1"?>
<!-- Generator: Adobe Illustrator 19.0.0, SVG Export Plug-In . SVG Version: 6.00 Build 0)  -->
<svg version="1.1" id="Capa_1" xmlns="http://www.w3.org/2000/svg" xmlns:xlink="http://www.w3.org/1999/xlink" x="0px" y="0px"
	 viewBox="0 0 512.001 512.001" style="enable-background:new 0 0 512.001 512.001;" xml:space="preserve">
<g>
	<path style="fill:#1E608B;" d="M0,137.337v237.325c0,5.531,4.484,10.016,10.016,10.016h491.969c5.531,0,10.016-4.484,10.016-10.016
		V137.337c0-5.532-4.484-10.016-10.016-10.016H10.016C4.484,127.322,0,131.806,0,137.337z"/>
	<path style="fill:#1E608B;" d="M512,264.241V137.337c0-5.531-4.484-10.016-10.016-10.016H10.016C4.484,127.322,0,131.806,0,137.337
		v126.904H512z"/>
</g>
<path style="fill:#135370;" d="M501.984,127.322h-43.956v101.617c0,8.555-6.935,15.49-15.49,15.49H0v19.813h512V137.337
	C512,131.806,507.516,127.322,501.984,127.322z"/>
<rect x="50.2" y="264.24" style="fill:#F2EBDA;" width="41.16" height="120.44"/>
<rect x="91.36" y="264.24" style="fill:#DBDBDB;" width="41.16" height="120.44"/>
<rect x="132.52" y="264.24" style="fill:#F2EBDA;" width="41.16" height="120.44"/>
<rect x="173.68" y="264.24" style="fill:#DBDBDB;" width="41.16" height="120.44"/>
<rect x="214.84" y="264.24" style="fill:#F2EBDA;" width="41.16" height="120.44"/>
<rect x="256" y="264.24" style="fill:#DBDBDB;" width="41.16" height="120.44"/>
<rect x="297.16" y="264.24" style="fill:#F2EBDA;" width="41.16" height="120.44"/>
<rect x="338.32" y="264.24" style="fill:#DBDBDB;" width="41.16" height="120.44"/>
<rect x="379.48" y="264.24" style="fill:#F2EBDA;" width="41.16" height="120.44"/>
<rect x="420.64" y="264.24" style="fill:#DBDBDB;" width="41.16" height="120.44"/>
<g>
	<path style="fill:#424242;" d="M106.632,264.241H76.097v60.461c0,4.2,3.405,7.605,7.605,7.605h15.325
		c4.2,0,7.605-3.405,7.605-7.605V264.241z"/>
	<path style="fill:#424242;" d="M188.95,264.241h-30.535v60.461c0,4.2,3.405,7.605,7.605,7.605h15.325
		c4.2,0,7.605-3.405,7.605-7.605L188.95,264.241L188.95,264.241z"/>
	<path style="fill:#424242;" d="M271.268,264.241h-30.535v60.461c0,4.2,3.405,7.605,7.605,7.605h15.325
		c4.2,0,7.605-3.405,7.605-7.605V264.241z"/>
	<path style="fill:#424242;" d="M353.585,264.241H323.05v60.461c0,4.2,3.405,7.605,7.605,7.605h15.325
		c4.2,0,7.605-3.405,7.605-7.605L353.585,264.241L353.585,264.241z"/>
	<path style="fill:#424242;" d="M435.903,264.241h-30.535v60.461c0,4.2,3.405,7.605,7.605,7.605h15.325
		c4.2,0,7.605-3.405,7.605-7.605L435.903,264.241L435.903,264.241z"/>
</g>
<path style="fill:#F2EBDA;" d="M438.669,222.31H253.422c-3.507,0-6.35-2.843-6.35-6.35v-47.577c0-3.507,2.843-6.35,6.35-6.35
	h185.247c3.507,0,6.35,2.843,6.35,6.35v47.577C445.019,219.467,442.176,222.31,438.669,222.31z"/>
<path style="fill:#DBDBDB;" d="M438.669,192.171H253.422c-3.507,0-6.35-2.843-6.35-6.35v30.139c0,3.507,2.843,6.35,6.35,6.35
	h185.247c3.507,0,6.35-2.843,6.35-6.35v-30.139C445.019,189.328,442.176,192.171,438.669,192.171z"/>
<g>
	<path style="fill:#135370;" d="M175.606,230.036c-4.267,0-7.726-3.459-7.726-7.726v-60.278c0-4.267,3.459-7.726,7.726-7.726
		s7.726,3.459,7.726,7.726v60.278C183.332,226.577,179.873,230.036,175.606,230.036z"/>
	<path style="fill:#135370;" d="M124.378,230.036c-4.267,0-7.726-3.459-7.726-7.726v-60.278c0-4.267,3.459-7.726,7.726-7.726
		c4.267,0,7.726,3.459,7.726,7.726v60.278C132.105,226.577,128.645,230.036,124.378,230.036z"/>
	<path style="fill:#135370;" d="M71.582,230.036c-4.267,0-7.726-3.459-7.726-7.726v-60.278c0-4.267,3.459-7.726,7.726-7.726
		s7.726,3.459,7.726,7.726v60.278C79.308,226.577,75.849,230.036,71.582,230.036z"/>
	<path style="fill:#135370;" d="M485.215,384.678h16.769c4.567,0,8.412-3.06,9.617-7.239V264.241h-26.386L485.215,384.678
		L485.215,384.678z"/>
	<polygon style="fill:#135370;" points="23.819,384.678 23.819,384.678 50.205,384.678 50.205,264.241 23.819,264.241 	"/>
</g>
<g>
	<path style="fill:#9AD9D4;" d="M187.71,181.085h-24.209c-4.267,0-7.726-3.459-7.726-7.726s3.459-7.726,7.726-7.726h24.209
		c4.267,0,7.726,3.459,7.726,7.726S191.977,181.085,187.71,181.085z"/>
	<path style="fill:#9AD9D4;" d="M136.483,209.887h-24.209c-4.267,0-7.726-3.459-7.726-7.726s3.459-7.726,7.726-7.726h24.209
		c4.267,0,7.726,3.459,7.726,7.726S140.75,209.887,136.483,209.887z"/>
	<path style="fill:#9AD9D4;" d="M83.686,181.085H59.477c-4.267,0-7.726-3.459-7.726-7.726s3.459-7.726,7.726-7.726h24.209
		c4.267,0,7.726,3.459,7.726,7.726S87.953,181.085,83.686,181.085z"/>
</g>
<g>
</g>
<g>
</g>
<g>
</g>
<g>
</g>
<g>
</g>
<g>
</g>
<g>
</g>
<g>
</g>
<g>
</g>
<g>
</g>
<g>
</g>
<g>
</g>
<g>
</g>
<g>
</g>
<g>
</g>
</svg>
