<?xml version="1.0" encoding="iso-8859-1"?>
<!-- Generator: Adobe Illustrator 19.0.0, SVG Export Plug-In . SVG Version: 6.00 Build 0)  -->
<svg version="1.1" id="Capa_1" xmlns="http://www.w3.org/2000/svg" xmlns:xlink="http://www.w3.org/1999/xlink" x="0px" y="0px"
	 viewBox="0 0 512 512" style="enable-background:new 0 0 512 512;" xml:space="preserve">
<polygon style="fill:#E95454;" points="250.368,83.104 324.304,157.056 324.304,9.168 "/>
<path style="fill:#ED6362;" d="M323.712,83.264V112.8c98.56-5.344,165.648,61.504,179.456,150.224
	C501.712,164.432,422.24,84.88,323.712,83.264z"/>
<path style="fill:#E95454;" d="M323.712,53.392v29.872c98.528,1.616,178,81.184,179.456,179.744
	c0.272,1.712,0.432,2.736,0.432,2.736C509.232,160.656,447.6,72.768,323.712,53.392z"/>
<polygon style="fill:#3789C9;" points="261.632,428.896 187.696,354.944 187.696,502.832 "/>
<path style="fill:#4B9FD8;" d="M188.288,428.736V399.2C99.936,404,24.528,349.904,8.832,248.976
	C10.288,347.568,89.76,427.12,188.288,428.736z"/>
<path style="fill:#3789C9;" d="M51.296,385.984c45.744,50.16,81.696,63.984,136.992,72.624v-29.872
	c-98.528-1.616-178-81.168-179.472-179.744c-0.272-1.712-0.432-2.736-0.432-2.736C7.248,267.728-1.296,315.216,51.296,385.984z"/>
<g>
	<circle style="fill:#FDBC4B;" cx="115.84" cy="115.84" r="115.84"/>
	<circle style="fill:#FDBC4B;" cx="396.16" cy="396.16" r="115.84"/>
</g>
<g>
	<circle style="fill:#EC9922;" cx="396.16" cy="396.16" r="79.584"/>
	<circle style="fill:#EC9922;" cx="115.84" cy="115.84" r="79.584"/>
</g>
<g>
	<path style="fill:#FFFFFF;" d="M110.848,149.568v-29.904c-9.328-2.672-16.176-6.704-20.528-12.096
		c-4.352-5.408-6.528-11.952-6.528-19.664c0-7.808,2.464-14.368,7.392-19.664c4.928-5.312,11.488-8.368,19.664-9.168V52H121.2v7.072
		c7.568,0.912,13.584,3.488,18.064,7.744c4.48,4.256,7.328,9.952,8.56,17.104l-18.064,2.336c-1.088-5.616-3.952-9.424-8.56-11.424
		v27.904c11.424,3.088,19.2,7.104,23.344,12.032s6.208,11.248,6.208,18.96c0,8.608-2.608,15.872-7.824,21.776
		s-12.464,9.52-21.744,10.848v9.584h-10.336v-9.232c-8.24-1.008-14.912-4.064-20.064-9.216c-5.136-5.136-8.416-12.384-9.84-21.76
		l18.64-2c0.752,3.808,2.176,7.088,4.272,9.856C105.952,146.336,108.272,148.336,110.848,149.568z M110.848,74.624
		c-2.8,0.96-5.04,2.576-6.704,4.848c-1.664,2.288-2.512,4.816-2.512,7.568c0,2.528,0.768,4.864,2.288,7.024
		c1.52,2.176,3.84,3.92,6.928,5.264V74.624z M121.2,150.576c3.568-0.672,6.464-2.32,8.704-4.96c2.24-2.64,3.36-5.744,3.36-9.312
		c0-3.184-0.944-5.936-2.816-8.24c-1.888-2.304-4.96-4.08-9.248-5.312V150.576z"/>
	<path style="fill:#FFFFFF;" d="M427.488,428.128l7.712,16.992c-2.72,1.472-5.84,2.672-9.392,3.6s-6.976,1.392-10.32,1.392
		c-4.288,0-10-1.008-17.136-3.04s-12.416-3.04-15.84-3.04c-5.808,0-11.728,2.064-17.776,6.208l-7.632-17.28
		c5.376-3.856,9.248-7.968,11.6-12.32c2.352-4.352,3.536-8.512,3.536-12.464c0-1.28-0.096-2.64-0.288-4.064h-14.848v-15.776h11.216
		c-1.952-5.616-2.928-11.296-2.928-17.056c0-5.184,1.424-10.144,4.256-14.848c2.832-4.72,6.848-8.288,12.032-10.736
		s10.848-3.68,16.992-3.68c9.376,0,16.848,2.368,22.416,7.104s8.976,11.536,10.208,20.384l-19.344,2.848
		c-0.896-5.088-2.544-8.752-4.928-10.992s-5.36-3.36-8.928-3.36c-3.808,0-6.976,1.28-9.488,3.824
		c-2.528,2.544-3.776,5.744-3.776,9.6c0,2,0.352,4.64,1.04,7.92c0.688,3.28,1.536,6.288,2.528,8.992h22.272v15.776H391.68
		c0.144,1.056,0.208,2.096,0.208,3.136c0,3.76-0.72,7.232-2.144,10.416c-1.424,3.184-4.352,7.376-8.784,12.56
		c2.624-1.328,5.904-2,9.856-2c1.664,0,3.168,0.096,4.496,0.288c0.672,0.096,2.624,0.544,5.856,1.36
		c5.76,1.472,9.68,2.208,11.776,2.208C416.64,432.128,421.488,430.8,427.488,428.128z"/>
</g>
<g>
</g>
<g>
</g>
<g>
</g>
<g>
</g>
<g>
</g>
<g>
</g>
<g>
</g>
<g>
</g>
<g>
</g>
<g>
</g>
<g>
</g>
<g>
</g>
<g>
</g>
<g>
</g>
<g>
</g>
</svg>
