<?xml version="1.0" encoding="iso-8859-1"?>
<!-- Generator: Adobe Illustrator 19.0.0, SVG Export Plug-In . SVG Version: 6.00 Build 0)  -->
<svg version="1.1" id="Capa_1" xmlns="http://www.w3.org/2000/svg" xmlns:xlink="http://www.w3.org/1999/xlink" x="0px" y="0px"
	 viewBox="0 0 512 512" style="enable-background:new 0 0 512 512;" xml:space="preserve">
<path style="fill:#FEC93E;" d="M243.305,509.734c-3.021-3.021-3.021-7.919,0-10.94l12.517-12.517c3.021-3.021,7.919-3.021,10.94,0
	s3.021,7.919,0,10.94l-12.517,12.517C251.224,512.755,246.326,512.755,243.305,509.734z"/>
<path style="fill:#FD6E2E;" d="M69.834,473.382l-4.795-4.795c-22.299-22.299-22.299-58.582,0-80.881l10.797-10.797
	c3.021-3.021,7.919-3.021,10.94,0c3.021,3.021,3.021,7.919,0,10.94l-10.797,10.797c-16.267,16.267-16.267,42.734,0,59.001
	l4.795,4.795c16.267,16.267,42.735,16.267,59.001,0l82.289-82.289c22.299-22.299,58.582-22.299,80.881,0s22.299,58.582,0,80.881
	l-24.936,24.936c-3.021,3.021-7.919,3.021-10.94,0s-3.021-7.919,0-10.94l24.936-24.936c16.267-16.267,16.267-42.734,0-59.001
	s-42.734-16.267-59.001,0l-82.289,82.289C128.417,495.681,92.134,495.681,69.834,473.382z"/>
<path style="fill:#1E608B;" d="M74.732,401.889l-12.936-12.936c-2.531-2.531-2.67-6.591-0.317-9.289l47.366-54.307l29.483,29.483
	l-54.307,47.366C81.323,404.558,77.264,404.42,74.732,401.889z"/>
<path style="fill:#135370;" d="M68.264,395.421l6.468,6.468c2.531,2.531,6.591,2.67,9.289,0.317l54.307-47.366l-14.741-14.741
	L68.264,395.421z"/>
<path style="fill:#9AD9D4;" d="M128.186,373.158L387.72,149.49l-2.211-1.276c-29.095-16.785-53.252-40.943-70.038-70.038
	l-1.276-2.211L90.526,335.499c-3.595,4.171-3.363,10.409,0.53,14.302l22.828,22.828
	C117.778,376.522,124.015,376.753,128.186,373.158z"/>
<path style="fill:#6FCEC3;" d="M113.884,372.628c3.894,3.893,10.131,4.125,14.302,0.53L387.72,149.49l-2.211-1.276
	c-14.548-8.393-27.861-18.628-39.635-30.403L102.47,361.215L113.884,372.628z"/>
<path style="fill:#1E608B;" d="M437.371,26.314c-35.085-35.085-91.97-35.085-127.055,0c-72.841,72.841-37.638,101.694-6.139,133.193
	c32.841,32.841,60.352,66.703,133.193-6.139C472.456,118.283,472.456,61.399,437.371,26.314z"/>
<path style="fill:#135370;" d="M437.371,26.314c-6.658-6.658-14.101-12.049-22.031-16.18c17.639,33.859,12.248,76.596-16.18,105.024
	c-58.158,58.158-87.419,48.294-113.567,25.24c5.735,6.517,12.235,12.759,18.584,19.109c32.841,32.841,60.352,66.703,133.193-6.139
	C472.456,118.283,472.456,61.399,437.371,26.314z"/>
<g>
	<circle style="fill:#1E608B;" cx="264.57" cy="199.11" r="20.235"/>
	<path style="fill:#1E608B;" d="M259.399,502.071l-8.431-8.431c-2.449-2.449-2.721-6.329-0.637-9.096l14.031-18.632
		c2.541-3.374,7.48-3.72,10.467-0.733l13.031,13.031c2.987,2.987,2.641,7.926-0.733,10.467l-18.632,14.031
		C265.728,504.793,261.848,504.521,259.399,502.071z"/>
</g>
<g>
</g>
<g>
</g>
<g>
</g>
<g>
</g>
<g>
</g>
<g>
</g>
<g>
</g>
<g>
</g>
<g>
</g>
<g>
</g>
<g>
</g>
<g>
</g>
<g>
</g>
<g>
</g>
<g>
</g>
</svg>
