<?xml version="1.0" encoding="iso-8859-1"?>
<!-- Generator: Adobe Illustrator 19.0.0, SVG Export Plug-In . SVG Version: 6.00 Build 0)  -->
<svg version="1.1" id="Capa_1" xmlns="http://www.w3.org/2000/svg" xmlns:xlink="http://www.w3.org/1999/xlink" x="0px" y="0px"
	 viewBox="0 0 512.176 512.176" style="enable-background:new 0 0 512.176 512.176;" xml:space="preserve">
<path style="fill:#CACACA;" d="M480.064,279.952h-448c-17.68,0-32-14.32-32-32V32c0-17.68,14.32-32,32-32h448
	c17.68,0,32,14.32,32,32v215.968C512.064,265.632,497.744,279.952,480.064,279.952z"/>
<path style="fill:#F3F3F3;" d="M448.064,31.984h-384c0,17.68-14.32,32-32,32v151.968c17.68,0,32,14.32,32,32h384
	c0-17.68,14.336-32,32-32V63.984C462.4,63.984,448.064,49.664,448.064,31.984z"/>
<path style="fill:#E5E5E5;" d="M448.064,31.984h-67.376c-8.048,0-15.536,5.504-16.8,13.456c-1.6,10.064,6.128,18.752,15.888,18.752
	h21.36c7.856,0,14.208,6.416,14.112,14.272V78.8c0,0.304,0.016,0.608,0.032,0.928c0.416,7.52-5.536,13.696-13.072,13.696h-11.504
	c-8.048,0-15.536,5.504-16.8,13.456c-1.6,10.064,6.128,18.752,15.888,18.752h22.016c7.536,0,13.44,6.32,13.056,13.856
	c-0.016,0.256-0.016,0.512-0.016,0.768c0,0.208,0,0.416,0.016,0.624c0.304,7.584-5.472,13.984-13.056,13.984h-51.472
	c-8.048,0-15.536,5.504-16.8,13.44c-1.6,10.064,6.128,18.752,15.888,18.752h19.056c7.664,0,13.904,6.272,13.872,13.936v0.176
	c0,0.304,0.016,0.624,0.032,0.928c0.416,7.52-5.536,13.696-13.072,13.696h-7.232c-8.048,0-15.536,5.504-16.8,13.44
	c-1.6,10.064,6.128,18.752,15.888,18.752h76.896c0-17.68,14.336-32,32-32v-152C462.4,63.984,448.064,49.664,448.064,31.984z"/>
<ellipse style="fill:#787878;" cx="256.064" cy="139.984" rx="58.896" ry="79.168"/>
<path style="fill:#FFFFFF;" d="M251.92,170.384v-24.832c-7.744-2.208-13.424-5.568-17.04-10.048
	c-3.616-4.48-5.424-9.936-5.424-16.336c0-6.48,2.048-11.92,6.128-16.336c4.096-4.4,9.536-6.944,16.336-7.616V89.36h8.592v5.872
	c6.288,0.752,11.28,2.896,14.992,6.432c3.712,3.536,6.08,8.272,7.104,14.192l-14.992,1.952c-0.912-4.656-3.28-7.824-7.104-9.488
	v23.168c9.488,2.576,15.952,5.904,19.376,9.984c3.44,4.096,5.152,9.328,5.152,15.744c0,7.152-2.16,13.184-6.496,18.08
	c-4.32,4.896-10.336,7.904-18.048,9.008v6.272h-8.592v-5.968c-6.832-0.832-12.384-3.376-16.656-7.648
	c-4.272-4.272-6.992-10.288-8.176-18.08l15.472-1.664c0.624,3.168,1.824,5.888,3.552,8.176
	C247.84,167.696,249.776,169.36,251.92,170.384z M251.92,108.16c-2.336,0.784-4.192,2.128-5.568,4.032
	c-1.376,1.888-2.08,3.984-2.08,6.288c0,2.096,0.64,4.048,1.904,5.84c1.264,1.792,3.184,3.248,5.744,4.352L251.92,108.16
	L251.92,108.16z M260.512,171.216c2.96-0.544,5.376-1.92,7.232-4.112s2.784-4.768,2.784-7.728c0-2.64-0.784-4.928-2.336-6.848
	c-1.568-1.92-4.128-3.392-7.68-4.416V171.216z"/>
<g>
	<circle style="fill:#787878;" cx="143.728" cy="139.984" r="21.888"/>
	<circle style="fill:#787878;" cx="368.384" cy="139.984" r="21.888"/>
</g>
<path style="fill:#EC9922;" d="M483.6,430.352c-19.888-9.888-48.752-16.08-80.896-16.08c-32.016,0-60.864,6.192-80.768,16.08
	h-28.464v32.944c0,27.008,48.88,48.88,109.232,48.88c60.48,0,109.36-21.872,109.36-48.88v-32.944H483.6z"/>
<ellipse style="fill:#FEE218;" cx="402.784" cy="430.288" rx="109.328" ry="48.928"/>
<path style="fill:#EC9922;" d="M483.6,381.408c-19.888-9.888-48.752-16.08-80.896-16.08c-32.016,0-60.864,6.192-80.768,16.08
	h-28.464v32.944c0,27.008,48.88,48.88,109.232,48.88c60.48,0,109.36-21.872,109.36-48.88v-32.944H483.6z"/>
<ellipse style="fill:#FEE218;" cx="402.784" cy="381.36" rx="109.328" ry="48.944"/>
<path style="fill:#EC9922;" d="M483.6,332.48c-19.888-9.888-48.752-16.08-80.896-16.08c-32.016,0-60.864,6.192-80.768,16.08h-28.464
	v32.944c0,27.008,48.88,48.88,109.232,48.88c60.48,0,109.36-21.872,109.36-48.88V332.48H483.6z"/>
<ellipse style="fill:#FEE218;" cx="402.784" cy="332.416" rx="109.328" ry="48.928"/>
<path style="fill:#EC9922;" d="M483.6,283.536c-19.888-9.888-48.752-16.08-80.896-16.08c-32.016,0-60.864,6.192-80.768,16.08
	h-28.464v32.944c0,27.008,48.88,48.88,109.232,48.88c60.48,0,109.36-21.872,109.36-48.88v-32.944H483.6z"/>
<ellipse style="fill:#FEE218;" cx="402.784" cy="283.488" rx="109.328" ry="48.944"/>
<path style="fill:#EC9922;" d="M483.6,234.608c-19.888-9.888-48.752-16.08-80.896-16.08c-32.016,0-60.864,6.192-80.768,16.08
	h-28.464v32.944c0,27.008,48.88,48.88,109.232,48.88c60.48,0,109.36-21.872,109.36-48.88v-32.944L483.6,234.608L483.6,234.608z"/>
<ellipse style="fill:#F99F3C;" cx="402.784" cy="234.544" rx="109.328" ry="48.928"/>
<path style="fill:#FEE218;" d="M402.736,267.488c-60.384,0-93.328-21.76-93.328-32.944c0-11.168,32.944-32.944,93.328-32.944
	s93.328,21.776,93.328,32.96C496.064,245.728,463.12,267.488,402.736,267.488z"/>
<path style="fill:#EC9922;" d="M398.624,248.992v-14.384c-7.744-1.28-13.424-3.216-17.04-5.824
	c-3.616-2.592-5.424-5.744-5.424-9.456c0-3.76,2.048-6.912,6.128-9.456c4.096-2.56,9.536-4.016,16.336-4.416v-3.392h8.592v3.392
	c6.288,0.432,11.28,1.68,14.992,3.728s6.08,4.784,7.104,8.224l-14.992,1.136c-0.912-2.704-3.28-4.528-7.12-5.488v13.424
	c9.488,1.488,15.952,3.424,19.376,5.792c3.44,2.368,5.152,5.408,5.152,9.12c0,4.144-2.16,7.632-6.496,10.48
	c-4.336,2.848-10.352,4.576-18.048,5.216v3.632h-8.56v-3.456c-6.832-0.48-12.384-1.952-16.656-4.432
	c-4.272-2.48-6.992-5.968-8.176-10.48l15.472-0.96c0.64,1.824,1.824,3.408,3.552,4.736C394.544,247.44,396.48,248.4,398.624,248.992
	z M398.624,212.944c-2.336,0.464-4.192,1.232-5.568,2.336c-1.392,1.104-2.08,2.304-2.08,3.632c0,1.216,0.624,2.336,1.888,3.376
	c1.264,1.04,3.184,1.888,5.744,2.528v-11.872H398.624z M407.216,249.472c2.96-0.32,5.376-1.12,7.232-2.384s2.784-2.768,2.784-4.48
	c0-1.536-0.784-2.848-2.336-3.968c-1.568-1.104-4.112-1.968-7.68-2.56V249.472z"/>
<g style="opacity:0.15;">
	<path style="fill:#010101;" d="M293.472,293.344v23.136c0,2.688,0.608,5.312,1.552,7.888c-0.976,2.624-1.6,5.312-1.6,8.064
		c0,0.192,0.048,0.368,0.064,0.544v32.448c0,2.688,0.608,5.312,1.552,7.888c-0.976,2.624-1.6,5.312-1.6,8.064
		c0,0.176,0.048,0.352,0.064,0.544v32.448c0,2.688,0.608,5.312,1.552,7.872c-0.976,2.624-1.6,5.312-1.6,8.064
		c0,0.192,0.048,0.368,0.064,0.544v32.448c0,13.888,12.992,26.4,33.76,35.296c26.032-22.352,42.608-55.408,42.608-92.336
		C369.84,355.152,338.176,311.376,293.472,293.344z"/>
</g>
<circle style="fill:#F99F3C;" cx="248.096" cy="406.24" r="105.76"/>
<circle style="fill:#FEE218;" cx="248.096" cy="406.24" r="73.824"/>
<path style="fill:#EC9922;" d="M243.952,436.64v-24.832c-7.744-2.208-13.424-5.568-17.04-10.048
	c-3.616-4.48-5.424-9.936-5.424-16.336c0-6.48,2.048-11.92,6.128-16.336c4.096-4.4,9.536-6.944,16.336-7.616V355.6h8.592v5.872
	c6.288,0.752,11.28,2.896,14.992,6.432c3.712,3.536,6.08,8.272,7.104,14.192l-14.992,1.984c-0.912-4.656-3.28-7.824-7.12-9.488
	v23.168c9.488,2.56,15.952,5.904,19.376,9.984c3.44,4.096,5.152,9.328,5.152,15.744c0,7.152-2.16,13.184-6.496,18.08
	c-4.32,4.896-10.336,7.904-18.048,9.008v6.272h-8.592v-5.968c-6.832-0.832-12.384-3.376-16.656-7.648s-6.992-10.288-8.176-18.08
	l15.472-1.664c0.64,3.168,1.824,5.888,3.552,8.176C239.872,433.968,241.808,435.616,243.952,436.64z M243.952,374.416
	c-2.336,0.784-4.192,2.128-5.568,4.032c-1.376,1.888-2.08,3.984-2.08,6.288c0,2.096,0.64,4.048,1.888,5.84
	c1.264,1.792,3.184,3.248,5.744,4.352v-20.512H243.952z M252.544,437.472c2.96-0.56,5.376-1.92,7.232-4.128
	c1.856-2.192,2.784-4.768,2.784-7.728c0-2.656-0.784-4.928-2.336-6.848c-1.552-1.92-4.112-3.392-7.68-4.416L252.544,437.472
	L252.544,437.472z"/>
<g style="opacity:0.25;">
	<path style="fill:#FFFFFF;" d="M474.128,376.4c-8.832,0-16,7.152-16,16v86.016c0,8.848,7.168,16,16,16s16-7.152,16-16V392.4
		C490.128,383.552,482.96,376.4,474.128,376.4z"/>
	<path style="fill:#FFFFFF;" d="M474.128,297.504c-8.832,0-16,7.152-16,16v31.264c0,8.848,7.168,16,16,16s16-7.152,16-16v-31.264
		C490.128,304.672,482.96,297.504,474.128,297.504z"/>
</g>
<g>
</g>
<g>
</g>
<g>
</g>
<g>
</g>
<g>
</g>
<g>
</g>
<g>
</g>
<g>
</g>
<g>
</g>
<g>
</g>
<g>
</g>
<g>
</g>
<g>
</g>
<g>
</g>
<g>
</g>
</svg>
