<?xml version="1.0" encoding="iso-8859-1"?>
<!-- Generator: Adobe Illustrator 19.0.0, SVG Export Plug-In . SVG Version: 6.00 Build 0)  -->
<svg version="1.1" id="Capa_1" xmlns="http://www.w3.org/2000/svg" xmlns:xlink="http://www.w3.org/1999/xlink" x="0px" y="0px"
	 viewBox="0 0 512.001 512.001" style="enable-background:new 0 0 512.001 512.001;" xml:space="preserve">
<path style="fill:#FD6E2E;" d="M509.568,183.195l-8.528-8.528c-2.664-2.664-6.735-3.107-10.044-1.307
	c-8.253,4.487-18.795,3.241-25.776-3.74c-6.98-6.98-8.227-17.523-3.74-25.776c1.8-3.31,1.356-7.38-1.307-10.044l-20.553-20.553
	c-2.664-2.664-6.735-3.107-10.045-1.308c-8.253,4.487-18.795,3.241-25.776-3.739c-6.98-6.98-8.227-17.523-3.74-25.776
	c1.799-3.31,1.356-7.381-1.308-10.044L378.2,51.827c-2.664-2.664-6.735-3.107-10.044-1.308c-8.253,4.487-18.795,3.241-25.776-3.739
	c-6.98-6.98-8.227-17.523-3.74-25.776c1.8-3.31,1.356-7.381-1.307-10.044l-8.528-8.528c-3.243-3.243-8.501-3.243-11.743,0
	L270.47,49.024l0,0l10.749,10.749c3.07,3.07,3.07,8.049,0,11.12c-1.536,1.535-3.549,2.303-5.56,2.303
	c-2.012,0-4.025-0.768-5.56-2.303L259.35,60.145L2.432,317.062c-3.243,3.243-3.243,8.5,0,11.743l8.565,8.565
	c2.65,2.65,6.697,3.105,10,1.333c8.236-4.418,18.716-3.155,25.665,3.795c6.95,6.95,8.214,17.43,3.795,25.666
	c-1.772,3.303-1.318,7.35,1.333,10l20.626,20.626c2.65,2.65,6.697,3.105,10,1.333c8.236-4.418,18.716-3.154,25.666,3.795
	c6.95,6.95,8.213,17.429,3.795,25.665c-1.772,3.303-1.318,7.35,1.333,10l20.626,20.626c2.65,2.651,6.697,3.105,10,1.333
	c8.236-4.418,18.716-3.155,25.666,3.795s8.213,17.429,3.795,25.665c-1.772,3.303-1.318,7.35,1.333,10l8.565,8.565
	c3.243,3.243,8.5,3.243,11.743,0L451.856,252.65l0,0l-10.749-10.749c-3.07-3.07-3.07-8.049,0-11.12c3.071-3.07,8.049-3.07,11.121,0
	l10.749,10.749l46.592-46.592C512.811,191.695,512.811,186.437,509.568,183.195z M328.616,118.288
	c-1.536,1.535-3.549,2.303-5.56,2.303c-2.012,0-4.025-0.767-5.559-2.303L298.92,99.715c-3.07-3.07-3.07-8.049,0-11.12
	c3.071-3.07,8.05-3.07,11.12,0l18.575,18.574C331.686,110.239,331.686,115.218,328.616,118.288z M376.01,165.684
	c-1.536,1.535-3.549,2.303-5.56,2.303s-4.025-0.768-5.56-2.303l-18.574-18.574c-3.07-3.07-3.07-8.049,0-11.12
	c3.071-3.07,8.049-3.07,11.121,0l18.574,18.574C379.081,157.635,379.081,162.613,376.01,165.684z M423.405,213.079
	c-1.536,1.535-3.549,2.303-5.56,2.303c-2.012,0-4.025-0.768-5.56-2.303l-18.574-18.574c-3.07-3.07-3.07-8.049,0-11.12
	c3.071-3.07,8.049-3.07,11.121,0l18.574,18.574C426.476,205.03,426.476,210.009,423.405,213.079z"/>
<path style="fill:#F45721;" d="M509.568,183.195l-8.528-8.528c-1.665-1.665-3.88-2.463-6.114-2.387
	c-1.341,0.045-2.689,0.405-3.93,1.079c-5.874,3.194-12.903,3.467-18.987,0.852c-2.464-1.059-4.777-2.579-6.789-4.591
	c-0.39-0.39-0.757-0.796-1.111-1.207c-0.151-0.176-0.294-0.358-0.438-0.538c-0.182-0.226-0.36-0.454-0.532-0.685
	c-0.179-0.243-0.355-0.487-0.523-0.735c-0.107-0.157-0.208-0.317-0.311-0.476c-0.19-0.297-0.381-0.595-0.556-0.899l0,0
	c-3.768-6.543-3.864-14.623-0.268-21.236c1.8-3.31,1.356-7.381-1.307-10.044l-20.553-20.553c-2.664-2.664-6.735-3.107-10.045-1.307
	c-8.253,4.487-18.795,3.241-25.776-3.74c-6.98-6.98-8.227-17.523-3.74-25.776c1.799-3.31,1.356-7.38-1.308-10.044L378.2,51.827
	c-2.664-2.664-6.735-3.107-10.044-1.308c-8.253,4.487-18.795,3.241-25.776-3.739c-6.98-6.98-8.227-17.523-3.74-25.776
	c1.8-3.31,1.357-7.381-1.307-10.044l-8.528-8.528c-3.243-3.243-8.501-3.243-11.743,0L270.47,49.024l0,0l10.749,10.749
	c2.991,2.99,3.06,7.786,0.225,10.871L299.17,88.37c3.086-2.834,7.881-2.765,10.87,0.225l18.575,18.574
	c2.991,2.991,3.06,7.786,0.224,10.871l17.725,17.725c3.086-2.834,7.88-2.765,10.871,0.225l18.574,18.574
	c2.991,2.991,3.06,7.786,0.225,10.871l17.725,17.725c3.086-2.834,7.88-2.765,10.871,0.226l18.574,18.574
	c0.25,0.25,0.472,0.516,0.681,0.789c0.976,1.274,1.504,2.778,1.596,4.303c0.005,0.094,0.016,0.189,0.018,0.283
	c0.002,0.072-0.004,0.144-0.004,0.216c-0.001,0.175-0.002,0.35-0.015,0.524c-0.003,0.037-0.009,0.075-0.012,0.112
	c-0.018,0.209-0.041,0.418-0.076,0.626c-0.003,0.016-0.007,0.033-0.01,0.049c-0.04,0.228-0.088,0.456-0.148,0.681
	c-0.001,0.003-0.002,0.005-0.002,0.008c-0.318,1.189-0.92,2.318-1.804,3.28l0.001,0.001c-0.076,0.082-0.146,0.168-0.226,0.248
	c-1.536,1.535-3.549,2.303-5.56,2.303c-1.686,0-3.368-0.547-4.774-1.625L164.962,461.867c1.622,0.934,3.153,2.084,4.54,3.471
	c6.95,6.95,8.214,17.429,3.795,25.665c-1.772,3.303-1.318,7.35,1.333,10l8.565,8.565c3.243,3.243,8.5,3.243,11.743,0L451.856,252.65
	l0,0l-10.749-10.749c-3.07-3.07-3.07-8.049,0-11.12c0.08-0.08,0.167-0.149,0.249-0.225l0,0c0.964-0.886,2.095-1.488,3.286-1.806
	c0.001,0,0.001,0,0.002,0c0.235-0.063,0.473-0.114,0.713-0.155c0.01-0.002,0.019-0.003,0.029-0.004
	c0.23-0.038,0.462-0.066,0.693-0.084c0.023-0.002,0.046-0.002,0.069-0.003c0.219-0.015,0.438-0.022,0.657-0.018
	c0.039,0.001,0.079,0.004,0.118,0.006c0.204,0.006,0.407,0.018,0.61,0.04c0.056,0.006,0.111,0.017,0.167,0.024
	c0.186,0.024,0.373,0.051,0.557,0.089c0.072,0.015,0.144,0.036,0.216,0.053c0.167,0.039,0.334,0.078,0.499,0.129
	c0.09,0.027,0.178,0.062,0.267,0.093c0.146,0.05,0.292,0.099,0.435,0.158c0.103,0.043,0.204,0.095,0.306,0.142
	c0.126,0.058,0.253,0.113,0.376,0.179c0.117,0.062,0.229,0.134,0.343,0.203c0.105,0.063,0.212,0.12,0.314,0.188
	c0.134,0.089,0.262,0.19,0.391,0.287c0.078,0.059,0.159,0.112,0.235,0.174c0.203,0.166,0.4,0.343,0.589,0.532l10.749,10.749
	l46.592-46.592C512.811,191.695,512.811,186.437,509.568,183.195z"/>
<path style="fill:#FEC93E;" d="M216.642,429.094L82.906,295.358c-0.904-0.904-0.904-2.37,0-3.274l185.869-185.869
	c0.904-0.904,2.37-0.904,3.274,0l133.736,133.736c0.904,0.904,0.904,2.37,0,3.274L219.917,429.094
	C219.012,429.998,217.546,429.998,216.642,429.094z"/>
<path style="fill:#EFB533;" d="M268.775,106.214l-37.201,37.201l113.628,113.628c0.904,0.904,0.904,2.37,0,3.274L196.534,408.985
	l20.109,20.109c0.904,0.904,2.37,0.904,3.274,0l185.869-185.869c0.904-0.904,0.904-2.37,0-3.274L272.049,106.215
	C271.145,105.31,269.679,105.31,268.775,106.214z"/>
<g>
	<path style="fill:#FFFFFF;" d="M144.587,312.56c-0.403-0.201-0.704-0.503-1.007-0.805c-2.616-2.616-0.703-8.151,2.215-11.069
		c1.811-1.812,3.824-2.617,5.937-1.51l73.963,40.755l-40.856-73.862c-1.107-2.114-0.302-4.126,1.409-5.837
		c3.019-3.019,8.654-4.83,11.17-2.315c0.302,0.302,0.503,0.705,0.704,1.107l45.283,85.134c1.712,3.12-0.1,7.346-3.119,10.365
		c-3.019,3.019-7.144,4.73-10.365,3.12L144.587,312.56z"/>
	<path style="fill:#FFFFFF;" d="M206.876,246.445c-2.414-2.415-0.703-6.138,1.913-8.755c2.717-2.717,6.34-4.327,8.755-1.912
		l66.617,66.617c2.314,2.314,0.905,6.138-1.811,8.855c-2.616,2.616-6.541,4.126-8.855,1.812L206.876,246.445z"/>
	<path style="fill:#FFFFFF;" d="M233.342,219.979c-1.81-1.811-1.81-5.031,0.704-7.547l19.624-19.623
		c12.377-12.378,27.975-16.101,44.177,0.101l0.805,0.805c16.101,16.101,12.277,32.202-0.403,44.881l-12.477,12.478l24.855,24.855
		c2.314,2.314,0.905,6.138-1.812,8.856c-2.616,2.616-6.54,4.126-8.854,1.811L233.342,219.979z M250.047,215.351l27.271,27.271
		l12.478-12.478c7.447-7.447,7.748-16.202-1.107-25.057l-1.207-1.208c-8.856-8.855-17.509-8.453-24.957-1.006L250.047,215.351z"/>
</g>
<g>
</g>
<g>
</g>
<g>
</g>
<g>
</g>
<g>
</g>
<g>
</g>
<g>
</g>
<g>
</g>
<g>
</g>
<g>
</g>
<g>
</g>
<g>
</g>
<g>
</g>
<g>
</g>
<g>
</g>
</svg>
