<?xml version="1.0" encoding="iso-8859-1"?>
<!-- Generator: Adobe Illustrator 19.0.0, SVG Export Plug-In . SVG Version: 6.00 Build 0)  -->
<svg version="1.1" id="Capa_1" xmlns="http://www.w3.org/2000/svg" xmlns:xlink="http://www.w3.org/1999/xlink" x="0px" y="0px"
	 viewBox="0 0 512 512" style="enable-background:new 0 0 512 512;" xml:space="preserve">
<path style="fill:#6F7070;" d="M512,108.192V32.928c0-17.68-14.32-32-32-32H32c-17.68,0-32,14.32-32,32v75.264H512z"/>
<path style="fill:#E5E5E5;" d="M0,479.072c0,17.664,14.336,32,32,32h448c17.68,0,32-14.336,32-32v-370.88H0V479.072z"/>
<rect x="48" y="156.192" style="fill:#F3F3F3;" width="416" height="306.88"/>
<circle style="fill:#FFFFFF;" cx="58.24" cy="54.56" r="20.656"/>
<circle style="fill:#FEE218;" cx="116.56" cy="54.56" r="20.656"/>
<circle style="fill:#8BD5EC;" cx="174.88" cy="54.56" r="20.656"/>
<g style="opacity:0.05;">
	<path style="fill:#FFFFFF;" d="M298.56,54.56c0,8.832,7.152,16,16,16h144.56c8.848,0,16-7.168,16-16s-7.152-16-16-16H314.56
		C305.712,38.56,298.56,45.728,298.56,54.56z"/>
	<path style="fill:#FFFFFF;" d="M232.192,54.56c0,8.832,7.152,16,16,16h18.736c8.848,0,16-7.168,16-16s-7.152-16-16-16h-18.736
		C239.36,38.56,232.192,45.728,232.192,54.56z"/>
</g>
<polygon style="fill:#6F7070;" points="303.552,279.712 271.008,279.712 271.008,312.256 280.112,303.152 297.248,320.272 
	311.568,305.952 294.448,288.816 "/>
<path style="fill:#ED6362;" d="M222.912,357.088H109.28c-17.68,0-32-14.32-32-32v-92.48h177.632v92.48
	C254.912,342.768,240.576,357.088,222.912,357.088z"/>
<path style="fill:#FDBC4B;" d="M166.096,230.496c-2.832,0-5.68-1.088-7.856-3.248l-39.36-39.36c-4.336-4.336-4.336-11.36,0-15.696
	s11.36-4.336,15.696,0l31.504,31.504l31.504-31.504c4.336-4.336,11.36-4.336,15.696,0s4.336,11.36,0,15.696l-39.36,39.36
	C171.776,229.408,168.928,230.496,166.096,230.496z"/>
<path style="fill:#787878;" d="M256.56,197.84H75.632c-9.6,0-17.392,7.776-17.392,17.392l0,0c0,9.6,7.776,17.392,17.392,17.392
	H256.56c9.6,0,17.392-7.776,17.392-17.392l0,0C273.936,205.616,266.16,197.84,256.56,197.84z"/>
<rect x="152.848" y="197.84" style="fill:#FFCC5B;" width="26.48" height="159.248"/>
<path style="fill:#E05B5A;" d="M221.36,232.608c-5.312,0-9.584,4.448-9.312,9.824c0.256,5.04,4.784,8.816,9.84,8.816h7.696
	c4.512,0,7.856,3.776,7.808,8.288c0,0.032,0,0.08,0,0.112s0,0.08,0,0.112c0.048,4.512-3.312,8.288-7.808,8.288H205.76
	c-5.312,0-9.584,4.448-9.312,9.824c0.272,5.04,4.784,8.816,9.84,8.816h6.608c4.56,0,8.256,3.728,8.24,8.288v0.112v0.544
	c0.032,4.336-3.472,7.856-7.808,7.856h-5.104c-5.312,0-9.584,4.448-9.312,9.824c0.272,5.04,4.784,8.816,9.84,8.816h16.512
	c4.256,0,7.632,3.584,7.376,7.824c-0.016,0.192-0.016,0.384-0.016,0.576v0.096c0.016,4.304-3.488,7.84-7.792,7.84h-12.464
	c-5.152,0-9.328,4.176-9.328,9.312c0,5.152,4.176,9.328,9.328,9.328h10.544c17.68,0,32-14.32,32-32v-92.48H221.36V232.608z"/>
<g>
	<path style="fill:#DCDBDB;" d="M433.328,215.008H337.04c-8.832,0-16-7.152-16-16c0-8.848,7.168-16,16-16h96.288
		c8.832,0,16,7.152,16,16C449.328,207.84,442.16,215.008,433.328,215.008z"/>
	<path style="fill:#DCDBDB;" d="M433.328,288.752H337.04c-8.832,0-16-7.152-16-16s7.168-16,16-16h96.288c8.832,0,16,7.152,16,16
		S442.16,288.752,433.328,288.752z"/>
	<path style="fill:#DCDBDB;" d="M433.328,362.512H337.04c-8.832,0-16-7.152-16-16s7.168-16,16-16h96.288c8.832,0,16,7.152,16,16
		S442.16,362.512,433.328,362.512z"/>
	<path style="fill:#DCDBDB;" d="M433.328,436.272H88.672c-8.832,0-16-7.152-16-16s7.168-16,16-16h344.672c8.832,0,16,7.152,16,16
		C449.328,429.104,442.16,436.272,433.328,436.272z"/>
</g>
<g>
</g>
<g>
</g>
<g>
</g>
<g>
</g>
<g>
</g>
<g>
</g>
<g>
</g>
<g>
</g>
<g>
</g>
<g>
</g>
<g>
</g>
<g>
</g>
<g>
</g>
<g>
</g>
<g>
</g>
</svg>
