<?xml version="1.0" encoding="iso-8859-1"?>
<!-- Generator: Adobe Illustrator 19.0.0, SVG Export Plug-In . SVG Version: 6.00 Build 0)  -->
<svg version="1.1" id="Capa_1" xmlns="http://www.w3.org/2000/svg" xmlns:xlink="http://www.w3.org/1999/xlink" x="0px" y="0px"
	 viewBox="0 0 512 512" style="enable-background:new 0 0 512 512;" xml:space="preserve">
<g>
	<rect x="23.008" style="fill:#464646;" width="39.488" height="237.968"/>
	<rect x="79.024" style="fill:#464646;" width="23.488" height="237.968"/>
	<rect x="119.056" style="fill:#464646;" width="23.488" height="189.968"/>
	<rect x="159.072" style="fill:#464646;" width="23.488" height="189.968"/>
	<rect x="199.104" style="fill:#464646;" width="23.488" height="189.968"/>
	<rect x="239.12" style="fill:#464646;" width="23.488" height="189.968"/>
	<rect x="279.136" style="fill:#464646;" width="23.488" height="189.968"/>
	<rect x="319.168" style="fill:#464646;" width="23.488" height="189.968"/>
	<rect x="359.184" style="fill:#464646;" width="23.488" height="189.968"/>
	<rect x="399.216" style="fill:#464646;" width="23.488" height="237.968"/>
	<rect x="439.232" style="fill:#464646;" width="39.488" height="237.968"/>
</g>
<rect x="335.135" y="364.661" transform="matrix(-0.7071 0.7071 -0.7071 -0.7071 872.8522 394.0947)" style="fill:#CD494C;" width="39.344" height="26.32"/>
<path style="fill:#ED6362;" d="M478.432,501.44L478.432,501.44c-14.08,14.08-36.896,14.08-50.976,0l-88.848-88.848l50.976-50.976
	l88.848,88.848C492.512,464.544,492.512,487.376,478.432,501.44z"/>
<path style="fill:#E95454;" d="M425.84,499.824l1.616,1.616c14.08,14.08,36.896,14.08,50.976,0s14.08-36.896,0-50.976l-1.616-1.616
	L425.84,499.824z"/>
<circle style="fill:#CACACA;" cx="255.072" cy="278.08" r="142.288"/>
<circle style="fill:#FFFFFF;" cx="255.072" cy="278.08" r="104.976"/>
<circle style="fill:#3789C9;" cx="255.072" cy="278.08" r="64.16"/>
<circle style="fill:#464646;" cx="255.072" cy="278.08" r="35.216"/>
<circle style="fill:#FFFFFF;" cx="270.352" cy="262.816" r="8.192"/>
<g>
	<path style="fill:#E97878;" d="M402.24,426.144c-6.256,6.256-6.256,16.368,0,22.624l19.84,19.84c6.256,6.256,16.384,6.256,22.624,0
		c6.24-6.24,6.256-16.368,0-22.624l-19.84-19.84C418.608,419.888,408.48,419.888,402.24,426.144z"/>
	<path style="fill:#E97878;" d="M369.024,392.944c-6.24,6.256-6.256,16.368,0,22.624l6.224,6.224c6.256,6.256,16.384,6.24,22.624,0
		c6.256-6.256,6.256-16.368,0-22.624l-6.224-6.224C385.408,386.688,375.28,386.688,369.024,392.944z"/>
</g>
<g>
</g>
<g>
</g>
<g>
</g>
<g>
</g>
<g>
</g>
<g>
</g>
<g>
</g>
<g>
</g>
<g>
</g>
<g>
</g>
<g>
</g>
<g>
</g>
<g>
</g>
<g>
</g>
<g>
</g>
</svg>
