<?xml version="1.0" encoding="iso-8859-1"?>
<!-- Generator: Adobe Illustrator 19.0.0, SVG Export Plug-In . SVG Version: 6.00 Build 0)  -->
<svg version="1.1" id="Capa_1" xmlns="http://www.w3.org/2000/svg" xmlns:xlink="http://www.w3.org/1999/xlink" x="0px" y="0px"
	 viewBox="0 0 512 512" style="enable-background:new 0 0 512 512;" xml:space="preserve">
<path style="fill:#E5E5E5;" d="M427.472,244.096H84.528c-7.232,0-13.76-4.336-16.56-10.992c-2.816-6.672-1.344-14.368,3.712-19.536
	L243.136,38.032c6.752-6.944,18.96-6.944,25.712,0L440.32,213.568c5.056,5.168,6.512,12.864,3.712,19.536
	C441.232,239.76,434.704,244.096,427.472,244.096z M127.216,208.16H384.8L256,76.304L127.216,208.16z"/>
<path style="fill:#3789C9;" d="M467.648,197.776H44.352c-23.568,0-42.672,19.104-42.672,42.672v228.88
	C1.68,492.896,20.784,512,44.352,512h423.296c23.568,0,42.672-19.104,42.672-42.672v-228.88
	C510.32,216.88,491.216,197.776,467.648,197.776z"/>
<rect x="55.024" y="251.12" style="fill:#8BD5EC;" width="401.92" height="207.552"/>
<rect x="55.024" y="251.12" style="fill:#A8DEEE;" width="401.92" height="103.776"/>
<circle style="fill:#ED6362;" cx="256" cy="48.992" r="48.992"/>
<g style="opacity:0.05;">
	<path style="fill:#010101;" d="M104.16,361.312c0-8.496,1.264-15.6,3.808-21.376c1.888-4.24,4.48-8.048,7.76-11.44
		c3.264-3.36,6.864-5.856,10.768-7.504c5.184-2.192,11.184-3.28,17.952-3.28c12.272,0,22.096,3.792,29.472,11.408
		c7.36,7.616,11.056,18.208,11.056,31.776c0,13.44-3.648,23.968-10.976,31.568c-7.312,7.6-17.088,11.392-29.328,11.392
		c-12.384,0-22.24-3.776-29.552-11.344C107.824,384.976,104.16,374.576,104.16,361.312z M121.504,360.736
		c0,9.44,2.176,16.576,6.544,21.456s9.888,7.312,16.592,7.312s12.208-2.416,16.512-7.248s6.448-12.08,6.448-21.744
		c0-9.552-2.096-16.672-6.272-21.376c-4.192-4.688-9.744-7.04-16.688-7.04c-6.928,0-12.528,2.368-16.768,7.12
		C123.616,343.984,121.504,351.152,121.504,360.736z"/>
	<path style="fill:#010101;" d="M198.112,402.448V319.12h26.992c10.224,0,16.896,0.416,20,1.248c4.768,1.248,8.768,3.968,12,8.16
		c3.216,4.192,4.832,9.6,4.832,16.24c0,5.104-0.928,9.408-2.784,12.896s-4.208,6.224-7.072,8.208s-5.776,3.296-8.72,3.952
		c-4.016,0.8-9.84,1.184-17.456,1.184h-10.976v31.44L198.112,402.448L198.112,402.448z M214.944,333.232v23.648h9.2
		c6.64,0,11.072-0.432,13.296-1.312c2.24-0.864,3.984-2.224,5.248-4.096c1.28-1.856,1.904-4.016,1.904-6.464
		c0-3.04-0.896-5.536-2.672-7.504c-1.776-1.984-4.032-3.216-6.768-3.696c-2-0.368-6.048-0.56-12.112-0.56h-8.096V333.232z"/>
	<path style="fill:#010101;" d="M275.744,402.448V319.12h61.776v14.096h-44.96v18.464h41.84v14.048h-41.824v22.688h46.544v14.032
		H275.744z"/>
	<path style="fill:#010101;" d="M353.552,402.448V319.12h16.368l34.096,55.648V319.12h15.632v83.328h-16.88l-33.584-54.336v54.336
		H353.552z"/>
</g>
<g>
	<path style="fill:#FFFFFF;" d="M98.256,355.392c0-8.496,1.264-15.6,3.808-21.376c1.888-4.24,4.48-8.048,7.76-11.44
		c3.264-3.36,6.864-5.856,10.768-7.504c5.184-2.192,11.184-3.28,17.952-3.28c12.272,0,22.096,3.808,29.472,11.424
		c7.36,7.616,11.056,18.208,11.056,31.776c0,13.44-3.648,23.968-10.976,31.568s-17.088,11.392-29.328,11.392
		c-12.384,0-22.24-3.776-29.552-11.344C101.904,379.072,98.256,368.656,98.256,355.392z M115.584,354.832
		c0,9.44,2.176,16.576,6.528,21.456c4.368,4.88,9.888,7.312,16.592,7.312s12.208-2.416,16.512-7.248s6.448-12.08,6.448-21.744
		c0-9.552-2.096-16.672-6.272-21.376c-4.192-4.688-9.744-7.056-16.688-7.056s-12.512,2.368-16.768,7.12
		C117.712,338.064,115.584,345.248,115.584,354.832z"/>
	<path style="fill:#FFFFFF;" d="M192.192,396.544v-83.328H219.2c10.224,0,16.896,0.416,20,1.248c4.768,1.248,8.768,3.968,12,8.16
		c3.216,4.192,4.832,9.6,4.832,16.24c0,5.104-0.928,9.408-2.784,12.896s-4.208,6.224-7.072,8.224
		c-2.864,1.984-5.776,3.296-8.72,3.952c-4.016,0.8-9.84,1.184-17.44,1.184H209.04v31.44h-16.848V396.544z M209.024,327.312v23.648
		h9.2c6.64,0,11.072-0.432,13.296-1.312c2.224-0.864,3.984-2.224,5.248-4.096c1.28-1.856,1.904-4.016,1.904-6.464
		c0-3.04-0.896-5.536-2.672-7.504c-1.776-1.984-4.032-3.216-6.768-3.696c-2-0.368-6.048-0.576-12.112-0.576H209.024z"/>
	<path style="fill:#FFFFFF;" d="M269.84,396.544v-83.328h61.776v14.096h-44.96v18.464h41.84v14.048h-41.84v22.688H333.2v14.032
		H269.84z"/>
	<path style="fill:#FFFFFF;" d="M347.648,396.544v-83.328h16.368l34.096,55.648v-55.648h15.632v83.328h-16.88l-33.584-54.336v54.336
		H347.648z"/>
</g>
<g>
	<path style="fill:#4B9FD8;" d="M456.544,240.448H383.12c-8.832,0-16-7.152-16-16s7.168-16,16-16h73.424c8.832,0,16,7.152,16,16
		S465.392,240.448,456.544,240.448z"/>
	<path style="fill:#4B9FD8;" d="M332.928,240.448h-3.648c-8.832,0-16-7.152-16-16s7.168-16,16-16h3.648c8.832,0,16,7.152,16,16
		S341.76,240.448,332.928,240.448z"/>
	<path style="fill:#4B9FD8;" d="M125.344,501.872H52.736c-22.048,0-39.968-17.936-39.968-39.968v-140c0-8.848,7.168-16,16-16
		s16,7.152,16,16v140c0,4.384,3.584,7.968,7.968,7.968h72.608c8.832,0,16,7.152,16,16S134.176,501.872,125.344,501.872z"/>
</g>
<circle style="fill:#BEE1C9;" cx="256" cy="48.992" r="27.952"/>
<path style="fill:#84CA9B;" d="M233.2,54.144c0-15.44,12.512-27.952,27.952-27.952c6.4,0,12.224,2.24,16.944,5.856
	C272.976,25.408,265.04,21.04,256,21.04c-15.44,0-27.952,12.512-27.952,27.952c0,9.04,4.352,16.976,11.008,22.08
	C235.44,66.368,233.2,60.544,233.2,54.144z"/>
<g>
</g>
<g>
</g>
<g>
</g>
<g>
</g>
<g>
</g>
<g>
</g>
<g>
</g>
<g>
</g>
<g>
</g>
<g>
</g>
<g>
</g>
<g>
</g>
<g>
</g>
<g>
</g>
<g>
</g>
</svg>
