<?xml version="1.0" encoding="iso-8859-1"?>
<!-- Generator: Adobe Illustrator 19.0.0, SVG Export Plug-In . SVG Version: 6.00 Build 0)  -->
<svg version="1.1" id="Capa_1" xmlns="http://www.w3.org/2000/svg" xmlns:xlink="http://www.w3.org/1999/xlink" x="0px" y="0px"
	 viewBox="0 0 512.192 512.192" style="enable-background:new 0 0 512.192 512.192;" xml:space="preserve">
<path style="fill:#3789C9;" d="M448.528,298.264H32c-17.68,0-32-14.32-32-32V53.24c0-17.68,14.32-32,32-32h416.544
	c17.68,0,32,14.32,32,32v213.024C480.528,283.928,466.208,298.264,448.528,298.264z"/>
<g>
	<path style="fill:#4B9FD8;" d="M32,215.08c-8.832,0-16-7.152-16-16v-78.656c0-8.848,7.168-16,16-16s16,7.152,16,16v78.656
		C48,207.928,40.832,215.08,32,215.08z"/>
	<path style="fill:#4B9FD8;" d="M448.528,128.04c-8.832,0-16-7.152-16-16v-42.8H304.784c-8.832,0-16-7.152-16-16s7.168-16,16-16
		h143.744c8.832,0,16,7.152,16,16v58.8C464.528,120.872,457.36,128.04,448.528,128.04z"/>
</g>
<rect x="66.8" y="88.04" style="fill:#DAEFF6;" width="346.928" height="143.424"/>
<g>
	<path style="fill:#E95454;" d="M107.056,112.184h37.392c7.408,0,12.912,0.304,16.56,0.928c3.632,0.608,6.896,1.904,9.76,3.856
		s5.264,4.56,7.168,7.824c1.92,3.248,2.88,6.896,2.88,10.944c0,4.384-1.184,8.4-3.536,12.064c-2.368,3.664-5.568,6.4-9.6,8.224
		c5.696,1.664,10.08,4.48,13.136,8.48s4.592,8.704,4.592,14.096c0,4.256-0.992,8.384-2.976,12.416
		c-1.984,4.016-4.672,7.232-8.096,9.632c-3.424,2.4-7.648,3.872-12.672,4.432c-3.152,0.336-10.736,0.56-22.784,0.64h-31.84v-93.536
		H107.056z M125.936,127.752v21.632h12.368c7.36,0,11.936-0.112,13.712-0.32c3.248-0.384,5.792-1.504,7.632-3.344
		c1.856-1.856,2.768-4.288,2.768-7.312c0-2.896-0.8-5.248-2.384-7.056s-3.968-2.896-7.104-3.28c-1.872-0.208-7.264-0.32-16.144-0.32
		H125.936z M125.936,164.952v25.008h17.488c6.8,0,11.12-0.192,12.944-0.576c2.8-0.512,5.088-1.76,6.864-3.728
		c1.76-1.984,2.64-4.624,2.64-7.936c0-2.8-0.688-5.184-2.048-7.152c-1.36-1.952-3.328-3.376-5.904-4.272s-8.16-1.344-16.752-1.344
		H125.936z"/>
	<path style="fill:#E95454;" d="M201.216,112.184h18.88v50.656c0,8.032,0.24,13.248,0.704,15.632c0.8,3.824,2.736,6.896,5.776,9.216
		c3.04,2.32,7.2,3.472,12.48,3.472c5.36,0,9.392-1.104,12.128-3.28c2.72-2.192,4.352-4.88,4.912-8.064
		c0.56-3.184,0.832-8.48,0.832-15.888v-51.744h18.88v49.12c0,11.232-0.512,19.168-1.536,23.792
		c-1.024,4.64-2.896,8.544-5.648,11.744c-2.752,3.184-6.416,5.728-11.008,7.616c-4.592,1.888-10.592,2.832-17.984,2.832
		c-8.928,0-15.712-1.024-20.32-3.088c-4.608-2.064-8.256-4.736-10.944-8.032s-4.448-6.752-5.296-10.368
		c-1.232-5.36-1.856-13.264-1.856-23.728L201.216,112.184L201.216,112.184z"/>
	<path style="fill:#E95454;" d="M320.256,205.72v-39.36L286,112.2h22.144l22.016,37.008l21.568-37.008h21.76l-34.384,54.288v39.232
		L320.256,205.72L320.256,205.72z"/>
</g>
<g style="opacity:0.1;">
	<path style="fill:#010101;" d="M448.528,298.264c11.152,0,20.96-5.728,26.688-14.384l-3.504-3.504l-5.44,4.944l-81.44-86.736
		l-8.176,14.576v85.104H448.528z"/>
</g>
<path style="fill:#FFE28F;" d="M512.128,297.48c0-9.568-7.792-17.36-17.36-17.36s-17.36,7.792-17.36,17.36v4.608v4.816
	c0,1.568-1.28,2.848-2.848,2.848s-2.848-1.28-2.848-2.848v-4.816v-4.608v-17.104c0-9.568-7.792-17.36-17.36-17.36
	s-17.36,7.792-17.36,17.36v45.312c0,1.568-1.28,2.848-2.848,2.848c-1.584,0-2.848-1.28-2.848-2.848v-45.312
	c0-9.568-7.792-17.36-17.36-17.36s-17.36,7.792-17.36,17.36v45.312c0,1.568-1.28,2.848-2.848,2.848s-2.848-1.28-2.848-2.848v-6.112
	c0-0.032-0.032-0.048-0.032-0.08V209.88c0-9.568-7.776-17.344-17.344-17.344s-17.344,7.776-17.344,17.344v93.44v57.984
	c0,1.568-1.28,2.848-2.848,2.848c-1.584,0-2.848-1.28-2.848-2.848v-55.136h-8.208c-9.568,0-17.344,7.776-17.344,17.36v105.088
	c7.216,11.28,20.368,24.72,39.104,39.952c0.832,0.512,1.408,1.408,1.408,2.416v19.968h123.952v-19.968
	c0-0.688,0.24-1.344,0.688-1.856c12-14.048,19.84-28.336,22.08-40.224l-0.048-71.6c0-0.096,0.096-0.144,0.096-0.24V297.48H512.128z"
	/>
<path style="fill:#FFFFFF;" d="M373.472,198.584c-6.272,0-11.36,5.088-11.36,11.36v13.344h22.72v-13.344
	C384.832,203.672,379.744,198.584,373.472,198.584z"/>
<g style="opacity:0.3;">
	<path style="fill:#FDBC4B;" d="M413.728,447.128c0-8.832,7.152-16,16-16h46.656c8.848,0,16,7.168,16,16s-7.152,16-16,16h-46.656
		C420.88,463.128,413.728,455.976,413.728,447.128z"/>
</g>
<g style="opacity:0.35;">
	<circle style="fill:#FFFFFF;" cx="362.112" cy="395.384" r="18.304"/>
</g>
<g>
</g>
<g>
</g>
<g>
</g>
<g>
</g>
<g>
</g>
<g>
</g>
<g>
</g>
<g>
</g>
<g>
</g>
<g>
</g>
<g>
</g>
<g>
</g>
<g>
</g>
<g>
</g>
<g>
</g>
</svg>
