<?xml version="1.0" encoding="iso-8859-1"?>
<!-- Generator: Adobe Illustrator 19.0.0, SVG Export Plug-In . SVG Version: 6.00 Build 0)  -->
<svg version="1.1" id="Capa_1" xmlns="http://www.w3.org/2000/svg" xmlns:xlink="http://www.w3.org/1999/xlink" x="0px" y="0px"
	 viewBox="0 0 512 512" style="enable-background:new 0 0 512 512;" xml:space="preserve">
<path style="fill:#FFDB70;" d="M48.464,158.176V376.96c0,12.88,6.88,24.784,18.032,31.232l171.456,98.976
	c5.568,3.216,11.792,4.832,18.032,4.832V277.984L48.464,158.176z"/>
<path style="fill:#FDBC4B;" d="M463.504,158.176V376.96c0,12.896-6.88,24.784-18.064,31.2l-60.832,35.104l-110.56,63.888
	c-5.632,3.2-11.808,4.848-18.064,4.848V277.968L463.504,158.176z"/>
<path style="fill:#FFCC5B;" d="M255.984,277.984V512c6.224,0,12.448-1.616,18.032-4.832l171.456-98.976
	c11.152-6.448,18.032-18.352,18.032-31.232V158.176L255.984,277.984z"/>
<path style="fill:#787878;" d="M255.984,43.968v234L48.464,158.176L237.936,48.752C243.536,45.6,249.76,43.968,255.984,43.968z"/>
<path style="fill:#464646;" d="M463.488,158.176L255.984,277.968v-234c6.224,0,12.448,1.616,18.032,4.784L463.488,158.176z"/>
<g style="opacity:0.12;">
	<path style="fill:#010101;" d="M265.888,287.888l2.032-7.84L256,277.952l-8.336,10.848l-199.2-114.992v124.8l128.08,73.968
		c18.448,10.64,41.984,3.12,50.832-16.256L256,293.616l-0.448-0.256l0.704,0.112L256,293.616l28.624,62.704
		c8.832,19.392,32.448,26.896,50.832,16.256l128.08-73.888v-124.88L265.888,287.888z"/>
</g>
<g>
	<path style="fill:#FDBC4B;" d="M256,277.952l-28.608,62.736c-8.832,19.36-32.416,26.912-50.832,16.272L31.792,273.376
		c-16.096-9.296-22.48-29.28-14.784-46.192l31.488-69.04L256,277.952z"/>
	<path style="fill:#FDBC4B;" d="M256,277.952l28.608,62.736c8.832,19.36,32.416,26.912,50.832,16.272l144.768-83.584
		c16.096-9.296,22.48-29.28,14.784-46.192l-31.488-69.04L256,277.952z"/>
</g>
<g style="opacity:0.3;">
	<path style="fill:#FFFFFF;" d="M170.96,451.632l-48.752-27.808c-7.504-4.272-10.112-13.824-5.84-21.328
		c4.288-7.504,13.824-10.112,21.328-5.84l48.752,27.808c7.504,4.272,10.112,13.824,5.84,21.328
		C188.016,453.312,178.464,455.92,170.96,451.632z"/>
	<path style="fill:#FFFFFF;" d="M86.384,403.376l-3.088-1.76c-7.504-4.272-10.112-13.824-5.84-21.328
		c4.288-7.504,13.824-10.112,21.328-5.84l3.088,1.76c7.504,4.288,10.128,13.824,5.84,21.328
		C103.424,405.056,93.888,407.648,86.384,403.376z"/>
</g>
<path style="fill:#F7B346;" d="M433.76,250.528l-48.752,27.808c-7.504,4.272-10.112,13.824-5.84,21.328
	c4.288,7.504,13.824,10.112,21.328,5.84l48.752-27.808c7.504-4.272,10.112-13.824,5.824-21.328
	C450.816,248.864,441.264,246.256,433.76,250.528z"/>
<path style="fill:#4B9FD8;" d="M396.592,147.616c0,19.856-4.064,38.624-11.568,55.824l-10.784,6.256l-33.936,19.552l-13.136,7.664
	l-24.864,14.384l-22.512,12.976l-16.88,9.856l-6.88,3.904l-6.88-3.904l-16.88-9.856l-22.512-12.976l-25.024-14.384l-13.136-7.664
	l-33.936-19.696l-10.64-6.096c-7.504-17.2-11.568-35.968-11.568-55.824c0-77.712,62.864-140.736,140.576-140.736
	C333.568,6.88,396.592,69.888,396.592,147.616z"/>
<path style="fill:#F3F3F3;" d="M256.016,0C174.704,0,108.56,66.304,108.56,147.616c0,17.664,3.12,34.56,8.752,50.192l9.696,5.632
	l10.64,6.096c-8.752-16.576-14.08-35.344-15.008-55.04h68.8c0.464,21.584,2.816,41.744,6.72,59.888
	c-9.376,4.064-18.288,8.912-26.576,14.848l13.136,7.664c5.472-3.44,11.104-6.416,16.88-9.072c2.352,8.448,5.168,16.416,8.128,23.456
	l22.512,12.976c-6.88-9.856-13.136-24.08-17.824-41.44c11.104-3.6,22.832-5.632,34.72-6.256v57.536l6.88,3.904l6.88-3.904V216.56
	c11.888,0.624,23.456,2.656,34.56,6.416c-4.688,17.36-10.944,31.424-17.664,41.28l22.512-12.976
	c3.12-7.04,5.792-14.864,8.128-23.296c5.792,2.496,11.264,5.472,16.736,8.912l13.136-7.664c-8.288-5.936-17.2-10.784-26.576-14.848
	c4.064-18.144,6.416-38.304,6.72-59.888h68.96c-1.088,19.856-6.416,38.464-15.168,55.2l10.784-6.256l9.696-5.632
	c5.632-15.632,8.752-32.528,8.752-50.192C403.472,66.304,337.328,0,256.016,0z M297.6,72.24c-11.264,3.76-22.832,5.792-34.72,6.416
	V15.488C276.032,20.8,289.168,41.44,297.6,72.24z M191.424,140.736h-68.8c1.568-32.832,15.008-62.384,36.272-84.912
	c11.728,10.48,25.024,18.928,39.248,25.024C194.24,98.816,191.904,119.152,191.424,140.736z M201.44,67.232
	c-11.728-5.152-22.672-12.192-32.688-20.944c15.952-13.6,35.024-23.616,56.128-28.624C215.36,29.392,207.376,46.448,201.44,67.232z
	 M249.136,202.8c-12.976,0.624-25.808,2.816-37.84,6.72c-3.44-16.256-5.632-34.864-6.096-55.04h43.936L249.136,202.8L249.136,202.8z
	 M249.136,140.736H205.2c0.464-20.176,2.656-38.784,5.936-55.04c12.192,3.904,25.024,6.096,38,6.72V140.736z M249.136,78.656
	c-12.048-0.624-23.616-2.816-34.72-6.416c8.448-30.8,21.584-51.44,34.72-56.752V78.656z M300.736,209.536
	c-12.192-3.904-24.864-6.096-37.84-6.72v-48.32h43.776C306.368,174.656,304.176,193.264,300.736,209.536z M262.896,140.736v-48.32
	c12.976-0.624,25.648-2.816,37.84-6.72c3.44,16.256,5.632,34.864,5.936,55.04H262.896z M310.432,67.232
	c-5.792-20.8-13.92-37.84-23.456-49.568c21.104,5.008,40.336,15.008,56.288,28.768C333.248,55.04,322.304,62.08,310.432,67.232z
	 M320.432,140.736c-0.32-21.584-2.656-41.904-6.72-59.888c14.384-6.096,27.52-14.544,39.408-24.864
	c21.104,22.368,34.56,51.904,36.272,84.752H320.432z"/>
<g>
</g>
<g>
</g>
<g>
</g>
<g>
</g>
<g>
</g>
<g>
</g>
<g>
</g>
<g>
</g>
<g>
</g>
<g>
</g>
<g>
</g>
<g>
</g>
<g>
</g>
<g>
</g>
<g>
</g>
</svg>
