<?xml version="1.0" encoding="iso-8859-1"?>
<!-- Generator: Adobe Illustrator 19.0.0, SVG Export Plug-In . SVG Version: 6.00 Build 0)  -->
<svg version="1.1" id="Capa_1" xmlns="http://www.w3.org/2000/svg" xmlns:xlink="http://www.w3.org/1999/xlink" x="0px" y="0px"
	 viewBox="0 0 512 512" style="enable-background:new 0 0 512 512;" xml:space="preserve">
<path style="fill:#464646;" d="M336.936,512H78.168c-17.68,0-32-14.336-32-32V32c0-17.68,14.32-32,32-32h258.784
	c17.664,0,32,14.32,32,32v448C368.936,497.68,354.616,512,336.936,512z"/>
<rect x="78.168" y="69.856" style="fill:#3789C9;" width="258.72" height="341.744"/>
<g>
	<circle style="fill:#6F7070;" cx="207.56" cy="461.808" r="24.352"/>
	<path style="fill:#6F7070;" d="M253.576,30.48h-92.032c-2.448,0-4.448,1.984-4.448,4.448l0,0c0,2.448,1.984,4.448,4.448,4.448
		h92.032c2.448,0,4.448-1.984,4.448-4.448l0,0C258.008,32.48,256.024,30.48,253.576,30.48z"/>
</g>
<path style="fill:#FEE218;" d="M360.424,87.04C302.2,87.04,255,134.24,255,192.464c0,17.984,4.528,34.896,12.464,49.712
	l-22.72,63.568l62.528-22.352c15.616,9.152,33.728,14.48,53.136,14.48c58.224,0,105.424-47.2,105.424-105.424
	S418.648,87.04,360.424,87.04z"/>
<g style="opacity:0.35;">
	<circle style="fill:#FFFFFF;" cx="404.328" cy="171.504" r="43.024"/>
</g>
<path style="fill:#FFFFFF;" d="M355.32,234.256v-35.408c-11.04-3.152-19.152-7.936-24.304-14.336
	c-5.152-6.4-7.728-14.16-7.728-23.28c0-9.248,2.912-17.008,8.752-23.28c5.84-6.288,13.6-9.904,23.28-10.864v-8.384h12.256v8.368
	c8.96,1.072,16.08,4.128,21.392,9.168c5.296,5.04,8.672,11.792,10.144,20.24l-21.392,2.784c-1.296-6.656-4.672-11.152-10.144-13.52
	V178.8c13.52,3.664,22.736,8.416,27.632,14.24s7.36,13.312,7.36,22.448c0,10.192-3.088,18.784-9.248,25.776
	c-6.176,6.992-14.752,11.264-25.744,12.848v10.864H355.32v-10.432c-9.744-1.184-17.664-4.816-23.744-10.896
	c-6.08-6.08-9.968-14.672-11.664-25.776l22.064-2.368c0.896,4.512,2.592,8.4,5.072,11.664
	C349.512,230.416,352.28,232.784,355.32,234.256z M355.32,145.504c-3.328,1.12-5.968,3.04-7.952,5.744
	c-1.968,2.704-2.96,5.696-2.96,8.96c0,2.992,0.896,5.76,2.704,8.32c1.808,2.56,4.528,4.64,8.192,6.208v-29.232H355.32z
	 M367.576,235.44c4.224-0.784,7.664-2.752,10.32-5.872c2.64-3.12,3.968-6.8,3.968-11.024c0-3.776-1.104-7.024-3.344-9.76
	c-2.224-2.736-5.872-4.832-10.944-6.304V235.44z"/>
<path style="fill:#4B9FD8;" d="M164.68,411.6c14.128,0,25.584-11.456,25.584-25.584c0-14.128-11.456-25.584-25.584-25.584h-34.208
	c-11.824,0-21.456-9.68-21.392-21.504v-0.272c0-0.528-0.016-1.04-0.048-1.568c-0.704-11.664,8.544-21.488,20.24-21.488H174.6
	c13.856,0,26.272-10.368,26.992-24.208c0.768-14.752-10.96-26.96-25.552-26.96h-14.016c-11.888,0-21.52-9.68-21.44-21.568v-1.488
	v-0.304c-0.08-12.512,10.096-22.752,22.608-22.752h18.112c13.856,0,26.272-10.368,26.992-24.208
	c0.768-14.752-10.96-26.96-25.552-26.96h-65.376c-12.368,0-21.584-10.384-21.44-22.752c0-0.096,0-0.208,0-0.304
	c0-0.096,0-0.208,0-0.304c-0.144-12.368,9.072-22.752,21.44-22.752h21.152c13.856,0,26.272-10.368,26.992-24.208
	c0.768-14.752-10.96-26.96-25.552-26.96H78.168v341.744h86.512V411.6z"/>
<g>
</g>
<g>
</g>
<g>
</g>
<g>
</g>
<g>
</g>
<g>
</g>
<g>
</g>
<g>
</g>
<g>
</g>
<g>
</g>
<g>
</g>
<g>
</g>
<g>
</g>
<g>
</g>
<g>
</g>
</svg>
