<?xml version="1.0" encoding="iso-8859-1"?>
<!-- Generator: Adobe Illustrator 19.0.0, SVG Export Plug-In . SVG Version: 6.00 Build 0)  -->
<svg version="1.1" id="Capa_1" xmlns="http://www.w3.org/2000/svg" xmlns:xlink="http://www.w3.org/1999/xlink" x="0px" y="0px"
	 viewBox="0 0 512.352 512.352" style="enable-background:new 0 0 512.352 512.352;" xml:space="preserve">
<path style="fill:#ED6362;" d="M408.368,512.352H103.984c-17.664,0-32-14.32-32-32V89.504c0-17.68,14.336-32,32-32h304.384
	c17.68,0,32,14.32,32,32v390.848C440.368,498.016,426.048,512.352,408.368,512.352z"/>
<rect x="103.984" y="89.504" style="fill:#FFFFFF;" width="304.32" height="390.848"/>
<path style="fill:#FFCC5B;" d="M314.176,39.376h-18.624C295.552,17.632,277.92,0,256.176,0S216.8,17.632,216.8,39.376h-18.624
	c-17.68,0-32,14.32-32,32v37.632h180V71.376C346.176,53.712,331.84,39.376,314.176,39.376z M256.176,54.656
	c-8.432,0-15.28-6.848-15.28-15.28s6.848-15.28,15.28-15.28c8.432,0,15.28,6.848,15.28,15.28S264.608,54.656,256.176,54.656z"/>
<g>
	<path style="fill:#FFDB70;" d="M257.056,81.936c0-8.832-7.152-16-16-16h-44.064c-8.848,0-16,7.168-16,16s7.152,16,16,16h44.064
		C249.904,97.936,257.056,90.768,257.056,81.936z"/>
	<path style="fill:#FFDB70;" d="M310.288,81.936c0-8.832-7.152-16-16-16h-5.6c-8.848,0-16,7.168-16,16s7.152,16,16,16h5.6
		C303.12,97.936,310.288,90.768,310.288,81.936z"/>
</g>
<rect x="134.048" y="132.864" style="fill:#4B9FD8;" width="108.688" height="134.256"/>
<polygon style="fill:#3789C9;" points="242.736,267.12 134.048,267.12 242.736,132.864 "/>
<g>
	<path style="fill:#E5E5E5;" d="M271.824,203.984H372.24c4.416,0,8-3.584,8-8s-3.584-8-8-8H271.824c-4.416,0-8,3.584-8,8
		C263.824,200.416,267.392,203.984,271.824,203.984z"/>
	<path style="fill:#E5E5E5;" d="M372.224,251.12H271.808c-4.416,0-8,3.584-8,8c0,4.416,3.584,8,8,8h100.416c4.416,0,8-3.584,8-8
		C380.224,254.688,376.656,251.12,372.224,251.12z"/>
	<path style="fill:#E5E5E5;" d="M372.224,314.24H140.56c-4.416,0-8,3.584-8,8s3.584,8,8,8h231.664c4.416,0,8-3.584,8-8
		S376.656,314.24,372.224,314.24z"/>
	<path style="fill:#E5E5E5;" d="M372.224,377.36H140.56c-4.416,0-8,3.584-8,8s3.584,8,8,8h231.664c4.416,0,8-3.584,8-8
		S376.656,377.36,372.224,377.36z"/>
	<path style="fill:#E5E5E5;" d="M372.224,440.496H140.56c-4.416,0-8,3.584-8,8s3.584,8,8,8h231.664c4.416,0,8-3.584,8-8
		C380.224,444.064,376.656,440.496,372.224,440.496z"/>
</g>
<g>
</g>
<g>
</g>
<g>
</g>
<g>
</g>
<g>
</g>
<g>
</g>
<g>
</g>
<g>
</g>
<g>
</g>
<g>
</g>
<g>
</g>
<g>
</g>
<g>
</g>
<g>
</g>
<g>
</g>
</svg>
