<?xml version="1.0" encoding="iso-8859-1"?>
<!-- Generator: Adobe Illustrator 19.0.0, SVG Export Plug-In . SVG Version: 6.00 Build 0)  -->
<svg version="1.1" id="Capa_1" xmlns="http://www.w3.org/2000/svg" xmlns:xlink="http://www.w3.org/1999/xlink" x="0px" y="0px"
	 viewBox="0 0 512 512" style="enable-background:new 0 0 512 512;" xml:space="preserve">
<path style="fill:#F3F3F3;" d="M480,215.28H32c-17.68,0-32,14.336-32,32v183.584c0,17.68,14.32,32,32,32h448
	c17.664,0,32-14.32,32-32V247.28C512,229.6,497.664,215.28,480,215.28z"/>
<rect x="32" y="247.28" style="fill:#E5E5E5;" width="448" height="183.584"/>
<rect x="32" y="247.28" style="fill:#ED6362;" width="158.768" height="37.136"/>
<g>
	<rect x="335.984" y="253.024" style="fill:#CACACA;" width="29.344" height="25.68"/>
	<rect x="372.128" y="253.024" style="fill:#CACACA;" width="29.344" height="25.68"/>
	<rect x="408.256" y="253.024" style="fill:#CACACA;" width="29.344" height="25.68"/>
	<rect x="444.4" y="253.024" style="fill:#CACACA;" width="29.344" height="25.68"/>
	<rect x="45.504" y="348.048" style="fill:#CACACA;" width="305.12" height="16"/>
	<rect x="45.504" y="399.664" style="fill:#CACACA;" width="158.16" height="16"/>
</g>
<path style="fill:#6F7070;" d="M439.296,58.032L219.984,277.344l42.912,42.912l219.312-219.328c11.84-11.856,11.84-31.056,0-42.912
	l0,0C470.368,46.176,451.152,46.176,439.296,58.032z"/>
<path style="fill:#848484;" d="M460.592,122.544l21.616-21.616c11.856-11.856,11.856-31.056,0-42.912
	c-11.84-11.84-31.056-11.84-42.912,0L417.68,79.632L460.592,122.544z"/>
<polygon style="fill:#FFCC5B;" points="209.024,331.2 262.88,320.256 219.984,277.344 "/>
<polygon style="fill:#6F7070;" points="235.952,325.728 214.496,304.272 209.024,331.2 "/>
<path style="fill:#464646;" d="M382.288,157.952c-6.256-6.256-6.256-16.368,0-22.624l53.488-53.488
	c6.256-6.256,16.384-6.256,22.624,0s6.256,16.368,0,22.624l-53.488,53.488C398.656,164.208,388.528,164.208,382.288,157.952z"/>
<path style="fill:#787878;" d="M325.792,216.24c-6.256-6.256-16.368-6.256-22.624,0l-42.464,42.464
	c-6.256,6.256-6.24,16.384,0,22.624c6.256,6.256,16.368,6.256,22.624,0l42.464-42.464
	C332.032,232.624,332.032,222.496,325.792,216.24z"/>
<g>
	<path style="fill:#F3F3F3;" d="M414.368,399.664c0-8.832-7.152-16-16-16h-60.064c-8.848,0-16,7.168-16,16s7.152,16,16,16h60.064
		C407.216,415.664,414.368,408.496,414.368,399.664z"/>
	<path style="fill:#F3F3F3;" d="M467.6,399.664c0-8.832-7.152-16-16-16H446c-8.848,0-16,7.168-16,16s7.152,16,16,16h5.6
		C460.448,415.664,467.6,408.496,467.6,399.664z"/>
</g>
<g>
</g>
<g>
</g>
<g>
</g>
<g>
</g>
<g>
</g>
<g>
</g>
<g>
</g>
<g>
</g>
<g>
</g>
<g>
</g>
<g>
</g>
<g>
</g>
<g>
</g>
<g>
</g>
<g>
</g>
</svg>
