<?xml version="1.0" encoding="iso-8859-1"?>
<!-- Generator: Adobe Illustrator 19.0.0, SVG Export Plug-In . SVG Version: 6.00 Build 0)  -->
<svg version="1.1" id="Capa_1" xmlns="http://www.w3.org/2000/svg" xmlns:xlink="http://www.w3.org/1999/xlink" x="0px" y="0px"
	 viewBox="0 0 513.379 513.379" style="enable-background:new 0 0 513.379 513.379;" xml:space="preserve">
<path style="fill:#FFE28F;" d="M79.664,338.778c0,0,16.848,1.92,48.608-12.992c31.76-14.928,64.016-4.816,64.016-4.816
	s40.432,19.248,54.384,22.624c13.952,3.376,44.288,3.376,74.608,1.92c0,0,40.432-7.696,49.104,16.848c0,0,11.072-2.416,29.36-12.032
	c0,0,88.08-44.656,109.264-26.656c0,0,14.432,13.184-9.152,29.056c0,0-96.272,62.576-154.496,88.56c0,0-20.208,7.696-61.12,39.952
	c0,0-14.928,6.736-33.696-4.816c0,0-102.528-53.424-152.096-32.256L79.664,338.778z"/>
<g style="opacity:0.25;">
	<path style="fill:#EC9922;" d="M373.632,371.258c0,29.2-66.112,32.784-66.112,32.784c-9.92,5.232-24.24,6.336-24.24,6.336
		c-11.024-3.312-63.904-4.96-63.904-4.96c-30.304,3.312-45.728-7.712-45.728-7.712s11.568,13.216,40.768,12.672
		c0,0,47.936-2.208,59.232,8.816c0,0,19.472,4.96,36.592-8.272c0,0,9.952-6.064,21.52-6.064c0,0,35.264-3.312,41.872-23.136
		L373.632,371.258L373.632,371.258z"/>
</g>
<g>
	<path style="fill:#F3F3F3;" d="M343.92,352.17l-11.504,1.408c-2.688,0.336-4.592,2.768-4.272,5.456l3.472,28.512
		c0.336,2.688,2.768,4.592,5.456,4.272l11.504-1.408c10.56-1.28,18.064-10.896,16.784-21.44
		C364.08,358.394,354.464,350.874,343.92,352.17z"/>
	<path style="fill:#F3F3F3;" d="M512.544,338.586c-33.904,2.176-31.968,25.28-31.968,25.28l0.48,0.832
		c11.616-7.312,18.8-11.984,18.8-11.984C507.44,347.626,511.072,342.794,512.544,338.586z"/>
</g>
<polygon style="fill:#E5E5E5;" points="105.424,475.162 63.952,483.194 39.744,344.154 79.776,336.33 "/>
<polygon style="fill:#4B9FD8;" points="0,497.082 64.784,486.362 38.528,336.33 0,343.594 "/>
<g style="opacity:0.25;">
	<path style="fill:#FDBC4B;" d="M393.2,391.738c4.416,7.648,14.192,10.272,21.856,5.856l40.96-23.648
		c7.664-4.416,10.272-14.208,5.856-21.856s-14.192-10.272-21.856-5.856l-40.96,23.648C391.408,374.314,388.784,384.09,393.2,391.738
		z"/>
</g>
<g style="opacity:0.3;">
	<path style="fill:#FFFFFF;" d="M205.024,370.842c-2.096,8.592,3.168,17.232,11.76,19.328l2.72,0.656
		c8.592,2.096,17.248-3.184,19.328-11.76c2.08-8.592-3.168-17.232-11.76-19.328l-2.72-0.656
		C215.76,356.986,207.12,362.266,205.024,370.842z"/>
	<path style="fill:#FFFFFF;" d="M120.752,350.346c-2.08,8.592,3.168,17.232,11.76,19.328l45.952,11.184
		c8.592,2.096,17.232-3.184,19.328-11.76c2.096-8.592-3.168-17.232-11.76-19.328l-45.952-11.184
		C131.488,336.49,122.848,341.754,120.752,350.346z"/>
</g>
<path style="fill:#E86F3E;" d="M328.832,80.298l32.992-43.472c6.4-8.432,0.384-20.528-10.192-20.528h-89.584
	c-10.576,0-16.592,12.112-10.192,20.528l32.992,43.472c-54.976,16.256-96.608,90.224-96.608,148.192
	c0,65.504,53.104,85.648,118.608,85.648s118.608-20.144,118.608-85.648C425.456,170.522,383.824,96.554,328.832,80.298z"/>
<path style="fill:#F3F3F3;" d="M343.328,92.298h-72.944c-6.624,0-12-5.376-12-12s5.376-12,12-12h72.944c6.624,0,12,5.376,12,12
	C355.328,86.938,349.952,92.298,343.328,92.298z"/>
<path style="fill:#EC784F;" d="M328.112,301.706c-8.832,0-16-7.152-16-16s7.168-16,16-16c28.992,0,52.592-23.6,52.592-52.576
	c0-8.848,7.168-16,16-16s16,7.152,16,16C412.704,263.77,374.752,301.706,328.112,301.706z"/>
<circle style="fill:#FFCC5B;" cx="306.928" cy="193.002" r="65.552"/>
<path style="fill:#FFFFFF;" d="M302.736,222.41v-24.672c-7.696-2.192-13.344-5.52-16.928-9.984c-3.6-4.464-5.392-9.856-5.392-16.224
	c0-6.432,2.032-11.84,6.096-16.224s9.472-6.896,16.224-7.568v-5.824h8.544v5.824c6.24,0.752,11.216,2.88,14.896,6.384
	c3.696,3.52,6.048,8.208,7.072,14.112l-14.896,1.936c-0.896-4.624-3.264-7.776-7.072-9.424v23.024
	c9.424,2.56,15.84,5.856,19.264,9.92c3.408,4.064,5.12,9.28,5.12,15.632c0,7.104-2.144,13.088-6.448,17.968
	c-4.304,4.864-10.272,7.856-17.936,8.96v7.744h-8.544v-7.456c-6.784-0.832-12.304-3.36-16.544-7.6
	c-4.24-4.24-6.944-10.224-8.128-17.968l15.376-1.648c0.624,3.136,1.808,5.856,3.536,8.128
	C298.688,219.738,300.608,221.386,302.736,222.41z M302.736,160.57c-2.32,0.784-4.16,2.112-5.536,4s-2.064,3.968-2.064,6.24
	c0,2.08,0.624,4.016,1.888,5.808c1.248,1.792,3.168,3.232,5.712,4.336V160.57z M311.264,223.242c2.944-0.544,5.344-1.92,7.184-4.096
	s2.768-4.736,2.768-7.68c0-2.624-0.768-4.896-2.32-6.8s-4.096-3.36-7.632-4.384V223.242z"/>
<g>
</g>
<g>
</g>
<g>
</g>
<g>
</g>
<g>
</g>
<g>
</g>
<g>
</g>
<g>
</g>
<g>
</g>
<g>
</g>
<g>
</g>
<g>
</g>
<g>
</g>
<g>
</g>
<g>
</g>
</svg>
