<?xml version="1.0" encoding="iso-8859-1"?>
<!-- Generator: Adobe Illustrator 19.0.0, SVG Export Plug-In . SVG Version: 6.00 Build 0)  -->
<svg version="1.1" id="Capa_1" xmlns="http://www.w3.org/2000/svg" xmlns:xlink="http://www.w3.org/1999/xlink" x="0px" y="0px"
	 viewBox="0 0 510.496 510.496" style="enable-background:new 0 0 510.496 510.496;" xml:space="preserve">
<path style="fill:#BEE1C9;" d="M443.504,107.264V32c0-17.68-14.336-32-32-32H32C14.32,0,0,14.32,0,32v75.264H443.504z"/>
<path style="fill:#6F7070;" d="M0,395.744c0,17.664,14.336,32,32,32h379.504c17.664,0,32-14.336,32-32v-288.48H0V395.744z"/>
<rect x="64" y="171.264" style="fill:#808080;" width="315.504" height="192.48"/>
<g>
	<path style="fill:#FFFFFF;" d="M102.624,295.936L84.64,239.072h14.608l10.656,37.264l9.792-37.264h14.512l9.472,37.264
		l10.864-37.264h14.832l-18.256,56.864h-14.448l-9.792-36.576l-9.632,36.576H102.624z"/>
	<path style="fill:#FFFFFF;" d="M187.92,295.936l-17.984-56.864h14.624l10.656,37.264l9.792-37.264h14.512l9.472,37.264
		l10.864-37.264h14.832l-18.256,56.864h-14.464l-9.792-36.576l-9.632,36.576H187.92z"/>
	<path style="fill:#FFFFFF;" d="M273.216,295.936l-17.984-56.864h14.624l10.656,37.264l9.792-37.264h14.512l9.472,37.264
		l10.864-37.264h14.832l-18.256,56.864H307.28l-9.792-36.576l-9.632,36.576H273.216z"/>
	<path style="fill:#FFFFFF;" d="M343.84,295.936v-15.04h15.04v15.04H343.84z"/>
</g>
<circle style="fill:#ED6362;" cx="58.256" cy="53.632" r="20.656"/>
<circle style="fill:#3789C9;" cx="116.56" cy="53.632" r="20.656"/>
<circle style="fill:#E86F3E;" cx="174.88" cy="53.632" r="20.656"/>
<circle style="fill:#FEE218;" cx="395.408" cy="395.408" r="115.088"/>
<g style="opacity:0.35;">
	<circle style="fill:#FFFFFF;" cx="436.048" cy="361.792" r="52.576"/>
</g>
<path style="fill:#EC9922;" d="M389.152,440.032V402.64c-11.664-3.328-20.208-8.368-25.648-15.12
	c-5.44-6.752-8.16-14.944-8.16-24.576c0-9.76,3.072-17.952,9.232-24.576c6.16-6.64,14.352-10.448,24.576-11.472v-8.832h12.944v8.832
	c9.456,1.136,16.976,4.352,22.576,9.68c5.6,5.328,9.168,12.448,10.704,21.36L412.8,360.88c-1.36-7.024-4.944-11.776-10.704-14.272
	v34.88c14.272,3.872,24,8.88,29.168,15.04c5.168,6.16,7.76,14.048,7.76,23.696c0,10.768-3.248,19.84-9.776,27.216
	c-6.512,7.376-15.568,11.904-27.168,13.568v11.744h-12.944v-11.296c-10.288-1.248-18.64-5.088-25.072-11.504
	c-6.432-6.416-10.528-15.488-12.32-27.216l23.28-2.496c0.944,4.752,2.736,8.864,5.344,12.32
	C383.024,435.984,385.952,438.496,389.152,440.032z M389.152,346.352c-3.504,1.184-6.304,3.216-8.384,6.064
	c-2.08,2.848-3.12,6-3.12,9.456c0,3.152,0.944,6.08,2.848,8.784c1.904,2.704,4.784,4.896,8.656,6.56V346.352z M402.096,441.28
	c4.464-0.832,8.096-2.896,10.88-6.208s4.192-7.184,4.192-11.648c0-3.984-1.168-7.424-3.52-10.304s-6.192-5.104-11.552-6.64V441.28z"
	/>
<path style="fill:#616161;" d="M31.232,348.672c-8.832,0-16-7.152-16-16V222.784c0-8.848,7.168-16,16-16s16,7.152,16,16v109.888
	C47.232,341.52,40.064,348.672,31.232,348.672z"/>
<g>
	<path style="fill:#D1E9D7;" d="M314.56,53.632c0,8.832,7.152,16,16,16h44.064c8.848,0,16-7.168,16-16s-7.152-16-16-16H330.56
		C321.712,37.632,314.56,44.8,314.56,53.632z"/>
	<path style="fill:#D1E9D7;" d="M248.208,53.632c0,8.832,7.152,16,16,16h18.736c8.848,0,16-7.168,16-16s-7.152-16-16-16h-18.736
		C255.36,37.632,248.208,44.8,248.208,53.632z"/>
</g>
<g>
</g>
<g>
</g>
<g>
</g>
<g>
</g>
<g>
</g>
<g>
</g>
<g>
</g>
<g>
</g>
<g>
</g>
<g>
</g>
<g>
</g>
<g>
</g>
<g>
</g>
<g>
</g>
<g>
</g>
</svg>
