<?xml version="1.0" encoding="iso-8859-1"?>
<!-- Generator: Adobe Illustrator 19.0.0, SVG Export Plug-In . SVG Version: 6.00 Build 0)  -->
<svg version="1.1" id="Capa_1" xmlns="http://www.w3.org/2000/svg" xmlns:xlink="http://www.w3.org/1999/xlink" x="0px" y="0px"
	 viewBox="0 0 512 512" style="enable-background:new 0 0 512 512;" xml:space="preserve">
<g>
	<rect x="24.784" y="238.832" style="fill:#ED6362;" width="462.432" height="162.864"/>
	<path style="fill:#ED6362;" d="M232.144,59.28L24.784,238.832h462.432L279.856,59.28C267.136,45.04,244.864,45.04,232.144,59.28z"
		/>
</g>
<path style="fill:#FFDB70;" d="M256,375.408L36.864,504.864c5.488,4.4,12.352,7.136,19.92,7.136h398.432
	c7.568,0,14.432-2.736,19.92-7.136L256,375.408z"/>
<path style="fill:#F3F3F3;" d="M353.312,0H98.208c-17.664,0-32,14.32-32,32v343.408h379.584V92.48L353.312,0z"/>
<path style="fill:#787878;" d="M353.312,60.48c0,17.68,14.32,32,32,32h60.48L353.312,0V60.48z"/>
<g>
	<path style="fill:#FFCC5B;" d="M256.016,375.424l-219.2,129.6c-7.36-5.76-12-14.88-12-24.96v-241.28L256.016,375.424z"/>
	<path style="fill:#FFCC5B;" d="M487.216,238.784v241.28c0,10.08-4.64,19.04-12,24.96l-219.2-129.6L487.216,238.784z"/>
</g>
<g>
	<path style="fill:#CACACA;" d="M303.36,99.584H124.112c-8.832,0-16-7.152-16-16s7.168-16,16-16H303.36c8.832,0,16,7.152,16,16
		C319.36,92.416,312.208,99.584,303.36,99.584z"/>
	<path style="fill:#CACACA;" d="M387.888,175.68H124.112c-8.832,0-16-7.152-16-16s7.168-16,16-16h263.76c8.832,0,16,7.152,16,16
		S396.72,175.68,387.888,175.68z"/>
	<path style="fill:#CACACA;" d="M387.888,251.776H124.112c-8.832,0-16-7.152-16-16c0-8.848,7.168-16,16-16h263.76
		c8.832,0,16,7.152,16,16C403.888,244.624,396.72,251.776,387.888,251.776z"/>
</g>
<g>
	<path style="fill:#FFDB70;" d="M66.208,359.056c-8.832,0-16,7.152-16,16v60.064c0,8.848,7.168,16,16,16s16-7.152,16-16v-60.064
		C82.208,366.208,75.04,359.056,66.208,359.056z"/>
	<path style="fill:#FFDB70;" d="M66.208,292.688c-8.832,0-16,7.152-16,16v18.736c0,8.848,7.168,16,16,16s16-7.152,16-16v-18.736
		C82.208,299.856,75.04,292.688,66.208,292.688z"/>
</g>
<path style="fill:#F8C053;" d="M475.136,334.064V443.68c0,8.832-7.152,16-16,16s-16-7.168-16-16v-93.616h-40.592
	c-8.848,0-16-7.168-16-16s7.152-16,16-16h56.592C467.984,318.064,475.136,325.232,475.136,334.064z"/>
<g>
</g>
<g>
</g>
<g>
</g>
<g>
</g>
<g>
</g>
<g>
</g>
<g>
</g>
<g>
</g>
<g>
</g>
<g>
</g>
<g>
</g>
<g>
</g>
<g>
</g>
<g>
</g>
<g>
</g>
</svg>
