<?xml version="1.0" encoding="iso-8859-1"?>
<!-- Generator: Adobe Illustrator 19.0.0, SVG Export Plug-In . SVG Version: 6.00 Build 0)  -->
<svg version="1.1" id="Capa_1" xmlns="http://www.w3.org/2000/svg" xmlns:xlink="http://www.w3.org/1999/xlink" x="0px" y="0px"
	 viewBox="0 0 512 512" style="enable-background:new 0 0 512 512;" xml:space="preserve">
<path style="fill:#464646;" d="M306.944,512H48.16c-17.68,0-32-14.336-32-32V32c0-17.68,14.32-32,32-32h258.768
	c17.68,0,32,14.32,32,32v448C338.944,497.68,324.608,512,306.944,512z"/>
<rect x="48.16" y="69.856" style="fill:#3789C9;" width="258.72" height="341.744"/>
<g>
	<circle style="fill:#6F7070;" cx="177.6" cy="461.808" r="24.352"/>
	<path style="fill:#6F7070;" d="M223.568,30.48h-92.032c-2.448,0-4.448,1.984-4.448,4.448l0,0c0,2.448,1.984,4.448,4.448,4.448
		h92.032c2.448,0,4.448-1.984,4.448-4.448l0,0C228.016,32.48,226.016,30.48,223.568,30.48z"/>
</g>
<path style="fill:#4B9FD8;" d="M134.688,411.6c14.128,0,25.584-11.456,25.584-25.584c0-14.128-11.456-25.584-25.584-25.584h-34.224
	c-11.84,0-21.456-9.68-21.392-21.504v-0.272c0-0.528-0.016-1.04-0.048-1.568c-0.704-11.664,8.544-21.488,20.24-21.488h45.328
	c13.856,0,26.272-10.368,26.992-24.208c0.768-14.752-10.96-26.96-25.552-26.96h-14.016c-11.888,0-21.52-9.68-21.44-21.568
	l0.016-1.488v-0.304c-0.08-12.512,10.096-22.752,22.608-22.752h18.112c13.856,0,26.272-10.368,26.992-24.208
	c0.768-14.752-10.96-26.96-25.552-26.96H87.36c-12.368,0-21.584-10.384-21.44-22.752c0-0.096,0-0.208,0-0.304
	c0-0.096,0-0.208,0-0.304c-0.144-12.368,9.088-22.752,21.44-22.752h21.152c13.856,0,26.272-10.368,26.992-24.208
	c0.768-14.752-10.96-26.96-25.552-26.96H48.16v341.744h86.528V411.6z"/>
<g style="opacity:0.15;">
	<path style="fill:#010101;" d="M183.296,362.656l142.816,142.832c7.744-5.84,12.832-15.024,12.832-25.472V346.592L183.296,362.656z
		"/>
</g>
<path style="fill:#FFDB70;" d="M463.84,118.816H167.28v243.84h296.56c17.664,0,32-14.336,32-32v-179.84
	C495.84,133.136,481.504,118.816,463.84,118.816z"/>
<path style="fill:#FFCC5B;" d="M167.28,289.472v73.184h296.56c17.664,0,32-14.336,32-32v-67.728
	C386.32,227.088,276.8,344.64,167.28,289.472z"/>
<path style="fill:#2B71B8;" d="M167.296,386.368c-8.832,0-16-7.152-16-16v-259.28c0-8.848,7.168-16,16-16s16,7.152,16,16v259.28
	C183.296,379.216,176.128,386.368,167.296,386.368z"/>
<circle style="fill:#ED6362;" cx="430.304" cy="187.424" r="34.912"/>
<path style="fill:#FFFFFF;" d="M263.648,334.96h-38.032c-6.624,0-12-5.376-12-12s5.376-12,12-12h38.032c6.624,0,12,5.376,12,12
	C275.648,329.584,270.272,334.96,263.648,334.96z"/>
<path style="fill:#FFDB70;" d="M356.224,334.96h-38.032c-6.624,0-12-5.376-12-12s5.376-12,12-12h38.032c6.624,0,12,5.376,12,12
	C368.224,329.584,362.848,334.96,356.224,334.96z"/>
<path style="fill:#FFFFFF;" d="M448.784,334.96h-38.032c-6.624,0-12-5.376-12-12s5.376-12,12-12h38.032c6.624,0,12,5.376,12,12
	C460.784,329.584,455.408,334.96,448.784,334.96z"/>
<path style="fill:#FDBC4B;" d="M263.648,175.424h-80.352v24h80.352c6.624,0,12-5.376,12-12S270.272,175.424,263.648,175.424z"/>
<g>
</g>
<g>
</g>
<g>
</g>
<g>
</g>
<g>
</g>
<g>
</g>
<g>
</g>
<g>
</g>
<g>
</g>
<g>
</g>
<g>
</g>
<g>
</g>
<g>
</g>
<g>
</g>
<g>
</g>
</svg>
