<?xml version="1.0" encoding="iso-8859-1"?>
<!-- Generator: Adobe Illustrator 19.0.0, SVG Export Plug-In . SVG Version: 6.00 Build 0)  -->
<svg version="1.1" id="Capa_1" xmlns="http://www.w3.org/2000/svg" xmlns:xlink="http://www.w3.org/1999/xlink" x="0px" y="0px"
	 viewBox="0 0 512 512" style="enable-background:new 0 0 512 512;" xml:space="preserve">
<path style="fill:#464646;" d="M385.392,512H126.608c-17.664,0-32-14.336-32-32V32c0-17.68,14.336-32,32-32h258.784
	c17.68,0,32,14.32,32,32v448C417.392,497.68,403.056,512,385.392,512z"/>
<rect x="126.608" y="69.856" style="fill:#4B9FD8;" width="258.72" height="341.744"/>
<g>
	<circle style="fill:#6F7070;" cx="256" cy="461.808" r="24.352"/>
	<path style="fill:#6F7070;" d="M302.016,30.48h-92.032c-2.448,0-4.448,1.984-4.448,4.448l0,0c0,2.448,1.984,4.448,4.448,4.448
		h92.032c2.448,0,4.448-1.984,4.448-4.448l0,0C306.464,32.48,304.464,30.48,302.016,30.48z"/>
</g>
<path style="fill:#F3F3F3;" d="M256,272c-4.096,0-8.192-1.568-11.312-4.688l-35.168-35.168c-6.256-6.256-6.256-16.368,0-22.624
	s16.368-6.256,22.624,0L256,233.376l23.856-23.856c6.256-6.256,16.368-6.256,22.624,0c6.256,6.256,6.256,16.368,0,22.624
	l-35.168,35.168C264.192,270.432,260.096,272,256,272z"/>
<path style="fill:#FFCC5B;" d="M301.68,390.256h-91.344c-17.68,0-32-14.336-32-32v-91.328H333.68v91.328
	C333.68,375.936,319.344,390.256,301.68,390.256z"/>
<path style="fill:#E95454;" d="M338.992,272.736H173.024c-8.832,0-16-7.152-16-16s7.168-16,16-16h165.968c8.832,0,16,7.152,16,16
	C354.992,265.584,347.824,272.736,338.992,272.736z"/>
<rect x="240" y="240.8" style="fill:#E5E5E5;" width="32" height="149.536"/>
<g style="opacity:0.07;">
	<path style="fill:#010101;" d="M417.392,186.96v-52.928h-53.6h-71.856H220.08h-71.872h-53.6v52.928
		c5.232,2.976,11.216,4.832,17.68,4.832c19.84,0,35.936-16.08,35.936-35.936c0,19.84,16.08,35.936,35.92,35.936
		s35.936-16.08,35.936-35.936c0,19.84,16.08,35.936,35.936,35.936s35.936-16.08,35.936-35.936c0,19.84,16.08,35.936,35.936,35.936
		c19.84,0,35.936-16.08,35.936-35.936c0,19.84,16.08,35.936,35.936,35.936C406.176,191.792,412.144,189.952,417.392,186.96z"/>
</g>
<polygon style="fill:#F3F3F3;" points="148.208,119.312 76.352,119.312 126.608,69.856 178.368,69.856 "/>
<polygon style="fill:#ED6362;" points="220.064,119.312 148.208,119.312 178.368,69.856 230.128,69.856 "/>
<polygon style="fill:#F3F3F3;" points="291.936,119.312 220.064,119.312 230.128,69.856 281.872,69.856 "/>
<polygon style="fill:#ED6362;" points="363.792,119.312 291.936,119.312 281.872,69.856 333.632,69.856 "/>
<polygon style="fill:#F3F3F3;" points="435.648,119.312 363.792,119.312 333.632,69.856 385.392,69.856 "/>
<path style="fill:#E5E5E5;" d="M112.288,177.056L112.288,177.056c-19.84,0-35.936-16.08-35.936-35.92v-21.824h71.856v21.808
	C148.208,160.976,132.128,177.056,112.288,177.056z"/>
<path style="fill:#E95454;" d="M184.144,177.056L184.144,177.056c-19.84,0-35.936-16.08-35.936-35.92v-21.824h71.856v21.808
	C220.064,160.976,203.984,177.056,184.144,177.056z"/>
<path style="fill:#E5E5E5;" d="M256,177.056L256,177.056c-19.84,0-35.936-16.08-35.936-35.92v-21.824h71.856v21.808
	C291.936,160.976,275.84,177.056,256,177.056z"/>
<path style="fill:#E95454;" d="M327.856,177.056L327.856,177.056c-19.84,0-35.936-16.08-35.936-35.92v-21.824h71.856v21.808
	C363.792,160.976,347.696,177.056,327.856,177.056z"/>
<path style="fill:#E5E5E5;" d="M399.712,177.056L399.712,177.056c-19.84,0-35.936-16.08-35.936-35.92v-21.824h71.856v21.808
	C435.648,160.976,419.552,177.056,399.712,177.056z"/>
<g style="opacity:0.5;">
	<path style="fill:#FFFFFF;" d="M112.288,98.72c0,8.832,7.152,16,16,16h87.856c8.848,0,16-7.168,16-16s-7.152-16-16-16h-87.856
		C119.44,82.72,112.288,89.872,112.288,98.72z"/>
	<path style="fill:#FFFFFF;" d="M242.576,98.72c0,8.832,7.152,16,16,16h10.256c8.848,0,16-7.168,16-16s-7.152-16-16-16h-10.256
		C249.728,82.72,242.576,89.872,242.576,98.72z"/>
</g>
<g>
</g>
<g>
</g>
<g>
</g>
<g>
</g>
<g>
</g>
<g>
</g>
<g>
</g>
<g>
</g>
<g>
</g>
<g>
</g>
<g>
</g>
<g>
</g>
<g>
</g>
<g>
</g>
<g>
</g>
</svg>
