<?xml version="1.0" encoding="iso-8859-1"?>
<!-- Generator: Adobe Illustrator 19.0.0, SVG Export Plug-In . SVG Version: 6.00 Build 0)  -->
<svg version="1.1" id="Capa_1" xmlns="http://www.w3.org/2000/svg" xmlns:xlink="http://www.w3.org/1999/xlink" x="0px" y="0px"
	 viewBox="0 0 510.176 510.176" style="enable-background:new 0 0 510.176 510.176;" xml:space="preserve">
<path style="fill:#E95454;" d="M255.072,127.032c102.272,0,185.28,81.776,187.632,183.472H67.44
	C69.792,208.808,152.8,127.032,255.072,127.032z"/>
<path style="fill:#FEE218;" d="M29.024,176.536c0.896,69.056,39.248,186.848,61.584,249.808c9.072,25.568,33.2,42.64,60.336,42.64
	h208.4c27.152,0,51.28-17.072,60.336-42.672c22.304-62.96,60.576-180.736,61.44-249.776c-36.096,21.888-77.248,43.856-122.144,65.84
	c-41.2-58.352-78.144-116.56-103.904-173.696c-25.712,57.152-62.608,115.36-103.776,173.696
	C106.352,220.392,65.152,198.424,29.024,176.536z"/>
<path style="fill:#ED6362;" d="M419.952,425.528c-0.08,0.256-0.192,0.528-0.272,0.784c-9.056,25.584-33.2,42.672-60.336,42.672
	h-208.4c-27.136,0-51.264-17.056-60.336-42.64c-0.096-0.256-0.192-0.544-0.288-0.8h329.632V425.528z"/>
<circle style="fill:#FDBC4B;" cx="255.072" cy="79.912" r="38.72"/>
<circle style="fill:#FECA74;" cx="265.056" cy="69.992" r="16.16"/>
<g>
	<circle style="fill:#FDBC4B;" cx="29.024" cy="176.552" r="29.024"/>
	<circle style="fill:#FDBC4B;" cx="481.152" cy="176.552" r="29.024"/>
</g>
<polygon style="fill:#3789C9;" points="255.072,190.536 301.696,289.512 255.072,388.488 208.448,289.512 "/>
<g>
	<polygon style="fill:#4B9FD8;" points="226.128,289.512 226.128,289.496 255.072,228.088 255.072,289.512 	"/>
	<polygon style="fill:#4B9FD8;" points="284.016,289.512 255.072,350.936 255.072,350.936 255.072,289.512 	"/>
</g>
<path style="fill:#FFFFFF;" d="M247.84,400.328l-50.608-107.424c-1.024-2.16-1.024-4.656,0-6.816L247.84,178.68
	c2.64-5.616,11.824-5.616,14.464,0l50.608,107.408c1.024,2.16,1.024,4.656,0,6.816l-50.608,107.424
	c-1.328,2.816-4.128,4.592-7.232,4.592C251.968,404.92,249.152,403.144,247.84,400.328z M255.072,200.856l-41.76,88.64l41.76,88.656
	l41.76-88.656L255.072,200.856z"/>
<g>
	<circle style="fill:#FECA74;" cx="488.816" cy="170.84" r="12.464"/>
	<circle style="fill:#FECA74;" cx="37.264" cy="170.84" r="12.464"/>
</g>
<g style="opacity:0.4;">
	<path style="fill:#FFFFFF;" d="M118.96,401.32c-8.432,2.624-17.408-2.064-20.032-10.512l-22.336-72.816
		c-2.64-8.448,2.08-17.408,10.512-20.032c8.432-2.624,17.408,2.064,20.032,10.512l22.336,72.816
		C132.112,389.72,127.392,398.696,118.96,401.32z"/>
</g>
<g style="opacity:0.4;">
	<path style="fill:#FFFFFF;" d="M84.896,290.856c-8.432,2.624-17.408-2.08-20.032-10.512l-0.832-2.688
		c-2.624-8.448,2.08-17.408,10.512-20.032c8.432-2.624,17.408,2.064,20.032,10.512l0.832,2.672
		C98.048,279.256,93.328,288.232,84.896,290.856z"/>
</g>
<circle style="fill:#FFD817;" cx="392.528" cy="289.992" r="34.832"/>
<g>
</g>
<g>
</g>
<g>
</g>
<g>
</g>
<g>
</g>
<g>
</g>
<g>
</g>
<g>
</g>
<g>
</g>
<g>
</g>
<g>
</g>
<g>
</g>
<g>
</g>
<g>
</g>
<g>
</g>
</svg>
