<?xml version="1.0" encoding="iso-8859-1"?>
<!-- Generator: Adobe Illustrator 19.0.0, SVG Export Plug-In . SVG Version: 6.00 Build 0)  -->
<svg version="1.1" id="Capa_1" xmlns="http://www.w3.org/2000/svg" xmlns:xlink="http://www.w3.org/1999/xlink" x="0px" y="0px"
	 viewBox="0 0 512 512" style="enable-background:new 0 0 512 512;" xml:space="preserve">
<path style="fill:#F3F3F3;" d="M512,161.648H0V480c0,17.68,14.336,32,32,32h338.224L512,370.224V161.648z"/>
<path style="fill:#CACACA;" d="M512,370.224H402.224c-17.68,0-32,14.32-32,32V512L512,370.224z"/>
<path style="fill:#E5E5E5;" d="M131.36,439.008h-16.4c-16,0-29.472-10.656-29.584-33.536c-0.08-17.376,14.064-31.584,31.44-31.584
	h18.272c21.392,0,38.496-18.416,36.304-40.256c-1.824-18.144-20.16-32.736-38.384-32.736H80.72c-16,0-31.536-10.816-32.768-34.848
	c-0.832-17.056,12.544-31.392,29.616-31.392h38.544c21.392,0,38.496-18.416,36.304-40.256c-1.808-18.144-20.16-32.736-38.384-32.736
	H0V480c0,17.68,14.336,32,32,32h101.44c21.392,0,38.496-18.416,36.304-40.256C167.936,453.6,149.584,439.008,131.36,439.008z"/>
<path style="fill:#3789C9;" d="M480,0H32C14.336,0,0,14.336,0,32v129.648h512V32C512,14.336,497.68,0,480,0z M142,106.736
	c-14.304,0-25.904-11.6-25.904-25.904s11.6-25.904,25.904-25.904s25.904,11.6,25.904,25.904S156.304,106.736,142,106.736z
	 M370,106.736c-14.304,0-25.904-11.6-25.904-25.904s11.6-25.904,25.904-25.904s25.904,11.6,25.904,25.904
	S384.32,106.736,370,106.736z"/>
<path style="fill:#FFCC5B;" d="M352.56,64.832H159.44c-8.832,0-16,7.152-16,16h225.104C368.56,71.984,361.392,64.832,352.56,64.832z
	"/>
<path style="fill:#FDBC4B;" d="M143.44,80.816L143.44,80.816c0,8.848,7.168,16,16,16h193.104c8.832,0,16-7.152,16-16l0,0H143.44z"/>
<g>
	<path style="fill:#ED6362;" d="M208.304,405.376h-36.368V268.304c-13.28,12.432-28.944,21.616-46.992,27.568v-33.008
		c16.016-5.232,44.736-22.576,53.84-48.016h29.504v190.528H208.304z"/>
	<path style="fill:#ED6362;" d="M262.672,251.984v-33.776h124.384v26.4c-33.92,33.344-64.096,104.16-63.808,160.752H288.16
		c1.232-53.344,23.408-110.88,57.216-153.376L262.672,251.984L262.672,251.984z"/>
</g>
<g>
	<path style="fill:#2FA1DB;" d="M442.928,119.792l-76.16-0.304c-8.848-0.08-16.064,7.024-16.128,15.872
		c-0.08,8.832,7.024,16.064,15.872,16.128l76.16,0.288c8.848,0.08,16.064-7.024,16.128-15.856S451.776,119.872,442.928,119.792z"/>
	<path style="fill:#2FA1DB;" d="M485.168,120.144l-2.8-0.016c-8.848-0.08-16.064,7.024-16.128,15.872
		c-0.08,8.832,7.024,16.064,15.856,16.128l2.8,0.016c8.848,0.08,16.064-7.024,16.128-15.856
		C501.104,127.44,494.016,120.224,485.168,120.144z"/>
</g>
<g>
</g>
<g>
</g>
<g>
</g>
<g>
</g>
<g>
</g>
<g>
</g>
<g>
</g>
<g>
</g>
<g>
</g>
<g>
</g>
<g>
</g>
<g>
</g>
<g>
</g>
<g>
</g>
<g>
</g>
</svg>
