<?xml version="1.0" encoding="iso-8859-1"?>
<!-- Generator: Adobe Illustrator 19.0.0, SVG Export Plug-In . SVG Version: 6.00 Build 0)  -->
<svg version="1.1" id="Capa_1" xmlns="http://www.w3.org/2000/svg" xmlns:xlink="http://www.w3.org/1999/xlink" x="0px" y="0px"
	 viewBox="0 0 513.728 513.728" style="enable-background:new 0 0 513.728 513.728;" xml:space="preserve">
<rect x="224.864" y="32" style="fill:#CD494C;" width="64" height="112.32"/>
<g>
	<path style="fill:#E95454;" d="M64.672,130.624c12.496-12.496,32.752-12.496,45.248,0l56.784,56.784l-45.248,45.248l-56.784-56.784
		C52.176,163.376,52.176,143.12,64.672,130.624z"/>
	<path style="fill:#E95454;" d="M189.008,0H324.72c17.664,0,32,14.336,32,32s-14.336,32-32,32H189.008c-17.664,0-32-14.32-32-32
		S171.328,0,189.008,0z"/>
</g>
<circle style="fill:#6F7070;" cx="256.864" cy="304.288" r="209.44"/>
<circle style="fill:#F3F3F3;" cx="256.864" cy="304.288" r="145.792"/>
<circle style="fill:#F9F9FA;" cx="228.176" cy="332.992" r="67.904"/>
<path style="fill:#7D7D7D;" d="M64.816,304.288c0-105.888,86.144-192.048,192.048-192.048s192.048,86.16,192.048,192.048
	c0,105.904-86.16,192.064-192.048,192.064S64.816,410.192,64.816,304.288z M96.816,304.288c0,88.272,71.792,160.064,160.048,160.064
	s160.048-71.792,160.048-160.064c0-88.256-71.792-160.048-160.048-160.048S96.816,216.048,96.816,304.288z"/>
<g>
	<path style="fill:#CACACA;" d="M256.864,171.008c4.416,0,8,3.584,8,8v21.904c0,4.416-3.584,8-8,8c-4.416,0-8-3.584-8-8v-21.904
		C248.864,174.592,252.448,171.008,256.864,171.008z"/>
	<path style="fill:#CACACA;" d="M256.864,399.664c4.416,0,8,3.584,8,8v21.92c0,4.416-3.584,8-8,8c-4.416,0-8-3.584-8-8v-21.92
		C248.864,403.248,252.448,399.664,256.864,399.664z"/>
	<path style="fill:#CACACA;" d="M178.112,236.848l-15.488-15.504c-3.12-3.12-3.12-8.192,0-11.312s8.192-3.12,11.312,0l15.488,15.504
		c3.12,3.12,3.12,8.192,0,11.312S181.232,239.984,178.112,236.848z"/>
	<path style="fill:#CACACA;" d="M335.616,371.744l15.488,15.488c3.12,3.12,3.12,8.192,0,11.312c-3.12,3.12-8.192,3.12-11.312,0
		l-15.488-15.488c-3.12-3.12-3.12-8.192,0-11.312C327.44,368.624,332.496,368.624,335.616,371.744z"/>
	<path style="fill:#CACACA;" d="M131.568,296.288h21.92c4.416,0,8,3.584,8,8s-3.584,8-8,8h-21.92c-4.416,0-8-3.584-8-8
		C123.568,299.872,127.152,296.288,131.568,296.288z"/>
	<path style="fill:#CACACA;" d="M360.24,296.288h21.904c4.416,0,8,3.584,8,8s-3.584,8-8,8H360.24c-4.416,0-8-3.584-8-8
		C352.24,299.872,355.824,296.288,360.24,296.288z"/>
	<path style="fill:#CACACA;" d="M178.112,371.744c3.12-3.12,8.192-3.12,11.312,0s3.12,8.192,0,11.312l-15.488,15.488
		c-3.12,3.12-8.192,3.12-11.312,0s-3.12-8.192,0-11.312L178.112,371.744z"/>
	<path style="fill:#CACACA;" d="M339.808,210.048c3.12-3.12,8.192-3.12,11.312,0c3.12,3.12,3.12,8.192,0,11.312l-15.488,15.504
		c-3.12,3.12-8.192,3.12-11.312,0c-3.12-3.12-3.12-8.192,0-11.312L339.808,210.048z"/>
</g>
<path style="fill:#F89E62;" d="M256.864,232.656c4.416,0,8,3.584,8,8v53.904c0,4.416-3.584,8-8,8c-4.416,0-8-3.584-8-8v-53.904
	C248.864,236.224,252.448,232.656,256.864,232.656z"/>
<circle style="fill:#E86F3E;" cx="256.864" cy="304.288" r="18.544"/>
<path style="fill:#ED6362;" d="M264.864,48h62.416c8.832,0,16-7.152,16-16s-7.168-16-16-16h-62.416c-8.832,0-16,7.152-16,16
	S256.032,48,264.864,48z"/>
<g>
</g>
<g>
</g>
<g>
</g>
<g>
</g>
<g>
</g>
<g>
</g>
<g>
</g>
<g>
</g>
<g>
</g>
<g>
</g>
<g>
</g>
<g>
</g>
<g>
</g>
<g>
</g>
<g>
</g>
</svg>
