<?xml version="1.0" encoding="iso-8859-1"?>
<!-- Generator: Adobe Illustrator 19.0.0, SVG Export Plug-In . SVG Version: 6.00 Build 0)  -->
<svg version="1.1" id="Capa_1" xmlns="http://www.w3.org/2000/svg" xmlns:xlink="http://www.w3.org/1999/xlink" x="0px" y="0px"
	 viewBox="0 0 512 512" style="enable-background:new 0 0 512 512;" xml:space="preserve">
<path style="fill:#CACACA;" d="M450.96,227.792L272.288,25.44c-4.368-4.976-10.16-7.712-16.288-7.712l0,0
	c-6.112,0-11.904,2.736-16.288,7.696L61.04,227.792c-2.928,3.312-7.984,3.616-11.296,0.704s-3.632-7.984-0.704-11.296
	L227.712,14.848c7.472-8.464,17.52-13.12,28.288-13.12l0,0c10.768,0,20.816,4.656,28.288,13.104L462.96,217.2
	c2.928,3.312,2.608,8.368-0.704,11.296C458.944,231.408,453.92,231.12,450.96,227.792z"/>
<path style="fill:#E5E5E5;" d="M480,510.272H32c-17.68,0-32-14.32-32-32V231.056c0-17.68,14.32-32,32-32h448
	c17.664,0,32,14.32,32,32v247.216C512,495.936,497.664,510.272,480,510.272z"/>
<path style="fill:#DCDBDB;" d="M480,215.056H370.384c-8.832,0-16,7.152-16,16c0,8.848,7.168,16,16,16H464v40.592
	c0,8.848,7.168,16,16,16s16-7.152,16-16v-56.592C496,222.224,488.832,215.056,480,215.056z"/>
<g>
	<path style="fill:#F3F3F3;" d="M32,359.568c-8.832,0-16,7.152-16,16v60.064c0,8.848,7.168,16,16,16s16-7.152,16-16v-60.064
		C48,366.72,40.848,359.568,32,359.568z"/>
	<path style="fill:#F3F3F3;" d="M32,293.2c-8.832,0-16,7.152-16,16v18.736c0,8.848,7.168,16,16,16s16-7.152,16-16V309.2
		C48,300.352,40.848,293.2,32,293.2z"/>
</g>
<rect x="64" y="263.056" style="fill:#E95454;" width="384" height="183.2"/>
<circle style="fill:#787878;" cx="256" cy="31.664" r="21.936"/>
<g>
	<path style="fill:#FFFFFF;" d="M98.192,369.92l17.2-1.664c1.04,5.776,3.136,10.016,6.304,12.72s7.44,4.064,12.8,4.064
		c5.696,0,9.984-1.2,12.864-3.616c2.88-2.4,4.336-5.216,4.336-8.448c0-2.064-0.608-3.84-1.824-5.28
		c-1.216-1.456-3.328-2.72-6.352-3.792c-2.064-0.72-6.784-1.984-14.16-3.824c-9.472-2.352-16.112-5.232-19.936-8.656
		c-5.376-4.816-8.064-10.688-8.064-17.616c0-4.464,1.264-8.624,3.792-12.512s6.176-6.832,10.928-8.864s10.496-3.04,17.232-3.04
		c10.992,0,19.264,2.416,24.816,7.216c5.552,4.816,8.464,11.248,8.752,19.28l-17.68,0.784c-0.752-4.496-2.384-7.728-4.864-9.696
		c-2.48-1.968-6.224-2.96-11.2-2.96c-5.136,0-9.152,1.056-12.064,3.168c-1.872,1.36-2.8,3.168-2.8,5.44
		c0,2.064,0.88,3.84,2.624,5.312c2.224,1.872,7.648,3.824,16.24,5.856c8.592,2.032,14.96,4.128,19.072,6.304
		c4.128,2.16,7.344,5.136,9.68,8.896c2.32,3.76,3.488,8.4,3.488,13.936c0,5.008-1.392,9.712-4.176,14.096s-6.736,7.632-11.824,9.76
		c-5.088,2.128-11.44,3.2-19.04,3.2c-11.072,0-19.568-2.56-25.504-7.68C102.896,387.168,99.344,379.712,98.192,369.92z"/>
	<path style="fill:#FFFFFF;" d="M263.168,398.4h-19.232l-7.648-19.888h-34.992L194.08,398.4h-18.752l34.096-87.536h18.688
		L263.168,398.4z M230.624,363.76l-12.064-32.48l-11.824,32.48H230.624z"/>
	<path style="fill:#FFFFFF;" d="M273.024,398.4v-86.816h17.68v72.064h43.952V398.4H273.024z"/>
	<path style="fill:#FFFFFF;" d="M347.232,398.4v-87.536h64.896v14.8h-47.232v19.408h43.952v14.752h-43.952v23.824h48.896V398.4
		H347.232z"/>
</g>
<g>
</g>
<g>
</g>
<g>
</g>
<g>
</g>
<g>
</g>
<g>
</g>
<g>
</g>
<g>
</g>
<g>
</g>
<g>
</g>
<g>
</g>
<g>
</g>
<g>
</g>
<g>
</g>
<g>
</g>
</svg>
