<?xml version="1.0" encoding="iso-8859-1"?>
<!-- Generator: Adobe Illustrator 19.0.0, SVG Export Plug-In . SVG Version: 6.00 Build 0)  -->
<svg version="1.1" id="Capa_1" xmlns="http://www.w3.org/2000/svg" xmlns:xlink="http://www.w3.org/1999/xlink" x="0px" y="0px"
	 viewBox="0 0 513.379 513.379" style="enable-background:new 0 0 513.379 513.379;" xml:space="preserve">
<path style="fill:#E5E5E5;" d="M389.456,22.387c-8.56-18.656-30.72-26.896-49.376-18.32c-12.144,5.584-34.32,32.32-46.288,47.552
	c-11.984-15.232-34.144-41.984-46.304-47.552c-18.672-8.576-40.8-0.336-49.376,18.32c-8.592,18.688-0.4,40.784,18.304,49.376
	c8,3.68,25.84,4.656,42.624,4.656c15.136,0,29.328-0.8,34.736-1.136c5.392,0.352,19.6,1.136,34.752,1.136
	c16.784,0,34.608-0.976,42.624-4.656C389.856,63.171,398.048,41.091,389.456,22.387z M223.904,55.459
	c-9.696-4.432-13.952-15.872-9.488-25.6c4.48-9.76,16.048-13.904,25.6-9.488c6.528,2.992,22.544,21.008,36.064,37.808
	C254.544,58.883,230.432,58.467,223.904,55.459z M363.68,55.459c-6.528,3.008-30.624,3.376-52.176,2.704
	c13.52-16.784,29.536-34.8,36.064-37.808c9.664-4.464,21.168-0.208,25.616,9.488C377.632,39.587,373.36,51.027,363.68,55.459z"/>
<path style="fill:#84CA9B;" d="M400.704,314.835H186.88c-17.68,0-32-14.32-32-32V118.771h277.824v164.064
	C432.704,300.499,418.368,314.835,400.704,314.835z"/>
<path style="fill:#787878;" d="M433.984,56.947h-280.4c-14.624,0-26.48,11.856-26.48,26.48v8.848c0,14.624,11.856,26.48,26.48,26.48
	h280.4c14.624,0,26.48-11.856,26.48-26.48v-8.832C460.48,68.803,448.624,56.947,433.984,56.947z"/>
<rect x="265.104" y="56.947" style="fill:#F3F3F3;" width="57.376" height="257.92"/>
<path style="fill:#79C692;" d="M347.568,135.827c-2.032,12.768,7.776,23.776,20.16,23.776h21.568c9.552,0,17.04,8.032,16.576,17.568
	c-0.016,0.32-0.016,0.64-0.016,0.976c0,0.048,0,0.096,0,0.144c0.08,10-7.376,18.384-17.376,18.384h-30.192
	c-10.208,0-19.712,6.976-21.312,17.056c-2.032,12.768,7.776,23.776,20.16,23.776h10.224c9.728,0,17.648,7.952,17.6,17.68v0.24
	c0,0.384,0.016,0.784,0.032,1.168c0.528,9.456-7.104,17.36-16.576,17.36h-9.184c-10.208,0-19.712,6.976-21.328,17.056
	c-2.032,12.768,7.776,23.792,20.16,23.792h53.84c11.504,0,20.832-9.328,20.832-20.832v-175.2h-63.808
	C358.672,118.771,349.168,125.747,347.568,135.827z"/>
<g>
	<path style="fill:#878787;" d="M200.384,100.595h-43.456c-5.76,0-10.416-4.656-10.416-10.416s4.656-10.416,10.416-10.416h43.456
		c5.76,0,10.416,4.656,10.416,10.416S206.144,100.595,200.384,100.595z"/>
	<path style="fill:#878787;" d="M237.712,100.595h-7.936c-5.76,0-10.416-4.656-10.416-10.416s4.672-10.416,10.416-10.416h7.936
		c5.76,0,10.416,4.656,10.416,10.416S243.472,100.595,237.712,100.595z"/>
</g>
<g style="opacity:0.07;">
	<rect x="154.88" y="118.771" style="fill:#010101;" width="277.824" height="10.592"/>
</g>
<path style="fill:#FFE28F;" d="M79.664,354.403c0,0,16.848,1.92,48.608-12.992c31.76-14.912,64.016-4.816,64.016-4.816
	s40.432,19.248,54.384,22.624c13.952,3.376,44.288,3.376,74.608,1.92c0,0,40.432-7.696,49.104,16.848c0,0,11.072-2.4,29.36-12.032
	c0,0,88.08-44.64,109.264-26.656c0,0,14.432,13.184-9.152,29.056c0,0-96.272,62.576-154.496,88.56c0,0-20.208,7.696-61.12,39.952
	c0,0-14.928,6.736-33.696-4.816c0,0-102.528-53.424-152.096-32.24L79.664,354.403z"/>
<g style="opacity:0.25;">
	<path style="fill:#EC9922;" d="M373.632,386.883c0,29.2-66.112,32.784-66.112,32.784c-9.92,5.232-24.24,6.336-24.24,6.336
		c-11.024-3.312-63.904-4.96-63.904-4.96c-30.304,3.312-45.728-7.712-45.728-7.712s11.568,13.216,40.768,12.672
		c0,0,47.936-2.208,59.232,8.816c0,0,19.472,4.96,36.592-8.256c0,0,9.952-6.064,21.52-6.064c0,0,35.264-3.312,41.872-23.136
		L373.632,386.883L373.632,386.883z"/>
</g>
<g>
	<path style="fill:#F3F3F3;" d="M343.92,367.795l-11.504,1.408c-2.688,0.32-4.592,2.768-4.272,5.456l3.472,28.512
		c0.336,2.688,2.768,4.592,5.456,4.272l11.504-1.408c10.56-1.28,18.064-10.896,16.784-21.44
		C364.08,374.019,354.464,366.499,343.92,367.795z"/>
	<path style="fill:#F3F3F3;" d="M512.544,354.227c-33.904,2.176-31.968,25.28-31.968,25.28l0.48,0.832
		c11.616-7.312,18.8-11.984,18.8-11.984C507.44,363.251,511.072,358.419,512.544,354.227z"/>
</g>
<polygon style="fill:#E5E5E5;" points="105.424,490.787 63.952,498.819 39.744,359.795 79.776,351.955 "/>
<polygon style="fill:#E95454;" points="0,512.707 64.784,502.003 38.528,351.955 0,359.235 "/>
<g style="opacity:0.25;">
	<path style="fill:#FDBC4B;" d="M393.2,407.379c4.416,7.648,14.192,10.272,21.856,5.856l40.96-23.632
		c7.664-4.416,10.272-14.208,5.856-21.856c-4.416-7.648-14.192-10.272-21.856-5.856l-40.96,23.648
		C391.408,389.939,388.784,399.715,393.2,407.379z"/>
</g>
<g style="opacity:0.3;">
	<path style="fill:#FFFFFF;" d="M205.024,386.467c-2.096,8.592,3.168,17.232,11.76,19.328l2.72,0.656
		c8.592,2.096,17.248-3.184,19.328-11.76c2.08-8.592-3.168-17.232-11.76-19.328l-2.72-0.656
		C215.76,372.611,207.12,377.891,205.024,386.467z"/>
	<path style="fill:#FFFFFF;" d="M120.752,365.971c-2.08,8.592,3.168,17.232,11.76,19.328l45.952,11.184
		c8.592,2.096,17.232-3.184,19.328-11.76c2.096-8.592-3.168-17.232-11.76-19.328l-45.952-11.184
		C131.488,352.115,122.848,357.395,120.752,365.971z"/>
</g>
<g>
</g>
<g>
</g>
<g>
</g>
<g>
</g>
<g>
</g>
<g>
</g>
<g>
</g>
<g>
</g>
<g>
</g>
<g>
</g>
<g>
</g>
<g>
</g>
<g>
</g>
<g>
</g>
<g>
</g>
</svg>
