<?xml version="1.0" encoding="iso-8859-1"?>
<!-- Generator: Adobe Illustrator 19.0.0, SVG Export Plug-In . SVG Version: 6.00 Build 0)  -->
<svg version="1.1" id="Capa_1" xmlns="http://www.w3.org/2000/svg" xmlns:xlink="http://www.w3.org/1999/xlink" x="0px" y="0px"
	 viewBox="0 0 514.72 514.72" style="enable-background:new 0 0 514.72 514.72;" xml:space="preserve">
<path style="fill:#464646;" d="M466.528,199.832H32c-17.68,0-32,14.32-32,32v249.552c0,17.68,14.32,32,32,32h434.528
	c19.568,0,35.424-15.856,35.424-35.424V235.24C501.936,215.688,486.08,199.832,466.528,199.832z"/>
<rect x="0" y="276.936" style="fill:#6F7070;" width="501.952" height="35.408"/>
<path style="fill:#787878;" d="M501.92,276.888v35.424H303.216c-9.744,0-17.712-7.968-17.712-17.712
	c0-9.744,7.968-17.712,17.712-17.712H501.92z"/>
<g>
	<path style="fill:#3E3E3E;" d="M501.92,241.464v35.424H359.536c-9.744,0-17.712-7.968-17.712-17.712s7.968-17.712,17.712-17.712
		H501.92z"/>
	<path style="fill:#3E3E3E;" d="M501.92,312.312v35.424h-99.872c-9.744,0-17.712-7.968-17.712-17.712
		c0-9.744,7.968-17.712,17.712-17.712H501.92z"/>
</g>
<path style="fill:#DAEFF6;" d="M366.624,447h-29.04c-9.744,0-17.712,7.968-17.712,17.712c0,9.744,7.968,17.712,17.712,17.712h29.04
	c9.776,0,17.712-7.936,17.712-17.712C384.336,454.92,376.4,447,366.624,447z"/>
<path style="fill:#4B9FD8;" d="M449.216,447h-29.04c-9.744,0-17.712,7.968-17.712,17.712c0,9.744,7.968,17.712,17.712,17.712h29.04
	c9.776,0,17.712-7.936,17.712-17.712C466.928,454.92,458.992,447,449.216,447z"/>
<path style="fill:#4D4D4D;" d="M312.672,498.328c0-8.32-6.736-15.056-15.056-15.056h-20.128c-6.96,0-12.624-5.696-12.592-12.656
	v-0.16c0-0.304-0.016-0.608-0.032-0.928c-0.416-6.864,5.024-12.64,11.904-12.64h26.672c8.16,0,15.456-6.096,15.888-14.24
	c0.448-8.688-6.448-15.856-15.04-15.856h-8.24c-7.008,0-12.656-5.696-12.624-12.688v-0.88v-0.176
	c-0.048-7.36,5.952-13.392,13.312-13.392h10.656c8.16,0,15.456-6.112,15.888-14.24c0.448-8.688-6.448-15.856-15.024-15.856h-38.48
	c-7.28,0-12.704-6.112-12.608-13.392c0-0.064,0-0.112,0-0.176s0-0.128,0-0.176c-0.08-7.28,5.344-13.392,12.608-13.392h12.448
	c8.16,0,15.456-6.112,15.888-14.24c0.448-8.688-6.448-15.856-15.024-15.856H0V481.4c0,17.68,14.32,32,32,32h265.632
	C305.936,513.384,312.672,506.632,312.672,498.328z"/>
<rect x="41.088" y="330.008" style="fill:#FEE218;" width="78.08" height="78.08"/>
<path style="fill:#4B9FD8;" d="M514.72,120.2c0,65.76-53.28,118.88-118.88,118.88c-18.24,0-35.52-4-50.88-11.36l-52.8,31.52
	l12.16-63.04c-17.12-20.64-27.36-47.2-27.36-76c0-65.6,53.12-118.88,118.88-118.88C461.44,1.32,514.72,54.6,514.72,120.2z"/>
<circle style="fill:#3789C9;" cx="435.28" cy="80.728" r="54.64"/>
<path style="fill:#FFFFFF;" d="M389.024,169.784V129.32c-12.624-3.6-21.872-9.056-27.76-16.368s-8.832-16.176-8.832-26.608
	c0-10.56,3.328-19.424,10-26.608s15.536-11.312,26.608-12.416v-9.568h14v9.568c10.24,1.216,18.384,4.72,24.432,10.48
	c6.048,5.76,9.92,13.472,11.584,23.136l-24.432,3.184c-1.488-7.6-5.344-12.752-11.584-15.456v37.76
	c15.456,4.176,25.984,9.616,31.584,16.272c5.6,6.656,8.4,15.216,8.4,25.648c0,11.648-3.52,21.472-10.576,29.456
	c-7.056,7.984-16.848,12.88-29.408,14.672v10.288h-14v-9.808c-11.136-1.36-20.176-5.504-27.136-12.464
	c-6.96-6.96-11.392-16.768-13.328-29.456l25.2-2.704c1.024,5.152,2.96,9.584,5.792,13.328
	C382.4,165.4,385.552,168.104,389.024,169.784z M389.024,68.376c-3.792,1.28-6.832,3.472-9.072,6.576
	c-2.256,3.088-3.376,6.496-3.376,10.24c0,3.408,1.024,6.576,3.088,9.52c2.064,2.928,5.184,5.296,9.376,7.104v-33.44H389.024z
	 M403.04,171.128c4.832-0.896,8.752-3.136,11.776-6.72c3.024-3.568,4.544-7.776,4.544-12.608c0-4.32-1.28-8.032-3.808-11.152
	c-2.544-3.12-6.72-5.52-12.512-7.2V171.128z"/>
<g>
</g>
<g>
</g>
<g>
</g>
<g>
</g>
<g>
</g>
<g>
</g>
<g>
</g>
<g>
</g>
<g>
</g>
<g>
</g>
<g>
</g>
<g>
</g>
<g>
</g>
<g>
</g>
<g>
</g>
</svg>
