<?xml version="1.0" encoding="iso-8859-1"?>
<!-- Generator: Adobe Illustrator 19.0.0, SVG Export Plug-In . SVG Version: 6.00 Build 0)  -->
<svg version="1.1" id="Capa_1" xmlns="http://www.w3.org/2000/svg" xmlns:xlink="http://www.w3.org/1999/xlink" x="0px" y="0px"
	 viewBox="0 0 508.444 508.444" style="enable-background:new 0 0 508.444 508.444;" xml:space="preserve">
<path style="fill:#EC9922;" d="M254.222,153.398c-34.928,0-63.344-28.416-63.344-63.344s28.416-63.344,63.344-63.344
	s63.344,28.416,63.344,63.344S289.15,153.398,254.222,153.398z M254.222,58.71c-17.28,0-31.344,14.064-31.344,31.344
	s14.064,31.344,31.344,31.344s31.344-14.064,31.344-31.344S271.502,58.71,254.222,58.71z"/>
<circle style="fill:#6F7070;" cx="254.222" cy="423.67" r="58.064"/>
<path style="fill:#787878;" d="M308.686,443.19c2.192-6.128,3.6-12.64,3.6-19.52c0-32.064-26-58.064-58.064-58.064
	s-58.064,26-58.064,58.064c0,6.88,1.408,13.392,3.6,19.52H308.686z"/>
<path style="fill:#FEE218;" d="M427.646,407.558c-24.448-34.688-37.568-76.096-37.568-118.528v-63.12
	c0-37.44-15.248-71.504-39.696-96.16c-26.608-26.416-63.968-42.064-105.216-39.408c-72.256,4.672-126.8,68.08-126.8,140.48v58.192
	c0,42.432-13.12,83.84-37.568,118.528c-4.784,6.784,0.064,16.128,8.368,16.128h330.112
	C427.566,423.686,432.414,414.326,427.646,407.558z"/>
<path style="fill:#EC9922;" d="M402.638,359.366H105.806c-6.192,16.992-14.48,33.232-25.008,48.192
	c-4.784,6.784,0.064,16.128,8.368,16.128h330.112c8.288,0,13.136-9.344,8.368-16.128
	C417.102,392.598,408.814,376.358,402.638,359.366z"/>
<g>
	<path style="fill:#CACACA;" d="M410.926,289.318c-4.688-4.688-4.688-12.288,0-16.976c27.232-27.232,27.232-71.552,0-98.784
		c-4.688-4.688-4.688-12.272,0-16.976c4.688-4.688,12.288-4.688,16.976,0c36.592,36.592,36.592,96.128,0,132.72
		C423.214,294.006,415.614,294.006,410.926,289.318z"/>
	<path style="fill:#CACACA;" d="M443.726,338.118c-4.688-4.688-4.688-12.288,0-16.96c54.256-54.272,54.288-142.112,0-196.384
		c-4.688-4.688-4.688-12.272,0-16.96c4.688-4.688,12.288-4.688,16.976,0c63.648,63.616,63.664,166.656,0,230.32
		C456.014,342.806,448.414,342.806,443.726,338.118z"/>
	<path style="fill:#CACACA;" d="M80.558,289.318c-36.592-36.592-36.592-96.128,0-132.72c4.688-4.688,12.288-4.688,16.976,0
		c4.688,4.688,4.688,12.288,0,16.976c-27.232,27.232-27.232,71.552,0,98.784c4.688,4.688,4.688,12.288,0,16.976
		C92.83,294.006,85.246,294.006,80.558,289.318z"/>
	<path style="fill:#CACACA;" d="M47.742,338.118c-63.632-63.632-63.68-166.672,0-230.32c4.688-4.688,12.288-4.688,16.976,0
		s4.688,12.288,0,16.96c-54.272,54.256-54.272,142.096,0,196.384c4.688,4.688,4.688,12.272,0,16.96
		C60.03,342.806,52.43,342.806,47.742,338.118z"/>
</g>
<g>
	<path style="fill:#FCB035;" d="M178.766,407.718h64.704c8.672,0,15.712-7.024,15.712-15.712s-7.04-15.712-15.712-15.712h-64.704
		c-8.672,0-15.712,7.024-15.712,15.712S170.094,407.718,178.766,407.718z"/>
	<path style="fill:#FCB035;" d="M137.326,407.718h1.968c8.672,0,15.712-7.024,15.712-15.712s-7.04-15.712-15.712-15.712h-1.968
		c-8.672,0-15.712,7.024-15.712,15.712S128.654,407.718,137.326,407.718z"/>
</g>
<g style="opacity:0.5;">
	<path style="fill:#FFFFFF;" d="M349.726,164.678c-4.704-7.472-14.576-9.664-22.064-5.024c-7.472,4.72-9.728,14.592-5.008,22.08
		c7.2,11.424,11.008,24.704,11.008,38.384v63.104c0,8.848,7.168,16,16,16s16-7.152,16-16v-63.104
		C365.646,200.406,360.142,181.222,349.726,164.678z"/>
	<path style="fill:#FFFFFF;" d="M313.678,130.086c-15.696-9.04-33.632-13.808-51.872-13.808c-8.832,0-16,7.152-16,16s7.168,16,16,16
		c12.64,0,25.04,3.296,35.904,9.568c7.68,4.384,17.456,1.744,21.856-5.888C323.982,144.294,321.342,134.518,313.678,130.086z"/>
</g>
<g>
</g>
<g>
</g>
<g>
</g>
<g>
</g>
<g>
</g>
<g>
</g>
<g>
</g>
<g>
</g>
<g>
</g>
<g>
</g>
<g>
</g>
<g>
</g>
<g>
</g>
<g>
</g>
<g>
</g>
</svg>
