<?xml version="1.0" encoding="iso-8859-1"?>
<!-- Generator: Adobe Illustrator 19.0.0, SVG Export Plug-In . SVG Version: 6.00 Build 0)  -->
<svg version="1.1" id="Capa_1" xmlns="http://www.w3.org/2000/svg" xmlns:xlink="http://www.w3.org/1999/xlink" x="0px" y="0px"
	 viewBox="0 0 513.379 513.379" style="enable-background:new 0 0 513.379 513.379;" xml:space="preserve">
<path style="fill:#FFE28F;" d="M79.664,299.474c0,0,16.848,1.92,48.608-12.992c31.76-14.928,64.016-4.816,64.016-4.816
	s40.432,19.248,54.384,22.624c13.952,3.376,44.288,3.376,74.608,1.92c0,0,40.432-7.696,49.104,16.848c0,0,11.072-2.4,29.36-12.032
	c0,0,88.08-44.64,109.264-26.656c0,0,14.432,13.184-9.152,29.056c0,0-96.272,62.576-154.496,88.56c0,0-20.208,7.696-61.12,39.952
	c0,0-14.928,6.736-33.696-4.816c0,0-102.528-53.424-152.096-32.24L79.664,299.474z"/>
<g style="opacity:0.25;">
	<path style="fill:#EC9922;" d="M373.632,331.97c0,29.2-66.112,32.784-66.112,32.784c-9.92,5.232-24.24,6.336-24.24,6.336
		c-11.024-3.312-63.904-4.96-63.904-4.96c-30.304,3.312-45.728-7.712-45.728-7.712s11.568,13.216,40.768,12.672
		c0,0,47.936-2.208,59.232,8.816c0,0,19.472,4.96,36.592-8.272c0,0,9.952-6.064,21.52-6.064c0,0,35.264-3.312,41.872-23.136
		L373.632,331.97L373.632,331.97z"/>
</g>
<g>
	<path style="fill:#F3F3F3;" d="M343.92,312.866l-11.504,1.408c-2.688,0.336-4.592,2.768-4.272,5.456l3.472,28.512
		c0.336,2.688,2.768,4.592,5.456,4.272l11.504-1.408c10.56-1.296,18.064-10.896,16.784-21.44
		C364.08,319.09,354.464,311.586,343.92,312.866z"/>
	<path style="fill:#F3F3F3;" d="M512.544,299.298c-33.904,2.176-31.968,25.28-31.968,25.28l0.48,0.832
		c11.616-7.312,18.8-11.984,18.8-11.984C507.44,308.322,511.072,303.506,512.544,299.298z"/>
</g>
<polygon style="fill:#E5E5E5;" points="105.424,435.858 63.952,443.906 39.744,304.866 79.776,297.026 "/>
<polygon style="fill:#E95454;" points="0,457.778 64.784,447.074 38.528,297.026 0,304.306 "/>
<g style="opacity:0.25;">
	<path style="fill:#FDBC4B;" d="M393.2,352.45c4.416,7.648,14.192,10.272,21.856,5.856l40.96-23.632
		c7.664-4.416,10.272-14.208,5.856-21.856s-14.192-10.272-21.856-5.856l-40.96,23.648C391.408,335.01,388.784,344.802,393.2,352.45z
		"/>
</g>
<g style="opacity:0.3;">
	<path style="fill:#FFFFFF;" d="M205.024,331.554c-2.096,8.592,3.168,17.232,11.76,19.328l2.72,0.656
		c8.592,2.096,17.248-3.184,19.328-11.76c2.08-8.592-3.168-17.232-11.76-19.328l-2.72-0.656
		C215.76,317.698,207.12,322.962,205.024,331.554z"/>
	<path style="fill:#FFFFFF;" d="M120.752,311.058c-2.08,8.592,3.168,17.232,11.76,19.328l45.952,11.184
		c8.592,2.096,17.232-3.184,19.328-11.76c2.096-8.592-3.168-17.232-11.76-19.328l-45.952-11.184
		C131.488,297.202,122.848,302.466,120.752,311.058z"/>
</g>
<path style="fill:#4B9FD8;" d="M464.176,55.602H192.048c-12.352,0-22.352,10-22.352,22.352V231.17c0,12.352,10,22.352,22.352,22.352
	h272.128c12.352,0,22.352-10.016,22.352-22.352V77.954C486.528,65.602,476.528,55.602,464.176,55.602z"/>
<rect x="169.68" y="104.274" style="fill:#464646;" width="316.848" height="22.352"/>
<path style="fill:#525252;" d="M486.512,104.242v22.352H361.088c-6.144,0-11.184-5.04-11.184-11.184s5.024-11.184,11.184-11.184
	h125.424V104.242z"/>
<g>
	<path style="fill:#3789C9;" d="M486.512,81.89v22.352H396.64c-6.144,0-11.184-5.024-11.184-11.184s5.024-11.184,11.184-11.184
		h89.872V81.89z"/>
	<path style="fill:#3789C9;" d="M486.512,126.594v22.352h-63.04c-6.144,0-11.184-5.024-11.184-11.184s5.024-11.184,11.184-11.184
		h63.04V126.594z"/>
</g>
<g>
	<path style="fill:#FFFFFF;" d="M401.12,211.618h-18.336c-6.144,0-11.184,5.024-11.184,11.184s5.024,11.184,11.184,11.184h18.336
		c6.176,0,11.184-5.008,11.184-11.184C412.288,216.626,407.28,211.618,401.12,211.618z"/>
	<path style="fill:#FFFFFF;" d="M453.248,211.618h-18.336c-6.144,0-11.184,5.024-11.184,11.184s5.024,11.184,11.184,11.184h18.336
		c6.176,0,11.184-5.008,11.184-11.184C464.432,216.626,459.424,211.618,453.248,211.618z"/>
</g>
<path style="fill:#3789C9;" d="M367.056,244.018c0-5.248-4.256-9.504-9.504-9.504h-12.704c-4.4,0-7.968-3.6-7.952-7.984v-0.112
	c0-0.192,0-0.384-0.016-0.576c-0.256-4.336,3.168-7.984,7.52-7.984h16.832c5.152,0,9.76-3.856,10.032-8.992
	c0.288-5.472-4.064-10.016-9.488-10.016h-5.216c-4.416,0-7.984-3.6-7.968-8.016v-0.56v-0.112c-0.032-4.64,3.76-8.448,8.4-8.448
	h6.736c5.152,0,9.76-3.856,10.032-8.992c0.288-5.472-4.064-10.016-9.488-10.016h-24.288c-4.592,0-8.016-3.856-7.968-8.448
	c0-0.032,0-0.08,0-0.112s0-0.08,0-0.112c-0.048-4.592,3.376-8.448,7.968-8.448h7.856c5.152,0,9.76-3.856,10.032-8.992
	c0.288-5.488-4.064-10.016-9.488-10.016H169.68v104.56c0,12.352,10,22.352,22.352,22.352h165.52
	C362.816,253.522,367.056,249.266,367.056,244.018z"/>
<rect x="195.616" y="137.778" style="fill:#FEE218;" width="49.28" height="49.28"/>
<g>
</g>
<g>
</g>
<g>
</g>
<g>
</g>
<g>
</g>
<g>
</g>
<g>
</g>
<g>
</g>
<g>
</g>
<g>
</g>
<g>
</g>
<g>
</g>
<g>
</g>
<g>
</g>
<g>
</g>
</svg>
