<?xml version="1.0" encoding="iso-8859-1"?>
<!-- Generator: Adobe Illustrator 19.0.0, SVG Export Plug-In . SVG Version: 6.00 Build 0)  -->
<svg version="1.1" id="Capa_1" xmlns="http://www.w3.org/2000/svg" xmlns:xlink="http://www.w3.org/1999/xlink" x="0px" y="0px"
	 viewBox="0 0 511.905 511.905" style="enable-background:new 0 0 511.905 511.905;" xml:space="preserve">
<polygon style="fill:#FFCC5B;" points="192.481,511.905 154.321,446.433 79.953,460.961 173.585,254.129 286.113,305.057 "/>
<polygon style="fill:#FFE28F;" points="115.697,453.985 154.321,446.433 174.145,480.433 259.073,292.817 200.625,266.369 "/>
<polygon style="fill:#FFCC5B;" points="319.425,511.905 357.585,446.433 431.953,460.961 338.321,254.129 225.793,305.057 "/>
<polygon style="fill:#FFE28F;" points="396.209,453.985 357.585,446.433 337.761,480.433 252.833,292.817 311.281,266.369 "/>
<path style="fill:#E86F3E;" d="M454.145,189.697c0,20.176-25.088,36.128-30.992,54.336c-6.128,18.864,4.576,46.48-6.848,62.176
	c-11.536,15.856-41.184,14.16-57.04,25.696c-15.696,11.424-23.184,40.208-42.048,46.336c-18.208,5.904-41.088-12.784-61.264-12.784
	s-43.056,18.688-61.264,12.784c-18.864-6.128-26.336-34.912-42.048-46.336c-15.856-11.552-45.488-9.856-57.04-25.712
	c-11.424-15.696-0.72-43.312-6.848-62.176c-5.904-18.192-30.992-34.16-30.992-54.336s25.088-36.128,30.992-54.32
	c6.128-18.864-4.576-46.48,6.848-62.176c11.552-15.856,41.2-14.16,57.056-25.696c15.696-11.424,23.184-40.208,42.048-46.336
	c18.192-5.904,41.072,12.784,61.248,12.784s43.056-18.688,61.264-12.784c18.864,6.128,26.336,34.912,42.048,46.336
	c15.856,11.536,45.504,9.84,57.04,25.696c11.424,15.696,0.736,43.312,6.848,62.176C429.057,153.553,454.145,169.521,454.145,189.697
	z"/>
<path style="fill:#F89E62;" d="M255.953,343.473c-84.8,0-153.792-69.008-153.792-153.792S171.153,35.905,255.953,35.905
	s153.792,68.992,153.792,153.776S340.753,343.473,255.953,343.473z M255.953,67.905c-67.152,0-121.792,54.624-121.792,121.776
	s54.624,121.792,121.792,121.792s121.792-54.64,121.792-121.792S323.105,67.905,255.953,67.905z"/>
<g>
	<path style="fill:#FFFFFF;" d="M160.689,205.553l13.2-1.6c0.416,3.36,1.552,5.936,3.392,7.712s4.08,2.672,6.688,2.672
		c2.816,0,5.184-1.072,7.104-3.2c1.92-2.144,2.88-5.008,2.88-8.64c0-3.424-0.928-6.144-2.768-8.144c-1.84-2-4.096-3.008-6.752-3.008
		c-1.744,0-3.84,0.336-6.256,1.024l1.504-11.104c3.68,0.096,6.496-0.704,8.448-2.4c1.936-1.696,2.912-3.952,2.912-6.768
		c0-2.4-0.704-4.304-2.128-5.728c-1.424-1.424-3.312-2.144-5.68-2.144c-2.336,0-4.32,0.816-5.968,2.432
		c-1.648,1.616-2.656,3.984-3.008,7.088l-12.56-2.144c0.88-4.304,2.192-7.744,3.952-10.304c1.76-2.576,4.224-4.592,7.376-6.064
		c3.152-1.472,6.688-2.208,10.608-2.208c6.688,0,12.064,2.144,16.112,6.4c3.328,3.488,4.992,7.44,4.992,11.84
		c0,6.24-3.408,11.232-10.24,14.944c4.08,0.88,7.328,2.832,9.776,5.872s3.664,6.72,3.664,11.008c0,6.24-2.272,11.568-6.848,15.968
		c-4.56,4.4-10.24,6.608-17.04,6.608c-6.432,0-11.776-1.856-16.016-5.552C163.825,216.385,161.377,211.537,160.689,205.553z"/>
	<path style="fill:#FFFFFF;" d="M239.505,153.009c6.896,0,12.272,2.464,16.16,7.376c4.624,5.824,6.944,15.472,6.944,28.976
		c0,13.456-2.336,23.136-6.992,29.024c-3.856,4.848-9.216,7.28-16.112,7.28c-6.928,0-12.512-2.656-16.736-7.984
		c-4.24-5.328-6.352-14.8-6.352-28.464c0-13.392,2.336-23.04,6.992-28.928C227.249,155.425,232.609,153.009,239.505,153.009z
		 M239.505,164.305c-1.648,0-3.12,0.528-4.416,1.584s-2.304,2.928-3.008,5.648c-0.944,3.52-1.408,9.456-1.408,17.808
		s0.416,14.08,1.264,17.2s1.904,5.2,3.184,6.24c1.28,1.04,2.736,1.552,4.4,1.552c1.648,0,3.12-0.528,4.416-1.584
		s2.304-2.944,3.008-5.648c0.944-3.488,1.408-9.408,1.408-17.76c0-8.352-0.416-14.08-1.264-17.2s-1.904-5.216-3.184-6.256
		C242.609,164.833,241.153,164.305,239.505,164.305z"/>
	<path style="fill:#FFFFFF;" d="M271.825,170.865c0-6.368,1.392-11.088,4.192-14.176c2.8-3.072,6.592-4.608,11.376-4.608
		c4.944,0,8.832,1.52,11.616,4.592s4.192,7.792,4.192,14.192c0,6.368-1.392,11.104-4.192,14.176
		c-2.8,3.072-6.592,4.608-11.376,4.608c-4.944,0-8.832-1.536-11.616-4.592C273.217,182.001,271.825,177.265,271.825,170.865z
		 M282.449,170.769c0,4.624,0.528,7.728,1.6,9.312c0.816,1.168,1.92,1.744,3.344,1.744c1.456,0,2.592-0.576,3.392-1.744
		c1.04-1.584,1.552-4.688,1.552-9.312s-0.512-7.712-1.552-9.264c-0.816-1.2-1.936-1.792-3.392-1.792
		c-1.424,0-2.544,0.576-3.344,1.744C282.977,163.025,282.449,166.145,282.449,170.769z M297.777,227.153h-10.096l37.904-75.072
		h9.808L297.777,227.153z M319.809,208.465c0-6.368,1.392-11.104,4.192-14.176c2.8-3.072,6.624-4.608,11.472-4.608
		c4.88,0,8.72,1.536,11.52,4.608s4.192,7.792,4.192,14.176c0,6.4-1.392,11.136-4.192,14.224c-2.8,3.072-6.592,4.608-11.376,4.608
		c-4.944,0-8.832-1.536-11.616-4.608C321.217,219.617,319.809,214.881,319.809,208.465z M330.449,208.417
		c0,4.624,0.528,7.712,1.6,9.264c0.816,1.2,1.92,1.792,3.344,1.792c1.456,0,2.576-0.576,3.344-1.744
		c1.072-1.584,1.6-4.688,1.6-9.312s-0.512-7.728-1.552-9.312c-0.8-1.168-1.936-1.744-3.392-1.744s-2.576,0.576-3.344,1.744
		C330.977,200.689,330.449,203.793,330.449,208.417z"/>
</g>
<circle style="fill:#EE7D54;" cx="292.353" cy="108.449" r="21.744"/>
<g style="opacity:0.3;">
	<path style="fill:#FFFFFF;" d="M171.025,425.377l14.672-29.216c3.888-7.744,0.768-17.184-6.992-21.088
		c-7.76-3.888-17.2-0.768-21.088,6.992l-14.672,29.216c-3.888,7.744-0.768,17.184,6.992,21.088
		C157.697,436.273,167.137,433.137,171.025,425.377z"/>
</g>
<path style="fill:#F9D57A;" d="M340.881,425.377l-14.672-29.216c-3.888-7.744-0.768-17.184,6.992-21.088
	c7.76-3.888,17.2-0.768,21.088,6.992l14.672,29.216c3.888,7.744,0.768,17.184-6.992,21.088
	C354.209,436.273,344.769,433.137,340.881,425.377z"/>
<g>
</g>
<g>
</g>
<g>
</g>
<g>
</g>
<g>
</g>
<g>
</g>
<g>
</g>
<g>
</g>
<g>
</g>
<g>
</g>
<g>
</g>
<g>
</g>
<g>
</g>
<g>
</g>
<g>
</g>
</svg>
