<?xml version="1.0" encoding="iso-8859-1"?>
<!-- Generator: Adobe Illustrator 19.0.0, SVG Export Plug-In . SVG Version: 6.00 Build 0)  -->
<svg version="1.1" id="Capa_1" xmlns="http://www.w3.org/2000/svg" xmlns:xlink="http://www.w3.org/1999/xlink" x="0px" y="0px"
	 viewBox="0 0 512.01 512.01" style="enable-background:new 0 0 512.01 512.01;" xml:space="preserve">
<path style="fill:#E95454;" d="M493.085,243.2c-8.832,0-16,7.152-16,16c0,10.016-8.144,18.16-18.16,18.16h-9.6
	c-10.24-83.6-99.696-148.96-208.592-148.96c-91.024,0-168.272,45.744-197.232,109.536L2.925,249.344v88.048L43.501,348.8
	c14.032,30.896,39.36,57.472,72.16,76.736l-8.624,62.08c-1.216,8.752,4.896,16.832,13.648,18.048l44.576,6.192
	c8.752,1.216,16.832-4.896,18.048-13.648l6.256-45.024c34.736,6.864,67.584,6.88,102.336,0l6.256,45.024
	c1.216,8.752,9.296,14.864,18.048,13.648l44.576-6.192c8.752-1.216,14.864-9.296,13.648-18.048l-8.624-62.08
	c46.112-27.072,77.696-68.608,83.52-116.16h9.6c27.664,0,50.16-22.496,50.16-50.16C509.085,250.352,501.917,243.2,493.085,243.2z"/>
<path style="fill:#D64A4A;" d="M241.725,429.616c-8.832,0-16-7.152-16-16s7.168-16,16-16c75.44,0,136.816-46.768,136.816-104.272
	c0-8.848,7.168-16,16-16s16,7.152,16,16C410.541,368.496,334.813,429.616,241.725,429.616z"/>
<circle style="fill:#FFFFFF;" cx="82.637" cy="247.184" r="14.592"/>
<circle style="fill:#FFDB70;" cx="249.389" cy="99.44" r="99.44"/>
<circle style="fill:#FDBC4B;" cx="249.389" cy="99.44" r="70.4"/>
<g style="opacity:0.25;">
	<path style="fill:#FFFFFF;" d="M319.789,115.456c-8.832,0-16-7.152-16-16c0-30-24.4-54.4-54.384-54.4c-8.832,0-16-7.152-16-16
		s7.168-16,16-16c47.632,0,86.384,38.768,86.384,86.4C335.789,108.288,328.621,115.456,319.789,115.456z"/>
</g>
<path style="fill:#EF7071;" d="M335.805,206.192H162.989c-8.832,0-16-7.152-16-16s7.168-16,16-16h172.832c8.832,0,16,7.152,16,16
	C351.805,199.024,344.653,206.192,335.805,206.192z"/>
<path style="fill:#FFFFFF;" d="M245.725,126.24v-21.952c-6.848-1.952-11.872-4.912-15.072-8.88c-3.2-3.968-4.8-8.784-4.8-14.432
	c0-5.728,1.808-10.544,5.424-14.432s8.432-6.144,14.432-6.736v-5.2h7.6v5.184c5.552,0.656,9.968,2.56,13.264,5.68
	c3.28,3.12,5.376,7.312,6.288,12.544l-13.264,1.728c-0.8-4.128-2.896-6.912-6.288-8.384v20.496
	c8.384,2.272,14.096,5.216,17.136,8.832c3.04,3.616,4.56,8.256,4.56,13.904c0,6.32-1.904,11.648-5.744,15.984
	c-3.824,4.336-9.152,6.992-15.952,7.968v5.712h-7.6v-5.44c-6.048-0.736-10.944-2.992-14.72-6.752
	c-3.776-3.776-6.176-9.104-7.232-15.984l13.68-1.472c0.56,2.8,1.6,5.2,3.136,7.232C242.125,123.872,243.837,125.344,245.725,126.24z
	 M245.725,71.232c-2.064,0.704-3.696,1.888-4.928,3.568c-1.216,1.68-1.84,3.52-1.84,5.552c0,1.856,0.56,3.568,1.68,5.168
	c1.12,1.584,2.816,2.88,5.088,3.856V71.232z M253.325,126.976c2.624-0.496,4.752-1.712,6.4-3.648
	c1.648-1.936,2.464-4.224,2.464-6.832c0-2.336-0.688-4.352-2.064-6.048s-3.648-2.992-6.784-3.904v20.432H253.325z"/>
<g>
</g>
<g>
</g>
<g>
</g>
<g>
</g>
<g>
</g>
<g>
</g>
<g>
</g>
<g>
</g>
<g>
</g>
<g>
</g>
<g>
</g>
<g>
</g>
<g>
</g>
<g>
</g>
<g>
</g>
</svg>
