<?xml version="1.0" encoding="iso-8859-1"?>
<!-- Generator: Adobe Illustrator 19.0.0, SVG Export Plug-In . SVG Version: 6.00 Build 0)  -->
<svg version="1.1" id="Capa_1" xmlns="http://www.w3.org/2000/svg" xmlns:xlink="http://www.w3.org/1999/xlink" x="0px" y="0px"
	 viewBox="0 0 467.632 467.632" style="enable-background:new 0 0 467.632 467.632;" xml:space="preserve">
<path style="fill:#FDBC4B;" d="M430.464,377.848c23.2-27.856,37.168-63.664,37.168-102.736c0-88.768-71.968-160.736-160.72-160.736
	c-88.768,0-160.736,71.952-160.736,160.736c0,88.768,71.968,160.72,160.736,160.72c29.44,0,56.944-8.048,80.672-21.872
	l42.896,42.896v-79.008H430.464z"/>
<g style="opacity:0.05;">
	<path style="fill:#010101;" d="M394.672,140.568c-25.248-16.512-55.36-26.176-87.776-26.176
		c-88.768,0-160.736,71.952-160.736,160.736c0,56.448,29.168,106.032,73.2,134.688C349.648,389.24,426.384,260.264,394.672,140.568z
		"/>
</g>
<path style="fill:#FFDB70;" d="M184.96,10.776C82.464,10.776,0,94.056,0,195.736c0,45.856,16.464,87.792,45.28,121.008v109.664
	l62.576-62.576c23.472,10.8,49.568,16.88,77.12,16.88c102.384,0,184.8-83.12,184.8-184.96
	C369.76,86.36,280.464,10.776,184.96,10.776z"/>
<path style="fill:#FFE28F;" d="M184.96,10.776c-101.712,0-184.256,82.128-184.912,183.76c3.92,3.712,9.008,6.048,14.752,6.048
	c11.744,0,21.36-9.6,21.36-21.36c0-56.608-5.488-84.752,21.184-84.752c11.744,0,21.184,9.6,21.184,21.36v49.328
	c0,11.76,9.6,21.344,21.344,21.344s21.184-9.6,21.184-21.344V91.848c0-11.76,9.6-21.344,21.344-21.344
	c11.744,0,21.184,9.6,21.184,21.344V165c0,11.744,9.6,21.36,21.36,21.36s21.184-9.6,21.184-21.36v-25.152
	c0-11.744,9.6-21.184,21.36-21.184s21.184,9.44,21.184,21.184v33.76c0,11.744,9.6,21.344,21.344,21.344
	c11.584,0,21.184-9.6,21.184-21.344V145.8c0-11.744,9.6-21.36,21.184-21.36c11.76,0,21.36,9.6,21.36,21.36v12.256
	c0,11.76,9.44,21.184,21.184,21.184c5.2,0,9.856-1.952,13.552-5.04C357.168,79.304,277.472,10.776,184.96,10.776z"/>
<g>
	<circle style="fill:#787878;" cx="293.872" cy="195.72" r="36.192"/>
	<circle style="fill:#787878;" cx="184.912" cy="195.72" r="36.192"/>
	<circle style="fill:#787878;" cx="75.952" cy="195.72" r="36.192"/>
</g>
<g>
	<path style="fill:#FEC77D;" d="M313.456,421.256c-8.832,0-16-7.152-16-16s7.168-16,16-16c29.024,0,56.912-12.288,76.512-33.712
		c5.952-6.528,16.064-6.96,22.608-1.008c6.528,5.968,6.976,16.096,1.008,22.608C387.936,405.176,351.44,421.256,313.456,421.256z"/>
	<path style="fill:#FEC77D;" d="M423.344,335.656c-8.448-2.56-13.232-11.504-10.672-19.952c2.944-9.712,4.432-19.824,4.432-30.08
		c0-8.848,7.168-16,16-16s16,7.152,16,16c0,13.408-1.952,26.64-5.808,39.36C440.736,333.464,431.76,338.2,423.344,335.656z"/>
</g>
<g>
</g>
<g>
</g>
<g>
</g>
<g>
</g>
<g>
</g>
<g>
</g>
<g>
</g>
<g>
</g>
<g>
</g>
<g>
</g>
<g>
</g>
<g>
</g>
<g>
</g>
<g>
</g>
<g>
</g>
</svg>
