<?xml version="1.0" encoding="iso-8859-1"?>
<!-- Generator: Adobe Illustrator 19.0.0, SVG Export Plug-In . SVG Version: 6.00 Build 0)  -->
<svg version="1.1" id="Capa_1" xmlns="http://www.w3.org/2000/svg" xmlns:xlink="http://www.w3.org/1999/xlink" x="0px" y="0px"
	 viewBox="0 0 513.408 513.408" style="enable-background:new 0 0 513.408 513.408;" xml:space="preserve">
<path style="fill:#E5E5E5;" d="M446.896,30.736L415.808,0l-31.824,31.456L352.16,0l-31.824,31.456L288.512,0l-31.808,31.456
	L224.88,0l-31.824,31.456L161.232,0l-31.808,31.456L97.6,0L66.512,30.736v450.672c0,17.68,14.336,32,32,32h231.264L446.88,396.304
	V30.736H446.896z"/>
<path style="fill:#B3B3B3;" d="M446.896,396.288h-85.104c-17.68,0-32,14.32-32,32v85.104L446.896,396.288z"/>
<rect x="97.504" y="56.544" style="fill:#4B9FD8;" width="132.656" height="149.328"/>
<g>
	<path style="fill:#CACACA;" d="M393.344,147.216H283.712c-8.832,0-16-7.152-16-16c0-8.848,7.168-16,16-16h109.632
		c8.832,0,16,7.152,16,16C409.344,140.064,402.176,147.216,393.344,147.216z"/>
	<path style="fill:#CACACA;" d="M393.344,221.872H283.712c-8.832,0-16-7.152-16-16c0-8.848,7.168-16,16-16h109.632
		c8.832,0,16,7.152,16,16S402.176,221.872,393.344,221.872z"/>
	<path style="fill:#CACACA;" d="M393.344,296.544H111.296c-8.832,0-16-7.152-16-16s7.168-16,16-16h282.048c8.832,0,16,7.152,16,16
		S402.176,296.544,393.344,296.544z"/>
	<path style="fill:#CACACA;" d="M393.344,371.2H111.296c-8.832,0-16-7.152-16-16s7.168-16,16-16h282.048c8.832,0,16,7.152,16,16
		S402.176,371.2,393.344,371.2z"/>
	<path style="fill:#CACACA;" d="M237.232,445.872H111.296c-8.832,0-16-7.152-16-16s7.168-16,16-16h125.936c8.832,0,16,7.152,16,16
		S246.064,445.872,237.232,445.872z"/>
</g>
<path style="fill:#BBBBBB;" d="M344.496,459.808c-6.256-6.24-6.256-16.368,0-22.624l28.944-28.944c6.256-6.256,16.384-6.24,22.624,0
	c6.24,6.256,6.256,16.368,0,22.624l-28.944,28.944C360.864,466.064,350.752,466.048,344.496,459.808z"/>
<g>
	<path style="fill:#52AADF;" d="M107.184,135.584v32.704c0,8.672,7.024,15.712,15.712,15.712s15.712-7.04,15.712-15.712v-32.704
		c0-8.672-7.024-15.712-15.712-15.712C114.208,119.872,107.184,126.912,107.184,135.584z"/>
	<path style="fill:#52AADF;" d="M107.184,94.144v1.968c0,8.672,7.024,15.712,15.712,15.712s15.712-7.04,15.712-15.712v-1.968
		c0-8.672-7.024-15.712-15.712-15.712C114.208,78.448,107.184,85.472,107.184,94.144z"/>
</g>
<g>
</g>
<g>
</g>
<g>
</g>
<g>
</g>
<g>
</g>
<g>
</g>
<g>
</g>
<g>
</g>
<g>
</g>
<g>
</g>
<g>
</g>
<g>
</g>
<g>
</g>
<g>
</g>
<g>
</g>
</svg>
