<?xml version="1.0" encoding="iso-8859-1"?>
<!-- Generator: Adobe Illustrator 19.0.0, SVG Export Plug-In . SVG Version: 6.00 Build 0)  -->
<svg version="1.1" id="Capa_1" xmlns="http://www.w3.org/2000/svg" xmlns:xlink="http://www.w3.org/1999/xlink" x="0px" y="0px"
	 viewBox="0 0 513.363 513.363" style="enable-background:new 0 0 513.363 513.363;" xml:space="preserve">
<polygon style="fill:#2B71B8;" points="275.808,333.844 449.36,122.916 102.24,122.916 "/>
<polygon style="fill:#3789C9;" points="275.808,333.844 364.432,122.916 187.184,122.916 "/>
<polygon style="fill:#4B9FD8;" points="156.4,57.092 102.24,122.916 449.36,122.916 395.2,57.092 "/>
<polygon style="fill:#3789C9;" points="156.4,57.092 187.184,122.916 275.808,57.092 364.432,122.916 395.2,57.092 "/>
<g>
	<path style="fill:#37A6DE;" d="M285.632,246.58c8.144,3.408,17.52-0.416,20.944-8.576l18.272-43.616
		c3.408-8.16-0.432-17.52-8.576-20.944c-8.144-3.408-17.52,0.416-20.944,8.576l-18.256,43.616
		C273.632,233.796,277.472,243.156,285.632,246.58z"/>
	<path style="fill:#37A6DE;" d="M319.12,166.58c8.144,3.408,17.52-0.416,20.944-8.576l1.088-2.576
		c3.424-8.16-0.432-17.52-8.576-20.944c-8.144-3.408-17.52,0.416-20.944,8.576l-1.088,2.576
		C307.136,153.796,310.976,163.172,319.12,166.58z"/>
</g>
<path style="fill:#FFE28F;" d="M79.664,346.66c0,0,16.848,1.92,48.608-12.992c31.76-14.928,64.016-4.816,64.016-4.816
	s40.432,19.248,54.384,22.624c13.952,3.376,44.288,3.376,74.608,1.92c0,0,40.432-7.696,49.088,16.848c0,0,11.072-2.4,29.36-12.032
	c0,0,88.08-44.64,109.264-26.656c0,0,14.432,13.184-9.152,29.056c0,0-96.272,62.576-154.496,88.56c0,0-20.208,7.696-61.12,39.952
	c0,0-14.928,6.736-33.696-4.816c0,0-102.528-53.424-152.096-32.256L79.664,346.66z"/>
<g style="opacity:0.25;">
	<path style="fill:#EC9922;" d="M373.632,379.14c0,29.2-66.112,32.784-66.112,32.784c-9.92,5.232-24.24,6.336-24.24,6.336
		c-11.024-3.312-63.904-4.96-63.904-4.96c-30.304,3.312-45.728-7.712-45.728-7.712s11.568,13.216,40.768,12.672
		c0,0,47.936-2.208,59.232,8.816c0,0,19.472,4.96,36.592-8.256c0,0,9.952-6.064,21.536-6.064c0,0,35.264-3.312,41.872-23.136v-10.48
		H373.632z"/>
</g>
<g>
	<path style="fill:#F3F3F3;" d="M343.92,360.052l-11.504,1.408c-2.688,0.32-4.592,2.768-4.272,5.456l3.472,28.512
		c0.336,2.688,2.768,4.592,5.456,4.272l11.504-1.408c10.56-1.28,18.064-10.896,16.784-21.44
		C364.08,366.276,354.464,358.756,343.92,360.052z"/>
	<path style="fill:#F3F3F3;" d="M512.544,346.468c-33.904,2.176-31.968,25.28-31.968,25.28l0.48,0.832
		c11.616-7.312,18.8-11.984,18.8-11.984C507.44,355.508,511.072,350.676,512.544,346.468z"/>
	<polygon style="fill:#F3F3F3;" points="105.424,483.044 63.952,491.076 39.744,352.036 79.776,344.212 	"/>
</g>
<polygon style="fill:#787878;" points="0,504.964 64.784,494.26 38.528,344.212 0,351.476 "/>
<g>
	<path style="fill:#E5E5E5;" d="M447.264,50.34c-3.12-3.136-3.12-8.192,0-11.312l28.288-28.288c3.12-3.12,8.192-3.12,11.312,0
		c3.12,3.12,3.12,8.192,0,11.312L458.576,50.34C455.44,53.46,450.384,53.46,447.264,50.34z"/>
	<path style="fill:#E5E5E5;" d="M448.496,84.324c-3.136-3.12-3.136-8.192,0-11.312l28.272-28.272c3.12-3.12,8.192-3.12,11.312,0
		c3.12,3.12,3.12,8.192,0,11.312l-28.272,28.272C456.672,87.444,451.616,87.444,448.496,84.324z"/>
	<path style="fill:#E5E5E5;" d="M104.352,50.34c3.12-3.136,3.12-8.192,0-11.312L76.064,10.74c-3.12-3.12-8.192-3.12-11.312,0
		s-3.12,8.192,0,11.312L93.04,50.34C96.16,53.46,101.216,53.46,104.352,50.34z"/>
	<path style="fill:#E5E5E5;" d="M103.12,84.324c3.12-3.12,3.12-8.192,0-11.312L74.848,44.74c-3.12-3.12-8.192-3.12-11.312,0
		c-3.12,3.12-3.12,8.192,0,11.312l28.272,28.272C94.928,87.444,99.984,87.444,103.12,84.324z"/>
</g>
<g style="opacity:0.25;">
	<path style="fill:#FDBC4B;" d="M393.2,399.62c4.416,7.648,14.192,10.272,21.856,5.856l40.96-23.632
		c7.664-4.416,10.272-14.208,5.856-21.856s-14.192-10.272-21.856-5.856l-40.96,23.648C391.408,382.196,388.784,391.972,393.2,399.62
		z"/>
</g>
<g style="opacity:0.3;">
	<path style="fill:#FFFFFF;" d="M205.024,378.724c-2.08,8.592,3.168,17.232,11.76,19.328l2.72,0.656
		c8.592,2.096,17.232-3.184,19.328-11.76c2.096-8.592-3.168-17.232-11.76-19.328l-2.72-0.656
		C215.76,364.868,207.12,370.148,205.024,378.724z"/>
	<path style="fill:#FFFFFF;" d="M120.752,358.228c-2.08,8.592,3.168,17.232,11.76,19.328l45.952,11.184
		c8.592,2.096,17.248-3.184,19.328-11.76s-3.168-17.232-11.76-19.328l-45.952-11.184
		C131.488,344.372,122.848,349.636,120.752,358.228z"/>
</g>
<g>
</g>
<g>
</g>
<g>
</g>
<g>
</g>
<g>
</g>
<g>
</g>
<g>
</g>
<g>
</g>
<g>
</g>
<g>
</g>
<g>
</g>
<g>
</g>
<g>
</g>
<g>
</g>
<g>
</g>
</svg>
