<?xml version="1.0" encoding="iso-8859-1"?>
<!-- Generator: Adobe Illustrator 19.0.0, SVG Export Plug-In . SVG Version: 6.00 Build 0)  -->
<svg version="1.1" id="Capa_1" xmlns="http://www.w3.org/2000/svg" xmlns:xlink="http://www.w3.org/1999/xlink" x="0px" y="0px"
	 viewBox="0 0 513.44 513.44" style="enable-background:new 0 0 513.44 513.44;" xml:space="preserve">
<path style="fill:#FEE218;" d="M478.704,204.816l-34.72-34.72L396.32,217.76c-16.944-60.624-72.752-105.472-138.864-105.472
	c-52.992,0-99.328,28.896-124.576,71.584c-5.984,10.464-10.8,21.424-14.112,33.216H150l-78.736,78.896l-0.336,0.336L0,217.088
	h33.712c2-11.296,4.816-22.416,8.464-33.216c30.4-89.696,115.28-154.64,215.264-154.64
	C364.928,29.248,455.12,104.32,478.704,204.816z"/>
<g style="opacity:0.5;">
	<path style="fill:#FFFFFF;" d="M158.336,112.992c-32.992,22.704-57.28,56.432-68.368,94.992
		c-2.544,8.816-11.728,13.904-20.56,11.376c-8.816-2.544-13.904-11.744-11.376-20.56c13.216-45.936,42.144-86.128,81.472-113.184
		c7.552-5.2,17.904-3.28,23.088,4.272C167.808,97.44,165.888,107.792,158.336,112.992z"/>
</g>
<path style="fill:#3789C9;" d="M34.736,308.624l34.72,34.72l47.664-47.664c16.944,60.624,72.752,105.472,138.864,105.472
	c52.992,0,99.328-28.896,124.576-71.584c5.984-10.464,10.8-21.424,14.112-33.216H363.44l78.736-78.896l0.336-0.336l70.928,79.232
	h-33.712c-2,11.296-4.816,22.416-8.464,33.216c-30.4,89.696-115.28,154.64-215.264,154.64
	C148.512,484.192,58.32,409.12,34.736,308.624z"/>
<path style="fill:#4B9FD8;" d="M348.56,409.536c1.024-3.568,3.248-6.816,6.544-9.088c32.992-22.704,57.28-56.432,68.368-94.992
	c2.528-8.816,11.728-13.904,20.56-11.376c8.816,2.544,13.904,11.744,11.376,20.56c-13.216,45.936-42.144,86.128-81.472,113.184
	c-7.552,5.2-17.904,3.28-23.088-4.272C347.888,419.28,347.232,414.144,348.56,409.536z"/>
<g>
	<path style="fill:#ED6362;" d="M248.64,296.464v21.84h-82.4c0.896-8.256,3.568-16.08,8.032-23.472s13.28-17.184,26.432-29.408
		c10.592-9.872,17.088-16.56,19.488-20.08c3.232-4.848,4.848-9.648,4.848-14.384c0-5.248-1.408-9.264-4.224-12.08
		s-6.704-4.224-11.664-4.224c-4.912,0-8.816,1.472-11.712,4.432c-2.896,2.96-4.576,7.856-5.024,14.72l-23.424-2.336
		c1.392-12.944,5.776-22.224,13.136-27.856c7.36-5.632,16.56-8.448,27.6-8.448c12.096,0,21.616,3.264,28.528,9.792
		s10.368,14.64,10.368,24.336c0,5.52-0.992,10.784-2.976,15.776s-5.12,10.224-9.408,15.68c-2.848,3.632-7.968,8.848-15.392,15.648
		c-7.424,6.8-12.112,11.328-14.096,13.552s-3.584,4.4-4.816,6.528h46.704V296.464z"/>
	<path style="fill:#ED6362;" d="M310.624,318.304v-24.672h-50.192v-20.576l53.2-77.888h19.744v77.792h15.232v20.656h-15.232v24.672
		h-22.752V318.304z M310.624,272.96v-41.904l-28.192,41.904H310.624z"/>
</g>
<g>
</g>
<g>
</g>
<g>
</g>
<g>
</g>
<g>
</g>
<g>
</g>
<g>
</g>
<g>
</g>
<g>
</g>
<g>
</g>
<g>
</g>
<g>
</g>
<g>
</g>
<g>
</g>
<g>
</g>
</svg>
