<?xml version="1.0" encoding="iso-8859-1"?>
<!-- Generator: Adobe Illustrator 19.0.0, SVG Export Plug-In . SVG Version: 6.00 Build 0)  -->
<svg version="1.1" id="Capa_1" xmlns="http://www.w3.org/2000/svg" xmlns:xlink="http://www.w3.org/1999/xlink" x="0px" y="0px"
	 viewBox="0 0 514.112 514.112" style="enable-background:new 0 0 514.112 514.112;" xml:space="preserve">
<path style="fill:#464646;" d="M514.112,349.384V39.32c0-17.68-14.32-32-32-32H32c-17.68,0-32,14.32-32,32v310.064H514.112z"/>
<rect x="32" y="39.32" style="fill:#4B9FD8;" width="450.08" height="300.384"/>
<path style="fill:#E5E5E5;" d="M0,339.752v44.016c0,17.68,14.32,32,32,32h450.112c17.68,0,32-14.32,32-32v-44.016H0z"/>
<rect x="170.528" y="415.768" style="fill:#CACACA;" width="173.056" height="62.144"/>
<path style="fill:#E5E5E5;" d="M382.64,477.896H131.472c-7.984,0-14.448,6.48-14.448,14.448l0,0c0,7.984,6.464,14.448,14.448,14.448
	h251.184c7.984,0,14.448-6.48,14.448-14.448l0,0C397.104,484.376,390.624,477.896,382.64,477.896z"/>
<path style="fill:#CACACA;" d="M266.608,393.752h-19.12c-8.832,0-16-7.152-16-16s7.168-16,16-16h19.12c8.832,0,16,7.152,16,16
	C282.608,386.6,275.456,393.752,266.608,393.752z"/>
<g style="opacity:0.07;">
	<polygon style="fill:#010101;" points="170.528,415.768 343.584,455.64 343.584,415.768 	"/>
</g>
<path style="fill:#3789C9;" d="M358.048,39.32c-12.416,0-22.496,10.064-22.496,22.496c0,12.416,10.064,22.496,22.496,22.496h30.08
	c10.4,0,18.864,8.512,18.816,18.912v0.24c0,0.464,0.016,0.912,0.048,1.376c0.624,10.256-7.52,18.896-17.792,18.896h-71.856
	c-12.176,0-23.088,9.12-23.728,21.28c-0.688,12.976,9.632,23.696,22.464,23.696h44.32c10.448,0,18.912,8.512,18.848,18.96v1.296
	v0.272c0.064,10.992-8.88,20-19.888,20h-4.576c-12.176,0-23.088,9.12-23.728,21.28c-0.672,12.976,9.632,23.696,22.464,23.696h46.144
	c10.864,0,18.976,9.136,18.848,20c0,0.096,0,0.176,0,0.272s0,0.176,0,0.272c0.128,10.864-7.984,20-18.848,20h-18.608
	c-12.176,0-23.088,9.12-23.728,21.28c-0.672,12.976,9.632,23.696,22.464,23.696h102.32V39.32H358.048z"/>
<g>
	<path style="fill:#D9DADB;" d="M80.4,362.056H47.712C39.04,362.056,32,369.08,32,377.768c0,8.688,7.04,15.712,15.712,15.712h32.704
		c8.672,0,15.712-7.024,15.712-15.712C96.112,369.08,89.088,362.056,80.4,362.056z"/>
	<path style="fill:#D9DADB;" d="M121.84,362.056h-1.968c-8.672,0-15.712,7.024-15.712,15.712c0,8.688,7.04,15.712,15.712,15.712
		h1.968c8.672,0,15.712-7.024,15.712-15.712S130.512,362.056,121.84,362.056z"/>
</g>
<g>
	<path style="fill:#FFFFFF;" d="M321.072,220.952l12.368-71.968c1.456-8.464-5.072-16.208-13.664-16.208H184.304l-6.256-37.44
		c-0.56-3.344-3.44-5.792-6.832-5.792h-34.944c-3.824,0-6.928,3.104-6.928,6.928s3.104,6.928,6.928,6.928h29.072l24.576,146.88
		c0.56,3.344,3.44,5.792,6.832,5.792h122.352c3.824,0,6.928-3.104,6.928-6.928c0-3.824-3.104-6.928-6.928-6.928H202.608
		l-1.632-9.744h106.432C314.16,232.456,319.936,227.608,321.072,220.952z M234,215.704c-0.224,0.016-0.432,0.032-0.64,0.032
		c-3.536,0-6.56-2.688-6.896-6.288L220.8,162.28c-0.352-3.824,2.448-7.184,6.256-7.552c3.808-0.352,7.184,2.448,7.536,6.256
		l5.664,47.168C240.608,211.976,237.808,215.336,234,215.704z M268.592,208.792c0,3.824-3.104,6.928-6.928,6.928
		s-6.928-3.104-6.928-6.928v-47.168c0-3.824,3.104-6.928,6.928-6.928s6.928,3.104,6.928,6.928V208.792z M296.864,209.432
		c-0.336,3.6-3.36,6.288-6.896,6.288c-0.208,0-0.432-0.016-0.64-0.032c-3.808-0.352-6.608-3.728-6.256-7.552l5.664-47.168
		c0.352-3.808,3.728-6.624,7.536-6.256c3.808,0.352,6.608,3.728,6.256,7.552L296.864,209.432z"/>
	<path style="fill:#FFFFFF;" d="M225.856,249.144c-10.992,0-19.904,8.912-19.904,19.888c0,10.992,8.912,19.888,19.904,19.888
		s19.888-8.912,19.888-19.888C245.744,258.056,236.848,249.144,225.856,249.144z M225.856,279.64
		c-5.856,0-10.592-4.752-10.592-10.592c0-5.856,4.752-10.608,10.592-10.608s10.592,4.752,10.592,10.608
		C236.448,274.888,231.712,279.64,225.856,279.64z"/>
	<path style="fill:#FFFFFF;" d="M294.272,249.144c-10.992,0-19.888,8.912-19.888,19.888c0,10.992,8.912,19.888,19.888,19.888
		c10.992,0,19.904-8.912,19.904-19.888S305.264,249.144,294.272,249.144z M294.272,279.64c-5.856,0-10.592-4.752-10.592-10.592
		c0-5.856,4.752-10.608,10.592-10.608c5.856,0,10.608,4.752,10.608,10.608C304.88,274.888,300.128,279.64,294.272,279.64z"/>
</g>
<g>
</g>
<g>
</g>
<g>
</g>
<g>
</g>
<g>
</g>
<g>
</g>
<g>
</g>
<g>
</g>
<g>
</g>
<g>
</g>
<g>
</g>
<g>
</g>
<g>
</g>
<g>
</g>
<g>
</g>
</svg>
