<?xml version="1.0" encoding="iso-8859-1"?>
<!-- Generator: Adobe Illustrator 19.0.0, SVG Export Plug-In . SVG Version: 6.00 Build 0)  -->
<svg version="1.1" id="Capa_1" xmlns="http://www.w3.org/2000/svg" xmlns:xlink="http://www.w3.org/1999/xlink" x="0px" y="0px"
	 viewBox="0 0 495.156 495.156" style="enable-background:new 0 0 495.156 495.156;" xml:space="preserve">
<path style="fill:#CACACA;" d="M304.629,97.524c-5.952,0-11.888-2.272-16.432-6.8l-51.072-51.072
	c-9.072-9.072-9.072-23.776,0-32.848s23.776-9.072,32.848,0l34.64,34.64l34.64-34.64c9.072-9.072,23.776-9.072,32.848,0
	s9.072,23.776,0,32.848l-51.072,51.072C316.517,95.252,310.565,97.524,304.629,97.524z"/>
<path style="fill:#FEE218;" d="M385.429,269.252h-161.6c-17.68,0-32-14.32-32-32V90.164h225.584v147.088
	C417.429,254.932,403.093,269.252,385.429,269.252z"/>
<path style="fill:#4B9FD8;" d="M425.125,98.596H184.117c-12.832,0-23.232-10.384-23.232-23.232s10.4-23.232,23.232-23.232h241.008
	c12.832,0,23.232,10.384,23.232,23.232C448.373,88.196,437.957,98.596,425.125,98.596z"/>
<rect x="288.661" y="52.116" style="fill:#F3F3F3;" width="31.936" height="217.136"/>
<path style="fill:#ED6362;" d="M451.413,134.628H125.829l38.128,230.16h258.896c15.584,0,28.896-11.216,31.536-26.576l28.544-166.16
	C486.309,152.484,471.253,134.628,451.413,134.628z M451.413,166.628l-6.224,36.192H320.581v-36.192H451.413z M288.597,266.388
	H180.101l-5.232-31.584h113.728V266.388z M320.597,266.388v-31.584h119.104l-5.424,31.584H320.597z M288.597,166.628v36.192H169.573
	l-6-36.192H288.597z"/>
<path style="fill:#CACACA;" d="M449.877,419.3H167.381c-7.824,0-14.496-5.648-15.776-13.36L94.869,66.82H27.765
	c-8.832,0-16-7.152-16-16s7.168-16,16-16h80.672c7.824,0,14.496,5.648,15.776,13.36l56.72,339.104h268.944c8.832,0,16,7.152,16,16
	S458.709,419.3,449.877,419.3z"/>
<path style="fill:#D3D3D3;" d="M112.549,50.9c0,8.8-7.2,16-16,16h-68.8c-8.8,0-16-7.2-16-16c0-8.96,7.2-16,16-16h68.8
	C105.349,34.9,112.549,41.94,112.549,50.9z"/>
<circle style="fill:#464646;" cx="234.565" cy="449.22" r="45.936"/>
<circle style="fill:#CACACA;" cx="234.565" cy="449.22" r="24.464"/>
<circle style="fill:#464646;" cx="392.549" cy="449.22" r="45.936"/>
<circle style="fill:#CACACA;" cx="392.549" cy="449.22" r="24.464"/>
<g>
	<path style="fill:#EF7071;" d="M312.453,305.428c0.032,9.088,7.424,16.432,16.528,16.4l12.752-0.048
		c9.104-0.032,16.432-7.44,16.4-16.528c-0.032-9.088-7.424-16.432-16.528-16.4l-12.752,0.048
		C319.765,288.932,312.421,296.34,312.453,305.428z"/>
	<path style="fill:#EF7071;" d="M191.829,305.876c0.032,9.088,7.424,16.432,16.528,16.4l78.56-0.288
		c9.104-0.032,16.432-7.424,16.4-16.528c-0.032-9.088-7.424-16.432-16.528-16.4l-78.56,0.304
		C199.141,289.396,191.797,296.788,191.829,305.876z"/>
</g>
<g>
</g>
<g>
</g>
<g>
</g>
<g>
</g>
<g>
</g>
<g>
</g>
<g>
</g>
<g>
</g>
<g>
</g>
<g>
</g>
<g>
</g>
<g>
</g>
<g>
</g>
<g>
</g>
<g>
</g>
</svg>
