<?xml version="1.0" encoding="iso-8859-1"?>
<!-- Generator: Adobe Illustrator 19.0.0, SVG Export Plug-In . SVG Version: 6.00 Build 0)  -->
<svg version="1.1" id="Capa_1" xmlns="http://www.w3.org/2000/svg" xmlns:xlink="http://www.w3.org/1999/xlink" x="0px" y="0px"
	 viewBox="0 0 512 512" style="enable-background:new 0 0 512 512;" xml:space="preserve">
<path style="fill:#CACACA;" d="M480,178.752H32c-17.68,0-32-14.32-32-32V34.08c0-17.68,14.32-32,32-32h448c17.664,0,32,14.32,32,32
	v112.672C512,164.416,497.664,178.752,480,178.752z"/>
<rect x="32" y="34.064" style="fill:#6F7070;" width="448" height="56.336"/>
<rect x="32" y="90.4" style="fill:#787878;" width="448" height="56.336"/>
<g>
	<path style="fill:#4B9FD8;" d="M68.816,90.4v387.456c0,17.68,14.32,32,32,32h310.352c17.68,0,32-14.32,32-32V90.4H68.816z"/>
	<path style="fill:#4B9FD8;" d="M68.8,90.4v96.64c58.064-40.448,120.064-72.56,184.288-96.64C253.088,90.4,68.8,90.4,68.8,90.4z"/>
</g>
<path style="fill:#3789C9;" d="M253.088,90.4c-64.224,24.08-126.224,56.192-184.288,96.64v258.08c93.28-136.48,226.88-228,374.4-272
	V90.4H253.088z"/>
<path style="fill:#2B71B8;" d="M443.2,173.12v152.16c-76,44.96-141.12,107.2-188,184.64H100.8c-17.6,0-32-14.4-32-32v-32.8
	C162.08,308.64,295.68,217.12,443.2,173.12z"/>
<path style="fill:#FEE218;" d="M116.832,399.824v46.032c0,8.832,7.168,16,16,16h46.032c8.832,0,16-7.168,16-16v-46.032
	c0-8.832-7.168-16-16-16h-46.032C123.984,383.824,116.832,390.992,116.832,399.824z"/>
<path style="fill:#FFFFFF;" d="M295.008,239.344v199.232c0,8.832-7.152,16-16,16s-16-7.168-16-16V239.344c0-8.832,7.152-16,16-16
	S295.008,230.512,295.008,239.344z"/>
<path style="fill:#8BD5EC;" d="M395.168,397.312v51.872c0,8.832-7.152,16-16,16s-16-7.168-16-16v-51.872c0-8.832,7.152-16,16-16
	S395.168,388.48,395.168,397.312z"/>
<path style="fill:#DAEFF6;" d="M395.168,284.384v51.872c0,8.832-7.152,16-16,16s-16-7.168-16-16v-51.872c0-8.832,7.152-16,16-16
	S395.168,275.552,395.168,284.384z"/>
<path style="fill:#8BD5EC;" d="M395.168,171.472v51.872c0,8.832-7.152,16-16,16s-16-7.168-16-16v-51.872c0-8.832,7.152-16,16-16
	C388.016,155.472,395.168,162.64,395.168,171.472z"/>
<g>
	<path style="fill:#3FABE1;" d="M135.248,234.144v64.704c0,8.672,7.024,15.712,15.712,15.712s15.712-7.04,15.712-15.712v-64.704
		c0-8.672-7.024-15.712-15.712-15.712C142.272,218.432,135.248,225.472,135.248,234.144z"/>
	<path style="fill:#3FABE1;" d="M135.248,192.704v1.968c0,8.672,7.024,15.712,15.712,15.712s15.712-7.04,15.712-15.712v-1.968
		c0-8.672-7.024-15.712-15.712-15.712S135.248,184.032,135.248,192.704z"/>
</g>
<g>
	<path style="fill:#787878;" d="M403.648,46.528H189.696c-8.672,0-15.712,7.024-15.712,15.712s7.04,15.712,15.712,15.712h213.936
		c8.672,0,15.712-7.024,15.712-15.712S412.32,46.528,403.648,46.528z"/>
	<path style="fill:#787878;" d="M445.088,46.528h-1.968c-8.672,0-15.712,7.024-15.712,15.712s7.04,15.712,15.712,15.712h1.968
		c8.672,0,15.712-7.024,15.712-15.712S453.76,46.528,445.088,46.528z"/>
</g>
<g>
</g>
<g>
</g>
<g>
</g>
<g>
</g>
<g>
</g>
<g>
</g>
<g>
</g>
<g>
</g>
<g>
</g>
<g>
</g>
<g>
</g>
<g>
</g>
<g>
</g>
<g>
</g>
<g>
</g>
</svg>
