<?xml version="1.0" encoding="iso-8859-1"?>
<!-- Generator: Adobe Illustrator 19.0.0, SVG Export Plug-In . SVG Version: 6.00 Build 0)  -->
<svg version="1.1" id="Capa_1" xmlns="http://www.w3.org/2000/svg" xmlns:xlink="http://www.w3.org/1999/xlink" x="0px" y="0px"
	 viewBox="0 0 512.004 512.004" style="enable-background:new 0 0 512.004 512.004;" xml:space="preserve">
<path style="fill:#FFDB70;" d="M270.97,83.92c-13.04-1.888-16.448-1.92-29.712,0C153.626,96.608,90.874,175.728,90.874,264.272
	v21.248c0,38.048,11.744,75.152,33.648,106.272l57.552,81.776c13.12,18.64,32.784,31.648,55.088,36.416L237.21,510
	c12.48,2.672,25.392,2.672,37.872,0l0,0c22.32-4.784,42.016-17.808,55.136-36.496l57.408-81.776
	c21.824-31.072,33.52-68.128,33.52-106.096v-21.568C421.13,175.632,358.474,96.608,270.97,83.92z"/>
<path style="fill:#6F7070;" d="M448.458,219.76l-5.04-9.984l0,0l0,0L426.25,142C410.602,80.224,361.162,32.752,298.81,19.6l0,0
	c-57.648-12.16-117.44,6.96-157.344,50.32l-50.608,54.992c0,0-52.432,105.888-4.144,100.832
	c141.168-14.8,172-104.592,204.528-139.088c10.384,21.984,33.968,62.016,78.128,91.696c11.264,7.568,21.824,16.32,32.304,24.944
	c8.208,6.768,13.44,10.592,13.44,10.592L448.458,219.76z"/>
<path style="fill:#4B9FD8;" d="M457.674,225.744h-36.832V201.68c0-90.896-73.952-164.848-164.848-164.848
	S91.146,110.784,91.146,201.68v24.064H54.314V201.68C54.314,90.464,144.794,0,255.994,0s201.68,90.464,201.68,201.68V225.744z"/>
<g>
	<circle style="fill:#464646;" cx="187.786" cy="256" r="27.216"/>
	<circle style="fill:#464646;" cx="324.202" cy="256" r="27.216"/>
</g>
<path style="fill:#FFFFFF;" d="M198.634,376.832c0,24.336,19.728,44.064,44.064,44.064h29.376c24.336,0,44.064-19.728,44.064-44.064
	H198.634z"/>
<path style="fill:#464646;" d="M364.65,462.448h-83.088c-10.16,0-18.416-8.24-18.416-18.416c0-10.176,8.24-18.416,18.416-18.416
	h83.088c32.832,0,59.52-26.704,59.52-59.536v-78.784c0-10.176,8.24-18.416,18.416-18.416s18.416,8.24,18.416,18.416v78.784
	C461.002,419.216,417.786,462.448,364.65,462.448z"/>
<g>
	<path style="fill:#E95454;" d="M445.002,207.264h-29.888V329.04h29.888c20.336,0,36.832-16.48,36.832-36.832v-48.112
		C481.818,223.744,465.338,207.264,445.002,207.264z"/>
	<path style="fill:#E95454;" d="M30.17,244.096v48.112c0,20.336,16.496,36.832,36.832,36.832H96.89V207.264H67.002
		C46.65,207.264,30.17,223.744,30.17,244.096z"/>
</g>
<g>
	<path style="fill:#EF6262;" d="M435.114,243.968v49.856c0,8.672,7.024,15.712,15.712,15.712c8.688,0,15.712-7.04,15.712-15.712
		v-49.856c0-8.672-7.024-15.712-15.712-15.712C442.154,228.256,435.114,235.296,435.114,243.968z"/>
	<path style="fill:#EF6262;" d="M45.402,243.968v49.856c0,8.672,7.024,15.712,15.712,15.712s15.712-7.04,15.712-15.712v-49.856
		c0-8.672-7.024-15.712-15.712-15.712S45.402,235.296,45.402,243.968z"/>
</g>
<g>
</g>
<g>
</g>
<g>
</g>
<g>
</g>
<g>
</g>
<g>
</g>
<g>
</g>
<g>
</g>
<g>
</g>
<g>
</g>
<g>
</g>
<g>
</g>
<g>
</g>
<g>
</g>
<g>
</g>
</svg>
