<?xml version="1.0" encoding="iso-8859-1"?>
<!-- Generator: Adobe Illustrator 19.0.0, SVG Export Plug-In . SVG Version: 6.00 Build 0)  -->
<svg version="1.1" id="Capa_1" xmlns="http://www.w3.org/2000/svg" xmlns:xlink="http://www.w3.org/1999/xlink" x="0px" y="0px"
	 viewBox="0 0 512 512" style="enable-background:new 0 0 512 512;" xml:space="preserve">
<path style="fill:#464646;" d="M326.32,512H67.552c-17.68,0-32-14.336-32-32V32c0-17.68,14.32-32,32-32h258.784
	c17.68,0,32,14.32,32,32v448C358.32,497.68,344,512,326.32,512z"/>
<rect x="67.552" y="69.856" style="fill:#3789C9;" width="258.72" height="341.744"/>
<g>
	<circle style="fill:#6F7070;" cx="196.944" cy="461.808" r="24.352"/>
	<path style="fill:#6F7070;" d="M242.96,30.48h-92.032c-2.448,0-4.448,1.984-4.448,4.448l0,0c0,2.448,1.984,4.448,4.448,4.448
		h92.032c2.448,0,4.448-1.984,4.448-4.448l0,0C247.392,32.48,245.408,30.48,242.96,30.48z"/>
</g>
<g>
	<path style="fill:#4B9FD8;" d="M101.264,80.016c-8.832,0-16,7.152-16,16v84.896c0,8.848,7.168,16,16,16s16-7.152,16-16V96.016
		C117.264,87.184,110.096,80.016,101.264,80.016z"/>
	<path style="fill:#4B9FD8;" d="M101.264,212.912c-8.832,0-16,7.152-16,16v20.512c0,8.848,7.168,16,16,16s16-7.152,16-16v-20.512
		C117.264,220.064,110.096,212.912,101.264,212.912z"/>
</g>
<g style="opacity:0.1;">
	<polygon style="fill:#010101;" points="227.872,265.12 265.44,303.84 258.496,331.696 358.32,432.624 358.32,217.728 	"/>
</g>
<path style="fill:#FEE218;" d="M442.8,90.176H254.928c-18.576,0-33.648,15.056-33.648,33.648v121.312
	c0,18.576,15.056,33.648,33.648,33.648h3.568v52.912l52.912-52.912H442.8c18.576,0,33.648-15.056,33.648-33.648V123.824
	C476.448,105.232,461.392,90.176,442.8,90.176z"/>
<g style="opacity:0.5;">
	<path style="fill:#FFFFFF;" d="M448.24,105.616c-8.832,0-16,7.152-16,16v20.512c0,8.848,7.168,16,16,16s16-7.152,16-16v-20.512
		C464.24,112.768,457.088,105.616,448.24,105.616z"/>
</g>
<g>
	<path style="fill:#464646;" d="M407.504,194c-4.624-5.056-10.976-7.6-19.04-7.6c-8.016,0-14.336,2.544-18.944,7.6
		c-4.624,5.088-6.944,12.896-6.944,23.408c0,10.576,2.32,18.416,6.944,23.488c4.608,5.088,11.008,7.6,19.184,7.6
		c7.92,0,14.176-2.512,18.8-7.6c4.608-5.088,6.928-12.912,6.928-23.488C414.432,206.88,412.112,199.072,407.504,194z
		 M393.824,232.72c-1.28,1.92-3.12,2.88-5.536,2.88c-2.352,0-4.192-0.992-5.536-2.96c-1.76-2.56-2.64-7.664-2.64-15.312
		s0.88-12.784,2.64-15.392c1.28-1.92,3.12-2.88,5.536-2.88c2.4,0,4.272,0.96,5.616,2.88c1.712,2.608,2.56,7.744,2.56,15.392
		S395.6,230.112,393.824,232.72z"/>
	<polygon style="fill:#464646;" points="372.112,124.288 309.52,248.256 326.192,248.256 388.304,124.288 	"/>
	<path style="fill:#464646;" d="M335.168,155.296c0-10.576-2.304-18.384-6.944-23.44c-4.608-5.04-11.008-7.552-19.184-7.552
		c-7.904,0-14.176,2.512-18.8,7.6c-4.608,5.088-6.928,12.864-6.928,23.408c0,10.576,2.32,18.384,6.928,23.456
		c4.624,5.04,11.024,7.552,19.2,7.552c7.904,0,14.176-2.512,18.784-7.6C332.848,173.616,335.168,165.824,335.168,155.296z
		 M314.64,170.528c-1.344,1.92-3.2,2.88-5.616,2.88c-2.352,0-4.192-0.96-5.536-2.88c-1.76-2.608-2.64-7.744-2.64-15.392
		s0.88-12.784,2.64-15.392c1.344-1.92,3.184-2.88,5.536-2.88c2.4,0,4.272,0.992,5.616,2.96c1.712,2.56,2.56,7.664,2.56,15.312
		C317.216,162.784,316.352,167.904,314.64,170.528z"/>
</g>
<g>
</g>
<g>
</g>
<g>
</g>
<g>
</g>
<g>
</g>
<g>
</g>
<g>
</g>
<g>
</g>
<g>
</g>
<g>
</g>
<g>
</g>
<g>
</g>
<g>
</g>
<g>
</g>
<g>
</g>
</svg>
