<?xml version="1.0" encoding="iso-8859-1"?>
<!-- Generator: Adobe Illustrator 19.0.0, SVG Export Plug-In . SVG Version: 6.00 Build 0)  -->
<svg version="1.1" id="Capa_1" xmlns="http://www.w3.org/2000/svg" xmlns:xlink="http://www.w3.org/1999/xlink" x="0px" y="0px"
	 viewBox="0 0 512 512" style="enable-background:new 0 0 512 512;" xml:space="preserve">
<path style="fill:#FFCC5B;" d="M43.648,149.952v223.872c0,13.184,7.04,25.36,18.448,31.952l175.44,101.28
	c5.696,3.296,12.064,4.944,18.432,4.944V272.544L43.648,149.952z"/>
<g>
	<path style="fill:#FDBC4B;" d="M468.32,149.952v223.872c0,13.2-7.04,25.36-18.48,31.92l-62.24,35.92l-113.136,65.36
		c-5.76,3.28-12.08,4.96-18.48,4.96V272.528L468.32,149.952z"/>
	<path style="fill:#FDBC4B;" d="M255.968,272.544V512c6.368,0,12.736-1.648,18.448-4.944l175.44-101.28
		c11.408-6.592,18.448-18.768,18.448-31.952V149.952L255.968,272.544z"/>
</g>
<path style="fill:#F5E2CD;" d="M255.968,33.088v239.44L43.648,149.952L237.536,37.984C243.248,34.752,249.616,33.088,255.968,33.088
	z"/>
<path style="fill:#EBCEB8;" d="M468.304,149.952L255.968,272.528V33.088c6.368,0,12.736,1.664,18.448,4.896L468.304,149.952z"/>
<g style="opacity:0.05;">
	<path style="fill:#010101;" d="M266.128,282.672l2.08-8.016L256,272.512l-8.544,11.104L43.632,165.952v127.696l131.056,75.696
		c18.88,10.88,42.96,3.2,52-16.64l29.28-64.16l-0.448-0.256l0.72,0.112l-0.272,0.16l29.28,64.16c9.04,19.84,33.2,27.52,52,16.64
		l131.056-75.616V165.968L266.128,282.672z"/>
</g>
<g>
	<path style="fill:#EC9922;" d="M256,272.512l-29.28,64.192c-9.024,19.808-33.168,27.536-52.016,16.64L26.576,267.84
		c-16.464-9.504-23.008-29.952-15.12-47.264l32.208-70.656L256,272.512z"/>
	<path style="fill:#EC9922;" d="M256,272.512l29.28,64.192c9.04,19.808,33.168,27.536,52.016,16.64l148.128-85.52
		c16.464-9.504,23.008-29.952,15.12-47.264l-32.208-70.64L256,272.512z"/>
</g>
<path style="fill:#FAEBDA;" d="M209.504,95.456c-6.096-11.008-19.968-14.96-30.96-8.864l-73.68,42.768
	c-10.992,6.096-14.96,19.968-8.848,30.96c3.888,7.008,10.912,11.12,18.352,11.632l50.864,21.536
	c11.552,4.976,24.944-0.336,29.936-11.888c4.976-11.552-0.336-24.944-11.888-29.936l-15.104-6.4l32.48-18.864
	C211.648,120.32,215.616,106.464,209.504,95.456z"/>
<path style="fill:#6F7070;" d="M302.752,94.96V0h-93.568v94.96h-34.528c-16.432,0-24.672,19.872-13.04,31.488l81.312,81.312
	c7.2,7.2,18.88,7.2,26.096,0l81.312-81.312c11.616-11.616,3.392-31.488-13.04-31.488H302.752z"/>
<path style="fill:#787878;" d="M296.576,110.496l-1.456-0.832c-11.584-6.512-26.176-2.416-32.688,9.168
	c-6.464,11.504-2.416,26.176,9.168,32.688l1.472,0.816c11.584,6.512,26.224,2.336,32.688-9.168
	C312.24,131.6,308.144,116.992,296.576,110.496z"/>
<g>
	<path style="fill:#FFDB70;" d="M184.688,458.016L134.8,429.552c-7.68-4.384-10.352-14.144-5.968-21.824
		c4.384-7.68,14.144-10.352,21.824-5.968l49.888,28.464c7.68,4.384,10.352,14.144,5.968,21.824S192.352,462.384,184.688,458.016z"/>
	<path style="fill:#FFDB70;" d="M98.128,408.64l-3.168-1.808c-7.68-4.384-10.352-14.144-5.968-21.824
		c4.384-7.68,14.16-10.352,21.824-5.968l3.168,1.808c7.68,4.384,10.352,14.144,5.968,21.824
		C115.584,410.352,105.808,413.008,98.128,408.64z"/>
</g>
<path style="fill:#F79C3A;" d="M92.24,287.328l-49.888-28.464C34.688,254.48,32,244.72,36.384,237.04
	c4.384-7.68,14.16-10.352,21.824-5.968l49.888,28.464c7.68,4.384,10.352,14.144,5.968,21.824
	C109.68,289.04,99.904,291.696,92.24,287.328z"/>
<g>
</g>
<g>
</g>
<g>
</g>
<g>
</g>
<g>
</g>
<g>
</g>
<g>
</g>
<g>
</g>
<g>
</g>
<g>
</g>
<g>
</g>
<g>
</g>
<g>
</g>
<g>
</g>
<g>
</g>
</svg>
