<?xml version="1.0" encoding="iso-8859-1"?>
<!-- Generator: Adobe Illustrator 19.0.0, SVG Export Plug-In . SVG Version: 6.00 Build 0)  -->
<svg version="1.1" id="Capa_1" xmlns="http://www.w3.org/2000/svg" xmlns:xlink="http://www.w3.org/1999/xlink" x="0px" y="0px"
	 viewBox="0 0 510.972 510.972" style="enable-background:new 0 0 510.972 510.972;" xml:space="preserve">
<path style="fill:#CACACA;" d="M36.846,30.3v189.152c0,134.96,89.072,253.728,218.64,291.52l0,0l0,0
	c129.568-37.792,218.64-156.56,218.64-291.52V30.316c0-13.632-15.488-21.104-26.416-12.96
	c-56.608,42.192-127.52,37.84-181.168-13.024c-6.096-5.776-15.84-5.776-21.92,0c-53.664,50.88-124.72,55.216-181.36,13.024
	C52.318,9.196,36.846,16.684,36.846,30.3z"/>
<path style="fill:#4B9FD8;" d="M146.206,95.42c-20.512,0-40.672-3.52-59.984-10.304v134.336
	c0,107.424,68.912,203.952,169.264,239.648V59.26C222.622,82.812,185.022,95.42,146.206,95.42z"/>
<path style="fill:#3789C9;" d="M364.846,95.42c-38.8,0-76.4-12.624-109.28-36.224c-0.016,0.016-0.048,0.032-0.08,0.064V459.1
	C355.838,423.42,424.75,326.876,424.75,219.452V85.116C405.47,91.916,385.326,95.42,364.846,95.42z"/>
<circle style="fill:#CD494C;" cx="255.486" cy="243.756" r="95.68"/>
<path style="fill:#E5E5E5;" d="M239.422,288.476c-4.368,0-8.56-1.728-11.632-4.816l-24.352-24.352
	c-6.432-6.432-6.432-16.848,0-23.28s16.848-6.432,23.28,0l12.704,12.704l44.848-44.864c6.432-6.432,16.848-6.432,23.28,0
	s6.432,16.848,0,23.28l-56.48,56.496C247.966,286.732,243.774,288.476,239.422,288.476z"/>
<path style="fill:#DAEFF6;" d="M255.486,355.916c-61.84,0-112.144-50.32-112.144-112.16s50.304-112.144,112.144-112.144
	S367.63,181.916,367.63,243.756S317.326,355.916,255.486,355.916z M255.486,164.54c-43.68,0-79.232,35.536-79.232,79.216
	c0,43.696,35.536,79.232,79.232,79.232s79.216-35.536,79.216-79.232C334.702,200.076,299.166,164.54,255.486,164.54z"/>
<g>
	<path style="fill:#D7D6D6;" d="M450.046,178.956c-9.088,0-16.464,7.36-16.464,16.464v12.752c0,9.104,7.376,16.464,16.464,16.464
		c9.088,0,16.464-7.36,16.464-16.464V195.42C466.51,186.316,459.134,178.956,450.046,178.956z"/>
	<path style="fill:#D7D6D6;" d="M450.046,58.332c-9.088,0-16.464,7.36-16.464,16.464v78.56c0,9.104,7.376,16.464,16.464,16.464
		c9.088,0,16.464-7.36,16.464-16.464v-78.56C466.51,65.692,459.134,58.332,450.046,58.332z"/>
</g>
<path style="fill:#53ACE0;" d="M125.15,110.412c-13.696,0-24.8,11.088-24.8,24.8v-1.536c0,13.712,11.104,24.8,24.8,24.8
	s24.8-11.088,24.8-24.8v1.52C149.95,121.5,138.846,110.412,125.15,110.412z"/>
<g>
</g>
<g>
</g>
<g>
</g>
<g>
</g>
<g>
</g>
<g>
</g>
<g>
</g>
<g>
</g>
<g>
</g>
<g>
</g>
<g>
</g>
<g>
</g>
<g>
</g>
<g>
</g>
<g>
</g>
</svg>
