<?xml version="1.0" encoding="iso-8859-1"?>
<!-- Generator: Adobe Illustrator 19.0.0, SVG Export Plug-In . SVG Version: 6.00 Build 0)  -->
<svg version="1.1" id="Capa_1" xmlns="http://www.w3.org/2000/svg" xmlns:xlink="http://www.w3.org/1999/xlink" x="0px" y="0px"
	 viewBox="0 0 429.862 429.862" style="enable-background:new 0 0 429.862 429.862;" xml:space="preserve">
<path style="fill:#787878;" d="M143.251,346.39l-6.096-27.456c-1.392-6.592-7.936-10.832-14.528-9.44s-10.832,7.936-9.44,14.528
	l6.112,27.44c1.408,6.592,7.936,10.832,14.528,9.44C140.403,359.51,144.659,352.982,143.251,346.39z"/>
<path style="fill:#FFCC5B;" d="M93.395,429.862L93.395,429.862c-20.016,0-37.248-14.128-41.168-33.744L26.979,269.75h85.616
	l21.968,109.904C139.747,405.638,119.875,429.862,93.395,429.862z"/>
<circle style="fill:#787878;" cx="351.539" cy="201.782" r="75.808"/>
<path style="fill:#E95454;" d="M137.059,286.998H34.515c-17.68,0-32-14.32-32-32V148.566c0-17.68,14.32-32,32-32h102.544
	L137.059,286.998L137.059,286.998z"/>
<path style="fill:#F3F3F3;" d="M329.523,4.214L137.059,116.566v170.432L329.523,399.35c3.28,1.92,6.688,2.96,10.096,3.632V0.582
	C336.195,1.254,332.787,2.31,329.523,4.214z"/>
<path style="fill:#E5E5E5;" d="M339.619,0.582v402.4c18.832,3.664,38.032-10.368,38.032-31.264V31.846
	C377.651,10.95,358.451-3.082,339.619,0.582z"/>
<path style="fill:#D64A4A;" d="M47.043,131.398c-1.776,11.104,6.752,20.672,17.52,20.672h18.752c8.304,0,14.816,6.976,14.416,15.28
	c-0.016,0.272-0.016,0.56-0.016,0.832v0.128c0.032,8.784-7.136,15.984-15.92,15.984h-25.44c-8.88,0-17.136,6.064-18.528,14.832
	c-1.776,11.104,6.752,20.672,17.52,20.672h8.88c8.448,0,15.328,6.912,15.296,15.36v0.208c0,0.336,0.016,0.672,0.032,1.024
	c0.464,8.224-6.176,15.088-14.416,15.088h-7.984c-8.88,0-17.136,6.064-18.528,14.832c-1.776,11.104,6.752,20.672,17.52,20.672
	h80.912V116.566H65.587C56.707,116.566,48.451,122.63,47.043,131.398z"/>
<g>
	<path style="fill:#FFFFFF;" d="M275.587,68.47c4.56,7.856,14.624,10.544,22.496,5.984l11.024-6.4
		c7.872-4.56,10.544-14.64,5.984-22.496s-14.624-10.544-22.496-5.984l-11.024,6.4C273.699,50.55,271.027,60.614,275.587,68.47z"/>
	<path style="fill:#FFFFFF;" d="M171.235,128.982c4.56,7.872,14.624,10.544,22.496,5.984l67.968-39.392
		c7.872-4.56,10.544-14.64,5.984-22.496c-4.56-7.872-14.624-10.544-22.496-5.984l-67.968,39.392
		C169.347,111.046,166.675,121.11,171.235,128.982z"/>
</g>
<g>
</g>
<g>
</g>
<g>
</g>
<g>
</g>
<g>
</g>
<g>
</g>
<g>
</g>
<g>
</g>
<g>
</g>
<g>
</g>
<g>
</g>
<g>
</g>
<g>
</g>
<g>
</g>
<g>
</g>
</svg>
