<?xml version="1.0" encoding="iso-8859-1"?>
<!-- Generator: Adobe Illustrator 19.0.0, SVG Export Plug-In . SVG Version: 6.00 Build 0)  -->
<svg version="1.1" id="Capa_1" xmlns="http://www.w3.org/2000/svg" xmlns:xlink="http://www.w3.org/1999/xlink" x="0px" y="0px"
	 viewBox="0 0 512 512" style="enable-background:new 0 0 512 512;" xml:space="preserve">
<path style="fill:#464646;" d="M470.544,383.112H41.456v-273.44c0-17.68,14.32-32,32-32H438.56c17.68,0,32,14.32,32,32v273.44
	H470.544z"/>
<rect x="73.44" y="109.656" style="fill:#4B9FD8;" width="365.104" height="241.44"/>
<path style="fill:#CACACA;" d="M512,383.112H0v19.216c0,17.664,14.32,32,32,32h448c17.664,0,32-14.336,32-32V383.112z"/>
<path style="fill:#E5E5E5;" d="M511.84,403.912c0.032-0.544,0.16-1.056,0.16-1.6v-19.216H0v19.216c0,0.544,0.128,1.056,0.16,1.6
	H511.84z"/>
<rect x="210.944" y="378.616" style="fill:#464646;" width="90.112" height="17.424"/>
<path style="fill:#3789C9;" d="M351.712,109.656c-9.984,0-18.08,8.096-18.08,18.08c0,9.984,8.096,18.08,18.08,18.08h24.176
	c8.368,0,15.168,6.832,15.12,15.2v0.192c0,0.368,0.016,0.736,0.032,1.104c0.496,8.24-6.032,15.184-14.288,15.184h-57.744
	c-9.792,0-18.56,7.328-19.072,17.104c-0.544,10.432,7.744,19.056,18.048,19.056h35.632c8.4,0,15.2,6.832,15.152,15.248v1.04v0.224
	c0.048,8.832-7.136,16.08-15.984,16.08h-3.68c-9.792,0-18.56,7.328-19.072,17.104c-0.544,10.432,7.744,19.056,18.048,19.056h37.088
	c8.736,0,15.248,7.328,15.152,16.064c0,0.064,0,0.144,0,0.224s0,0.144,0,0.224c0.112,8.736-6.416,16.08-15.152,16.08h-14.944
	c-9.792,0-18.56,7.328-19.072,17.104c-0.544,10.432,7.744,19.056,18.048,19.056h69.376V109.656H351.712z"/>
<circle style="fill:#ED6362;" cx="256" cy="230.392" r="80.96"/>
<g>
	<path style="fill:#54ACE0;" d="M89.024,182.184v64.704c0,8.672,7.024,15.712,15.712,15.712s15.712-7.04,15.712-15.712v-64.704
		c0-8.672-7.024-15.712-15.712-15.712C96.048,166.488,89.024,173.512,89.024,182.184z"/>
	<path style="fill:#54ACE0;" d="M89.024,140.76v1.968c0,8.672,7.024,15.712,15.712,15.712s15.712-7.04,15.712-15.712v-1.968
		c0-8.672-7.024-15.712-15.712-15.712S89.024,132.088,89.024,140.76z"/>
</g>
<path style="fill:#FFFFFF;" d="M251.68,261.88v-25.824c-8.048-2.304-13.952-5.776-17.712-10.448
	c-3.76-4.672-5.632-10.32-5.632-16.976c0-6.736,2.128-12.4,6.384-16.976s9.904-7.216,16.976-7.92v-6.096h8.944v6.096
	c6.528,0.784,11.728,3.008,15.584,6.688c3.856,3.68,6.336,8.592,7.392,14.752l-15.584,2.032c-0.944-4.848-3.408-8.128-7.392-9.856
	v24.096c9.856,2.672,16.576,6.128,20.16,10.384c3.568,4.256,5.36,9.712,5.36,16.368c0,7.44-2.256,13.696-6.752,18.8
	c-4.496,5.088-10.752,8.224-18.768,9.376v6.768h-8.96v-6.448c-7.104-0.864-12.88-3.52-17.312-7.952s-7.28-10.704-8.512-18.8
	l16.08-1.728c0.656,3.28,1.888,6.128,3.696,8.496C247.456,259.096,249.472,260.824,251.68,261.88z M251.68,197.176
	c-2.416,0.816-4.352,2.224-5.792,4.192c-1.44,1.968-2.16,4.144-2.16,6.528c0,2.176,0.656,4.208,1.968,6.064
	c1.312,1.872,3.312,3.376,5.984,4.528V197.176z M260.624,262.744c3.088-0.576,5.584-2,7.52-4.288
	c1.936-2.272,2.896-4.96,2.896-8.048c0-2.752-0.816-5.12-2.432-7.12c-1.632-2-4.288-3.52-7.984-4.592L260.624,262.744
	L260.624,262.744z"/>
<path style="fill:#FEE218;" d="M256,327.352c-53.456,0-96.96-43.504-96.96-96.96s43.488-96.96,96.96-96.96s96.96,43.504,96.96,96.96
	S309.456,327.352,256,327.352z M256,165.432c-35.808,0-64.96,29.136-64.96,64.96s29.136,64.96,64.96,64.96s64.96-29.136,64.96-64.96
	S291.808,165.432,256,165.432z"/>
<g>
</g>
<g>
</g>
<g>
</g>
<g>
</g>
<g>
</g>
<g>
</g>
<g>
</g>
<g>
</g>
<g>
</g>
<g>
</g>
<g>
</g>
<g>
</g>
<g>
</g>
<g>
</g>
<g>
</g>
</svg>
