<?xml version="1.0" encoding="iso-8859-1"?>
<!-- Generator: Adobe Illustrator 19.0.0, SVG Export Plug-In . SVG Version: 6.00 Build 0)  -->
<svg version="1.1" id="Capa_1" xmlns="http://www.w3.org/2000/svg" xmlns:xlink="http://www.w3.org/1999/xlink" x="0px" y="0px"
	 viewBox="0 0 512 512" style="enable-background:new 0 0 512 512;" xml:space="preserve">
<path style="fill:#464646;" d="M292.512,512H60.08c-17.68,0-32-14.32-32-32V118.512c0-17.68,14.32-32,32-32h232.432
	c17.68,0,32,14.32,32,32V480C324.512,497.68,310.176,512,292.512,512z"/>
<rect x="69.136" y="184.416" style="fill:#3789C9;" width="214.32" height="85.776"/>
<g style="opacity:0.1;">
	<circle style="fill:#010101;" cx="100.016" cy="334.304" r="22.944"/>
	<circle style="fill:#010101;" cx="184.224" cy="334.304" r="22.944"/>
	<circle style="fill:#010101;" cx="268.432" cy="334.304" r="22.944"/>
	<circle style="fill:#010101;" cx="100.016" cy="398.8" r="22.944"/>
	<circle style="fill:#010101;" cx="184.224" cy="398.8" r="22.944"/>
	<circle style="fill:#010101;" cx="268.432" cy="398.8" r="22.944"/>
	<circle style="fill:#010101;" cx="100.016" cy="463.28" r="22.944"/>
	<circle style="fill:#010101;" cx="184.224" cy="463.28" r="22.944"/>
	<circle style="fill:#010101;" cx="268.432" cy="463.28" r="22.944"/>
</g>
<path style="fill:#787878;" d="M268.08,151.472H84.512c-8.832,0-16-7.152-16-16s7.168-16,16-16H268.08c8.832,0,16,7.152,16,16
	C284.08,144.304,276.912,151.472,268.08,151.472z"/>
<g>
	<circle style="fill:#FFCC5B;" cx="92.08" cy="326.384" r="22.944"/>
	<circle style="fill:#FFCC5B;" cx="176.32" cy="326.384" r="22.944"/>
	<circle style="fill:#FFCC5B;" cx="260.512" cy="326.384" r="22.944"/>
	<circle style="fill:#FFCC5B;" cx="92.08" cy="390.864" r="22.944"/>
	<circle style="fill:#FFCC5B;" cx="176.32" cy="390.864" r="22.944"/>
	<circle style="fill:#FFCC5B;" cx="260.512" cy="390.864" r="22.944"/>
	<circle style="fill:#FFCC5B;" cx="92.08" cy="455.36" r="22.944"/>
	<circle style="fill:#FFCC5B;" cx="176.32" cy="455.36" r="22.944"/>
	<circle style="fill:#FFCC5B;" cx="260.512" cy="455.36" r="22.944"/>
</g>
<path style="fill:#4B9FD8;" d="M283.456,184.416h-73.12c-3.344,0-6.384,2.432-6.688,5.664c-0.4,3.84,2.64,7.088,6.384,7.088h8.656
	c3.136,0,5.664,2.528,5.568,5.664v0.512c0.208,2.944-2.128,5.36-5.168,5.36H204.4c-3.344,0-6.384,2.432-6.688,5.776
	c-0.4,3.744,2.64,6.992,6.384,6.992h14.576c3.136,0,5.664,2.528,5.568,5.664v0.512c0.208,3.04-2.128,5.472-5.168,5.472h-22.08
	c-3.344,0-6.384,2.336-6.688,5.664c-0.4,3.856,2.64,6.992,6.384,6.992h21.968c3.136,0,5.664,2.64,5.568,5.664v0.608
	c0.208,2.928-2.128,5.36-5.168,5.36h-34.944c-3.344,0-6.384,2.432-6.688,5.664c-0.4,3.84,2.64,7.088,6.384,7.088h99.6v-85.744
	H283.456z"/>
<path style="fill:#F3F3F3;" d="M204.768,0h-88.544c-17.664,0-32,14.336-32,32v103.472h184.144V63.6L204.768,0z"/>
<path style="fill:#CACACA;" d="M204.768,31.6c0,17.68,14.336,32,32,32h31.6L204.768,0V31.6z"/>
<g style="opacity:0.75;">
	<path style="fill:#FFFFFF;" d="M118.224,120.496c8.832,0,16-7.152,16-16v-31.28c0-8.848-7.168-16-16-16s-16,7.152-16,16v31.296
		C102.224,113.344,109.376,120.496,118.224,120.496z"/>
	<path style="fill:#FFFFFF;" d="M118.224,49.776c8.832,0,16-7.152,16-16v-2.8c0-8.848-7.168-16-16-16s-16,7.152-16,16v2.8
		C102.224,42.624,109.376,49.776,118.224,49.776z"/>
</g>
<path style="fill:#CD494C;" d="M451.92,447.216H324.512v-295.92H451.92c17.68,0,32,14.336,32,32v231.92
	C483.92,432.896,469.6,447.216,451.92,447.216z"/>
<g style="opacity:0.1;">
	<rect x="324.512" y="151.296" style="fill:#010101;" width="13.792" height="295.92"/>
</g>
<path style="fill:#E95454;" d="M388.224,334.144v113.12h-32v-113.12c0-8.8,7.2-16,16-16S388.224,325.344,388.224,334.144z"/>
<rect x="388.16" y="151.264" style="fill:#010101;" width="32" height="296"/>
<path style="fill:#143252;" d="M420.224,151.264v196.16c0,8.8-7.2,16-16,16s-16-7.2-16-16v-196.16H420.224z"/>
<path style="fill:#E95454;" d="M452.224,383.904v63.36c-0.16,0-0.16,0-0.32,0h-31.68v-63.36c0-8.8,7.2-16,16-16
	S452.224,375.104,452.224,383.904z"/>
<g>
</g>
<g>
</g>
<g>
</g>
<g>
</g>
<g>
</g>
<g>
</g>
<g>
</g>
<g>
</g>
<g>
</g>
<g>
</g>
<g>
</g>
<g>
</g>
<g>
</g>
<g>
</g>
<g>
</g>
</svg>
