<?xml version="1.0" encoding="iso-8859-1"?>
<!-- Generator: Adobe Illustrator 19.0.0, SVG Export Plug-In . SVG Version: 6.00 Build 0)  -->
<svg version="1.1" id="Capa_1" xmlns="http://www.w3.org/2000/svg" xmlns:xlink="http://www.w3.org/1999/xlink" x="0px" y="0px"
	 viewBox="0 0 510.272 510.272" style="enable-background:new 0 0 510.272 510.272;" xml:space="preserve">
<path style="fill:#4B9FD8;" d="M397.67,510.272H112.614c-39.888,0-70.048-36.08-62.992-75.344l55.984-310.864h299.056
	l55.984,310.864C467.718,474.192,437.558,510.272,397.67,510.272z"/>
<path style="fill:#8BD5EC;" d="M49.446,437.648c-5.216,38.176,24.208,72.624,63.168,72.624h285.04
	c38.96,0,68.384-34.448,63.168-72.624H49.446z"/>
<g>
	<circle style="fill:#464646;" cx="344.134" cy="186.464" r="29.504"/>
	<circle style="fill:#464646;" cx="166.038" cy="186.464" r="29.504"/>
</g>
<g>
	<path style="fill:#A3DDEC;" d="M191.03,458.144H94.342c-8.672,0-15.712,7.024-15.712,15.712c0,8.688,7.04,15.712,15.712,15.712
		h96.704c8.672,0,15.712-7.024,15.712-15.712C206.742,465.168,199.718,458.144,191.03,458.144z"/>
	<path style="fill:#A3DDEC;" d="M248.47,458.144h-17.968c-8.672,0-15.712,7.024-15.712,15.712c0,8.688,7.04,15.712,15.712,15.712
		h17.968c8.672,0,15.712-7.024,15.712-15.712C264.182,465.168,257.142,458.144,248.47,458.144z"/>
</g>
<path style="fill:#52AADF;" d="M138.054,224.352h-17.968c-8.672,0-15.712,7.024-15.712,15.712s7.04,15.712,15.712,15.712h17.968
	c8.672,0,15.712-7.024,15.712-15.712C153.766,231.376,146.726,224.352,138.054,224.352z"/>
<path style="fill:#FEE218;" d="M353.35,362.336l-162.496,45.52c-17.024,4.768-34.672-5.168-39.44-22.176l-16.656-59.472
	c-4.768-17.024,5.168-34.672,22.176-39.44l162.496-45.52c17.024-4.768,34.672,5.168,39.44,22.176l16.656,59.472
	C380.294,339.92,370.374,357.568,353.35,362.336z"/>
<path style="fill:#FBD513;" d="M358.87,263.424c-4.768-17.024-22.432-26.944-39.44-22.176l-33.984,9.52
	c-4.512,1.264-7.84,5.52-7.312,10.176c0.672,5.888,6.384,9.552,11.856,8.016l11.984-3.36c4.4-1.232,8.976,1.376,10.16,5.792
	l0.048,0.192c0.048,0.176,0.096,0.336,0.16,0.512c1.408,4.16-0.96,8.544-5.184,9.728l-6.448,1.808
	c-4.512,1.264-7.84,5.52-7.312,10.176c0.688,5.888,6.384,9.552,11.856,8.016l12.336-3.456c4.224-1.184,8.528,1.44,9.504,5.712
	c0.032,0.144,0.064,0.288,0.112,0.432c0.032,0.112,0.064,0.24,0.112,0.352c1.36,4.208-0.88,8.704-5.12,9.888l-28.864,8.08
	c-4.512,1.264-7.84,5.52-7.312,10.176c0.688,5.888,6.384,9.552,11.856,8.016l10.688-2.992c4.304-1.2,8.784,1.328,9.968,5.632
	l0.032,0.096c0.048,0.176,0.096,0.336,0.16,0.512c1.424,4.16-0.96,8.544-5.184,9.728l-4.064,1.136
	c-4.512,1.264-7.84,5.52-7.312,10.176c0.672,5.888,6.384,9.552,11.856,8.016l39.344-11.024c17.024-4.768,26.944-22.432,22.176-39.44
	L358.87,263.424z"/>
<g>
	<path style="fill:#464646;" d="M175.462,355.408l8.688-3.36c1.376,2.832,3.088,4.736,5.12,5.68c2.032,0.928,4.448,1.024,7.232,0.24
		c2.96-0.832,5.008-2.064,6.144-3.744c1.152-1.68,1.488-3.344,1.024-5.008c-0.304-1.072-0.864-1.904-1.712-2.48
		c-0.832-0.576-2.128-0.928-3.856-1.056c-1.168-0.064-3.808-0.048-7.904,0.064c-5.264,0.16-9.12-0.368-11.616-1.584
		c-3.488-1.712-5.744-4.368-6.752-7.984c-0.64-2.304-0.592-4.656,0.144-7.04c0.752-2.384,2.208-4.432,4.384-6.192
		c2.176-1.744,5.008-3.104,8.496-4.08c5.696-1.6,10.352-1.536,13.92,0.144c3.584,1.696,6.032,4.592,7.344,8.736l-9.056,2.96
		c-1.056-2.224-2.368-3.664-3.936-4.336c-1.584-0.656-3.664-0.624-6.24,0.112c-2.672,0.752-4.608,1.872-5.792,3.392
		c-0.784,0.976-1.008,2.048-0.672,3.232c0.304,1.072,1.008,1.856,2.144,2.368c1.44,0.656,4.528,0.88,9.28,0.672
		c4.752-0.192,8.352-0.032,10.816,0.496c2.448,0.528,4.56,1.6,6.32,3.216c1.744,1.616,3.024,3.84,3.84,6.72
		c0.72,2.592,0.688,5.248-0.128,7.92c-0.816,2.672-2.384,4.944-4.72,6.784c-2.336,1.856-5.472,3.328-9.424,4.432
		c-5.744,1.616-10.528,1.52-14.336-0.272C180.406,363.68,177.478,360.32,175.462,355.408z"/>
	<path style="fill:#464646;" d="M265.222,346.208l-9.968,2.8l-6.848-9.2l-18.16,5.088l-0.864,11.36l-9.728,2.72l4.96-50.384
		l9.696-2.72L265.222,346.208z M243.302,332.96l-10.976-15.088l-1.424,18.56L243.302,332.96z"/>
	<path style="fill:#464646;" d="M270.326,344.784l-12.624-45.056l9.168-2.576l10.48,37.408l22.8-6.384l2.144,7.648L270.326,344.784z
		"/>
	<path style="fill:#464646;" d="M308.854,333.984l-12.72-45.44l33.68-9.44l2.16,7.696l-24.512,6.864l2.816,10.064l22.816-6.384
		l2.144,7.664l-22.816,6.384l3.472,12.368l25.376-7.104l2.144,7.648L308.854,333.984z"/>
</g>
<path style="fill:#F3F3F3;" d="M255.142,0C197.254,0,150.15,47.088,150.15,104.992v81.952c0,8.848,7.168,16,16,16v-98.08
	c0-49.152,39.84-88.992,88.992-88.992s88.992,39.84,88.992,88.992v98.08c8.832,0,16-7.152,16-16v-81.968
	C360.134,47.088,313.03,0,255.142,0z"/>
<path style="fill:#E5E5E5;" d="M255.142,15.856c-49.152,0-88.992,39.84-88.992,88.992v98.08c8.832,0,16-7.152,16-16v-81.952
	c0-40.256,32.736-72.992,72.992-72.992c40.24,0,72.992,32.736,72.992,72.992v81.952c0,8.848,7.168,16,16,16v-98.08
	C344.134,55.696,304.294,15.856,255.142,15.856z"/>
<g>
</g>
<g>
</g>
<g>
</g>
<g>
</g>
<g>
</g>
<g>
</g>
<g>
</g>
<g>
</g>
<g>
</g>
<g>
</g>
<g>
</g>
<g>
</g>
<g>
</g>
<g>
</g>
<g>
</g>
</svg>
