<?xml version="1.0" encoding="iso-8859-1"?>
<!-- Generator: Adobe Illustrator 19.0.0, SVG Export Plug-In . SVG Version: 6.00 Build 0)  -->
<svg version="1.1" id="Capa_1" xmlns="http://www.w3.org/2000/svg" xmlns:xlink="http://www.w3.org/1999/xlink" x="0px" y="0px"
	 viewBox="0 0 512.032 512.032" style="enable-background:new 0 0 512.032 512.032;" xml:space="preserve">
<path style="fill:#E5E5E5;" d="M480.032,316.408h-448c-17.68,0-32-14.32-32-32V68.44c0-17.68,14.32-32,32-32h448
	c17.664,0,32,14.32,32,32v215.968C512.032,302.072,497.696,316.408,480.032,316.408z"/>
<path style="fill:#D8D9D8;" d="M448.032,68.44h-384c0,17.664-14.32,32-32,32v151.968c17.68,0,32,14.32,32,32h384
	c0-17.68,14.32-32,32-32V100.44C462.352,100.44,448.032,86.12,448.032,68.44z"/>
<g>
	<path style="fill:#E5E5E5;" d="M13.264,369.464h485.472c7.328,0,13.264-5.936,13.264-13.264s-5.936-13.264-13.264-13.264H13.264
		C5.936,342.936,0,348.872,0,356.2C0,363.528,5.936,369.464,13.264,369.464z"/>
	<path style="fill:#E5E5E5;" d="M498.736,396.008H13.264C5.936,396.008,0,401.944,0,409.272s5.936,13.264,13.264,13.264h485.472
		c7.328,0,13.264-5.936,13.264-13.264S506.064,396.008,498.736,396.008z"/>
	<path style="fill:#E5E5E5;" d="M498.736,449.064H13.264C5.936,449.064,0,455,0,462.328s5.936,13.264,13.264,13.264h485.472
		c7.328,0,13.264-5.936,13.264-13.264C512,455.016,506.064,449.064,498.736,449.064z"/>
</g>
<path style="fill:#CFCECC;" d="M448.032,68.44h-67.376c-8.048,0-15.536,5.504-16.8,13.456c-1.6,10.064,6.128,18.752,15.888,18.752
	h21.36c7.856,0,14.208,6.416,14.112,14.272v0.336c0,0.304,0,0.608,0.032,0.928c0.416,7.52-5.536,13.696-13.072,13.696h-11.504
	c-8.048,0-15.536,5.504-16.8,13.456c-1.6,10.064,6.128,18.752,15.888,18.752h22.016c7.536,0,13.44,6.32,13.072,13.856
	c-0.016,0.256-0.016,0.512-0.016,0.768c0,0.208,0,0.416,0.016,0.624c0.304,7.584-5.472,13.984-13.056,13.984H360.32
	c-8.048,0-15.536,5.504-16.8,13.456c-1.6,10.064,6.128,18.752,15.888,18.752h19.056c7.664,0,13.904,6.272,13.872,13.936v0.176
	c0,0.304,0.016,0.608,0.032,0.928c0.416,7.52-5.536,13.696-13.072,13.696h-7.232c-8.048,0-15.536,5.504-16.8,13.44
	c-1.6,10.064,6.128,18.752,15.888,18.752h76.928c0-17.68,14.32-32,32-32V100.44C462.352,100.44,448.032,86.12,448.032,68.44z"/>
<ellipse style="fill:#787878;" cx="256.016" cy="176.504" rx="58.896" ry="79.168"/>
<path style="fill:#FFFFFF;" d="M251.872,206.84v-24.832c-7.744-2.208-13.424-5.568-17.04-10.048
	c-3.616-4.48-5.424-9.936-5.424-16.336c0-6.48,2.048-11.92,6.128-16.336c4.096-4.4,9.536-6.944,16.336-7.616v-5.856h8.592v5.872
	c6.288,0.752,11.28,2.896,14.992,6.432c3.712,3.536,6.08,8.272,7.104,14.192l-14.976,1.952c-0.912-4.656-3.28-7.824-7.12-9.488
	v23.184c9.488,2.56,15.952,5.904,19.376,9.984c3.44,4.096,5.152,9.328,5.152,15.728c0,7.152-2.16,13.184-6.496,18.08
	c-4.32,4.896-10.336,7.904-18.048,9.008v6.272h-8.592v-5.968c-6.832-0.832-12.384-3.376-16.656-7.648
	c-4.272-4.272-6.992-10.288-8.176-18.08l15.472-1.664c0.64,3.168,1.824,5.888,3.552,8.176
	C247.808,204.152,249.744,205.816,251.872,206.84z M251.872,144.6c-2.336,0.784-4.192,2.128-5.568,4.032
	c-1.376,1.904-2.08,3.984-2.08,6.288c0,2.096,0.64,4.048,1.888,5.84c1.264,1.792,3.184,3.248,5.744,4.352V144.6H251.872z
	 M260.48,207.672c2.96-0.56,5.376-1.92,7.232-4.112s2.784-4.768,2.784-7.728c0-2.64-0.784-4.928-2.336-6.848
	c-1.552-1.92-4.112-3.392-7.68-4.416V207.672z"/>
<g>
	<circle style="fill:#787878;" cx="143.68" cy="176.504" r="21.888"/>
	<circle style="fill:#787878;" cx="368.336" cy="176.504" r="21.888"/>
</g>
<g>
</g>
<g>
</g>
<g>
</g>
<g>
</g>
<g>
</g>
<g>
</g>
<g>
</g>
<g>
</g>
<g>
</g>
<g>
</g>
<g>
</g>
<g>
</g>
<g>
</g>
<g>
</g>
<g>
</g>
</svg>
