<?xml version="1.0" encoding="iso-8859-1"?>
<!-- Generator: Adobe Illustrator 19.0.0, SVG Export Plug-In . SVG Version: 6.00 Build 0)  -->
<svg version="1.1" id="Capa_1" xmlns="http://www.w3.org/2000/svg" xmlns:xlink="http://www.w3.org/1999/xlink" x="0px" y="0px"
	 viewBox="0 0 512.005 512.005" style="enable-background:new 0 0 512.005 512.005;" xml:space="preserve">
<path style="fill:#3789C9;" d="M503.159,280.945L255.223,33.009c-6.672-6.832-16.448-9.936-25.904-8.384L95.575,46.657
	c-6.208,0.944-11.632,3.728-15.824,8.08c-4.656,4.192-7.76,10.08-8.848,16.608L49.031,204.929
	c-1.552,9.616,1.552,19.232,8.384,26.064l247.936,247.936c11.632,11.792,30.56,11.792,42.352,0l78.048-78.192l77.424-77.424
	C514.951,311.665,514.951,292.737,503.159,280.945z M116.055,91.665c0.16-0.16,0.16-0.16,0.304-0.304
	c9.008-8.768,22.176-10.288,30.56-6.512c1.872,0.272,7.104,2.768,11.168,6.832c28.304,28.304-14.576,69.664-42.048,42.208
	C104.263,122.225,104.263,103.297,116.055,91.665z"/>
<path style="fill:#4B9FD8;" d="M503.159,323.297l-77.424,77.424l-32.896-32.896L158.567,133.553
	c12.112-13.616,10.448-30.976-0.464-41.888c-11.392-11.392-30.048-11.68-41.744-0.304L79.751,54.737
	c4.192-4.352,9.616-7.136,15.824-8.064l133.744-22.032c9.472-1.552,19.232,1.552,25.904,8.384l247.936,247.936
	C514.951,292.737,514.951,311.665,503.159,323.297z"/>
<rect x="163.832" y="180.056" transform="matrix(0.7071 0.7071 -0.7071 0.7071 280.5967 -130.4773)" style="fill:#F3F3F3;" width="267.933" height="186.83"/>
<g>
	<path style="fill:#CACACA;" d="M244.775,172.945c-6.064,6.064-6.064,15.872,0,21.936l131.664,131.664
		c6.064,6.064,15.888,6.064,21.936,0s6.064-15.872,0-21.936L266.711,172.945C260.647,166.881,250.823,166.881,244.775,172.945z"/>
	<path style="fill:#CACACA;" d="M219.543,242.785c-6.064,6.064-6.064,15.872,0,21.936l87.04,87.04
		c6.064,6.064,15.888,6.064,21.936,0s6.064-15.872,0-21.936l-87.04-87.04C235.415,236.721,225.607,236.737,219.543,242.785z"/>
	<path style="fill:#CACACA;" d="M159.863,132.001c-4.032-22.032-14.272-39.408-29.792-48.096c-4.96,1.088-9.776,3.568-13.648,7.44
		c-0.16,0.16-0.16,0.16-0.304,0.304c-4.816,4.816-7.616,10.72-8.384,16.768c17.84,1.792,23.28,27.808,23.28,45.776
		c0,15.36-3.104,33.52-10.4,52.592c-8.064,21.568-20.48,40.656-34.128,53.216c-1.088,1.088-2.016,1.856-3.104,2.8
		c-12.416,10.544-24.672,14.592-33.664,11.168c-19.68-7.6-25.84-51.92-8.384-97.28c5.12-13.344,11.328-25.136,18.144-34.752
		c0-0.16,0-0.16,0-0.16l8.384-51.664c-22.192,14.592-42.672,41.264-55.552,75.552c-22.48,59.28-14.48,121.744,26.528,137.312
		c22.432,8.72,46.08-0.944,64.544-16.448c1.712-1.392,3.408-2.944,4.96-4.656c17.072-15.664,31.488-38.32,41.264-64.08
		C161.415,186.929,164.519,156.513,159.863,132.001z"/>
</g>
<path style="fill:#53ACE0;" d="M228.839,69.713l-62.896,9.872c-8.464,1.328-16.4-4.448-17.728-12.928
	c-1.328-8.464,4.448-16.4,12.912-17.728l62.896-9.872c8.464-1.328,16.4,4.448,17.728,12.928
	C243.095,60.449,237.303,68.385,228.839,69.713z"/>
<path style="fill:#3897D3;" d="M295.015,457.377l-44.784-45.264c-6.032-6.096-5.984-15.904,0.112-21.936
	c6.096-6.032,15.92-5.968,21.936,0.112l44.784,45.264c6.032,6.096,5.984,15.904-0.112,21.936
	C310.871,463.521,301.047,463.473,295.015,457.377z"/>
<g>
</g>
<g>
</g>
<g>
</g>
<g>
</g>
<g>
</g>
<g>
</g>
<g>
</g>
<g>
</g>
<g>
</g>
<g>
</g>
<g>
</g>
<g>
</g>
<g>
</g>
<g>
</g>
<g>
</g>
</svg>
