<?xml version="1.0" encoding="iso-8859-1"?>
<!-- Generator: Adobe Illustrator 19.0.0, SVG Export Plug-In . SVG Version: 6.00 Build 0)  -->
<svg version="1.1" id="Capa_1" xmlns="http://www.w3.org/2000/svg" xmlns:xlink="http://www.w3.org/1999/xlink" x="0px" y="0px"
	 viewBox="0 0 512 512" style="enable-background:new 0 0 512 512;" xml:space="preserve">
<path style="fill:#ED6362;" d="M34.208,254.59l48.544,208.736c5.088,21.904,24.608,37.408,47.104,37.408H382.16
	c22.496,0,42-15.504,47.104-37.408l48.544-208.736L34.208,254.59L34.208,254.59z M150.512,458.846
	c-12.4,0-23.888-9.072-25.728-20.544l-15.232-95.424c-2.352-14.736,7.52-27.04,22.128-27.04s27.728,12.304,29.248,27.04
	l9.888,95.424C172.016,449.774,162.912,458.846,150.512,458.846z M220.832,458.846c-12.4,0-23.104-9.072-23.92-20.544l-6.864-95.424
	c-1.056-14.736,9.904-27.04,24.512-27.04s26.64,12.304,26.88,27.04l1.52,95.424C243.136,449.774,233.232,458.846,220.832,458.846z
	 M315.088,438.302c-0.832,11.472-11.52,20.544-23.92,20.544s-22.304-9.072-22.112-20.544l1.52-95.424
	c0.24-14.736,12.272-27.04,26.88-27.04s25.568,12.304,24.512,27.04L315.088,438.302z M402.448,342.878l-15.232,95.424
	c-1.84,11.472-13.328,20.544-25.728,20.544s-21.504-9.072-20.32-20.544l9.888-95.424c1.536-14.736,14.64-27.04,29.248-27.04
	C394.928,315.854,404.816,328.142,402.448,342.878z"/>
<path style="fill:#CD494C;" d="M461.872,162.334H50.128C22.448,162.334,0,184.782,0,212.462v0.064
	c0,27.68,22.448,50.128,50.128,50.128h411.744c27.68,0,50.128-22.448,50.128-50.128v-0.064
	C512,184.782,489.552,162.334,461.872,162.334z"/>
<g>
	<path style="fill:#E95454;" d="M409.088,196.478l-121.424,0.016c-8.832,0-16,7.168-16,16c0,8.848,7.168,16,16,16l121.424-0.016
		c8.832,0,16-7.168,16-16C425.088,203.63,417.92,196.478,409.088,196.478z"/>
	<path style="fill:#E95454;" d="M245.44,196.51h-3.648c-8.832,0-16,7.168-16,16c0,8.848,7.168,16,16,16h3.648
		c8.832,0,16-7.168,16-16C261.44,203.662,254.272,196.51,245.44,196.51z"/>
</g>
<g>
	<path style="fill:#F89E62;" d="M190.064,13.63c-10.288-5.232-23.296-1.696-29.088,9.76L85.552,202.75
		c-5.392,10.608-1.168,23.536,9.408,28.896c10.352,5.296,23.36,1.536,29.088-9.744l75.424-179.376
		C204.864,31.886,200.608,18.974,190.064,13.63z"/>
	<path style="fill:#F89E62;" d="M426.624,203.086l-75.76-180.064c-5.456-10.704-18.496-14.752-28.896-9.392
		c-10.88,5.504-14.608,18.72-9.584,28.56l75.76,180.08c5.456,10.688,18.464,14.752,28.912,9.392
		C427.952,226.11,431.616,212.878,426.624,203.086z"/>
</g>
<circle style="fill:#FFFFFF;" cx="407.296" cy="212.494" r="33.808"/>
<circle style="fill:#F89E62;" cx="407.296" cy="212.494" r="14.032"/>
<circle style="fill:#FFFFFF;" cx="104.704" cy="212.494" r="33.808"/>
<circle style="fill:#F89E62;" cx="104.704" cy="212.494" r="14.032"/>
<g>
</g>
<g>
</g>
<g>
</g>
<g>
</g>
<g>
</g>
<g>
</g>
<g>
</g>
<g>
</g>
<g>
</g>
<g>
</g>
<g>
</g>
<g>
</g>
<g>
</g>
<g>
</g>
<g>
</g>
</svg>
