<?xml version="1.0" encoding="iso-8859-1"?>
<!-- Generator: Adobe Illustrator 19.0.0, SVG Export Plug-In . SVG Version: 6.00 Build 0)  -->
<svg version="1.1" id="Capa_1" xmlns="http://www.w3.org/2000/svg" xmlns:xlink="http://www.w3.org/1999/xlink" x="0px" y="0px"
	 viewBox="0 0 512 512" style="enable-background:new 0 0 512 512;" xml:space="preserve">
<path style="fill:#E5E5E5;" d="M262.832,0H48.016c-17.68,0-32,14.32-32,32v448c0,17.664,14.32,32,32,32h334.08
	c17.664,0,32-14.336,32-32V151.264L262.832,0z"/>
<g style="opacity:0.07;">
	<rect x="77.088" y="53.392" style="fill:#010101;" width="140.736" height="168.752"/>
</g>
<g>
	<path style="fill:#CACACA;" d="M349.648,303.728H80.464c-8.832,0-16-7.152-16-16s7.168-16,16-16h269.184c8.832,0,16,7.152,16,16
		S358.496,303.728,349.648,303.728z"/>
	<path style="fill:#CACACA;" d="M349.648,382.144H80.464c-8.832,0-16-7.152-16-16s7.168-16,16-16h269.184c8.832,0,16,7.152,16,16
		C365.648,374.992,358.496,382.144,349.648,382.144z"/>
	<path style="fill:#CACACA;" d="M284.96,460.576H145.168c-8.832,0-16-7.152-16-16s7.168-16,16-16H284.96c8.832,0,16,7.152,16,16
		C300.96,453.408,293.792,460.576,284.96,460.576z"/>
</g>
<g style="opacity:0.03;">
	<polygon style="fill:#010101;" points="271.2,140.736 414.096,283.648 414.096,151.264 	"/>
</g>
<path style="fill:#BCBCBC;" d="M262.832,119.264c0,17.68,14.32,32,32,32h119.264L262.832,0V119.264z"/>
<rect x="65.488" y="41.792" style="fill:#FFFFFF;" width="140.736" height="168.752"/>
<path style="fill:#C7C6C6;" d="M290.336,130.784c-8.832,0-16-7.152-16-16V64.256c0-8.848,7.168-16,16-16s16,7.152,16,16v50.528
	C306.336,123.632,299.168,130.784,290.336,130.784z"/>
<rect x="440.432" y="74.656" style="fill:#3789C9;" width="55.552" height="375.168"/>
<path style="fill:#E95454;" d="M468.208,23.296L468.208,23.296c-15.344,0-27.776,12.432-27.776,27.776v23.584h55.552V51.072
	C495.984,35.728,483.552,23.296,468.208,23.296z"/>
<polygon style="fill:#FFDB70;" points="495.984,449.84 440.432,449.84 468.208,498.96 "/>
<polygon style="fill:#464646;" points="481.296,475.792 468.176,498.992 455.056,475.792 "/>
<rect x="440.432" y="74.656" style="fill:#F3F3F3;" width="55.552" height="15.024"/>
<g>
	<path style="fill:#4B9FD8;" d="M471.52,197.376c-8.832,0-16,7.152-16,16v113.552c0,8.848,7.168,16,16,16s16-7.152,16-16V213.376
		C487.52,204.544,480.352,197.376,471.52,197.376z"/>
	<path style="fill:#4B9FD8;" d="M471.52,354.32c-8.832,0-16,7.152-16,16v0.72c0,8.848,7.168,16,16,16s16-7.152,16-16v-0.72
		C487.52,361.472,480.352,354.32,471.52,354.32z"/>
</g>
<g>
</g>
<g>
</g>
<g>
</g>
<g>
</g>
<g>
</g>
<g>
</g>
<g>
</g>
<g>
</g>
<g>
</g>
<g>
</g>
<g>
</g>
<g>
</g>
<g>
</g>
<g>
</g>
<g>
</g>
</svg>
