<?xml version="1.0" encoding="iso-8859-1"?>
<!-- Generator: Adobe Illustrator 19.0.0, SVG Export Plug-In . SVG Version: 6.00 Build 0)  -->
<svg version="1.1" id="Capa_1" xmlns="http://www.w3.org/2000/svg" xmlns:xlink="http://www.w3.org/1999/xlink" x="0px" y="0px"
	 viewBox="0 0 512.644 512.644" style="enable-background:new 0 0 512.644 512.644;" xml:space="preserve">
<path style="fill:#E95454;" d="M498.327,496.48l-2.112,2.112c-18.72,18.736-49.088,18.736-67.824,0l-177.28-177.28l69.92-69.92
	l177.28,177.28C517.047,447.392,517.047,477.744,498.327,496.48z"/>
<path style="fill:#CD494C;" d="M497.271,497.536L497.271,497.536c-19.312,19.312-50.608,19.312-69.92,0l69.92-69.92
	C516.583,446.912,516.583,478.224,497.271,497.536z"/>
<circle style="fill:#6F7070;" cx="212.967" cy="212.688" r="212.672"/>
<path style="fill:#EF6262;" d="M440.407,427.632l-43.488-43.488c-5.968-5.968-5.968-15.632,0-21.6c5.968-5.968,15.632-5.968,21.6,0
	l43.488,43.488c5.968,5.968,5.968,15.632,0,21.6C456.039,433.6,446.375,433.6,440.407,427.632z"/>
<path style="fill:#7B7A7A;" d="M212.967,405.728c-106.448,0-193.04-86.608-193.04-193.04c0-106.448,86.592-193.056,193.04-193.056
	s193.04,86.608,193.04,193.056S319.415,405.728,212.967,405.728z M212.967,50.208c-89.6,0-162.48,72.896-162.48,162.496
	c0,89.584,72.896,162.48,162.48,162.48c89.6,0,162.48-72.896,162.48-162.48C375.447,123.088,302.551,50.208,212.967,50.208z"/>
<circle style="fill:#4B9FD8;" cx="212.967" cy="212.688" r="141.248"/>
<g style="opacity:0.15;">
	<path style="fill:#FFFFFF;" d="M0.279,212.688c0,46.112,14.832,88.672,39.76,123.504c15.136,3.008,30.768,4.64,46.8,4.64
		c132.112,0,239.2-107.088,239.2-239.2c0-26.768-4.592-52.4-12.688-76.432C283.447,9.152,249.287,0,212.967,0
		C95.511,0.016,0.279,95.232,0.279,212.688z"/>
</g>
<g>
</g>
<g>
</g>
<g>
</g>
<g>
</g>
<g>
</g>
<g>
</g>
<g>
</g>
<g>
</g>
<g>
</g>
<g>
</g>
<g>
</g>
<g>
</g>
<g>
</g>
<g>
</g>
<g>
</g>
</svg>
