<?xml version="1.0" encoding="iso-8859-1"?>
<!-- Generator: Adobe Illustrator 19.0.0, SVG Export Plug-In . SVG Version: 6.00 Build 0)  -->
<svg version="1.1" id="Capa_1" xmlns="http://www.w3.org/2000/svg" xmlns:xlink="http://www.w3.org/1999/xlink" x="0px" y="0px"
	 viewBox="0 0 511.552 511.552" style="enable-background:new 0 0 511.552 511.552;" xml:space="preserve">
<polygon style="fill:#8BD5EC;" points="511.552,255.776 476.96,306.288 486.256,366.8 433.12,397.2 415.248,455.76 354.192,460.192 
	312.688,505.184 255.776,482.592 198.848,505.184 157.344,460.192 96.288,455.744 78.416,397.184 25.28,366.784 34.592,306.272 
	0,255.776 34.592,205.264 25.28,144.752 78.432,114.352 96.304,55.792 157.36,51.36 198.864,6.368 255.776,28.96 312.704,6.368 
	354.208,51.376 415.264,55.808 433.136,114.368 486.272,144.768 476.96,205.28 "/>
<g style="opacity:0.07;">
	<path style="fill:#010101;" d="M390.064,133.984L390.064,133.984c-0.032-0.016-0.032-0.048-0.048-0.064
		c-32.864-28.208-74.864-43.76-118.24-43.76c-100.144,0-181.616,81.488-181.616,181.616c0,61.248,30.56,117.952,81.76,151.728
		c0.32,0.208,0.672,0.272,0.992,0.464c0.416,0.272,0.848,0.56,1.312,0.752c29.12,18.88,62.72,28.64,97.6,28.64
		c100.16,0,181.6-81.44,181.6-181.6C453.424,218.784,430.224,168.544,390.064,133.984z M271.824,421.344
		c-29.44,0-57.92-8.48-82.24-24.64c-0.096-0.064-0.208-0.064-0.304-0.112c-42.016-27.84-67.12-74.464-67.12-124.816
		c0-82.496,67.12-149.616,149.616-149.616c35.728,0,70.304,12.784,97.376,36.016c33.264,28.48,52.288,69.904,52.288,113.568
		C421.424,354.304,354.224,421.344,271.824,421.344z"/>
</g>
<circle style="fill:#E95454;" cx="255.776" cy="255.776" r="165.616"/>
<path style="fill:#3789C9;" d="M90.224,255.744c0,76.8,52.32,141.28,123.2,160c13.44,3.68,27.68,5.6,42.4,5.6
	c91.52,0,165.6-74.08,165.6-165.6c0-54.88-26.72-103.52-67.68-133.6c-27.52-20.16-61.28-32-97.92-32
	C164.464,90.144,90.224,164.224,90.224,255.744z"/>
<g>
	<path style="fill:#FFFFFF;" d="M374.064,117.984L374.064,117.984c-0.032-0.016-0.032-0.048-0.048-0.064
		c-32.864-28.208-74.864-43.76-118.24-43.76c-100.144,0-181.616,81.488-181.616,181.616c0,61.248,30.56,117.952,81.76,151.728
		c0.32,0.208,0.672,0.272,0.992,0.464c0.416,0.272,0.848,0.56,1.312,0.752c29.12,18.88,62.72,28.64,97.6,28.64
		c100.16,0,181.6-81.44,181.6-181.6C437.424,202.784,414.224,152.544,374.064,117.984z M255.824,405.344
		c-29.44,0-57.92-8.48-82.24-24.64c-0.096-0.064-0.208-0.064-0.304-0.112c-42.016-27.84-67.12-74.464-67.12-124.816
		c0-82.496,67.12-149.616,149.616-149.616c35.728,0,70.304,12.784,97.376,36.016c33.264,28.48,52.288,69.904,52.288,113.568
		C405.424,338.304,338.224,405.344,255.824,405.344z"/>
	<path style="fill:#FFFFFF;" d="M159.616,210.16c0-15.456,3.392-26.864,10.16-34.32c6.784-7.456,15.968-11.152,27.568-11.152
		c11.984,0,21.376,3.696,28.144,11.088c6.784,7.424,10.176,18.88,10.176,34.384c0,15.456-3.392,26.864-10.176,34.32
		c-6.768,7.456-15.952,11.152-27.552,11.152c-11.984,0-21.376-3.696-28.16-11.088C163.008,237.136,159.616,225.68,159.616,210.16z
		 M185.36,209.936c0,11.216,1.296,18.736,3.872,22.576c1.968,2.816,4.672,4.224,8.112,4.224c3.52,0,6.256-1.408,8.224-4.224
		c2.496-3.824,3.76-11.36,3.76-22.576s-1.264-18.704-3.76-22.464c-1.968-2.896-4.704-4.336-8.224-4.336
		c-3.44,0-6.144,1.408-8.112,4.24C186.656,191.184,185.36,198.72,185.36,209.936z M222.512,346.528h-24.448l91.808-181.84h23.744
		L222.512,346.528z M275.872,301.248c0-15.424,3.392-26.864,10.176-34.32c6.768-7.424,16.048-11.152,27.792-11.152
		c11.84,0,21.136,3.728,27.92,11.152c6.768,7.456,10.16,18.912,10.16,34.32c0,15.52-3.392,27.008-10.16,34.464
		c-6.784,7.456-15.968,11.152-27.568,11.152c-11.984,0-21.376-3.696-28.144-11.152C279.264,328.256,275.872,316.768,275.872,301.248
		z M301.616,301.152c0,11.216,1.296,18.704,3.888,22.464c1.968,2.896,4.672,4.336,8.112,4.336c3.52,0,6.224-1.408,8.112-4.224
		c2.592-3.824,3.872-11.36,3.872-22.576s-1.264-18.736-3.76-22.576c-1.968-2.816-4.704-4.224-8.224-4.224s-6.224,1.408-8.112,4.224
		C302.912,282.416,301.616,289.936,301.616,301.152z"/>
</g>
<g>
</g>
<g>
</g>
<g>
</g>
<g>
</g>
<g>
</g>
<g>
</g>
<g>
</g>
<g>
</g>
<g>
</g>
<g>
</g>
<g>
</g>
<g>
</g>
<g>
</g>
<g>
</g>
<g>
</g>
</svg>
