<?xml version="1.0" encoding="iso-8859-1"?>
<!-- Generator: Adobe Illustrator 19.0.0, SVG Export Plug-In . SVG Version: 6.00 Build 0)  -->
<svg version="1.1" id="Capa_1" xmlns="http://www.w3.org/2000/svg" xmlns:xlink="http://www.w3.org/1999/xlink" x="0px" y="0px"
	 viewBox="0 0 512 512" style="enable-background:new 0 0 512 512;" xml:space="preserve">
<path style="fill:#E5E5E5;" d="M512,114.544c0-17.68-14.32-32-32-32H32c-17.68,0-32,14.32-32,32v282.912c0,17.68,14.32,32,32,32
	h399.04l80.96-80.96V114.544z"/>
<path style="fill:#CACACA;" d="M512,348.496h-48.96c-17.68,0-32,14.32-32,32v48.96L512,348.496z"/>
<g>
	<rect x="28.144" y="111.216" style="fill:#464646;" width="39.488" height="221.968"/>
	<rect x="84.16" y="111.216" style="fill:#464646;" width="23.488" height="221.968"/>
	<rect x="124.192" y="111.216" style="fill:#464646;" width="23.488" height="173.968"/>
	<rect x="164.208" y="111.216" style="fill:#464646;" width="23.488" height="173.968"/>
	<rect x="204.224" y="111.216" style="fill:#464646;" width="23.488" height="173.968"/>
	<rect x="244.256" y="111.216" style="fill:#464646;" width="23.488" height="173.968"/>
	<rect x="284.272" y="111.216" style="fill:#464646;" width="23.488" height="173.968"/>
	<rect x="324.304" y="111.216" style="fill:#464646;" width="23.488" height="173.968"/>
	<rect x="364.32" y="111.216" style="fill:#464646;" width="23.488" height="173.968"/>
</g>
<g>
	<rect x="124.192" y="302.896" style="fill:#BCBCBC;" width="23.488" height="30.288"/>
	<rect x="164.208" y="302.896" style="fill:#BCBCBC;" width="23.488" height="30.288"/>
	<rect x="204.224" y="302.896" style="fill:#BCBCBC;" width="23.488" height="30.288"/>
	<rect x="244.256" y="302.896" style="fill:#BCBCBC;" width="23.488" height="30.288"/>
	<rect x="284.272" y="302.896" style="fill:#BCBCBC;" width="23.488" height="30.288"/>
	<rect x="324.304" y="302.896" style="fill:#BCBCBC;" width="23.488" height="30.288"/>
	<rect x="364.32" y="302.896" style="fill:#BCBCBC;" width="23.488" height="30.288"/>
</g>
<g>
	<rect x="404.32" y="111.216" style="fill:#464646;" width="23.488" height="221.968"/>
	<rect x="444.368" y="111.216" style="fill:#464646;" width="39.488" height="221.968"/>
</g>
<g>
	<path style="fill:#F3F3F3;" d="M132.4,371.568H45.664c-8.832,0-16,7.152-16,16s7.168,16,16,16H132.4c8.832,0,16-7.152,16-16
		S141.232,371.568,132.4,371.568z"/>
	<path style="fill:#F3F3F3;" d="M186.032,371.568h-11.504c-8.832,0-16,7.152-16,16s7.168,16,16,16h11.504c8.832,0,16-7.152,16-16
		S194.864,371.568,186.032,371.568z"/>
</g>
<g>
</g>
<g>
</g>
<g>
</g>
<g>
</g>
<g>
</g>
<g>
</g>
<g>
</g>
<g>
</g>
<g>
</g>
<g>
</g>
<g>
</g>
<g>
</g>
<g>
</g>
<g>
</g>
<g>
</g>
</svg>
