<?xml version="1.0" encoding="iso-8859-1"?>
<!-- Generator: Adobe Illustrator 19.0.0, SVG Export Plug-In . SVG Version: 6.00 Build 0)  -->
<svg version="1.1" id="Capa_1" xmlns="http://www.w3.org/2000/svg" xmlns:xlink="http://www.w3.org/1999/xlink" x="0px" y="0px"
	 viewBox="0 0 511.429 511.429" style="enable-background:new 0 0 511.429 511.429;" xml:space="preserve">
<path style="fill:#4B9FD8;" d="M381.157,2.84c-71.952,0-130.288,58.336-130.288,130.288c0,34.608,13.584,65.968,35.584,89.296
	l-19.408,67.744l71.008-34.192c13.504,4.736,27.968,7.456,43.088,7.456c71.952,0,130.288-58.336,130.288-130.288
	C511.461,61.176,453.125,2.84,381.157,2.84z"/>
<path style="fill:#E5E5E5;" d="M395.333,405.096l-45.632-45.632c-13.952-13.952-36.576-13.952-50.544,0l-24.752,24.752l96.16,96.16
	l24.752-24.752C409.285,441.672,409.285,419.048,395.333,405.096z"/>
<path style="fill:#676666;" d="M124.405,234.216c0,0-26.336,16.784,54.576,95.408c78.624,80.912,95.408,54.576,95.408,54.576
	l96.176,96.176c-34.016,34.016-94.88,66.752-251.984-90.368C-38.539,232.888-5.803,172.04,28.213,138.024L124.405,234.216z"/>
<g>
	<path style="fill:#737373;" d="M202.917,425.624c-9.04-7.616-18.544-15.952-28.496-25.024
		c-16.096-14.656-30.912-29.088-44.032-42.864c-6.096-6.4-5.856-16.512,0.544-22.608c6.4-6.08,16.528-5.872,22.624,0.544
		c12.592,13.216,26.864,27.104,42.416,41.28c9.632,8.784,18.816,16.816,27.552,24.192c6.768,5.696,7.632,15.792,1.936,22.544
		C219.765,430.44,209.685,431.336,202.917,425.624z"/>
	<path style="fill:#737373;" d="M257.989,467.512c-5.872-3.92-12-8.208-18.416-12.912c-7.136-5.216-8.672-15.248-3.44-22.368
		c5.232-7.12,15.28-8.656,22.368-3.44c6.016,4.416,11.76,8.432,17.264,12.096c7.344,4.896,9.328,14.832,4.432,22.192
		C275.269,470.44,265.365,472.408,257.989,467.512z"/>
</g>
<path style="fill:#E5E5E5;" d="M149.157,158.92l-45.632-45.632c-13.952-13.952-36.576-13.952-50.544,0L28.245,138.04l96.16,96.16
	l24.752-24.752C163.109,195.496,163.109,172.872,149.157,158.92z"/>
<g>
	
		<rect x="12.478" y="176.026" transform="matrix(-0.7071 -0.7071 0.7071 -0.7071 8.7059 367.5626)" style="fill:#5E5F5F;" width="135.999" height="11.904"/>
	
		<rect x="258.711" y="422.128" transform="matrix(-0.7071 -0.7071 0.7071 -0.7071 255.0312 961.7969)" style="fill:#5E5F5F;" width="135.999" height="11.904"/>
</g>
<path style="fill:#56B9E9;" d="M347.813,241.544c-47.6-14.832-79.584-58.304-79.584-108.192c0-62.448,50.816-113.264,113.28-113.264
	c27.936,0,54.768,10.256,75.568,28.88c6.576,5.904,7.136,16.016,1.232,22.592c-5.888,6.576-16.016,7.136-22.592,1.248
	c-14.912-13.36-34.16-20.72-54.208-20.72c-44.816,0-81.28,36.448-81.28,81.264c0,35.792,22.944,67.008,57.104,77.632
	c8.432,2.624,13.152,11.6,10.512,20.032C365.269,239.256,356.469,244.184,347.813,241.544z"/>
<g>
	<path style="fill:#FFFFFF;" d="M381.765,154.104v14.112h-53.248c0.576-5.328,2.304-10.4,5.184-15.168s8.576-11.104,17.088-18.992
		c6.848-6.384,11.04-10.704,12.592-12.976c2.096-3.136,3.136-6.24,3.136-9.296c0-3.376-0.912-6-2.736-7.824s-4.336-2.72-7.536-2.72
		c-3.168,0-5.696,0.944-7.568,2.864s-2.96,5.088-3.248,9.52l-15.136-1.52c0.896-8.352,3.728-14.368,8.496-18
		c4.752-3.648,10.704-5.472,17.84-5.472c7.824,0,13.968,2.096,18.432,6.336c4.48,4.208,6.704,9.456,6.704,15.728
		c0,3.568-0.64,6.96-1.92,10.192s-3.312,6.592-6.08,10.128c-1.84,2.352-5.152,5.712-9.952,10.096c-4.8,4.4-7.824,7.328-9.12,8.768
		c-1.28,1.44-2.304,2.848-3.104,4.208h30.176V154.104z"/>
	<path style="fill:#FFFFFF;" d="M421.829,168.216V152.28h-32.432v-13.312l34.384-50.32h12.752v50.272h9.84v13.36h-9.84v15.936
		H421.829z M421.829,138.92v-27.088l-18.224,27.088H421.829z"/>
</g>
<g>
</g>
<g>
</g>
<g>
</g>
<g>
</g>
<g>
</g>
<g>
</g>
<g>
</g>
<g>
</g>
<g>
</g>
<g>
</g>
<g>
</g>
<g>
</g>
<g>
</g>
<g>
</g>
<g>
</g>
</svg>
