<?xml version="1.0" encoding="iso-8859-1"?>
<!-- Generator: Adobe Illustrator 19.0.0, SVG Export Plug-In . SVG Version: 6.00 Build 0)  -->
<svg version="1.1" id="Capa_1" xmlns="http://www.w3.org/2000/svg" xmlns:xlink="http://www.w3.org/1999/xlink" x="0px" y="0px"
	 viewBox="0 0 509.584 509.584" style="enable-background:new 0 0 509.584 509.584;" xml:space="preserve">
<path style="fill:#F3F3F3;" d="M410.576,163.936h-45.328v173.28h125.168v-93.44C490.416,199.68,454.656,163.936,410.576,163.936z"/>
<path style="fill:#4B9FD8;" d="M474.704,254.032V243.76c0-35.36-28.768-64.128-64.144-64.128h-29.616v74.384h93.76V254.032z"/>
<path style="fill:#FDBC4B;" d="M356.8,337.216H19.152V108.064c0-17.68,14.32-32,32-32h273.632c17.664,0,32,14.32,32,32v229.152
	H356.8z"/>
<rect y="318.464" style="fill:#6F7070;" width="509.584" height="58.608"/>
<path style="fill:#CACACA;" d="M403.248,276.384h-18.384c-2.176,0-3.92-1.76-3.92-3.936s1.76-3.92,3.92-3.92h18.384
	c2.176,0,3.92,1.76,3.92,3.92S405.424,276.384,403.248,276.384z"/>
<path style="fill:#FFCC5B;" d="M325.136,107.712h-178.32c-6.976,0-13.328,5.008-14.016,11.952c-0.8,7.984,5.44,14.704,13.264,14.704
	h24.848c6.496,0,11.76,5.312,11.696,11.824v0.288c0,0.272,0.016,0.544,0.032,0.816c0.368,6.192-4.624,11.28-10.832,11.28h-9.52
	c-6.976,0-13.328,5.024-14.016,11.952c-0.8,7.984,5.44,14.704,13.264,14.704h18.224c6.24,0,11.12,5.232,10.816,11.472
	c-0.016,0.208-0.016,0.416-0.016,0.624c0,0.24,0,0.48,0.016,0.72c0.352,6.256-4.56,11.376-10.832,11.376H137.12
	c-6.976,0-13.328,5.024-14.016,11.952c-0.8,7.984,5.44,14.704,13.264,14.704h15.776c6.352,0,11.52,5.2,11.488,11.536v0.144
	c0,0.272,0.016,0.544,0.032,0.832c0.368,6.192-4.624,11.28-10.832,11.28h-6.016c-6.976,0-13.328,5.024-14.032,11.952
	c-0.8,7.984,5.44,14.704,13.264,14.704H325.12V107.712H325.136z"/>
<path style="fill:#7B7B7B;" d="M256.576,318.464c-5.28,0-10.08,3.792-10.608,9.04c-0.608,6.032,4.112,11.12,10.032,11.12h18.784
	c4.912,0,8.896,4.016,8.832,8.928v0.208c0,0.208,0,0.416,0.016,0.624c0.288,4.688-3.488,8.528-8.192,8.528h-7.2
	c-5.28,0-10.08,3.792-10.608,9.04c-0.608,6.032,4.112,11.12,10.032,11.12h241.904v-58.608H256.576z"/>
<circle style="fill:#464646;" cx="92.432" cy="385.36" r="48.16"/>
<circle style="fill:#CACACA;" cx="92.432" cy="385.36" r="19.36"/>
<circle style="fill:#464646;" cx="427.824" cy="385.36" r="48.16"/>
<circle style="fill:#CACACA;" cx="427.824" cy="385.36" r="19.36"/>
<g>
	<path style="fill:#FFCC5B;" d="M50.512,164.864v48.704c0,8.672,7.024,15.712,15.712,15.712s15.712-7.04,15.712-15.712v-48.704
		c0-8.672-7.024-15.712-15.712-15.712S50.512,156.192,50.512,164.864z"/>
	<path style="fill:#FFCC5B;" d="M50.512,123.424v1.968c0,8.672,7.024,15.712,15.712,15.712s15.712-7.04,15.712-15.712v-1.968
		c0-8.672-7.024-15.712-15.712-15.712S50.512,114.752,50.512,123.424z"/>
</g>
<g>
</g>
<g>
</g>
<g>
</g>
<g>
</g>
<g>
</g>
<g>
</g>
<g>
</g>
<g>
</g>
<g>
</g>
<g>
</g>
<g>
</g>
<g>
</g>
<g>
</g>
<g>
</g>
<g>
</g>
</svg>
