<?xml version="1.0" encoding="iso-8859-1"?>
<!-- Generator: Adobe Illustrator 19.0.0, SVG Export Plug-In . SVG Version: 6.00 Build 0)  -->
<svg version="1.1" id="Capa_1" xmlns="http://www.w3.org/2000/svg" xmlns:xlink="http://www.w3.org/1999/xlink" x="0px" y="0px"
	 viewBox="0 0 512 512" style="enable-background:new 0 0 512 512;" xml:space="preserve">
<path style="fill:#4B9FD8;" d="M480,371.44H32c-17.68,0-32-14.32-32-32V56.944c0-17.68,14.32-32,32-32h448c17.664,0,32,14.32,32,32
	V339.44C512,357.12,497.664,371.44,480,371.44z"/>
<path style="fill:#50A9DF;" d="M480,24.944H352.56c-12.912,0-24.928,8.816-26.96,21.584c-2.576,16.144,9.824,30.08,25.488,30.08
	h34.272c12.592,0,22.784,10.304,22.656,22.896v0.544c0,0.496,0.016,0.992,0.048,1.472c0.672,12.08-8.88,21.968-20.976,21.968H368.64
	c-12.912,0-24.928,8.816-26.96,21.584c-2.576,16.144,9.824,30.08,25.488,30.08h35.312c12.08,0,21.552,10.144,20.96,22.224
	c-0.016,0.4-0.032,0.816-0.032,1.216c0,0.336,0,0.672,0.016,1.008c0.496,12.16-8.784,22.432-20.944,22.432h-82.576
	c-12.912,0-24.928,8.816-26.96,21.584c-2.576,16.144,9.824,30.08,25.488,30.08h30.576c12.304,0,22.32,10.064,22.256,22.352v0.288
	c0,0.496,0.016,0.992,0.048,1.472c0.672,12.08-8.88,21.968-20.976,21.968H338.72c-12.912,0-24.928,8.816-26.96,21.568
	c-2.576,16.144,9.824,30.08,25.488,30.08H480c17.664,0,32-14.32,32-32V56.944C512,39.28,497.664,24.944,480,24.944z"/>
<path style="fill:#FEE218;" d="M130.752,72.96H64c-8.832,0-16,7.168-16,16v66.752c0,8.832,7.168,16,16,16h66.752
	c8.832,0,16-7.168,16-16V88.96C146.752,80.128,139.6,72.96,130.752,72.96z"/>
<path style="fill:#FFFFFF;" d="M225.392,245.44H62.784c-8.832,0-16-7.152-16-16s7.168-16,16-16h162.624c8.832,0,16,7.152,16,16
	S234.24,245.44,225.392,245.44z"/>
<path style="fill:#DAEFF6;" d="M112.496,328.832H62.784c-8.832,0-16-7.152-16-16s7.168-16,16-16h49.712c8.832,0,16,7.152,16,16
	S121.328,328.832,112.496,328.832z"/>
<path style="fill:#8BD5EC;" d="M226.624,328.832h-49.712c-8.832,0-16-7.152-16-16s7.168-16,16-16h49.712c8.832,0,16,7.152,16,16
	S235.456,328.832,226.624,328.832z"/>
<path style="fill:#DAEFF6;" d="M340.736,328.832H291.04c-8.832,0-16-7.152-16-16s7.168-16,16-16h49.712c8.832,0,16,7.152,16,16
	C356.736,321.68,349.584,328.832,340.736,328.832z"/>
<path style="fill:#8BD5EC;" d="M454.88,328.832h-49.712c-8.832,0-16-7.152-16-16s7.168-16,16-16h49.712c8.832,0,16,7.152,16,16
	S463.712,328.832,454.88,328.832z"/>
<circle style="fill:#EFCE26;" cx="97.376" cy="122.336" r="31.12"/>
<path style="fill:#50A9DF;" d="M480,24.944H352.56c-12.912,0-24.928,8.816-26.96,21.584c-2.576,16.144,9.824,30.08,25.488,30.08
	h34.272c12.592,0,22.784,10.304,22.656,22.896v0.544c0,0.496,0.016,0.992,0.048,1.472c0.672,12.08-8.88,21.968-20.976,21.968H368.64
	c-12.912,0-24.928,8.816-26.96,21.584c-2.576,16.144,9.824,30.08,25.488,30.08h35.312c12.08,0,21.552,10.144,20.96,22.224
	c-0.016,0.4-0.032,0.816-0.032,1.216c0,0.336,0,0.672,0.016,1.008c0.496,12.16-8.784,22.432-20.944,22.432h-82.576
	c-12.912,0-24.928,8.816-26.96,21.584c-2.576,16.144,9.824,30.08,25.488,30.08h30.576c12.304,0,22.32,10.064,22.256,22.352v0.288
	c0,0.496,0.016,0.992,0.048,1.472c0.672,12.08-8.88,21.968-20.976,21.968H338.72c-12.912,0-24.928,8.816-26.96,21.568
	c-2.576,16.144,9.824,30.08,25.488,30.08H480c17.664,0,32-14.32,32-32V56.944C512,39.28,497.664,24.944,480,24.944z"/>
<path style="fill:#FEE218;" d="M130.752,72.96H64c-8.832,0-16,7.168-16,16v66.752c0,8.832,7.168,16,16,16h66.752
	c8.832,0,16-7.168,16-16V88.96C146.752,80.128,139.6,72.96,130.752,72.96z"/>
<path style="fill:#FFFFFF;" d="M225.392,245.44H62.784c-8.832,0-16-7.152-16-16s7.168-16,16-16h162.624c8.832,0,16,7.152,16,16
	S234.24,245.44,225.392,245.44z"/>
<path style="fill:#DAEFF6;" d="M112.496,328.832H62.784c-8.832,0-16-7.152-16-16s7.168-16,16-16h49.712c8.832,0,16,7.152,16,16
	S121.328,328.832,112.496,328.832z"/>
<path style="fill:#8BD5EC;" d="M226.624,328.832h-49.712c-8.832,0-16-7.152-16-16s7.168-16,16-16h49.712c8.832,0,16,7.152,16,16
	S235.456,328.832,226.624,328.832z"/>
<path style="fill:#DAEFF6;" d="M340.736,328.832H291.04c-8.832,0-16-7.152-16-16s7.168-16,16-16h49.712c8.832,0,16,7.152,16,16
	C356.736,321.68,349.584,328.832,340.736,328.832z"/>
<path style="fill:#8BD5EC;" d="M454.88,328.832h-49.712c-8.832,0-16-7.152-16-16s7.168-16,16-16h49.712c8.832,0,16,7.152,16,16
	S463.712,328.832,454.88,328.832z"/>
<circle style="fill:#EFCE26;" cx="97.376" cy="122.336" r="31.12"/>
<g style="opacity:0.1;">
	<path style="fill:#010101;" d="M512,339.44v-89.472l-71.68-71.68l-47.904-8.96l-59.792,2.368l-31.072,45.12l-8.96,87.936v57.696
		l8.352,8.976H480C497.68,371.44,512,357.12,512,339.44z"/>
</g>
<path style="fill:#F3F3F3;" d="M466.272,242.304c0-50.832-41.36-92.192-92.192-92.192s-92.176,41.36-92.176,92.192v98.448h16
	v-97.664c0-42.176,34.192-76.368,76.368-76.368s76.368,34.192,76.368,76.368v97.664h15.632V242.304z"/>
<path style="fill:#E5E5E5;" d="M374.272,166.736c-42.176,0-76.368,34.192-76.368,76.368v97.664H450.64v-97.664
	C450.64,200.928,416.448,166.736,374.272,166.736z M313.904,308.768V242.32c0-33.184,27.008-60.192,60.176-60.192
	c33.184,0,60.192,27.008,60.192,60.192v66.448H313.904z"/>
<path style="fill:#787878;" d="M467.984,487.056H280.192c-17.68,0-32-14.32-32-32v-135.28c0-17.664,14.32-32,32-32h187.792
	c17.68,0,32,14.336,32,32v135.28C499.984,472.72,485.648,487.056,467.984,487.056z"/>
<path style="fill:#464646;" d="M405.392,365.888c0-17.296-14.016-31.312-31.312-31.312c-17.296,0-31.312,14.016-31.312,31.312
	c0,10.992,5.68,20.608,14.24,26.208l-7.744,48.16h49.616l-7.744-48.16C399.712,386.496,405.392,376.864,405.392,365.888z"/>
<g>
	<path style="fill:#838383;" d="M297.904,312.832c-8.832,0-16,7.152-16,16v67.264c0,8.848,7.168,16,16,16s16-7.152,16-16v-67.264
		C313.904,319.984,306.736,312.832,297.904,312.832z"/>
	<path style="fill:#838383;" d="M297.904,423.888c-8.832,0-16,7.152-16,16v9.056c0,8.848,7.168,16,16,16s16-7.152,16-16v-9.056
		C313.904,431.056,306.736,423.888,297.904,423.888z"/>
</g>
<g>
</g>
<g>
</g>
<g>
</g>
<g>
</g>
<g>
</g>
<g>
</g>
<g>
</g>
<g>
</g>
<g>
</g>
<g>
</g>
<g>
</g>
<g>
</g>
<g>
</g>
<g>
</g>
<g>
</g>
</svg>
