<?xml version="1.0" encoding="iso-8859-1"?>
<!-- Generator: Adobe Illustrator 19.0.0, SVG Export Plug-In . SVG Version: 6.00 Build 0)  -->
<svg version="1.1" id="Capa_1" xmlns="http://www.w3.org/2000/svg" xmlns:xlink="http://www.w3.org/1999/xlink" x="0px" y="0px"
	 viewBox="0 0 512 512" style="enable-background:new 0 0 512 512;" xml:space="preserve">
<path style="fill:#464646;" d="M438.544,148.24H337.552v47.904H163.504V148.24H73.44c-17.664,0-32,14.32-32,32v273.44h429.104
	V180.24C470.544,162.56,456.224,148.24,438.544,148.24z"/>
<polygon style="fill:#4B9FD8;" points="337.552,180.24 337.552,196.144 163.504,196.144 163.504,180.24 73.44,180.24 73.44,421.696 
	438.56,421.696 438.56,180.24 "/>
<path style="fill:#E5E5E5;" d="M512,453.68H0v19.216c0,17.68,14.32,32,32,32h448c17.664,0,32-14.32,32-32V453.68z"/>
<rect x="210.944" y="449.12" style="fill:#464646;" width="90.112" height="17.424"/>
<path style="fill:#3789C9;" d="M337.552,180.24v15.904H163.504V180.24H73.44v77.6c0,7.04,5.76,12.8,12.8,12.8
	c7.2,0,12.8-5.76,12.8-12.8v-17.12c0-5.92,4.96-10.72,10.88-10.72h0.8c5.92-0.48,10.88,4.16,10.88,10.08v40.96
	c0,6.88,5.12,13.12,12,13.44c7.52,0.32,13.6-5.44,13.6-12.8V256.4c0-5.92,4.8-10.72,10.72-10.72h0.96c6.24,0,11.36,5.12,11.36,11.36
	v2.56c0,7.04,5.12,13.28,12.16,13.6c7.36,0.32,13.44-5.44,13.44-12.8v-26.24c0-6.24,5.28-10.88,11.36-10.72c0.16,0,0.16,0,0.16,0
	h0.16c6.24-0.16,11.36,4.48,11.36,10.72v10.56c0,6.88,5.28,13.12,12.16,13.44c7.36,0.48,13.44-5.44,13.44-12.8l0.064-20.384
	c0-6.368,5.152-11.52,11.52-11.52c6.352,0,11.52,5.152,11.52,11.52v33.104c0.144,6.928,5.792,12.544,12.752,12.544
	c7.2,0,12.8-5.76,12.8-12.8v-17.12c0-5.92,4.96-10.72,10.88-10.72h0.8c5.92-0.48,10.88,4.16,10.88,10.08v40.96
	c0,6.88,5.12,13.12,12,13.44c7.52,0.32,13.6-5.44,13.6-12.8v-25.28c0-5.92,4.8-10.72,10.72-10.72h0.96
	c6.24,0,11.36,5.12,11.36,11.36v2.56c0,7.04,5.12,13.28,12.16,13.6c7.36,0.32,13.44-5.44,13.44-12.8v-26.24
	c0-6.24,5.12-10.88,11.36-10.72h0.32c6.24-0.16,11.36,4.48,11.36,10.72v10.56c0,6.88,5.28,13.12,12.16,13.44
	c7.36,0.48,13.44-5.44,13.44-12.8v-65.12H337.552V180.24z"/>
<g>
	<path style="fill:#54ACE0;" d="M188.96,372.288h-80.704c-8.672,0-15.712,7.024-15.712,15.712c0,8.688,7.04,15.712,15.712,15.712
		h80.704c8.672,0,15.712-7.024,15.712-15.712C204.672,379.312,197.632,372.288,188.96,372.288z"/>
	<path style="fill:#54ACE0;" d="M230.384,372.288h-1.968c-8.672,0-15.712,7.024-15.712,15.712c0,8.688,7.04,15.712,15.712,15.712
		h1.968c8.672,0,15.712-7.024,15.712-15.712C246.096,379.312,239.072,372.288,230.384,372.288z"/>
</g>
<g>
	<path style="fill:#DCDBDB;" d="M424.672,463.584h-80.704c-8.672,0-15.712,7.024-15.712,15.712c0,8.688,7.04,15.712,15.712,15.712
		h80.704c8.672,0,15.712-7.024,15.712-15.712S433.344,463.584,424.672,463.584z"/>
	<path style="fill:#DCDBDB;" d="M466.112,463.584h-1.968c-8.672,0-15.712,7.024-15.712,15.712c0,8.688,7.04,15.712,15.712,15.712
		h1.968c8.672,0,15.712-7.024,15.712-15.712S474.784,463.584,466.112,463.584z"/>
</g>
<path style="fill:#E86F3E;" d="M256,7.104c-67.296,0-121.84,54.544-121.84,121.84S256,343.248,256,343.248
	s121.84-147.024,121.84-214.304S323.28,7.104,256,7.104z M256,190.96c-34.256,0-62.016-27.76-62.016-62.016
	S221.744,66.928,256,66.928s62.016,27.76,62.016,62.016C318.016,163.184,290.256,190.96,256,190.96z"/>
<path style="fill:#DD653C;" d="M193.984,128.944c0-34.256,27.76-62.016,62.016-62.016V7.104c-67.296,0-121.84,54.544-121.84,121.84
	S256,343.248,256,343.248V190.96C221.744,190.96,193.984,163.184,193.984,128.944z"/>
<path style="fill:#EE7F5E;" d="M256,235.824c-58.944,0-106.88-47.952-106.88-106.896C149.12,70,197.072,22.048,256,22.048
	c58.944,0,106.88,47.936,106.88,106.88S314.944,235.824,256,235.824z M256,54.064c-41.296,0-74.88,33.6-74.88,74.88
	c0,41.296,33.6,74.896,74.88,74.896s74.88-33.6,74.88-74.896S297.28,54.064,256,54.064z"/>
<g>
</g>
<g>
</g>
<g>
</g>
<g>
</g>
<g>
</g>
<g>
</g>
<g>
</g>
<g>
</g>
<g>
</g>
<g>
</g>
<g>
</g>
<g>
</g>
<g>
</g>
<g>
</g>
<g>
</g>
</svg>
