<?xml version="1.0" encoding="iso-8859-1"?>
<!-- Generator: Adobe Illustrator 19.0.0, SVG Export Plug-In . SVG Version: 6.00 Build 0)  -->
<svg version="1.1" id="Capa_1" xmlns="http://www.w3.org/2000/svg" xmlns:xlink="http://www.w3.org/1999/xlink" x="0px" y="0px"
	 viewBox="0 0 512.066 512.066" style="enable-background:new 0 0 512.066 512.066;" xml:space="preserve">
<path style="fill:#464646;" d="M478.625,157.554H33.345v310.512c0,24.304,19.696,44,44,44h357.28c24.304,0,44-19.696,44-44
	L478.625,157.554L478.625,157.554z"/>
<path style="fill:#6F7070;" d="M434.625,109.138H77.361c-24.304,0-44.016,19.696-44.016,44.016l0,0
	c0,24.304,19.696,44.016,44.016,44.016h401.264v-44.032C478.625,128.834,458.929,109.138,434.625,109.138z"/>
<path style="fill:#CACACA;" d="M368.529,142.05l-13.76,10.4H74.289L265.169,6.69c14.08-10.72,34.08-8.16,44.8,5.92l2.08,2.72
	l6.08,7.84l28.48,37.28l28,36.64C385.329,111.17,382.609,131.17,368.529,142.05z"/>
<path style="fill:#E5E5E5;" d="M307.713,152.434l38.32-29.28c-5.36-7.024-4.016-17.072,3.008-22.432l-49.312-64.528
	c-7.024,5.36-17.056,4.016-22.432-3.008L121.233,152.434H307.713z"/>
<path style="fill:#CACACA;" d="M239.441,152.434c-1.76-7.632-5.44-15.568-11.024-22.88c-15.136-19.808-38.384-27.472-51.92-17.136
	c-10.336,7.904-11.968,24.016-5.456,40.016H239.441z"/>
<path style="fill:#BEE1C9;" d="M182.737,148.082c1.456,1.92,3.184,3.28,5.04,4.352h22.8l-1.344-1.76c2.16-0.832,4-1.088,5.504-0.72
	c1.472,0.352,2.704,1.2,3.712,2.48h9.568c-0.56-2.256-1.488-4.464-3.072-6.544c-2.432-3.184-5.296-5.152-8.576-5.888
	c-3.264-0.72-7.76,0.08-13.472,2.4l-8.816-11.552c2.544-0.64,4.928,0.048,7.152,2.016l6.72-6.688
	c-2.768-2.56-5.744-4.016-8.944-4.368s-6.496,0.496-9.92,2.496l-2.224-2.928l-4.272,3.296l2.224,2.912
	c-3.136,2.928-4.88,6.256-5.232,10.016C179.217,141.362,180.273,144.866,182.737,148.082z M189.745,134.05l7.808,10.208
	c-1.696,0.432-3.216,0.432-4.528,0.016s-2.368-1.152-3.168-2.192c-0.864-1.136-1.312-2.448-1.344-3.92
	C188.465,136.706,188.881,135.314,189.745,134.05z"/>
<g style="opacity:0.07;">
	<path style="fill:#010101;" d="M352.529,142.05l-13.76,10.4h-205.92l179.2-137.12l6.08,7.84l28.48,37.28l12,36.64
		C369.329,111.17,366.609,131.17,352.529,142.05z"/>
</g>
<circle style="fill:#84CA9B;" cx="257.153" cy="107.666" r="12.4"/>
<path style="fill:#CACACA;" d="M429.329,152.434l13.76-10.512c14.048-10.736,16.736-30.816,6-44.864l-64.544-84.48
	c-10.736-14.048-30.816-16.736-44.848-6L148.801,152.434H429.329z"/>
<path style="fill:#E5E5E5;" d="M382.305,152.434l38.32-29.28c-5.36-7.024-4.016-17.072,3.008-22.432l-49.312-64.528
	c-7.024,5.36-17.056,4.016-22.432-3.008L195.825,152.418h186.48V152.434z"/>
<path style="fill:#CACACA;" d="M314.033,152.434c-1.76-7.632-5.44-15.568-11.024-22.88c-15.136-19.808-38.384-27.472-51.92-17.136
	c-10.336,7.904-11.968,24.016-5.456,40.016H314.033z"/>
<path style="fill:#E5E5E5;" d="M257.329,148.082c1.456,1.92,3.184,3.28,5.04,4.352h22.8l-1.344-1.76c2.16-0.832,4-1.088,5.504-0.72
	c1.488,0.352,2.704,1.2,3.712,2.48h9.568c-0.56-2.256-1.472-4.464-3.072-6.544c-2.432-3.184-5.296-5.152-8.56-5.888
	c-3.264-0.72-7.76,0.08-13.472,2.4l-8.816-11.552c2.544-0.64,4.928,0.048,7.152,2.016l6.72-6.688
	c-2.768-2.56-5.744-4.016-8.944-4.368s-6.496,0.496-9.92,2.496l-2.224-2.928l-4.288,3.296l2.224,2.912
	c-3.136,2.928-4.88,6.256-5.248,10.016C253.809,141.362,254.865,144.866,257.329,148.082z M264.337,134.05l7.808,10.208
	c-1.696,0.432-3.216,0.432-4.528,0.016s-2.368-1.152-3.168-2.192c-0.864-1.136-1.312-2.448-1.344-3.92
	C263.057,136.706,263.473,135.314,264.337,134.05z"/>
<circle style="fill:#CACACA;" cx="331.665" cy="107.666" r="12.4"/>
<path style="fill:#3E3E3E;" d="M81.345,446.53V231.97c0-8.832,7.168-16,16-16h317.28c8.832,0,16,7.168,16,16v214.56
	c0,8.832-7.168,16-16,16H97.345C88.513,462.53,81.345,455.362,81.345,446.53z"/>
<path style="fill:#CD494C;" d="M383.169,296.978c-23.328,0-42.24,18.912-42.24,42.224c0,23.328,18.912,42.24,42.24,42.24h95.552
	v-84.464H383.169z"/>
<circle style="fill:#EBCEB8;" cx="385.793" cy="339.234" r="24.048"/>
<g style="opacity:0.2;">
	<circle style="fill:#FFFFFF;" cx="381.393" cy="334.834" r="13.104"/>
</g>
<g style="opacity:0.07;">
	<path style="fill:#010101;" d="M358.785,373.57h-0.16l114.816,114.816c3.2-6.112,5.184-12.944,5.184-20.32V382.85h-91.04
		C376.865,382.85,366.945,379.33,358.785,373.57z"/>
</g>
<path style="fill:#E5E5E5;" d="M188.145,388.274V347.81c-12.624-3.616-21.872-9.056-27.776-16.368
	c-5.872-7.312-8.832-16.192-8.832-26.624c0-10.544,3.344-19.424,9.984-26.608c6.688-7.168,15.536-11.312,26.624-12.416v-9.552h14
	v9.552c10.24,1.248,18.384,4.72,24.432,10.48c6.064,5.776,9.92,13.472,11.584,23.136l-24.432,3.2
	c-1.472-7.584-5.344-12.752-11.584-15.456v37.76c15.456,4.192,25.984,9.632,31.584,16.288c5.6,6.672,8.4,15.232,8.4,25.664
	c0,11.648-3.536,21.472-10.576,29.44c-7.056,7.968-16.864,12.896-29.424,14.688v11.2h-14v-10.72
	c-11.136-1.328-20.192-5.488-27.136-12.448c-6.96-6.96-11.392-16.784-13.328-29.44l25.216-2.704c1.04,5.136,2.96,9.584,5.792,13.296
	C181.505,383.922,184.673,386.626,188.145,388.274z M188.145,286.882c-3.792,1.264-6.832,3.472-9.088,6.56s-3.376,6.48-3.376,10.208
	c0,3.424,1.04,6.592,3.088,9.52c2.048,2.928,5.184,5.296,9.376,7.088V286.882z M202.161,389.65
	c4.832-0.912,8.768-3.152,11.792-6.736c3.024-3.568,4.544-7.776,4.544-12.592c0-4.336-1.264-8.064-3.824-11.184
	c-2.544-3.12-6.704-5.52-12.496-7.2v37.712H202.161z"/>
<g>
	<path style="fill:#464646;" d="M123.025,301.426v-55.728c0-7.136-5.776-12.912-12.912-12.912s-12.912,5.776-12.912,12.912v55.728
		c0,7.136,5.776,12.912,12.912,12.912C117.249,314.338,123.025,308.562,123.025,301.426z"/>
	<path style="fill:#464646;" d="M123.025,348.738v-4.784c0-7.136-5.776-12.912-12.912-12.912s-12.912,5.776-12.912,12.912v4.784
		c0,7.136,5.776,12.912,12.912,12.912C117.249,361.65,123.025,355.858,123.025,348.738z"/>
</g>
<g>
	<path style="fill:#4D4D4D;" d="M278.801,501.186h151.728c7.136,0,12.912-5.776,12.912-12.912s-5.776-12.912-12.912-12.912H278.801
		c-7.136,0-12.912,5.776-12.912,12.912C265.889,495.41,271.665,501.186,278.801,501.186z"/>
	<path style="fill:#4D4D4D;" d="M231.489,501.186h4.8c7.136,0,12.912-5.776,12.912-12.912s-5.776-12.912-12.912-12.912h-4.8
		c-7.136,0-12.912,5.776-12.912,12.912C218.577,495.41,224.369,501.186,231.489,501.186z"/>
</g>
<path style="fill:#7B7B7B;" d="M425.537,173.554H86.433c-8.832,0-16-7.152-16-16s7.168-16,16-16h339.088c8.832,0,16,7.152,16,16
	C441.537,166.386,434.369,173.554,425.537,173.554z"/>
<g>
</g>
<g>
</g>
<g>
</g>
<g>
</g>
<g>
</g>
<g>
</g>
<g>
</g>
<g>
</g>
<g>
</g>
<g>
</g>
<g>
</g>
<g>
</g>
<g>
</g>
<g>
</g>
<g>
</g>
</svg>
