<?xml version="1.0" encoding="iso-8859-1"?>
<!-- Generator: Adobe Illustrator 19.0.0, SVG Export Plug-In . SVG Version: 6.00 Build 0)  -->
<svg version="1.1" id="Capa_1" xmlns="http://www.w3.org/2000/svg" xmlns:xlink="http://www.w3.org/1999/xlink" x="0px" y="0px"
	 viewBox="0 0 512 512" style="enable-background:new 0 0 512 512;" xml:space="preserve">
<path style="fill:#E5E5E5;" d="M440.44,512H71.544c-17.68,0-32-14.336-32-32V32c0-17.68,14.32-32,32-32h368.912
	c17.664,0,32,14.32,32,32v448C472.44,497.68,458.12,512,440.44,512z"/>
<g style="opacity:0.07;">
	<path style="fill:#010101;" d="M92.872,141.312V85.328c0-17.664,14.32-32,32-32h283.584c17.68,0,32,14.336,32,32v55.984
		c0,17.68-14.32,32-32,32H124.872C107.192,173.312,92.872,158.992,92.872,141.312z"/>
</g>
<g style="opacity:0.07;">
	<path style="fill:#010101;" d="M166.072,215.984H114.2c-11.776,0-21.328,9.552-21.328,21.328v24
		c0,11.776,9.552,21.328,21.328,21.328h51.872c11.776,0,21.328-9.552,21.328-21.328v-24
		C187.416,225.536,177.864,215.984,166.072,215.984z"/>
	<path style="fill:#010101;" d="M292.616,215.984h-51.872c-11.776,0-21.328,9.552-21.328,21.328v24
		c0,11.776,9.552,21.328,21.328,21.328h51.872c11.776,0,21.328-9.552,21.328-21.328v-24
		C313.96,225.536,304.408,215.984,292.616,215.984z"/>
	<path style="fill:#010101;" d="M419.16,215.984h-51.872c-11.776,0-21.328,9.552-21.328,21.328v24
		c0,11.776,9.552,21.328,21.328,21.328h51.872c11.776,0,21.328-9.552,21.328-21.328v-24
		C440.488,225.536,430.936,215.984,419.16,215.984z"/>
	<path style="fill:#010101;" d="M166.072,314.656H114.2c-11.776,0-21.328,9.552-21.328,21.328v24
		c0,11.776,9.552,21.328,21.328,21.328h51.872c11.776,0,21.328-9.552,21.328-21.328v-24
		C187.416,324.208,177.864,314.656,166.072,314.656z"/>
	<path style="fill:#010101;" d="M166.072,413.312H114.2c-11.776,0-21.328,9.552-21.328,21.328v24
		c0,11.776,9.552,21.328,21.328,21.328h51.872c11.776,0,21.328-9.552,21.328-21.328v-24
		C187.416,422.864,177.864,413.312,166.072,413.312z"/>
	<path style="fill:#010101;" d="M292.616,314.656h-51.872c-11.776,0-21.328,9.552-21.328,21.328v122.672
		c0,11.776,9.552,21.328,21.328,21.328h51.872c11.776,0,21.328-9.552,21.328-21.328V335.984
		C313.96,324.208,304.408,314.656,292.616,314.656z"/>
	<path style="fill:#010101;" d="M419.16,314.656h-51.872c-11.776,0-21.328,9.552-21.328,21.328v122.672
		c0,11.776,9.552,21.328,21.328,21.328h51.872c11.776,0,21.328-9.552,21.328-21.328V335.984
		C440.488,324.208,430.936,314.656,419.16,314.656z"/>
</g>
<path style="fill:#3789C9;" d="M82.2,130.656v-56c0-17.68,14.32-32,32-32h283.584c17.68,0,32,14.32,32,32v55.984
	c0,17.68-14.32,32-32,32H114.2C96.536,162.656,82.2,148.32,82.2,130.656z"/>
<g>
	<path style="fill:#E95454;" d="M155.416,205.312h-51.888c-11.776,0-21.328,9.552-21.328,21.328v24
		c0,11.776,9.552,21.328,21.328,21.328H155.4c11.776,0,21.328-9.552,21.328-21.328v-24
		C176.744,214.864,167.192,205.312,155.416,205.312z"/>
	<path style="fill:#E95454;" d="M281.96,205.312h-51.888c-11.776,0-21.328,9.552-21.328,21.328v24
		c0,11.776,9.552,21.328,21.328,21.328h51.872c11.776,0,21.328-9.552,21.328-21.328v-24
		C303.288,214.864,293.736,205.312,281.96,205.312z"/>
	<path style="fill:#E95454;" d="M408.488,205.312h-51.872c-11.776,0-21.328,9.552-21.328,21.328v24
		c0,11.776,9.552,21.328,21.328,21.328h51.872c11.776,0,21.328-9.552,21.328-21.328v-24
		C429.832,214.864,420.28,205.312,408.488,205.312z"/>
	<path style="fill:#E95454;" d="M155.416,303.984h-51.888c-11.776,0-21.328,9.552-21.328,21.328v24
		c0,11.776,9.552,21.328,21.328,21.328H155.4c11.776,0,21.328-9.552,21.328-21.328v-24
		C176.744,313.536,167.192,303.984,155.416,303.984z"/>
	<path style="fill:#E95454;" d="M155.416,402.656h-51.888c-11.776,0-21.328,9.552-21.328,21.328v24
		c0,11.776,9.552,21.328,21.328,21.328H155.4c11.776,0,21.328-9.552,21.328-21.328v-24
		C176.744,412.208,167.192,402.656,155.416,402.656z"/>
</g>
<g>
	<path style="fill:#6F7070;" d="M281.96,303.984h-51.888c-11.776,0-21.328,9.552-21.328,21.328v122.672
		c0,11.776,9.552,21.328,21.328,21.328h51.872c11.776,0,21.328-9.552,21.328-21.328V325.312
		C303.288,313.536,293.736,303.984,281.96,303.984z"/>
	<path style="fill:#6F7070;" d="M408.488,303.984h-51.872c-11.776,0-21.328,9.552-21.328,21.328v122.672
		c0,11.776,9.552,21.328,21.328,21.328h51.872c11.776,0,21.328-9.552,21.328-21.328V325.312
		C429.832,313.536,420.28,303.984,408.488,303.984z"/>
</g>
<g>
	<path style="fill:#F3F3F3;" d="M401.064,377.44h-37.008c-5.888,0-10.672-4.768-10.672-10.672s4.784-10.672,10.672-10.672h37.008
		c5.888,0,10.672,4.768,10.672,10.672S406.952,377.44,401.064,377.44z"/>
	<path style="fill:#F3F3F3;" d="M401.064,417.184h-37.008c-5.888,0-10.672-4.768-10.672-10.672s4.784-10.672,10.672-10.672h37.008
		c5.888,0,10.672,4.768,10.672,10.672S406.952,417.184,401.064,417.184z"/>
</g>
<g>
	<circle style="fill:#ED6362;" cx="106.28" cy="225.28" r="13.408"/>
	<circle style="fill:#ED6362;" cx="106.28" cy="328.064" r="13.408"/>
	<circle style="fill:#ED6362;" cx="106.28" cy="426.736" r="13.408"/>
	<circle style="fill:#ED6362;" cx="232.824" cy="225.28" r="13.408"/>
	<circle style="fill:#ED6362;" cx="359.368" cy="225.28" r="13.408"/>
</g>
<g>
	<path style="fill:#4B9FD8;" d="M258.648,61.184L169.624,61.2c-8.832,0-16,7.168-16,16c0,8.848,7.168,16,16,16l89.024-0.016
		c8.832,0,16-7.168,16-16C274.664,68.336,267.496,61.184,258.648,61.184z"/>
	<path style="fill:#4B9FD8;" d="M127.416,61.216h-3.648c-8.832,0-16,7.168-16,16c0,8.848,7.168,16,16,16h3.648
		c8.832,0,16-7.152,16-16C143.432,68.368,136.264,61.216,127.416,61.216z"/>
</g>
<g>
</g>
<g>
</g>
<g>
</g>
<g>
</g>
<g>
</g>
<g>
</g>
<g>
</g>
<g>
</g>
<g>
</g>
<g>
</g>
<g>
</g>
<g>
</g>
<g>
</g>
<g>
</g>
<g>
</g>
</svg>
